G04 #@! TF.GenerationSoftware,KiCad,Pcbnew,(6.0.1)*
G04 #@! TF.CreationDate,2023-03-18T21:32:40+01:00*
G04 #@! TF.ProjectId,usb-magnetometer,7573622d-6d61-4676-9e65-746f6d657465,rev?*
G04 #@! TF.SameCoordinates,Original*
G04 #@! TF.FileFunction,Paste,Top*
G04 #@! TF.FilePolarity,Positive*
%FSLAX46Y46*%
G04 Gerber Fmt 4.6, Leading zero omitted, Abs format (unit mm)*
G04 Created by KiCad (PCBNEW (6.0.1)) date 2023-03-18 21:32:40*
%MOMM*%
%LPD*%
G01*
G04 APERTURE LIST*
G04 Aperture macros list*
%AMRoundRect*
0 Rectangle with rounded corners*
0 $1 Rounding radius*
0 $2 $3 $4 $5 $6 $7 $8 $9 X,Y pos of 4 corners*
0 Add a 4 corners polygon primitive as box body*
4,1,4,$2,$3,$4,$5,$6,$7,$8,$9,$2,$3,0*
0 Add four circle primitives for the rounded corners*
1,1,$1+$1,$2,$3*
1,1,$1+$1,$4,$5*
1,1,$1+$1,$6,$7*
1,1,$1+$1,$8,$9*
0 Add four rect primitives between the rounded corners*
20,1,$1+$1,$2,$3,$4,$5,0*
20,1,$1+$1,$4,$5,$6,$7,0*
20,1,$1+$1,$6,$7,$8,$9,0*
20,1,$1+$1,$8,$9,$2,$3,0*%
G04 Aperture macros list end*
%ADD10RoundRect,0.160000X-0.197500X-0.160000X0.197500X-0.160000X0.197500X0.160000X-0.197500X0.160000X0*%
%ADD11RoundRect,0.050000X0.200000X-0.100000X0.200000X0.100000X-0.200000X0.100000X-0.200000X-0.100000X0*%
%ADD12RoundRect,0.075000X0.075000X-0.662500X0.075000X0.662500X-0.075000X0.662500X-0.075000X-0.662500X0*%
%ADD13RoundRect,0.075000X0.662500X-0.075000X0.662500X0.075000X-0.662500X0.075000X-0.662500X-0.075000X0*%
%ADD14RoundRect,0.155000X0.155000X-0.212500X0.155000X0.212500X-0.155000X0.212500X-0.155000X-0.212500X0*%
%ADD15RoundRect,0.160000X-0.160000X0.197500X-0.160000X-0.197500X0.160000X-0.197500X0.160000X0.197500X0*%
%ADD16RoundRect,0.155000X-0.155000X0.212500X-0.155000X-0.212500X0.155000X-0.212500X0.155000X0.212500X0*%
%ADD17R,1.000000X1.000000*%
%ADD18RoundRect,0.160000X0.160000X-0.197500X0.160000X0.197500X-0.160000X0.197500X-0.160000X-0.197500X0*%
%ADD19R,2.000000X1.000000*%
%ADD20R,1.000000X0.520000*%
%ADD21R,1.000000X0.270000*%
%ADD22RoundRect,0.155000X0.212500X0.155000X-0.212500X0.155000X-0.212500X-0.155000X0.212500X-0.155000X0*%
%ADD23RoundRect,0.160000X0.197500X0.160000X-0.197500X0.160000X-0.197500X-0.160000X0.197500X-0.160000X0*%
%ADD24RoundRect,0.155000X-0.212500X-0.155000X0.212500X-0.155000X0.212500X0.155000X-0.212500X0.155000X0*%
%ADD25R,0.450000X1.450000*%
%ADD26RoundRect,0.050000X-0.200000X0.100000X-0.200000X-0.100000X0.200000X-0.100000X0.200000X0.100000X0*%
%ADD27R,1.200000X0.400000*%
G04 APERTURE END LIST*
D10*
X85202500Y-147700000D03*
X86397500Y-147700000D03*
D11*
X58000000Y-143150000D03*
X58000000Y-142450000D03*
D10*
X60202500Y-144100000D03*
X61397500Y-144100000D03*
D12*
X77950000Y-147462500D03*
X78450000Y-147462500D03*
X78950000Y-147462500D03*
X79450000Y-147462500D03*
X79950000Y-147462500D03*
X80450000Y-147462500D03*
X80950000Y-147462500D03*
X81450000Y-147462500D03*
X81950000Y-147462500D03*
X82450000Y-147462500D03*
X82950000Y-147462500D03*
X83450000Y-147462500D03*
D13*
X84862500Y-146050000D03*
X84862500Y-145550000D03*
X84862500Y-145050000D03*
X84862500Y-144550000D03*
X84862500Y-144050000D03*
X84862500Y-143550000D03*
X84862500Y-143050000D03*
X84862500Y-142550000D03*
X84862500Y-142050000D03*
X84862500Y-141550000D03*
X84862500Y-141050000D03*
X84862500Y-140550000D03*
D12*
X83450000Y-139137500D03*
X82950000Y-139137500D03*
X82450000Y-139137500D03*
X81950000Y-139137500D03*
X81450000Y-139137500D03*
X80950000Y-139137500D03*
X80450000Y-139137500D03*
X79950000Y-139137500D03*
X79450000Y-139137500D03*
X78950000Y-139137500D03*
X78450000Y-139137500D03*
X77950000Y-139137500D03*
D13*
X76537500Y-140550000D03*
X76537500Y-141050000D03*
X76537500Y-141550000D03*
X76537500Y-142050000D03*
X76537500Y-142550000D03*
X76537500Y-143050000D03*
X76537500Y-143550000D03*
X76537500Y-144050000D03*
X76537500Y-144550000D03*
X76537500Y-145050000D03*
X76537500Y-145550000D03*
X76537500Y-146050000D03*
D14*
X59100000Y-143000000D03*
X59100000Y-141865000D03*
D15*
X58000000Y-145802500D03*
X58000000Y-146997500D03*
D16*
X63300000Y-145832500D03*
X63300000Y-146967500D03*
D17*
X59650000Y-149600000D03*
X62150000Y-149600000D03*
D18*
X87600000Y-147697500D03*
X87600000Y-146502500D03*
D19*
X49800000Y-144500000D03*
X49800000Y-141700000D03*
D20*
X54000000Y-140000000D03*
X54000000Y-140750000D03*
D21*
X54000000Y-141350000D03*
X54000000Y-142850000D03*
X54000000Y-143850000D03*
X54000000Y-144850000D03*
D20*
X54000000Y-145450000D03*
X54000000Y-146200000D03*
X54000000Y-146200000D03*
X54000000Y-145450000D03*
D21*
X54000000Y-144350000D03*
X54000000Y-143350000D03*
X54000000Y-142350000D03*
X54000000Y-141850000D03*
D20*
X54000000Y-140750000D03*
X54000000Y-140000000D03*
D22*
X82267500Y-149550000D03*
X81132500Y-149550000D03*
D14*
X74600000Y-146967500D03*
X74600000Y-145832500D03*
D23*
X54797500Y-149300000D03*
X53602500Y-149300000D03*
D10*
X65902500Y-138300000D03*
X67097500Y-138300000D03*
X68402500Y-138300000D03*
X69597500Y-138300000D03*
D14*
X71600000Y-147135000D03*
X71600000Y-146000000D03*
D24*
X77582500Y-137400000D03*
X78717500Y-137400000D03*
D25*
X102975000Y-141100000D03*
X102325000Y-141100000D03*
X101675000Y-141100000D03*
X101025000Y-141100000D03*
X101025000Y-145500000D03*
X101675000Y-145500000D03*
X102325000Y-145500000D03*
X102975000Y-145500000D03*
D14*
X99700000Y-145467500D03*
X99700000Y-144332500D03*
D26*
X58000000Y-144082500D03*
X58000000Y-144782500D03*
D27*
X70000000Y-148957500D03*
X70000000Y-148322500D03*
X70000000Y-147687500D03*
X70000000Y-147052500D03*
X70000000Y-146417500D03*
X70000000Y-145782500D03*
X70000000Y-145147500D03*
X70000000Y-144512500D03*
X70000000Y-143877500D03*
X70000000Y-143242500D03*
X64800000Y-143242500D03*
X64800000Y-143877500D03*
X64800000Y-144512500D03*
X64800000Y-145147500D03*
X64800000Y-145782500D03*
X64800000Y-146417500D03*
X64800000Y-147052500D03*
X64800000Y-147687500D03*
X64800000Y-148322500D03*
X64800000Y-148957500D03*
D16*
X62300000Y-145832500D03*
X62300000Y-146967500D03*
D18*
X60200000Y-141897500D03*
X60200000Y-140702500D03*
D24*
X73332500Y-138300000D03*
X74467500Y-138300000D03*
D10*
X70902500Y-138300000D03*
X72097500Y-138300000D03*
D22*
X82267500Y-150600000D03*
X81132500Y-150600000D03*
D10*
X60202500Y-143032500D03*
X61397500Y-143032500D03*
D24*
X100732500Y-147200000D03*
X101867500Y-147200000D03*
X85182500Y-139200000D03*
X86317500Y-139200000D03*
D16*
X59100000Y-144165000D03*
X59100000Y-145300000D03*
D18*
X61200000Y-146997500D03*
X61200000Y-145802500D03*
D24*
X61232500Y-148100000D03*
X62367500Y-148100000D03*
M02*
