%TF.GenerationSoftware,KiCad,Pcbnew,(6.0.1)*%
%TF.CreationDate,2022-11-23T23:22:51+01:00*%
%TF.ProjectId,usb-magnetometer,7573622d-6d61-4676-9e65-746f6d657465,rev?*%
%TF.SameCoordinates,Original*%
%TF.FileFunction,Copper,L4,Bot*%
%TF.FilePolarity,Positive*%
%FSLAX46Y46*%
G04 Gerber Fmt 4.6, Leading zero omitted, Abs format (unit mm)*
G04 Created by KiCad (PCBNEW (6.0.1)) date 2022-11-23 23:22:51*
%MOMM*%
%LPD*%
G01*
G04 APERTURE LIST*
%TA.AperFunction,ComponentPad*%
%ADD10O,2.600000X1.300000*%
%TD*%
%TA.AperFunction,ComponentPad*%
%ADD11O,2.300000X1.300000*%
%TD*%
%TA.AperFunction,ComponentPad*%
%ADD12R,1.700000X1.700000*%
%TD*%
%TA.AperFunction,ComponentPad*%
%ADD13O,1.700000X1.700000*%
%TD*%
%TA.AperFunction,SMDPad,CuDef*%
%ADD14C,1.000000*%
%TD*%
%TA.AperFunction,ViaPad*%
%ADD15C,0.600000*%
%TD*%
%TA.AperFunction,Conductor*%
%ADD16C,0.250000*%
%TD*%
G04 APERTURE END LIST*
D10*
%TO.P,J1,S1,SHIELD*%
%TO.N,Net-(J1-PadS1)*%
X50100000Y-147420000D03*
D11*
X53925000Y-147420000D03*
D10*
X50100000Y-138780000D03*
D11*
X53925000Y-138780000D03*
%TD*%
D12*
%TO.P,J2,1,Pin_1*%
%TO.N,VDD*%
X62325000Y-135600000D03*
D13*
%TO.P,J2,2,Pin_2*%
%TO.N,Net-(J2-Pad2)*%
X64865000Y-135600000D03*
%TO.P,J2,3,Pin_3*%
%TO.N,Net-(J2-Pad3)*%
X67405000Y-135600000D03*
%TO.P,J2,4,Pin_4*%
%TO.N,Net-(J2-Pad4)*%
X69945000Y-135600000D03*
%TO.P,J2,5,Pin_5*%
%TO.N,GND*%
X72485000Y-135600000D03*
%TD*%
D12*
%TO.P,J3,1,Pin_1*%
%TO.N,VDD*%
X81025000Y-135650000D03*
D13*
%TO.P,J3,2,Pin_2*%
%TO.N,GND*%
X83565000Y-135650000D03*
%TD*%
D14*
%TO.P,TP2,1,1*%
%TO.N,/MCU_TX*%
X67600000Y-143850000D03*
%TD*%
%TO.P,TP9,1,1*%
%TO.N,Net-(TP9-Pad1)*%
X81500000Y-141100000D03*
%TD*%
%TO.P,TP4,1,1*%
%TO.N,/SPI_MISO*%
X86300000Y-144200000D03*
%TD*%
%TO.P,TP7,1,1*%
%TO.N,/CTS*%
X72200000Y-143900000D03*
%TD*%
%TO.P,TP6,1,1*%
%TO.N,/RTS*%
X81750000Y-148650000D03*
%TD*%
%TO.P,TP1,1,1*%
%TO.N,/MCU_RX*%
X72250000Y-141600000D03*
%TD*%
%TO.P,TP8,1,1*%
%TO.N,Net-(TP8-Pad1)*%
X79500000Y-141100000D03*
%TD*%
%TO.P,TP3,1,1*%
%TO.N,/SPI_MOSI*%
X86700000Y-142200000D03*
%TD*%
%TO.P,TP5,1,1*%
%TO.N,/MAG_INT*%
X88500000Y-147500000D03*
%TD*%
D15*
%TO.N,GND*%
X78400000Y-144200000D03*
%TO.N,/nSLEEP*%
X70303844Y-143475500D03*
X76908496Y-143430056D03*
%TO.N,/MCU_RX*%
X74264896Y-143674500D03*
%TO.N,GND*%
X86450000Y-141150000D03*
X77600000Y-136550000D03*
X110000000Y-143000000D03*
X61000000Y-142000000D03*
X88500000Y-150500000D03*
X92000000Y-143000000D03*
X98000000Y-141500000D03*
X68850000Y-140850000D03*
X85000000Y-136000000D03*
X57050000Y-152300000D03*
X87000000Y-136000000D03*
X70850000Y-140850000D03*
X136250000Y-141500000D03*
X95000000Y-139750000D03*
X101000000Y-144750000D03*
X75000000Y-136000000D03*
X97982690Y-142999999D03*
X98000000Y-144750000D03*
X67000000Y-134000000D03*
X101000000Y-141500000D03*
X59050000Y-152300000D03*
X119000000Y-144750000D03*
X85000000Y-134000000D03*
X71000000Y-134000000D03*
X116000000Y-141500000D03*
X55000000Y-136000000D03*
X113000000Y-139750000D03*
X77050000Y-152300000D03*
X56100000Y-142450000D03*
X89000000Y-144750000D03*
X87050000Y-152300000D03*
X116000000Y-144750000D03*
X128000000Y-146450000D03*
X73000000Y-134000000D03*
X110000000Y-146450000D03*
X63000000Y-142000000D03*
X135450000Y-143450000D03*
X49000000Y-148800000D03*
X55050000Y-152300000D03*
X89000000Y-141500000D03*
X113000000Y-144750000D03*
X91994968Y-141492452D03*
X59000000Y-138000000D03*
X84100000Y-148700000D03*
X131000000Y-139750000D03*
X113000000Y-141500000D03*
X116000000Y-146450000D03*
X59000000Y-136000000D03*
X89000000Y-139750000D03*
X72650000Y-145800000D03*
X77000000Y-134000000D03*
X57000000Y-139500000D03*
X55750000Y-139500000D03*
X92000000Y-144750000D03*
X89000000Y-138000000D03*
X87000000Y-134000000D03*
X110000000Y-139750000D03*
X125000000Y-144750000D03*
X49000000Y-146000000D03*
X122000000Y-143000000D03*
X51050000Y-152300000D03*
X53050000Y-152300000D03*
X82000000Y-145000000D03*
X110000000Y-144750000D03*
X79000000Y-134000000D03*
X74650000Y-150400000D03*
X61050000Y-152300000D03*
X51000000Y-134000000D03*
X95000000Y-143000000D03*
X122000000Y-144750000D03*
X72750000Y-150400000D03*
X116000000Y-143000000D03*
X107000000Y-144750000D03*
X104000000Y-144750000D03*
X95000000Y-144750000D03*
X52400000Y-141900000D03*
X95000000Y-141500000D03*
X66800000Y-144850000D03*
X65000000Y-134000000D03*
X125000000Y-141500000D03*
X71050000Y-142300000D03*
X73050000Y-152300000D03*
X87000000Y-138000000D03*
X59100000Y-145300000D03*
X81000000Y-143000000D03*
X136250000Y-143000000D03*
X55000000Y-134000000D03*
X80200000Y-151500000D03*
X98000000Y-146450000D03*
X79050000Y-152300000D03*
X57000000Y-136000000D03*
X55750000Y-147500000D03*
X49000000Y-143100000D03*
X131000000Y-146450000D03*
X63000000Y-134000000D03*
X53000000Y-149000000D03*
X71050000Y-152300000D03*
X62350000Y-144700000D03*
X56050000Y-144600000D03*
X63000000Y-138000000D03*
X101000000Y-143000000D03*
X134000000Y-146450000D03*
X63000000Y-151000000D03*
X101000000Y-139750000D03*
X68950000Y-150400000D03*
X75000000Y-134000000D03*
X104000000Y-146450000D03*
X113000000Y-143000000D03*
X85000000Y-138000000D03*
X65050000Y-152300000D03*
X92000000Y-146450000D03*
X57000000Y-138000000D03*
X121991412Y-141490428D03*
X75050000Y-152300000D03*
X125000000Y-146450000D03*
X107000000Y-139750000D03*
X125000000Y-143000000D03*
X110000000Y-141500000D03*
X61000000Y-138000000D03*
X69000000Y-134000000D03*
X92000000Y-139750000D03*
X136250000Y-146450000D03*
X122000000Y-146450000D03*
X128000000Y-139750000D03*
X104000000Y-143000000D03*
X104000000Y-141500000D03*
X83000000Y-137000000D03*
X58999015Y-150990920D03*
X51000000Y-136000000D03*
X66050000Y-141850000D03*
X90500000Y-150500000D03*
X81050000Y-152300000D03*
X59000000Y-134000000D03*
X71500000Y-145900000D03*
X63000000Y-140000000D03*
X85000000Y-135000000D03*
X69050000Y-152300000D03*
X101000000Y-146450000D03*
X136250000Y-139750000D03*
X83050000Y-152300000D03*
X122000000Y-139750000D03*
X70800000Y-150400000D03*
X125000000Y-139750000D03*
X119000000Y-141500000D03*
X76950000Y-150400000D03*
X95000000Y-146450000D03*
X98000000Y-139750000D03*
X52400000Y-143150000D03*
X104000000Y-139750000D03*
X58100000Y-140850000D03*
X134000000Y-139750000D03*
X49000000Y-140000000D03*
X89000000Y-136000000D03*
X51000000Y-149000000D03*
X57000000Y-134000000D03*
X107000000Y-143000000D03*
X119000000Y-146450000D03*
X90500000Y-148500000D03*
X113000000Y-146450000D03*
X61000000Y-134000000D03*
X136250000Y-144750000D03*
X84000000Y-137000000D03*
X66500000Y-148400000D03*
X49000000Y-137600000D03*
X107000000Y-141500000D03*
X89000000Y-143000000D03*
X84550000Y-152300000D03*
X51000000Y-151000000D03*
X55000000Y-151000000D03*
X119000000Y-139750000D03*
X119000000Y-143000000D03*
X63050000Y-152300000D03*
X67050000Y-152300000D03*
X107000000Y-146450000D03*
X116000000Y-139750000D03*
X61000000Y-140000000D03*
X83000000Y-134000000D03*
X81000000Y-134000000D03*
%TO.N,VDD*%
X135500000Y-144300000D03*
X132600000Y-146450000D03*
X71500000Y-147600000D03*
X79500000Y-136000000D03*
X64800000Y-145100000D03*
X74600000Y-147600000D03*
X86800000Y-149600000D03*
X81100000Y-151500000D03*
X79500000Y-135000000D03*
X76700000Y-136550000D03*
X71500000Y-146800000D03*
X80500000Y-137000000D03*
X86450000Y-140300000D03*
X72500000Y-147600000D03*
X81500000Y-137000000D03*
X64800000Y-144500000D03*
X72500000Y-146800000D03*
%TO.N,/nRST*%
X79900000Y-146200000D03*
X72300000Y-137500000D03*
%TO.N,Net-(J1-PadB5)*%
X57850000Y-147050000D03*
X52824407Y-144229133D03*
%TO.N,/RTS*%
X76000000Y-148300000D03*
X81723608Y-148664079D03*
%TO.N,/CTS*%
X72200000Y-143925500D03*
X76900000Y-145000000D03*
%TO.N,/RI*%
X67824500Y-146000000D03*
X76400000Y-147500000D03*
X75300000Y-149582000D03*
X67324500Y-147600000D03*
%TO.N,/MCU_RX*%
X66000000Y-147250000D03*
X64737398Y-148890826D03*
X72250000Y-141600000D03*
%TO.N,/MCU_TX*%
X67600000Y-143850000D03*
%TO.N,/SPI_SCK*%
X87771937Y-144705908D03*
X88000000Y-141500000D03*
%TO.N,/SPI_MOSI*%
X86700000Y-142200000D03*
%TO.N,/SPI_MISO*%
X86300000Y-144200000D03*
%TO.N,/MAG_INT*%
X88500000Y-147500000D03*
X134400000Y-142100000D03*
%TO.N,Net-(TP8-Pad1)*%
X79500000Y-141100000D03*
%TO.N,Net-(TP9-Pad1)*%
X81500000Y-141100000D03*
%TO.N,/VBUS*%
X52400000Y-140950000D03*
X53150000Y-140950000D03*
X55950000Y-140650000D03*
X56500000Y-149000000D03*
X57500000Y-150000000D03*
X56500000Y-150000000D03*
X52400000Y-145050000D03*
X56000000Y-145650000D03*
X53174080Y-145052617D03*
X52300000Y-145800000D03*
X57500000Y-149000000D03*
%TD*%
D16*
%TO.N,/nSLEEP*%
X71552855Y-144724511D02*
X72541525Y-144724511D01*
X70303844Y-143475500D02*
X71552855Y-144724511D01*
X73441525Y-145624511D02*
X72541525Y-144724511D01*
X77225489Y-145624511D02*
X73441525Y-145624511D01*
X77524511Y-144046071D02*
X77524511Y-145325489D01*
X76908496Y-143430056D02*
X77524511Y-144046071D01*
X77524511Y-145325489D02*
X77225489Y-145624511D01*
%TO.N,/MCU_RX*%
X72250000Y-142700000D02*
X72250000Y-141600000D01*
X73025980Y-143475980D02*
X72250000Y-142700000D01*
X74264896Y-143674500D02*
X74066376Y-143475980D01*
X74066376Y-143475980D02*
X73025980Y-143475980D01*
%TO.N,/nRST*%
X73500000Y-137500000D02*
X72300000Y-137500000D01*
X79900000Y-143900000D02*
X73500000Y-137500000D01*
X79900000Y-146200000D02*
X79900000Y-143900000D01*
%TO.N,Net-(J1-PadB5)*%
X56400000Y-147050000D02*
X57850000Y-147050000D01*
X53579133Y-144229133D02*
X56400000Y-147050000D01*
X52824407Y-144229133D02*
X53579133Y-144229133D01*
%TO.N,/RTS*%
X81659529Y-148600000D02*
X76300000Y-148600000D01*
X76300000Y-148600000D02*
X76000000Y-148300000D01*
X81723608Y-148664079D02*
X81659529Y-148600000D01*
%TO.N,/CTS*%
X76900000Y-145000000D02*
X74600000Y-145000000D01*
X74600000Y-145000000D02*
X73525500Y-143925500D01*
X73525500Y-143925500D02*
X72200000Y-143925500D01*
%TO.N,/RI*%
X67324500Y-147600000D02*
X67324500Y-146875500D01*
X67824500Y-146375500D02*
X67824500Y-146000000D01*
X76400000Y-147500000D02*
X75916807Y-147500000D01*
X75300000Y-148116807D02*
X75300000Y-149582000D01*
X67324500Y-146875500D02*
X67824500Y-146375500D01*
X75916807Y-147500000D02*
X75300000Y-148116807D01*
%TO.N,/MCU_RX*%
X66000000Y-147250000D02*
X66000000Y-147600000D01*
X64737398Y-148862602D02*
X64737398Y-148890826D01*
X66000000Y-147600000D02*
X64737398Y-148862602D01*
%TO.N,/SPI_SCK*%
X88000000Y-141500000D02*
X88000000Y-144477845D01*
X88000000Y-144477845D02*
X87771937Y-144705908D01*
%TO.N,/MAG_INT*%
X134400000Y-140900000D02*
X133900000Y-140400000D01*
X127350000Y-140400000D02*
X126250000Y-141500000D01*
X125500000Y-145500000D02*
X90500000Y-145500000D01*
X126250000Y-141500000D02*
X126250000Y-144750000D01*
X134400000Y-142100000D02*
X134400000Y-140900000D01*
X126250000Y-144750000D02*
X125500000Y-145500000D01*
X133900000Y-140400000D02*
X127350000Y-140400000D01*
X90500000Y-145500000D02*
X88500000Y-147500000D01*
%TD*%
%TA.AperFunction,Conductor*%
%TO.N,GND*%
G36*
X87535648Y-133614352D02*
G01*
X87550000Y-133649000D01*
X87550000Y-134618595D01*
X87549397Y-134626261D01*
X87545637Y-134650000D01*
X87546240Y-134653808D01*
X87546240Y-134653809D01*
X87546331Y-134654384D01*
X87546626Y-134656561D01*
X87562287Y-134795554D01*
X87583097Y-134855026D01*
X87598138Y-134898008D01*
X87610665Y-134933809D01*
X87688594Y-135057833D01*
X87792167Y-135161406D01*
X87916191Y-135239335D01*
X87918786Y-135240243D01*
X87918788Y-135240244D01*
X87947335Y-135250233D01*
X88054446Y-135287713D01*
X88057179Y-135288021D01*
X88123765Y-135295524D01*
X88134508Y-135297982D01*
X88136082Y-135298534D01*
X88136083Y-135298534D01*
X88138993Y-135299556D01*
X88142064Y-135299822D01*
X88143064Y-135299909D01*
X88143073Y-135299909D01*
X88144119Y-135300000D01*
X88160743Y-135300000D01*
X88166227Y-135300308D01*
X88193443Y-135303374D01*
X88195616Y-135303669D01*
X88196191Y-135303760D01*
X88196192Y-135303760D01*
X88200000Y-135304363D01*
X88203807Y-135303760D01*
X88205468Y-135303497D01*
X88223739Y-135300603D01*
X88231405Y-135300000D01*
X90901000Y-135300000D01*
X90935648Y-135314352D01*
X90950000Y-135349000D01*
X90950000Y-138768595D01*
X90949397Y-138776261D01*
X90945637Y-138800000D01*
X90946240Y-138803808D01*
X90946240Y-138803809D01*
X90946331Y-138804384D01*
X90946626Y-138806561D01*
X90962287Y-138945554D01*
X90963196Y-138948151D01*
X91001822Y-139058536D01*
X91010665Y-139083809D01*
X91088594Y-139207833D01*
X91192167Y-139311406D01*
X91316191Y-139389335D01*
X91318786Y-139390243D01*
X91318788Y-139390244D01*
X91385319Y-139413524D01*
X91454446Y-139437713D01*
X91457179Y-139438021D01*
X91523765Y-139445524D01*
X91534508Y-139447982D01*
X91536082Y-139448534D01*
X91536083Y-139448534D01*
X91538993Y-139449556D01*
X91542064Y-139449822D01*
X91543064Y-139449909D01*
X91543073Y-139449909D01*
X91544119Y-139450000D01*
X91560743Y-139450000D01*
X91566227Y-139450308D01*
X91593443Y-139453374D01*
X91595616Y-139453669D01*
X91596191Y-139453760D01*
X91596192Y-139453760D01*
X91600000Y-139454363D01*
X91603807Y-139453760D01*
X91605468Y-139453497D01*
X91623739Y-139450603D01*
X91631405Y-139450000D01*
X136501000Y-139450000D01*
X136535648Y-139464352D01*
X136550000Y-139499000D01*
X136550000Y-146701000D01*
X136535648Y-146735648D01*
X136501000Y-146750000D01*
X133149256Y-146750000D01*
X133114608Y-146735648D01*
X133100256Y-146701000D01*
X133103986Y-146682248D01*
X133106499Y-146676183D01*
X133129806Y-146619914D01*
X133139000Y-146597719D01*
X133139000Y-146597718D01*
X133140228Y-146594754D01*
X133145897Y-146551697D01*
X133158866Y-146453183D01*
X133159285Y-146450000D01*
X133155846Y-146423877D01*
X133140647Y-146308428D01*
X133140647Y-146308427D01*
X133140228Y-146305246D01*
X133139001Y-146302284D01*
X133139000Y-146302280D01*
X133085584Y-146173325D01*
X133084355Y-146170358D01*
X132995474Y-146054526D01*
X132879643Y-145965645D01*
X132876680Y-145964418D01*
X132876677Y-145964416D01*
X132747720Y-145911000D01*
X132747716Y-145910999D01*
X132744754Y-145909772D01*
X132741573Y-145909353D01*
X132741572Y-145909353D01*
X132603183Y-145891134D01*
X132600000Y-145890715D01*
X132596817Y-145891134D01*
X132458428Y-145909353D01*
X132458427Y-145909353D01*
X132455246Y-145909772D01*
X132452284Y-145910999D01*
X132452280Y-145911000D01*
X132363632Y-145947720D01*
X132320358Y-145965645D01*
X132204526Y-146054526D01*
X132115645Y-146170358D01*
X132114416Y-146173325D01*
X132061000Y-146302280D01*
X132060999Y-146302284D01*
X132059772Y-146305246D01*
X132059353Y-146308427D01*
X132059353Y-146308428D01*
X132044154Y-146423877D01*
X132040715Y-146450000D01*
X132041134Y-146453183D01*
X132054104Y-146551697D01*
X132059772Y-146594754D01*
X132061000Y-146597718D01*
X132061000Y-146597719D01*
X132070194Y-146619914D01*
X132093502Y-146676183D01*
X132096014Y-146682248D01*
X132096014Y-146719751D01*
X132069496Y-146746270D01*
X132050744Y-146750000D01*
X91631405Y-146750000D01*
X91623739Y-146749397D01*
X91606244Y-146746626D01*
X91600000Y-146745637D01*
X91596192Y-146746240D01*
X91596191Y-146746240D01*
X91595616Y-146746331D01*
X91593439Y-146746626D01*
X91568846Y-146749397D01*
X91454446Y-146762287D01*
X91436868Y-146768438D01*
X91318788Y-146809756D01*
X91318786Y-146809757D01*
X91316191Y-146810665D01*
X91192167Y-146888594D01*
X91088594Y-146992167D01*
X91010665Y-147116191D01*
X91009757Y-147118786D01*
X91009756Y-147118788D01*
X90995300Y-147160102D01*
X90962287Y-147254446D01*
X90961979Y-147257179D01*
X90954476Y-147323765D01*
X90952018Y-147334508D01*
X90951948Y-147334709D01*
X90950444Y-147338993D01*
X90950000Y-147344119D01*
X90950000Y-147360743D01*
X90949692Y-147366227D01*
X90946836Y-147391572D01*
X90946626Y-147393440D01*
X90946331Y-147395616D01*
X90945637Y-147400000D01*
X90946240Y-147403807D01*
X90949397Y-147423739D01*
X90950000Y-147431405D01*
X90950000Y-150851000D01*
X90935648Y-150885648D01*
X90901000Y-150900000D01*
X88231405Y-150900000D01*
X88223739Y-150899397D01*
X88206244Y-150896626D01*
X88200000Y-150895637D01*
X88196192Y-150896240D01*
X88196191Y-150896240D01*
X88195616Y-150896331D01*
X88193437Y-150896626D01*
X88054446Y-150912287D01*
X88025391Y-150922454D01*
X87918788Y-150959756D01*
X87918786Y-150959757D01*
X87916191Y-150960665D01*
X87792167Y-151038594D01*
X87688594Y-151142167D01*
X87610665Y-151266191D01*
X87562287Y-151404446D01*
X87561979Y-151407179D01*
X87554476Y-151473765D01*
X87552018Y-151484508D01*
X87551466Y-151486082D01*
X87550444Y-151488993D01*
X87550000Y-151494119D01*
X87550000Y-151510743D01*
X87549692Y-151516227D01*
X87547017Y-151539969D01*
X87546626Y-151543440D01*
X87546331Y-151545616D01*
X87545637Y-151550000D01*
X87546240Y-151553807D01*
X87549397Y-151573739D01*
X87550000Y-151581405D01*
X87550000Y-152601000D01*
X87535648Y-152635648D01*
X87501000Y-152650000D01*
X50499000Y-152650000D01*
X50464352Y-152635648D01*
X50450000Y-152601000D01*
X50450000Y-151500000D01*
X80540715Y-151500000D01*
X80541134Y-151503183D01*
X80548802Y-151561424D01*
X80559772Y-151644754D01*
X80560999Y-151647716D01*
X80561000Y-151647720D01*
X80601892Y-151746439D01*
X80615645Y-151779642D01*
X80704526Y-151895474D01*
X80820357Y-151984355D01*
X80823320Y-151985582D01*
X80823323Y-151985584D01*
X80952280Y-152039000D01*
X80952284Y-152039001D01*
X80955246Y-152040228D01*
X80958427Y-152040647D01*
X80958428Y-152040647D01*
X81096817Y-152058866D01*
X81100000Y-152059285D01*
X81103183Y-152058866D01*
X81241572Y-152040647D01*
X81241573Y-152040647D01*
X81244754Y-152040228D01*
X81247716Y-152039001D01*
X81247720Y-152039000D01*
X81376677Y-151985584D01*
X81376680Y-151985582D01*
X81379643Y-151984355D01*
X81495474Y-151895474D01*
X81584355Y-151779642D01*
X81598108Y-151746439D01*
X81639000Y-151647720D01*
X81639001Y-151647716D01*
X81640228Y-151644754D01*
X81651199Y-151561424D01*
X81658866Y-151503183D01*
X81659285Y-151500000D01*
X81657453Y-151486082D01*
X81640647Y-151358428D01*
X81640647Y-151358427D01*
X81640228Y-151355246D01*
X81639001Y-151352284D01*
X81639000Y-151352280D01*
X81585584Y-151223325D01*
X81584355Y-151220358D01*
X81495474Y-151104526D01*
X81489576Y-151100000D01*
X84344843Y-151100000D01*
X84345029Y-151102126D01*
X84345029Y-151102129D01*
X84359383Y-151266191D01*
X84365431Y-151335321D01*
X84365986Y-151337391D01*
X84365986Y-151337393D01*
X84413905Y-151516230D01*
X84426569Y-151563491D01*
X84437864Y-151587713D01*
X84511880Y-151746439D01*
X84526400Y-151777578D01*
X84527626Y-151779328D01*
X84527626Y-151779329D01*
X84608952Y-151895474D01*
X84661890Y-151971078D01*
X84828922Y-152138110D01*
X85022421Y-152273600D01*
X85236509Y-152373431D01*
X85238574Y-152373984D01*
X85238576Y-152373985D01*
X85462607Y-152434014D01*
X85462609Y-152434014D01*
X85464679Y-152434569D01*
X85466806Y-152434755D01*
X85466811Y-152434756D01*
X85697874Y-152454971D01*
X85700000Y-152455157D01*
X85702126Y-152454971D01*
X85933189Y-152434756D01*
X85933194Y-152434755D01*
X85935321Y-152434569D01*
X85937391Y-152434014D01*
X85937393Y-152434014D01*
X86161424Y-152373985D01*
X86161426Y-152373984D01*
X86163491Y-152373431D01*
X86377579Y-152273600D01*
X86571078Y-152138110D01*
X86738110Y-151971078D01*
X86791049Y-151895474D01*
X86872374Y-151779329D01*
X86872374Y-151779328D01*
X86873600Y-151777578D01*
X86888121Y-151746439D01*
X86962136Y-151587713D01*
X86973431Y-151563491D01*
X86986095Y-151516230D01*
X87034014Y-151337393D01*
X87034014Y-151337391D01*
X87034569Y-151335321D01*
X87044368Y-151223325D01*
X87054971Y-151102126D01*
X87055157Y-151100000D01*
X87047777Y-151015645D01*
X87034756Y-150866811D01*
X87034755Y-150866806D01*
X87034569Y-150864679D01*
X87015321Y-150792842D01*
X86973985Y-150638576D01*
X86973984Y-150638574D01*
X86973431Y-150636509D01*
X86873600Y-150422422D01*
X86872374Y-150420671D01*
X86741988Y-150234460D01*
X86733870Y-150197846D01*
X86754021Y-150166217D01*
X86788521Y-150157774D01*
X86796816Y-150158866D01*
X86796817Y-150158866D01*
X86800000Y-150159285D01*
X86803183Y-150158866D01*
X86941572Y-150140647D01*
X86941573Y-150140647D01*
X86944754Y-150140228D01*
X86947716Y-150139001D01*
X86947720Y-150139000D01*
X87076677Y-150085584D01*
X87076680Y-150085582D01*
X87079643Y-150084355D01*
X87195474Y-149995474D01*
X87284355Y-149879642D01*
X87297235Y-149848548D01*
X87339000Y-149747720D01*
X87339001Y-149747716D01*
X87340228Y-149744754D01*
X87340942Y-149739335D01*
X87358866Y-149603183D01*
X87359285Y-149600000D01*
X87341669Y-149466191D01*
X87340647Y-149458428D01*
X87340647Y-149458427D01*
X87340228Y-149455246D01*
X87339001Y-149452284D01*
X87339000Y-149452280D01*
X87285584Y-149323325D01*
X87284355Y-149320358D01*
X87195474Y-149204526D01*
X87147223Y-149167501D01*
X87082192Y-149117601D01*
X87079643Y-149115645D01*
X87076674Y-149114415D01*
X86947720Y-149061000D01*
X86947716Y-149060999D01*
X86944754Y-149059772D01*
X86941573Y-149059353D01*
X86941572Y-149059353D01*
X86803183Y-149041134D01*
X86800000Y-149040715D01*
X86796817Y-149041134D01*
X86658428Y-149059353D01*
X86658427Y-149059353D01*
X86655246Y-149059772D01*
X86652284Y-149060999D01*
X86652280Y-149061000D01*
X86523327Y-149114415D01*
X86520358Y-149115645D01*
X86404526Y-149204526D01*
X86315645Y-149320358D01*
X86314416Y-149323325D01*
X86261000Y-149452280D01*
X86260999Y-149452284D01*
X86259772Y-149455246D01*
X86259353Y-149458427D01*
X86259353Y-149458428D01*
X86258331Y-149466191D01*
X86240715Y-149600000D01*
X86241134Y-149603183D01*
X86259059Y-149739335D01*
X86259772Y-149744754D01*
X86261000Y-149747718D01*
X86261000Y-149747719D01*
X86261945Y-149750000D01*
X86274954Y-149781405D01*
X86276603Y-149785387D01*
X86276603Y-149822890D01*
X86250085Y-149849409D01*
X86210625Y-149848548D01*
X86197720Y-149842531D01*
X86163491Y-149826569D01*
X86161426Y-149826016D01*
X86161424Y-149826015D01*
X85937393Y-149765986D01*
X85937391Y-149765986D01*
X85935321Y-149765431D01*
X85933194Y-149765245D01*
X85933189Y-149765244D01*
X85702126Y-149745029D01*
X85700000Y-149744843D01*
X85697874Y-149745029D01*
X85466811Y-149765244D01*
X85466806Y-149765245D01*
X85464679Y-149765431D01*
X85462609Y-149765986D01*
X85462607Y-149765986D01*
X85238576Y-149826015D01*
X85238574Y-149826016D01*
X85236509Y-149826569D01*
X85168188Y-149858428D01*
X85062994Y-149907481D01*
X85022422Y-149926400D01*
X85020672Y-149927626D01*
X85020671Y-149927626D01*
X84920981Y-149997430D01*
X84828922Y-150061890D01*
X84661890Y-150228922D01*
X84660660Y-150230679D01*
X84660658Y-150230681D01*
X84527626Y-150420671D01*
X84526400Y-150422422D01*
X84426569Y-150636509D01*
X84426016Y-150638574D01*
X84426015Y-150638576D01*
X84384680Y-150792842D01*
X84365431Y-150864679D01*
X84365245Y-150866806D01*
X84365244Y-150866811D01*
X84352629Y-151011007D01*
X84345439Y-151093193D01*
X84344843Y-151100000D01*
X81489576Y-151100000D01*
X81379643Y-151015645D01*
X81376680Y-151014418D01*
X81376677Y-151014416D01*
X81247720Y-150961000D01*
X81247716Y-150960999D01*
X81244754Y-150959772D01*
X81241573Y-150959353D01*
X81241572Y-150959353D01*
X81103183Y-150941134D01*
X81100000Y-150940715D01*
X81096817Y-150941134D01*
X80958428Y-150959353D01*
X80958427Y-150959353D01*
X80955246Y-150959772D01*
X80952284Y-150960999D01*
X80952280Y-150961000D01*
X80890707Y-150986505D01*
X80820358Y-151015645D01*
X80817809Y-151017601D01*
X80716219Y-151095554D01*
X80704526Y-151104526D01*
X80615645Y-151220358D01*
X80614416Y-151223325D01*
X80561000Y-151352280D01*
X80560999Y-151352284D01*
X80559772Y-151355246D01*
X80559353Y-151358427D01*
X80559353Y-151358428D01*
X80542547Y-151486082D01*
X80540715Y-151500000D01*
X50450000Y-151500000D01*
X50450000Y-150000000D01*
X55940715Y-150000000D01*
X55959772Y-150144754D01*
X55960999Y-150147716D01*
X55961000Y-150147720D01*
X55994007Y-150227404D01*
X56015645Y-150279642D01*
X56104526Y-150395474D01*
X56220357Y-150484355D01*
X56223320Y-150485582D01*
X56223323Y-150485584D01*
X56352280Y-150539000D01*
X56352284Y-150539001D01*
X56355246Y-150540228D01*
X56358427Y-150540647D01*
X56358428Y-150540647D01*
X56496817Y-150558866D01*
X56500000Y-150559285D01*
X56503183Y-150558866D01*
X56641572Y-150540647D01*
X56641573Y-150540647D01*
X56644754Y-150540228D01*
X56647716Y-150539001D01*
X56647720Y-150539000D01*
X56776677Y-150485584D01*
X56776680Y-150485582D01*
X56779643Y-150484355D01*
X56895474Y-150395474D01*
X56961125Y-150309915D01*
X56993604Y-150291163D01*
X57029829Y-150300870D01*
X57038874Y-150309915D01*
X57104526Y-150395474D01*
X57220357Y-150484355D01*
X57223320Y-150485582D01*
X57223323Y-150485584D01*
X57352280Y-150539000D01*
X57352284Y-150539001D01*
X57355246Y-150540228D01*
X57358427Y-150540647D01*
X57358428Y-150540647D01*
X57496817Y-150558866D01*
X57500000Y-150559285D01*
X57503183Y-150558866D01*
X57641572Y-150540647D01*
X57641573Y-150540647D01*
X57644754Y-150540228D01*
X57647716Y-150539001D01*
X57647720Y-150539000D01*
X57776677Y-150485584D01*
X57776680Y-150485582D01*
X57779643Y-150484355D01*
X57895474Y-150395474D01*
X57984355Y-150279642D01*
X58005993Y-150227404D01*
X58039000Y-150147720D01*
X58039001Y-150147716D01*
X58040228Y-150144754D01*
X58059285Y-150000000D01*
X58049757Y-149927626D01*
X58040647Y-149858428D01*
X58040647Y-149858427D01*
X58040228Y-149855246D01*
X58039001Y-149852284D01*
X58039000Y-149852280D01*
X57985584Y-149723325D01*
X57984355Y-149720358D01*
X57939120Y-149661406D01*
X57897430Y-149607075D01*
X57895474Y-149604526D01*
X57809915Y-149538873D01*
X57791163Y-149506396D01*
X57800870Y-149470171D01*
X57809915Y-149461126D01*
X57821444Y-149452280D01*
X57895474Y-149395474D01*
X57984355Y-149279642D01*
X57985584Y-149276675D01*
X58039000Y-149147720D01*
X58039001Y-149147716D01*
X58040228Y-149144754D01*
X58041411Y-149135772D01*
X58058866Y-149003183D01*
X58059285Y-149000000D01*
X58058476Y-148993852D01*
X58044912Y-148890826D01*
X64178113Y-148890826D01*
X64178532Y-148894009D01*
X64189724Y-148979018D01*
X64197170Y-149035580D01*
X64198397Y-149038542D01*
X64198398Y-149038546D01*
X64233155Y-149122454D01*
X64253043Y-149170468D01*
X64341924Y-149286300D01*
X64344473Y-149288256D01*
X64393944Y-149326217D01*
X64457755Y-149375181D01*
X64460718Y-149376408D01*
X64460721Y-149376410D01*
X64589678Y-149429826D01*
X64589682Y-149429827D01*
X64592644Y-149431054D01*
X64595825Y-149431473D01*
X64595826Y-149431473D01*
X64734215Y-149449692D01*
X64737398Y-149450111D01*
X64740581Y-149449692D01*
X64878970Y-149431473D01*
X64878971Y-149431473D01*
X64882152Y-149431054D01*
X64885114Y-149429827D01*
X64885118Y-149429826D01*
X65014075Y-149376410D01*
X65014078Y-149376408D01*
X65017041Y-149375181D01*
X65080852Y-149326217D01*
X65130323Y-149288256D01*
X65132872Y-149286300D01*
X65221753Y-149170468D01*
X65241641Y-149122454D01*
X65276398Y-149038546D01*
X65276399Y-149038542D01*
X65277626Y-149035580D01*
X65285073Y-148979018D01*
X65296264Y-148894009D01*
X65296683Y-148890826D01*
X65293925Y-148869880D01*
X65303631Y-148833655D01*
X65307858Y-148828836D01*
X66236011Y-147900683D01*
X66244076Y-147894169D01*
X66258940Y-147884571D01*
X66282541Y-147854633D01*
X66286373Y-147850321D01*
X66290638Y-147846056D01*
X66302919Y-147828871D01*
X66304304Y-147827027D01*
X66334647Y-147788536D01*
X66334648Y-147788535D01*
X66337156Y-147785353D01*
X66338499Y-147781528D01*
X66340448Y-147777983D01*
X66340596Y-147778064D01*
X66341528Y-147776271D01*
X66341378Y-147776197D01*
X66343159Y-147772561D01*
X66345514Y-147769266D01*
X66360729Y-147718390D01*
X66361443Y-147716196D01*
X66378054Y-147668894D01*
X66391412Y-147650462D01*
X66390653Y-147649703D01*
X66392928Y-147647427D01*
X66395474Y-147645474D01*
X66430367Y-147600000D01*
X66765215Y-147600000D01*
X66784272Y-147744754D01*
X66785499Y-147747716D01*
X66785500Y-147747720D01*
X66818351Y-147827027D01*
X66840145Y-147879642D01*
X66863374Y-147909915D01*
X66905201Y-147964424D01*
X66929026Y-147995474D01*
X67044857Y-148084355D01*
X67047820Y-148085582D01*
X67047823Y-148085584D01*
X67176780Y-148139000D01*
X67176784Y-148139001D01*
X67179746Y-148140228D01*
X67182927Y-148140647D01*
X67182928Y-148140647D01*
X67321317Y-148158866D01*
X67324500Y-148159285D01*
X67327683Y-148158866D01*
X67466072Y-148140647D01*
X67466073Y-148140647D01*
X67469254Y-148140228D01*
X67472216Y-148139001D01*
X67472220Y-148139000D01*
X67601177Y-148085584D01*
X67601180Y-148085582D01*
X67604143Y-148084355D01*
X67719974Y-147995474D01*
X67743800Y-147964424D01*
X67785626Y-147909915D01*
X67808855Y-147879642D01*
X67830649Y-147827027D01*
X67863500Y-147747720D01*
X67863501Y-147747716D01*
X67864728Y-147744754D01*
X67883785Y-147600000D01*
X70940715Y-147600000D01*
X70959772Y-147744754D01*
X70960999Y-147747716D01*
X70961000Y-147747720D01*
X70993851Y-147827027D01*
X71015645Y-147879642D01*
X71038874Y-147909915D01*
X71080701Y-147964424D01*
X71104526Y-147995474D01*
X71220357Y-148084355D01*
X71223320Y-148085582D01*
X71223323Y-148085584D01*
X71352280Y-148139000D01*
X71352284Y-148139001D01*
X71355246Y-148140228D01*
X71358427Y-148140647D01*
X71358428Y-148140647D01*
X71496817Y-148158866D01*
X71500000Y-148159285D01*
X71503183Y-148158866D01*
X71641572Y-148140647D01*
X71641573Y-148140647D01*
X71644754Y-148140228D01*
X71647716Y-148139001D01*
X71647720Y-148139000D01*
X71776677Y-148085584D01*
X71776680Y-148085582D01*
X71779643Y-148084355D01*
X71895474Y-147995474D01*
X71916886Y-147967569D01*
X71961126Y-147909915D01*
X71993604Y-147891163D01*
X72029829Y-147900870D01*
X72038874Y-147909915D01*
X72083114Y-147967569D01*
X72104526Y-147995474D01*
X72220357Y-148084355D01*
X72223320Y-148085582D01*
X72223323Y-148085584D01*
X72352280Y-148139000D01*
X72352284Y-148139001D01*
X72355246Y-148140228D01*
X72358427Y-148140647D01*
X72358428Y-148140647D01*
X72496817Y-148158866D01*
X72500000Y-148159285D01*
X72503183Y-148158866D01*
X72641572Y-148140647D01*
X72641573Y-148140647D01*
X72644754Y-148140228D01*
X72647716Y-148139001D01*
X72647720Y-148139000D01*
X72776677Y-148085584D01*
X72776680Y-148085582D01*
X72779643Y-148084355D01*
X72895474Y-147995474D01*
X72919300Y-147964424D01*
X72961126Y-147909915D01*
X72984355Y-147879642D01*
X73006149Y-147827027D01*
X73039000Y-147747720D01*
X73039001Y-147747716D01*
X73040228Y-147744754D01*
X73059285Y-147600000D01*
X74040715Y-147600000D01*
X74059772Y-147744754D01*
X74060999Y-147747716D01*
X74061000Y-147747720D01*
X74093851Y-147827027D01*
X74115645Y-147879642D01*
X74138874Y-147909915D01*
X74180701Y-147964424D01*
X74204526Y-147995474D01*
X74320357Y-148084355D01*
X74323320Y-148085582D01*
X74323323Y-148085584D01*
X74452280Y-148139000D01*
X74452284Y-148139001D01*
X74455246Y-148140228D01*
X74458427Y-148140647D01*
X74458428Y-148140647D01*
X74596817Y-148158866D01*
X74600000Y-148159285D01*
X74603183Y-148158866D01*
X74741572Y-148140647D01*
X74741573Y-148140647D01*
X74744754Y-148140228D01*
X74747716Y-148139001D01*
X74747720Y-148139000D01*
X74830323Y-148104784D01*
X74852749Y-148095495D01*
X74890251Y-148095495D01*
X74916770Y-148122013D01*
X74920500Y-148140765D01*
X74920500Y-149150848D01*
X74906281Y-149185179D01*
X74904526Y-149186526D01*
X74815645Y-149302358D01*
X74814416Y-149305325D01*
X74761000Y-149434280D01*
X74760999Y-149434284D01*
X74759772Y-149437246D01*
X74740715Y-149582000D01*
X74741134Y-149585183D01*
X74759321Y-149723325D01*
X74759772Y-149726754D01*
X74760999Y-149729716D01*
X74761000Y-149729720D01*
X74810221Y-149848548D01*
X74815645Y-149861642D01*
X74904526Y-149977474D01*
X75020357Y-150066355D01*
X75023320Y-150067582D01*
X75023323Y-150067584D01*
X75152280Y-150121000D01*
X75152284Y-150121001D01*
X75155246Y-150122228D01*
X75158427Y-150122647D01*
X75158428Y-150122647D01*
X75296817Y-150140866D01*
X75300000Y-150141285D01*
X75303183Y-150140866D01*
X75441572Y-150122647D01*
X75441573Y-150122647D01*
X75444754Y-150122228D01*
X75447716Y-150121001D01*
X75447720Y-150121000D01*
X75576677Y-150067584D01*
X75576680Y-150067582D01*
X75579643Y-150066355D01*
X75695474Y-149977474D01*
X75784355Y-149861642D01*
X75789779Y-149848548D01*
X75839000Y-149729720D01*
X75839001Y-149729716D01*
X75840228Y-149726754D01*
X75840680Y-149723325D01*
X75858866Y-149585183D01*
X75859285Y-149582000D01*
X75840228Y-149437246D01*
X75839001Y-149434284D01*
X75839000Y-149434280D01*
X75785584Y-149305325D01*
X75784355Y-149302358D01*
X75695474Y-149186526D01*
X75693719Y-149185179D01*
X75679500Y-149150848D01*
X75679500Y-148840765D01*
X75693852Y-148806117D01*
X75728500Y-148791765D01*
X75747251Y-148795495D01*
X75772895Y-148806117D01*
X75852280Y-148839000D01*
X75852284Y-148839001D01*
X75855246Y-148840228D01*
X75858427Y-148840647D01*
X75858428Y-148840647D01*
X75898504Y-148845923D01*
X75999278Y-148859190D01*
X76000000Y-148859285D01*
X75999980Y-148859433D01*
X76028680Y-148869386D01*
X76045367Y-148882541D01*
X76049679Y-148886373D01*
X76053944Y-148890638D01*
X76064343Y-148898069D01*
X76071129Y-148902919D01*
X76072973Y-148904304D01*
X76111464Y-148934647D01*
X76114647Y-148937156D01*
X76118472Y-148938499D01*
X76122017Y-148940448D01*
X76121936Y-148940596D01*
X76123729Y-148941528D01*
X76123803Y-148941378D01*
X76127439Y-148943159D01*
X76130734Y-148945514D01*
X76134613Y-148946674D01*
X76181609Y-148960729D01*
X76183802Y-148961442D01*
X76233851Y-148979018D01*
X76236920Y-148979284D01*
X76236921Y-148979284D01*
X76238364Y-148979409D01*
X76238367Y-148979409D01*
X76239416Y-148979500D01*
X76239415Y-148979513D01*
X76243852Y-148980261D01*
X76243879Y-148980045D01*
X76247898Y-148980553D01*
X76251778Y-148981713D01*
X76255827Y-148981554D01*
X76307137Y-148979538D01*
X76309061Y-148979500D01*
X81039813Y-148979500D01*
X81074461Y-148993852D01*
X81081726Y-149003117D01*
X81148435Y-149113267D01*
X81150335Y-149115235D01*
X81150337Y-149115237D01*
X81189189Y-149155469D01*
X81266021Y-149235031D01*
X81407660Y-149327717D01*
X81566315Y-149386720D01*
X81569024Y-149387081D01*
X81569026Y-149387082D01*
X81631924Y-149395474D01*
X81734099Y-149409107D01*
X81736824Y-149408859D01*
X81736826Y-149408859D01*
X81899941Y-149394015D01*
X81899944Y-149394014D01*
X81902673Y-149393766D01*
X82063659Y-149341458D01*
X82066012Y-149340055D01*
X82066015Y-149340054D01*
X82206703Y-149256187D01*
X82206705Y-149256185D01*
X82209056Y-149254784D01*
X82224012Y-149240542D01*
X82329657Y-149139939D01*
X82329659Y-149139936D01*
X82331638Y-149138052D01*
X82347343Y-149114415D01*
X82423793Y-148999348D01*
X82423794Y-148999347D01*
X82425311Y-148997063D01*
X82431142Y-148981713D01*
X82484447Y-148841387D01*
X82484448Y-148841382D01*
X82485420Y-148838824D01*
X82508978Y-148671200D01*
X82509274Y-148650000D01*
X82502239Y-148587277D01*
X82490712Y-148484508D01*
X82490711Y-148484504D01*
X82490406Y-148481784D01*
X82489505Y-148479197D01*
X82489504Y-148479192D01*
X82435639Y-148324515D01*
X82435637Y-148324512D01*
X82434738Y-148321929D01*
X82433289Y-148319610D01*
X82433287Y-148319606D01*
X82346491Y-148180704D01*
X82346490Y-148180703D01*
X82345038Y-148178379D01*
X82342892Y-148176217D01*
X82252889Y-148085584D01*
X82225764Y-148058269D01*
X82122799Y-147992925D01*
X82085156Y-147969036D01*
X82085154Y-147969035D01*
X82082844Y-147967569D01*
X82080266Y-147966651D01*
X82080264Y-147966650D01*
X81925962Y-147911706D01*
X81923381Y-147910787D01*
X81920661Y-147910463D01*
X81920658Y-147910462D01*
X81838645Y-147900683D01*
X81755301Y-147890745D01*
X81752580Y-147891031D01*
X81752577Y-147891031D01*
X81658964Y-147900870D01*
X81586957Y-147908438D01*
X81584364Y-147909321D01*
X81584363Y-147909321D01*
X81580057Y-147910787D01*
X81426717Y-147962988D01*
X81282544Y-148051684D01*
X81280589Y-148053598D01*
X81280587Y-148053600D01*
X81163561Y-148168201D01*
X81163559Y-148168204D01*
X81161605Y-148170117D01*
X81160122Y-148172417D01*
X81160122Y-148172418D01*
X81143607Y-148198044D01*
X81112774Y-148219393D01*
X81102419Y-148220500D01*
X76591791Y-148220500D01*
X76557143Y-148206148D01*
X76543210Y-148177896D01*
X76540647Y-148158428D01*
X76540647Y-148158427D01*
X76540228Y-148155246D01*
X76518977Y-148103942D01*
X76518977Y-148066440D01*
X76545495Y-148039921D01*
X76676677Y-147985584D01*
X76676680Y-147985582D01*
X76679643Y-147984355D01*
X76795474Y-147895474D01*
X76884355Y-147779642D01*
X76901129Y-147739147D01*
X76939000Y-147647720D01*
X76939001Y-147647716D01*
X76940228Y-147644754D01*
X76959285Y-147500000D01*
X76957889Y-147489399D01*
X87740800Y-147489399D01*
X87741067Y-147492122D01*
X87741067Y-147492123D01*
X87756033Y-147644754D01*
X87757318Y-147657862D01*
X87758180Y-147660453D01*
X87758181Y-147660458D01*
X87786223Y-147744754D01*
X87810748Y-147818479D01*
X87812167Y-147820823D01*
X87812168Y-147820824D01*
X87860533Y-147900683D01*
X87898435Y-147963267D01*
X87900335Y-147965235D01*
X87900337Y-147965237D01*
X87924192Y-147989939D01*
X88016021Y-148085031D01*
X88157660Y-148177717D01*
X88316315Y-148236720D01*
X88319024Y-148237081D01*
X88319026Y-148237082D01*
X88384498Y-148245817D01*
X88484099Y-148259107D01*
X88486824Y-148258859D01*
X88486826Y-148258859D01*
X88649941Y-148244015D01*
X88649944Y-148244014D01*
X88652673Y-148243766D01*
X88813659Y-148191458D01*
X88816012Y-148190055D01*
X88816015Y-148190054D01*
X88956703Y-148106187D01*
X88956705Y-148106185D01*
X88959056Y-148104784D01*
X88978227Y-148086528D01*
X89079657Y-147989939D01*
X89079659Y-147989936D01*
X89081638Y-147988052D01*
X89095858Y-147966650D01*
X89173793Y-147849348D01*
X89173794Y-147849347D01*
X89175311Y-147847063D01*
X89176286Y-147844497D01*
X89234447Y-147691387D01*
X89234448Y-147691382D01*
X89235420Y-147688824D01*
X89258978Y-147521200D01*
X89259274Y-147500000D01*
X89241399Y-147340638D01*
X89240711Y-147334502D01*
X89240711Y-147334501D01*
X89240406Y-147331784D01*
X89239583Y-147329422D01*
X89245893Y-147292522D01*
X89252707Y-147283987D01*
X90642842Y-145893852D01*
X90677490Y-145879500D01*
X125454275Y-145879500D01*
X125464589Y-145880598D01*
X125477913Y-145883467D01*
X125477914Y-145883467D01*
X125481876Y-145884320D01*
X125519728Y-145879840D01*
X125525485Y-145879500D01*
X125531524Y-145879500D01*
X125552361Y-145876031D01*
X125554651Y-145875706D01*
X125568504Y-145874066D01*
X125607341Y-145869470D01*
X125610993Y-145867716D01*
X125614883Y-145866586D01*
X125614930Y-145866747D01*
X125616853Y-145866139D01*
X125616799Y-145865980D01*
X125620628Y-145864669D01*
X125624626Y-145864004D01*
X125671356Y-145838790D01*
X125673353Y-145837772D01*
X125721232Y-145814781D01*
X125723588Y-145812801D01*
X125723590Y-145812799D01*
X125724706Y-145811861D01*
X125724715Y-145811852D01*
X125725508Y-145811186D01*
X125725517Y-145811196D01*
X125729183Y-145808586D01*
X125729050Y-145808415D01*
X125732249Y-145805934D01*
X125735814Y-145804010D01*
X125773431Y-145763316D01*
X125774765Y-145761929D01*
X126486011Y-145050683D01*
X126494076Y-145044169D01*
X126508940Y-145034571D01*
X126532541Y-145004633D01*
X126536373Y-145000321D01*
X126540638Y-144996056D01*
X126541813Y-144994411D01*
X126541817Y-144994407D01*
X126552923Y-144978866D01*
X126554309Y-144977020D01*
X126584647Y-144938536D01*
X126584648Y-144938535D01*
X126587156Y-144935353D01*
X126588499Y-144931529D01*
X126590448Y-144927983D01*
X126590596Y-144928064D01*
X126591527Y-144926273D01*
X126591376Y-144926199D01*
X126593158Y-144922561D01*
X126595513Y-144919266D01*
X126598755Y-144908428D01*
X126610719Y-144868422D01*
X126611432Y-144866227D01*
X126627997Y-144819056D01*
X126629018Y-144816149D01*
X126629500Y-144810584D01*
X126629513Y-144810585D01*
X126630261Y-144806148D01*
X126630045Y-144806121D01*
X126630553Y-144802102D01*
X126631713Y-144798222D01*
X126631217Y-144785584D01*
X126629538Y-144742863D01*
X126629500Y-144740939D01*
X126629500Y-141677490D01*
X126643852Y-141642842D01*
X126916352Y-141370342D01*
X126951000Y-141355990D01*
X126985648Y-141370342D01*
X127000000Y-141404990D01*
X127000000Y-145500000D01*
X134000000Y-145500000D01*
X134000000Y-144300000D01*
X134940715Y-144300000D01*
X134941134Y-144303183D01*
X134958340Y-144433873D01*
X134959772Y-144444754D01*
X134960999Y-144447716D01*
X134961000Y-144447720D01*
X135000179Y-144542305D01*
X135015645Y-144579642D01*
X135017601Y-144582191D01*
X135073106Y-144654526D01*
X135104526Y-144695474D01*
X135220357Y-144784355D01*
X135223320Y-144785582D01*
X135223323Y-144785584D01*
X135352280Y-144839000D01*
X135352284Y-144839001D01*
X135355246Y-144840228D01*
X135358427Y-144840647D01*
X135358428Y-144840647D01*
X135496817Y-144858866D01*
X135500000Y-144859285D01*
X135503183Y-144858866D01*
X135641572Y-144840647D01*
X135641573Y-144840647D01*
X135644754Y-144840228D01*
X135647716Y-144839001D01*
X135647720Y-144839000D01*
X135776677Y-144785584D01*
X135776680Y-144785582D01*
X135779643Y-144784355D01*
X135895474Y-144695474D01*
X135926895Y-144654526D01*
X135982399Y-144582191D01*
X135984355Y-144579642D01*
X135999821Y-144542305D01*
X136039000Y-144447720D01*
X136039001Y-144447716D01*
X136040228Y-144444754D01*
X136041661Y-144433873D01*
X136058866Y-144303183D01*
X136059285Y-144300000D01*
X136048707Y-144219651D01*
X136040647Y-144158428D01*
X136040647Y-144158427D01*
X136040228Y-144155246D01*
X136039001Y-144152284D01*
X136039000Y-144152280D01*
X135985584Y-144023325D01*
X135984355Y-144020358D01*
X135919173Y-143935411D01*
X135897430Y-143907075D01*
X135895474Y-143904526D01*
X135779643Y-143815645D01*
X135776680Y-143814418D01*
X135776677Y-143814416D01*
X135647720Y-143761000D01*
X135647716Y-143760999D01*
X135644754Y-143759772D01*
X135641573Y-143759353D01*
X135641572Y-143759353D01*
X135503183Y-143741134D01*
X135500000Y-143740715D01*
X135496817Y-143741134D01*
X135358428Y-143759353D01*
X135358427Y-143759353D01*
X135355246Y-143759772D01*
X135352284Y-143760999D01*
X135352280Y-143761000D01*
X135233366Y-143810257D01*
X135220358Y-143815645D01*
X135176081Y-143849620D01*
X135124832Y-143888945D01*
X135104526Y-143904526D01*
X135102570Y-143907075D01*
X135080827Y-143935411D01*
X135015645Y-144020358D01*
X135014416Y-144023325D01*
X134961000Y-144152280D01*
X134960999Y-144152284D01*
X134959772Y-144155246D01*
X134959353Y-144158427D01*
X134959353Y-144158428D01*
X134951293Y-144219651D01*
X134940715Y-144300000D01*
X134000000Y-144300000D01*
X134000000Y-142591363D01*
X134014352Y-142556715D01*
X134049000Y-142542363D01*
X134078828Y-142552488D01*
X134120357Y-142584355D01*
X134123320Y-142585582D01*
X134123323Y-142585584D01*
X134252280Y-142639000D01*
X134252284Y-142639001D01*
X134255246Y-142640228D01*
X134258427Y-142640647D01*
X134258428Y-142640647D01*
X134396817Y-142658866D01*
X134400000Y-142659285D01*
X134403183Y-142658866D01*
X134541572Y-142640647D01*
X134541573Y-142640647D01*
X134544754Y-142640228D01*
X134547716Y-142639001D01*
X134547720Y-142639000D01*
X134676677Y-142585584D01*
X134676680Y-142585582D01*
X134679643Y-142584355D01*
X134795474Y-142495474D01*
X134884355Y-142379642D01*
X134925610Y-142280045D01*
X134939000Y-142247720D01*
X134939001Y-142247716D01*
X134940228Y-142244754D01*
X134946322Y-142198469D01*
X134958866Y-142103183D01*
X134959285Y-142100000D01*
X134958866Y-142096817D01*
X134940647Y-141958428D01*
X134940647Y-141958427D01*
X134940228Y-141955246D01*
X134939001Y-141952284D01*
X134939000Y-141952280D01*
X134885584Y-141823325D01*
X134884355Y-141820358D01*
X134795474Y-141704526D01*
X134793719Y-141703179D01*
X134779500Y-141668848D01*
X134779500Y-140945725D01*
X134780598Y-140935411D01*
X134783467Y-140922087D01*
X134783467Y-140922086D01*
X134784320Y-140918124D01*
X134779840Y-140880272D01*
X134779500Y-140874515D01*
X134779500Y-140868476D01*
X134776031Y-140847636D01*
X134775706Y-140845349D01*
X134769946Y-140796682D01*
X134769470Y-140792659D01*
X134767716Y-140789007D01*
X134766586Y-140785117D01*
X134766747Y-140785070D01*
X134766139Y-140783147D01*
X134765980Y-140783201D01*
X134764669Y-140779372D01*
X134764004Y-140775374D01*
X134738790Y-140728644D01*
X134737772Y-140726647D01*
X134714781Y-140678768D01*
X134711187Y-140674492D01*
X134711196Y-140674484D01*
X134708586Y-140670817D01*
X134708415Y-140670950D01*
X134705934Y-140667751D01*
X134704010Y-140664186D01*
X134663328Y-140626580D01*
X134661941Y-140625246D01*
X134200683Y-140163989D01*
X134194169Y-140155924D01*
X134184571Y-140141060D01*
X134154633Y-140117459D01*
X134150321Y-140113627D01*
X134146056Y-140109362D01*
X134128871Y-140097081D01*
X134127027Y-140095696D01*
X134088536Y-140065353D01*
X134088535Y-140065352D01*
X134085353Y-140062844D01*
X134081528Y-140061501D01*
X134077983Y-140059552D01*
X134078064Y-140059404D01*
X134076271Y-140058472D01*
X134076197Y-140058622D01*
X134072561Y-140056841D01*
X134069266Y-140054486D01*
X134018390Y-140039271D01*
X134016196Y-140038557D01*
X134003276Y-140034020D01*
X133966149Y-140020982D01*
X133963080Y-140020716D01*
X133963079Y-140020716D01*
X133961636Y-140020591D01*
X133961633Y-140020591D01*
X133960584Y-140020500D01*
X133960585Y-140020487D01*
X133956148Y-140019739D01*
X133956121Y-140019955D01*
X133952102Y-140019447D01*
X133948222Y-140018287D01*
X133944173Y-140018446D01*
X133892863Y-140020462D01*
X133890939Y-140020500D01*
X127395725Y-140020500D01*
X127385411Y-140019402D01*
X127372087Y-140016533D01*
X127372086Y-140016533D01*
X127368124Y-140015680D01*
X127330272Y-140020160D01*
X127324515Y-140020500D01*
X127318476Y-140020500D01*
X127309447Y-140022003D01*
X127297636Y-140023969D01*
X127295347Y-140024294D01*
X127242659Y-140030530D01*
X127239007Y-140032284D01*
X127235117Y-140033414D01*
X127235070Y-140033253D01*
X127233147Y-140033861D01*
X127233201Y-140034020D01*
X127229372Y-140035331D01*
X127225374Y-140035996D01*
X127221809Y-140037920D01*
X127221808Y-140037920D01*
X127219304Y-140039271D01*
X127178644Y-140061210D01*
X127176647Y-140062228D01*
X127128768Y-140085219D01*
X127126412Y-140087199D01*
X127126410Y-140087201D01*
X127125294Y-140088139D01*
X127125285Y-140088148D01*
X127124492Y-140088814D01*
X127124483Y-140088804D01*
X127120817Y-140091414D01*
X127120950Y-140091585D01*
X127117751Y-140094066D01*
X127114186Y-140095990D01*
X127111436Y-140098965D01*
X127076569Y-140136684D01*
X127075235Y-140138071D01*
X126013989Y-141199317D01*
X126005924Y-141205831D01*
X125991060Y-141215429D01*
X125979856Y-141229642D01*
X125967460Y-141245366D01*
X125963627Y-141249679D01*
X125959362Y-141253944D01*
X125954707Y-141260458D01*
X125947081Y-141271129D01*
X125945696Y-141272973D01*
X125915353Y-141311464D01*
X125912844Y-141314647D01*
X125911501Y-141318472D01*
X125909552Y-141322017D01*
X125909404Y-141321936D01*
X125908472Y-141323729D01*
X125908622Y-141323803D01*
X125906841Y-141327439D01*
X125904486Y-141330734D01*
X125903326Y-141334613D01*
X125889271Y-141381609D01*
X125888558Y-141383802D01*
X125870982Y-141433851D01*
X125870500Y-141439416D01*
X125870487Y-141439415D01*
X125869739Y-141443852D01*
X125869955Y-141443879D01*
X125869447Y-141447898D01*
X125868287Y-141451778D01*
X125868446Y-141455827D01*
X125870462Y-141507137D01*
X125870500Y-141509061D01*
X125870500Y-144572510D01*
X125856148Y-144607158D01*
X125357158Y-145106148D01*
X125322510Y-145120500D01*
X90545725Y-145120500D01*
X90535411Y-145119402D01*
X90522087Y-145116533D01*
X90522086Y-145116533D01*
X90518124Y-145115680D01*
X90480272Y-145120160D01*
X90474515Y-145120500D01*
X90468476Y-145120500D01*
X90466487Y-145120831D01*
X90466488Y-145120831D01*
X90447636Y-145123969D01*
X90445347Y-145124294D01*
X90392659Y-145130530D01*
X90389007Y-145132284D01*
X90385117Y-145133414D01*
X90385070Y-145133253D01*
X90383147Y-145133861D01*
X90383201Y-145134020D01*
X90379372Y-145135331D01*
X90375374Y-145135996D01*
X90328644Y-145161210D01*
X90326647Y-145162228D01*
X90278768Y-145185219D01*
X90276412Y-145187199D01*
X90276410Y-145187201D01*
X90275294Y-145188139D01*
X90275285Y-145188148D01*
X90274492Y-145188814D01*
X90274483Y-145188804D01*
X90270817Y-145191414D01*
X90270950Y-145191585D01*
X90267751Y-145194066D01*
X90264186Y-145195990D01*
X90261436Y-145198965D01*
X90226569Y-145236684D01*
X90225235Y-145238071D01*
X88716014Y-146747292D01*
X88681366Y-146761644D01*
X88673389Y-146760721D01*
X88673381Y-146760787D01*
X88505301Y-146740745D01*
X88502580Y-146741031D01*
X88502577Y-146741031D01*
X88417242Y-146750000D01*
X88336957Y-146758438D01*
X88334364Y-146759321D01*
X88334363Y-146759321D01*
X88312402Y-146766797D01*
X88176717Y-146812988D01*
X88032544Y-146901684D01*
X88030589Y-146903598D01*
X88030587Y-146903600D01*
X87913561Y-147018201D01*
X87913559Y-147018204D01*
X87911605Y-147020117D01*
X87910122Y-147022417D01*
X87910122Y-147022418D01*
X87873243Y-147079642D01*
X87819909Y-147162400D01*
X87789184Y-147246817D01*
X87770144Y-147299130D01*
X87762015Y-147321463D01*
X87740800Y-147489399D01*
X76957889Y-147489399D01*
X76953003Y-147452280D01*
X76940647Y-147358428D01*
X76940647Y-147358427D01*
X76940228Y-147355246D01*
X76939001Y-147352284D01*
X76939000Y-147352280D01*
X76885584Y-147223325D01*
X76884355Y-147220358D01*
X76819622Y-147135996D01*
X76797430Y-147107075D01*
X76795474Y-147104526D01*
X76790710Y-147100870D01*
X76712315Y-147040715D01*
X76679643Y-147015645D01*
X76676680Y-147014418D01*
X76676677Y-147014416D01*
X76547720Y-146961000D01*
X76547716Y-146960999D01*
X76544754Y-146959772D01*
X76541573Y-146959353D01*
X76541572Y-146959353D01*
X76403183Y-146941134D01*
X76400000Y-146940715D01*
X76396817Y-146941134D01*
X76258428Y-146959353D01*
X76258427Y-146959353D01*
X76255246Y-146959772D01*
X76252284Y-146960999D01*
X76252280Y-146961000D01*
X76123325Y-147014416D01*
X76120358Y-147015645D01*
X76004526Y-147104526D01*
X76003179Y-147106281D01*
X75968848Y-147120500D01*
X75962532Y-147120500D01*
X75952218Y-147119402D01*
X75938894Y-147116533D01*
X75938893Y-147116533D01*
X75934931Y-147115680D01*
X75897079Y-147120160D01*
X75891322Y-147120500D01*
X75885283Y-147120500D01*
X75883294Y-147120831D01*
X75883295Y-147120831D01*
X75864443Y-147123969D01*
X75862154Y-147124294D01*
X75809466Y-147130530D01*
X75805814Y-147132284D01*
X75801924Y-147133414D01*
X75801877Y-147133253D01*
X75799954Y-147133861D01*
X75800008Y-147134020D01*
X75796179Y-147135331D01*
X75792181Y-147135996D01*
X75745451Y-147161210D01*
X75743454Y-147162228D01*
X75695575Y-147185219D01*
X75691299Y-147188813D01*
X75691291Y-147188804D01*
X75687624Y-147191414D01*
X75687757Y-147191585D01*
X75684558Y-147194066D01*
X75680993Y-147195990D01*
X75655725Y-147223325D01*
X75643387Y-147236672D01*
X75642053Y-147238059D01*
X75393428Y-147486685D01*
X75242514Y-147637599D01*
X75207866Y-147651951D01*
X75173218Y-147637599D01*
X75158889Y-147603007D01*
X75159285Y-147600000D01*
X75148434Y-147517576D01*
X75140647Y-147458428D01*
X75140647Y-147458427D01*
X75140228Y-147455246D01*
X75139001Y-147452284D01*
X75139000Y-147452280D01*
X75085584Y-147323325D01*
X75084355Y-147320358D01*
X75020678Y-147237373D01*
X74997430Y-147207075D01*
X74997428Y-147207073D01*
X74995474Y-147204526D01*
X74879643Y-147115645D01*
X74876680Y-147114418D01*
X74876677Y-147114416D01*
X74747720Y-147061000D01*
X74747716Y-147060999D01*
X74744754Y-147059772D01*
X74741573Y-147059353D01*
X74741572Y-147059353D01*
X74603183Y-147041134D01*
X74600000Y-147040715D01*
X74596817Y-147041134D01*
X74458428Y-147059353D01*
X74458427Y-147059353D01*
X74455246Y-147059772D01*
X74452284Y-147060999D01*
X74452280Y-147061000D01*
X74337781Y-147108428D01*
X74320358Y-147115645D01*
X74204526Y-147204526D01*
X74202572Y-147207073D01*
X74202570Y-147207075D01*
X74179322Y-147237373D01*
X74115645Y-147320358D01*
X74114416Y-147323325D01*
X74061000Y-147452280D01*
X74060999Y-147452284D01*
X74059772Y-147455246D01*
X74059353Y-147458427D01*
X74059353Y-147458428D01*
X74051566Y-147517576D01*
X74040715Y-147600000D01*
X73059285Y-147600000D01*
X73048434Y-147517576D01*
X73040647Y-147458428D01*
X73040647Y-147458427D01*
X73040228Y-147455246D01*
X73039001Y-147452284D01*
X73039000Y-147452280D01*
X72985584Y-147323325D01*
X72984355Y-147320358D01*
X72931786Y-147251849D01*
X72914890Y-147229829D01*
X72905183Y-147193604D01*
X72914890Y-147170171D01*
X72975515Y-147091163D01*
X72984355Y-147079642D01*
X73008058Y-147022418D01*
X73039000Y-146947720D01*
X73039001Y-146947716D01*
X73040228Y-146944754D01*
X73048153Y-146884561D01*
X73058866Y-146803183D01*
X73059285Y-146800000D01*
X73054320Y-146762287D01*
X73040647Y-146658428D01*
X73040647Y-146658427D01*
X73040228Y-146655246D01*
X73039001Y-146652284D01*
X73039000Y-146652280D01*
X72985584Y-146523325D01*
X72984355Y-146520358D01*
X72926190Y-146444556D01*
X72897430Y-146407075D01*
X72895474Y-146404526D01*
X72779643Y-146315645D01*
X72776680Y-146314418D01*
X72776677Y-146314416D01*
X72647720Y-146261000D01*
X72647716Y-146260999D01*
X72644754Y-146259772D01*
X72641573Y-146259353D01*
X72641572Y-146259353D01*
X72503183Y-146241134D01*
X72500000Y-146240715D01*
X72496817Y-146241134D01*
X72358428Y-146259353D01*
X72358427Y-146259353D01*
X72355246Y-146259772D01*
X72352284Y-146260999D01*
X72352280Y-146261000D01*
X72223325Y-146314416D01*
X72220358Y-146315645D01*
X72217809Y-146317601D01*
X72116464Y-146395366D01*
X72104526Y-146404526D01*
X72102570Y-146407075D01*
X72038874Y-146490085D01*
X72006396Y-146508837D01*
X71970171Y-146499130D01*
X71961126Y-146490085D01*
X71897430Y-146407075D01*
X71895474Y-146404526D01*
X71779643Y-146315645D01*
X71776680Y-146314418D01*
X71776677Y-146314416D01*
X71647720Y-146261000D01*
X71647716Y-146260999D01*
X71644754Y-146259772D01*
X71641573Y-146259353D01*
X71641572Y-146259353D01*
X71503183Y-146241134D01*
X71500000Y-146240715D01*
X71496817Y-146241134D01*
X71358428Y-146259353D01*
X71358427Y-146259353D01*
X71355246Y-146259772D01*
X71352284Y-146260999D01*
X71352280Y-146261000D01*
X71223325Y-146314416D01*
X71220358Y-146315645D01*
X71217809Y-146317601D01*
X71116464Y-146395366D01*
X71104526Y-146404526D01*
X71102570Y-146407075D01*
X71073810Y-146444556D01*
X71015645Y-146520358D01*
X71014416Y-146523325D01*
X70961000Y-146652280D01*
X70960999Y-146652284D01*
X70959772Y-146655246D01*
X70959353Y-146658427D01*
X70959353Y-146658428D01*
X70945680Y-146762287D01*
X70940715Y-146800000D01*
X70941134Y-146803183D01*
X70951848Y-146884561D01*
X70959772Y-146944754D01*
X70960999Y-146947716D01*
X70961000Y-146947720D01*
X70991942Y-147022418D01*
X71015645Y-147079642D01*
X71024485Y-147091163D01*
X71085110Y-147170171D01*
X71094817Y-147206396D01*
X71085110Y-147229829D01*
X71068214Y-147251849D01*
X71015645Y-147320358D01*
X71014416Y-147323325D01*
X70961000Y-147452280D01*
X70960999Y-147452284D01*
X70959772Y-147455246D01*
X70959353Y-147458427D01*
X70959353Y-147458428D01*
X70951566Y-147517576D01*
X70940715Y-147600000D01*
X67883785Y-147600000D01*
X67872934Y-147517576D01*
X67865147Y-147458428D01*
X67865147Y-147458427D01*
X67864728Y-147455246D01*
X67863501Y-147452284D01*
X67863500Y-147452280D01*
X67810084Y-147323325D01*
X67808855Y-147320358D01*
X67719974Y-147204526D01*
X67718219Y-147203179D01*
X67704000Y-147168848D01*
X67704000Y-147052990D01*
X67718352Y-147018342D01*
X68060511Y-146676183D01*
X68068576Y-146669669D01*
X68083440Y-146660071D01*
X68107041Y-146630133D01*
X68110873Y-146625821D01*
X68115138Y-146621556D01*
X68127419Y-146604371D01*
X68128804Y-146602527D01*
X68159147Y-146564036D01*
X68159148Y-146564035D01*
X68161656Y-146560853D01*
X68162999Y-146557028D01*
X68164948Y-146553483D01*
X68165096Y-146553564D01*
X68166028Y-146551771D01*
X68165878Y-146551697D01*
X68167659Y-146548061D01*
X68170014Y-146544766D01*
X68185229Y-146493890D01*
X68185943Y-146491696D01*
X68186140Y-146491134D01*
X68203518Y-146441649D01*
X68204000Y-146436084D01*
X68204013Y-146436085D01*
X68204760Y-146431651D01*
X68204545Y-146431624D01*
X68205053Y-146427602D01*
X68206213Y-146423722D01*
X68206167Y-146422562D01*
X68219112Y-146396135D01*
X68219974Y-146395474D01*
X68308855Y-146279642D01*
X68341844Y-146200000D01*
X68363500Y-146147720D01*
X68363501Y-146147716D01*
X68364728Y-146144754D01*
X68372965Y-146082191D01*
X68383366Y-146003183D01*
X68383785Y-146000000D01*
X68381841Y-145985230D01*
X68365147Y-145858428D01*
X68365147Y-145858427D01*
X68364728Y-145855246D01*
X68363501Y-145852284D01*
X68363500Y-145852280D01*
X68310084Y-145723325D01*
X68308855Y-145720358D01*
X68231583Y-145619655D01*
X68221930Y-145607075D01*
X68219974Y-145604526D01*
X68104143Y-145515645D01*
X68101180Y-145514418D01*
X68101177Y-145514416D01*
X67972220Y-145461000D01*
X67972216Y-145460999D01*
X67969254Y-145459772D01*
X67966073Y-145459353D01*
X67966072Y-145459353D01*
X67827683Y-145441134D01*
X67824500Y-145440715D01*
X67821317Y-145441134D01*
X67682928Y-145459353D01*
X67682927Y-145459353D01*
X67679746Y-145459772D01*
X67676784Y-145460999D01*
X67676780Y-145461000D01*
X67574246Y-145503472D01*
X67544858Y-145515645D01*
X67542309Y-145517601D01*
X67459909Y-145580829D01*
X67429026Y-145604526D01*
X67427070Y-145607075D01*
X67417417Y-145619655D01*
X67340145Y-145720358D01*
X67338916Y-145723325D01*
X67285500Y-145852280D01*
X67285499Y-145852284D01*
X67284272Y-145855246D01*
X67283853Y-145858427D01*
X67283853Y-145858428D01*
X67267159Y-145985230D01*
X67265215Y-146000000D01*
X67265634Y-146003183D01*
X67276036Y-146082191D01*
X67284272Y-146144754D01*
X67285499Y-146147716D01*
X67285500Y-146147720D01*
X67340145Y-146279642D01*
X67338380Y-146280373D01*
X67342469Y-146311573D01*
X67329794Y-146333512D01*
X67088489Y-146574817D01*
X67080424Y-146581331D01*
X67065560Y-146590929D01*
X67042710Y-146619914D01*
X67041960Y-146620866D01*
X67038127Y-146625179D01*
X67033862Y-146629444D01*
X67032689Y-146631086D01*
X67021581Y-146646629D01*
X67020196Y-146648473D01*
X66992021Y-146684214D01*
X66987344Y-146690147D01*
X66986001Y-146693972D01*
X66984052Y-146697517D01*
X66983904Y-146697436D01*
X66982972Y-146699229D01*
X66983122Y-146699303D01*
X66981341Y-146702939D01*
X66978986Y-146706234D01*
X66970189Y-146735648D01*
X66963771Y-146757109D01*
X66963058Y-146759302D01*
X66945482Y-146809351D01*
X66945000Y-146814916D01*
X66944987Y-146814915D01*
X66944239Y-146819352D01*
X66944455Y-146819379D01*
X66943947Y-146823398D01*
X66942787Y-146827278D01*
X66942946Y-146831327D01*
X66944962Y-146882637D01*
X66945000Y-146884561D01*
X66945000Y-147168848D01*
X66930781Y-147203179D01*
X66929026Y-147204526D01*
X66840145Y-147320358D01*
X66838916Y-147323325D01*
X66785500Y-147452280D01*
X66785499Y-147452284D01*
X66784272Y-147455246D01*
X66783853Y-147458427D01*
X66783853Y-147458428D01*
X66776066Y-147517576D01*
X66765215Y-147600000D01*
X66430367Y-147600000D01*
X66484355Y-147529642D01*
X66496633Y-147500000D01*
X66539000Y-147397720D01*
X66539001Y-147397716D01*
X66540228Y-147394754D01*
X66540942Y-147389335D01*
X66558866Y-147253183D01*
X66559285Y-147250000D01*
X66557530Y-147236672D01*
X66540647Y-147108428D01*
X66540647Y-147108427D01*
X66540228Y-147105246D01*
X66539001Y-147102284D01*
X66539000Y-147102280D01*
X66485584Y-146973325D01*
X66484355Y-146970358D01*
X66431660Y-146901684D01*
X66397430Y-146857075D01*
X66395474Y-146854526D01*
X66343213Y-146814424D01*
X66282192Y-146767601D01*
X66279643Y-146765645D01*
X66273731Y-146763196D01*
X66147720Y-146711000D01*
X66147716Y-146710999D01*
X66144754Y-146709772D01*
X66141573Y-146709353D01*
X66141572Y-146709353D01*
X66003183Y-146691134D01*
X66000000Y-146690715D01*
X65996817Y-146691134D01*
X65858428Y-146709353D01*
X65858427Y-146709353D01*
X65855246Y-146709772D01*
X65852284Y-146710999D01*
X65852280Y-146711000D01*
X65726270Y-146763196D01*
X65720358Y-146765645D01*
X65717809Y-146767601D01*
X65634760Y-146831327D01*
X65604526Y-146854526D01*
X65602570Y-146857075D01*
X65568340Y-146901684D01*
X65515645Y-146970358D01*
X65514416Y-146973325D01*
X65461000Y-147102280D01*
X65460999Y-147102284D01*
X65459772Y-147105246D01*
X65459353Y-147108427D01*
X65459353Y-147108428D01*
X65442470Y-147236672D01*
X65440715Y-147250000D01*
X65441134Y-147253183D01*
X65459059Y-147389335D01*
X65459772Y-147394754D01*
X65460999Y-147397716D01*
X65461000Y-147397720D01*
X65508393Y-147512135D01*
X65508393Y-147549638D01*
X65497771Y-147565535D01*
X64742673Y-148320633D01*
X64714421Y-148334566D01*
X64659789Y-148341758D01*
X64595826Y-148350179D01*
X64595825Y-148350179D01*
X64592644Y-148350598D01*
X64589682Y-148351825D01*
X64589678Y-148351826D01*
X64460723Y-148405242D01*
X64457756Y-148406471D01*
X64341924Y-148495352D01*
X64253043Y-148611184D01*
X64251814Y-148614151D01*
X64198398Y-148743106D01*
X64198397Y-148743110D01*
X64197170Y-148746072D01*
X64196751Y-148749253D01*
X64196751Y-148749254D01*
X64183188Y-148852280D01*
X64178113Y-148890826D01*
X58044912Y-148890826D01*
X58040647Y-148858428D01*
X58040647Y-148858427D01*
X58040228Y-148855246D01*
X58039001Y-148852284D01*
X58039000Y-148852280D01*
X57985584Y-148723325D01*
X57984355Y-148720358D01*
X57895474Y-148604526D01*
X57779643Y-148515645D01*
X57776680Y-148514418D01*
X57776677Y-148514416D01*
X57647720Y-148461000D01*
X57647716Y-148460999D01*
X57644754Y-148459772D01*
X57641573Y-148459353D01*
X57641572Y-148459353D01*
X57503183Y-148441134D01*
X57500000Y-148440715D01*
X57496817Y-148441134D01*
X57358428Y-148459353D01*
X57358427Y-148459353D01*
X57355246Y-148459772D01*
X57352284Y-148460999D01*
X57352280Y-148461000D01*
X57274071Y-148493396D01*
X57220358Y-148515645D01*
X57104526Y-148604526D01*
X57102570Y-148607075D01*
X57038874Y-148690085D01*
X57006396Y-148708837D01*
X56970171Y-148699130D01*
X56961126Y-148690085D01*
X56897430Y-148607075D01*
X56895474Y-148604526D01*
X56779643Y-148515645D01*
X56776680Y-148514418D01*
X56776677Y-148514416D01*
X56647720Y-148461000D01*
X56647716Y-148460999D01*
X56644754Y-148459772D01*
X56641573Y-148459353D01*
X56641572Y-148459353D01*
X56503183Y-148441134D01*
X56500000Y-148440715D01*
X56496817Y-148441134D01*
X56358428Y-148459353D01*
X56358427Y-148459353D01*
X56355246Y-148459772D01*
X56352284Y-148460999D01*
X56352280Y-148461000D01*
X56274071Y-148493396D01*
X56220358Y-148515645D01*
X56104526Y-148604526D01*
X56015645Y-148720358D01*
X56014416Y-148723325D01*
X55961000Y-148852280D01*
X55960999Y-148852284D01*
X55959772Y-148855246D01*
X55959353Y-148858427D01*
X55959353Y-148858428D01*
X55941524Y-148993852D01*
X55940715Y-149000000D01*
X55941134Y-149003183D01*
X55958590Y-149135772D01*
X55959772Y-149144754D01*
X55960999Y-149147716D01*
X55961000Y-149147720D01*
X56014416Y-149276675D01*
X56015645Y-149279642D01*
X56104526Y-149395474D01*
X56178557Y-149452280D01*
X56190085Y-149461126D01*
X56208837Y-149493604D01*
X56199130Y-149529829D01*
X56190085Y-149538874D01*
X56110424Y-149600000D01*
X56104526Y-149604526D01*
X56102570Y-149607075D01*
X56060880Y-149661406D01*
X56015645Y-149720358D01*
X56014416Y-149723325D01*
X55961000Y-149852280D01*
X55960999Y-149852284D01*
X55959772Y-149855246D01*
X55959353Y-149858427D01*
X55959353Y-149858428D01*
X55950243Y-149927626D01*
X55940715Y-150000000D01*
X50450000Y-150000000D01*
X50450000Y-149781405D01*
X50450603Y-149773739D01*
X50453760Y-149753807D01*
X50454363Y-149750000D01*
X50453669Y-149745616D01*
X50453374Y-149743439D01*
X50438021Y-149607180D01*
X50437713Y-149604446D01*
X50406640Y-149515645D01*
X50390244Y-149468788D01*
X50390243Y-149468786D01*
X50389335Y-149466191D01*
X50311406Y-149342167D01*
X50207833Y-149238594D01*
X50083809Y-149160665D01*
X50081214Y-149159757D01*
X50081212Y-149159756D01*
X49960740Y-149117601D01*
X49945554Y-149112287D01*
X49933458Y-149110924D01*
X49876235Y-149104476D01*
X49865492Y-149102018D01*
X49863918Y-149101466D01*
X49863917Y-149101466D01*
X49861007Y-149100444D01*
X49857932Y-149100178D01*
X49856936Y-149100091D01*
X49856927Y-149100091D01*
X49855881Y-149100000D01*
X49839257Y-149100000D01*
X49833773Y-149099692D01*
X49806557Y-149096626D01*
X49804384Y-149096331D01*
X49803809Y-149096240D01*
X49803808Y-149096240D01*
X49800000Y-149095637D01*
X49793756Y-149096626D01*
X49776261Y-149099397D01*
X49768595Y-149100000D01*
X48499000Y-149100000D01*
X48464352Y-149085648D01*
X48450000Y-149051000D01*
X48450000Y-147531978D01*
X48464352Y-147497330D01*
X48499000Y-147482978D01*
X48533648Y-147497330D01*
X48546929Y-147521790D01*
X48585031Y-147701045D01*
X48662365Y-147874741D01*
X48663872Y-147876815D01*
X48663873Y-147876817D01*
X48746062Y-147989939D01*
X48774123Y-148028562D01*
X48776024Y-148030274D01*
X48776028Y-148030278D01*
X48896777Y-148139000D01*
X48915420Y-148155786D01*
X49080080Y-148250853D01*
X49260908Y-148309608D01*
X49304737Y-148314214D01*
X49401331Y-148324367D01*
X49401336Y-148324367D01*
X49402599Y-148324500D01*
X50797401Y-148324500D01*
X50798664Y-148324367D01*
X50798669Y-148324367D01*
X50895263Y-148314214D01*
X50939092Y-148309608D01*
X51119920Y-148250853D01*
X51284580Y-148155786D01*
X51303223Y-148139000D01*
X51423972Y-148030278D01*
X51423976Y-148030274D01*
X51425877Y-148028562D01*
X51453939Y-147989939D01*
X51536127Y-147876817D01*
X51536128Y-147876815D01*
X51537635Y-147874741D01*
X51614969Y-147701045D01*
X51650860Y-147532191D01*
X51653967Y-147517576D01*
X51653967Y-147517573D01*
X51654500Y-147515067D01*
X51654500Y-147324933D01*
X51653763Y-147321463D01*
X51631730Y-147217809D01*
X51614969Y-147138955D01*
X51537635Y-146965259D01*
X51534541Y-146961000D01*
X51427382Y-146813509D01*
X51427380Y-146813507D01*
X51425877Y-146811438D01*
X51423976Y-146809726D01*
X51423972Y-146809722D01*
X51286494Y-146685937D01*
X51286492Y-146685935D01*
X51284580Y-146684214D01*
X51126464Y-146592925D01*
X51122146Y-146590432D01*
X51122145Y-146590431D01*
X51119920Y-146589147D01*
X50939092Y-146530392D01*
X50871853Y-146523325D01*
X50798669Y-146515633D01*
X50798664Y-146515633D01*
X50797401Y-146515500D01*
X49402599Y-146515500D01*
X49401336Y-146515633D01*
X49401331Y-146515633D01*
X49328147Y-146523325D01*
X49260908Y-146530392D01*
X49080080Y-146589147D01*
X49077855Y-146590431D01*
X49077854Y-146590432D01*
X49073536Y-146592925D01*
X48915420Y-146684214D01*
X48913508Y-146685935D01*
X48913506Y-146685937D01*
X48776028Y-146809722D01*
X48776024Y-146809726D01*
X48774123Y-146811438D01*
X48772620Y-146813507D01*
X48772618Y-146813509D01*
X48665459Y-146961000D01*
X48662365Y-146965259D01*
X48585031Y-147138955D01*
X48568270Y-147217809D01*
X48546929Y-147318210D01*
X48525687Y-147349117D01*
X48488812Y-147355951D01*
X48457905Y-147334709D01*
X48450000Y-147308022D01*
X48450000Y-145800000D01*
X51740715Y-145800000D01*
X51741134Y-145803183D01*
X51758669Y-145936372D01*
X51759772Y-145944754D01*
X51760999Y-145947716D01*
X51761000Y-145947720D01*
X51805540Y-146055246D01*
X51815645Y-146079642D01*
X51904526Y-146195474D01*
X52020357Y-146284355D01*
X52023320Y-146285582D01*
X52023323Y-146285584D01*
X52152280Y-146339000D01*
X52152284Y-146339001D01*
X52155246Y-146340228D01*
X52158427Y-146340647D01*
X52158428Y-146340647D01*
X52296817Y-146358866D01*
X52300000Y-146359285D01*
X52303183Y-146358866D01*
X52441572Y-146340647D01*
X52441573Y-146340647D01*
X52444754Y-146340228D01*
X52447716Y-146339001D01*
X52447720Y-146339000D01*
X52576679Y-146285583D01*
X52576681Y-146285582D01*
X52579643Y-146284355D01*
X52580770Y-146283490D01*
X52617347Y-146278675D01*
X52647100Y-146301505D01*
X52653212Y-146319354D01*
X52660905Y-146375518D01*
X52721242Y-146514946D01*
X52723343Y-146517541D01*
X52723344Y-146517542D01*
X52728027Y-146523325D01*
X52816850Y-146633013D01*
X52839894Y-146649390D01*
X52859823Y-146681158D01*
X52851451Y-146717714D01*
X52844296Y-146725744D01*
X52751028Y-146809722D01*
X52751025Y-146809726D01*
X52749123Y-146811438D01*
X52747620Y-146813507D01*
X52747618Y-146813509D01*
X52640459Y-146961000D01*
X52637365Y-146965259D01*
X52560031Y-147138955D01*
X52543270Y-147217809D01*
X52521238Y-147321463D01*
X52520500Y-147324933D01*
X52520500Y-147515067D01*
X52521033Y-147517573D01*
X52521033Y-147517576D01*
X52524140Y-147532191D01*
X52560031Y-147701045D01*
X52637365Y-147874741D01*
X52638872Y-147876815D01*
X52638873Y-147876817D01*
X52721062Y-147989939D01*
X52749123Y-148028562D01*
X52751024Y-148030274D01*
X52751028Y-148030278D01*
X52871777Y-148139000D01*
X52890420Y-148155786D01*
X53055080Y-148250853D01*
X53235908Y-148309608D01*
X53279737Y-148314214D01*
X53376331Y-148324367D01*
X53376336Y-148324367D01*
X53377599Y-148324500D01*
X54472401Y-148324500D01*
X54473664Y-148324367D01*
X54473669Y-148324367D01*
X54570263Y-148314214D01*
X54614092Y-148309608D01*
X54794920Y-148250853D01*
X54959580Y-148155786D01*
X54978223Y-148139000D01*
X55098972Y-148030278D01*
X55098976Y-148030274D01*
X55100877Y-148028562D01*
X55128939Y-147989939D01*
X55211127Y-147876817D01*
X55211128Y-147876815D01*
X55212635Y-147874741D01*
X55289969Y-147701045D01*
X55325860Y-147532191D01*
X55328967Y-147517576D01*
X55328967Y-147517573D01*
X55329500Y-147515067D01*
X55329500Y-147324933D01*
X55328763Y-147321463D01*
X55306730Y-147217809D01*
X55289969Y-147138955D01*
X55212635Y-146965259D01*
X55209541Y-146961000D01*
X55102382Y-146813509D01*
X55102380Y-146813507D01*
X55100877Y-146811438D01*
X55098976Y-146809726D01*
X55098972Y-146809722D01*
X54961494Y-146685937D01*
X54961492Y-146685935D01*
X54959580Y-146684214D01*
X54801464Y-146592925D01*
X54797146Y-146590432D01*
X54797145Y-146590431D01*
X54794920Y-146589147D01*
X54614092Y-146530392D01*
X54546853Y-146523325D01*
X54473669Y-146515633D01*
X54473664Y-146515633D01*
X54472401Y-146515500D01*
X53758300Y-146515500D01*
X53723652Y-146501148D01*
X53709300Y-146466500D01*
X53712188Y-146452907D01*
X53711323Y-146452656D01*
X53752991Y-146309236D01*
X53753709Y-146306765D01*
X53753897Y-146304203D01*
X53753898Y-146304198D01*
X53754433Y-146296901D01*
X53754500Y-146295993D01*
X53754500Y-145936943D01*
X53753974Y-145933097D01*
X53739548Y-145827789D01*
X53739095Y-145824482D01*
X53678758Y-145685054D01*
X53583150Y-145566987D01*
X53549722Y-145543231D01*
X53529794Y-145511463D01*
X53538167Y-145474906D01*
X53548278Y-145464417D01*
X53554877Y-145459353D01*
X53569554Y-145448091D01*
X53658435Y-145332259D01*
X53664596Y-145317385D01*
X53713080Y-145200337D01*
X53713081Y-145200333D01*
X53714308Y-145197371D01*
X53715072Y-145191572D01*
X53732946Y-145055800D01*
X53733365Y-145052617D01*
X53732625Y-145046994D01*
X53732109Y-145043075D01*
X53741816Y-145006850D01*
X53774295Y-144988099D01*
X53810520Y-144997806D01*
X53815338Y-145002032D01*
X56099317Y-147286011D01*
X56105831Y-147294076D01*
X56115429Y-147308940D01*
X56141690Y-147329642D01*
X56145366Y-147332540D01*
X56149679Y-147336373D01*
X56153944Y-147340638D01*
X56155589Y-147341813D01*
X56155593Y-147341817D01*
X56171134Y-147352923D01*
X56172977Y-147354307D01*
X56214647Y-147387156D01*
X56218471Y-147388499D01*
X56222017Y-147390448D01*
X56221936Y-147390596D01*
X56223727Y-147391527D01*
X56223801Y-147391376D01*
X56227439Y-147393158D01*
X56230734Y-147395513D01*
X56234613Y-147396673D01*
X56234615Y-147396674D01*
X56281578Y-147410719D01*
X56283772Y-147411432D01*
X56333851Y-147429018D01*
X56336920Y-147429284D01*
X56336921Y-147429284D01*
X56338364Y-147429409D01*
X56338367Y-147429409D01*
X56339416Y-147429500D01*
X56339415Y-147429513D01*
X56343852Y-147430261D01*
X56343879Y-147430045D01*
X56347898Y-147430553D01*
X56351778Y-147431713D01*
X56355827Y-147431554D01*
X56407137Y-147429538D01*
X56409061Y-147429500D01*
X57418848Y-147429500D01*
X57453179Y-147443719D01*
X57454526Y-147445474D01*
X57570357Y-147534355D01*
X57573320Y-147535582D01*
X57573323Y-147535584D01*
X57702280Y-147589000D01*
X57702284Y-147589001D01*
X57705246Y-147590228D01*
X57708427Y-147590647D01*
X57708428Y-147590647D01*
X57846817Y-147608866D01*
X57850000Y-147609285D01*
X57853183Y-147608866D01*
X57991572Y-147590647D01*
X57991573Y-147590647D01*
X57994754Y-147590228D01*
X57997716Y-147589001D01*
X57997720Y-147589000D01*
X58126677Y-147535584D01*
X58126680Y-147535582D01*
X58129643Y-147534355D01*
X58245474Y-147445474D01*
X58334355Y-147329642D01*
X58338201Y-147320358D01*
X58389000Y-147197720D01*
X58389001Y-147197716D01*
X58390228Y-147194754D01*
X58394488Y-147162400D01*
X58408866Y-147053183D01*
X58409285Y-147050000D01*
X58398800Y-146970358D01*
X58390647Y-146908428D01*
X58390647Y-146908427D01*
X58390228Y-146905246D01*
X58389001Y-146902284D01*
X58389000Y-146902280D01*
X58335584Y-146773325D01*
X58334355Y-146770358D01*
X58245474Y-146654526D01*
X58204564Y-146623134D01*
X58132192Y-146567601D01*
X58129643Y-146565645D01*
X58126680Y-146564418D01*
X58126677Y-146564416D01*
X57997720Y-146511000D01*
X57997716Y-146510999D01*
X57994754Y-146509772D01*
X57991573Y-146509353D01*
X57991572Y-146509353D01*
X57853183Y-146491134D01*
X57850000Y-146490715D01*
X57846817Y-146491134D01*
X57708428Y-146509353D01*
X57708427Y-146509353D01*
X57705246Y-146509772D01*
X57702284Y-146510999D01*
X57702280Y-146511000D01*
X57604031Y-146551697D01*
X57570358Y-146565645D01*
X57454526Y-146654526D01*
X57453179Y-146656281D01*
X57418848Y-146670500D01*
X56577490Y-146670500D01*
X56542842Y-146656148D01*
X56148644Y-146261950D01*
X56134292Y-146227302D01*
X56148644Y-146192654D01*
X56164541Y-146182032D01*
X56276674Y-146135585D01*
X56276675Y-146135584D01*
X56279643Y-146134355D01*
X56395474Y-146045474D01*
X56426872Y-146004556D01*
X56476950Y-145939292D01*
X56484355Y-145929642D01*
X56504670Y-145880598D01*
X56539000Y-145797720D01*
X56539001Y-145797716D01*
X56540228Y-145794754D01*
X56544550Y-145761929D01*
X56558866Y-145653183D01*
X56559285Y-145650000D01*
X56541114Y-145511978D01*
X56540647Y-145508428D01*
X56540647Y-145508427D01*
X56540228Y-145505246D01*
X56539001Y-145502284D01*
X56539000Y-145502280D01*
X56485584Y-145373325D01*
X56484355Y-145370358D01*
X56395474Y-145254526D01*
X56376157Y-145239703D01*
X56313327Y-145191492D01*
X56279643Y-145165645D01*
X56276680Y-145164418D01*
X56276677Y-145164416D01*
X56147720Y-145111000D01*
X56147716Y-145110999D01*
X56144754Y-145109772D01*
X56141573Y-145109353D01*
X56141572Y-145109353D01*
X56070528Y-145100000D01*
X64240715Y-145100000D01*
X64241134Y-145103183D01*
X64258710Y-145236684D01*
X64259772Y-145244754D01*
X64260999Y-145247716D01*
X64261000Y-145247720D01*
X64310744Y-145367809D01*
X64315645Y-145379642D01*
X64404526Y-145495474D01*
X64407075Y-145497430D01*
X64412718Y-145501760D01*
X64520357Y-145584355D01*
X64523320Y-145585582D01*
X64523323Y-145585584D01*
X64652280Y-145639000D01*
X64652284Y-145639001D01*
X64655246Y-145640228D01*
X64658427Y-145640647D01*
X64658428Y-145640647D01*
X64796817Y-145658866D01*
X64800000Y-145659285D01*
X64803183Y-145658866D01*
X64941572Y-145640647D01*
X64941573Y-145640647D01*
X64944754Y-145640228D01*
X64947716Y-145639001D01*
X64947720Y-145639000D01*
X65076677Y-145585584D01*
X65076680Y-145585582D01*
X65079643Y-145584355D01*
X65187282Y-145501760D01*
X65192925Y-145497430D01*
X65195474Y-145495474D01*
X65284355Y-145379642D01*
X65289256Y-145367809D01*
X65339000Y-145247720D01*
X65339001Y-145247716D01*
X65340228Y-145244754D01*
X65341291Y-145236684D01*
X65358866Y-145103183D01*
X65359285Y-145100000D01*
X65357341Y-145085230D01*
X65340647Y-144958428D01*
X65340647Y-144958427D01*
X65340228Y-144955246D01*
X65339001Y-144952284D01*
X65339000Y-144952280D01*
X65284355Y-144820358D01*
X65285645Y-144819823D01*
X65281369Y-144787313D01*
X65284518Y-144779710D01*
X65284355Y-144779642D01*
X65339000Y-144647720D01*
X65339001Y-144647716D01*
X65340228Y-144644754D01*
X65346616Y-144596236D01*
X65358866Y-144503183D01*
X65359285Y-144500000D01*
X65356253Y-144476966D01*
X65340647Y-144358428D01*
X65340647Y-144358427D01*
X65340228Y-144355246D01*
X65339001Y-144352284D01*
X65339000Y-144352280D01*
X65285584Y-144223325D01*
X65284355Y-144220358D01*
X65195474Y-144104526D01*
X65079643Y-144015645D01*
X65076680Y-144014418D01*
X65076677Y-144014416D01*
X64947720Y-143961000D01*
X64947716Y-143960999D01*
X64944754Y-143959772D01*
X64941573Y-143959353D01*
X64941572Y-143959353D01*
X64803183Y-143941134D01*
X64800000Y-143940715D01*
X64796817Y-143941134D01*
X64658428Y-143959353D01*
X64658427Y-143959353D01*
X64655246Y-143959772D01*
X64652284Y-143960999D01*
X64652280Y-143961000D01*
X64532880Y-144010458D01*
X64520358Y-144015645D01*
X64517809Y-144017601D01*
X64434558Y-144081482D01*
X64404526Y-144104526D01*
X64315645Y-144220358D01*
X64314416Y-144223325D01*
X64261000Y-144352280D01*
X64260999Y-144352284D01*
X64259772Y-144355246D01*
X64259353Y-144358427D01*
X64259353Y-144358428D01*
X64243747Y-144476966D01*
X64240715Y-144500000D01*
X64241134Y-144503183D01*
X64253385Y-144596236D01*
X64259772Y-144644754D01*
X64260999Y-144647716D01*
X64261000Y-144647720D01*
X64315645Y-144779642D01*
X64314355Y-144780177D01*
X64318631Y-144812687D01*
X64315482Y-144820290D01*
X64315645Y-144820358D01*
X64261000Y-144952280D01*
X64260999Y-144952284D01*
X64259772Y-144955246D01*
X64259353Y-144958427D01*
X64259353Y-144958428D01*
X64242659Y-145085230D01*
X64240715Y-145100000D01*
X56070528Y-145100000D01*
X56003183Y-145091134D01*
X56000000Y-145090715D01*
X55996817Y-145091134D01*
X55858428Y-145109353D01*
X55858427Y-145109353D01*
X55855246Y-145109772D01*
X55852284Y-145110999D01*
X55852280Y-145111000D01*
X55729771Y-145161746D01*
X55720358Y-145165645D01*
X55604526Y-145254526D01*
X55515645Y-145370358D01*
X55514418Y-145373321D01*
X55514416Y-145373324D01*
X55486599Y-145440480D01*
X55472340Y-145474906D01*
X55467968Y-145485460D01*
X55441449Y-145511978D01*
X55403946Y-145511978D01*
X55388050Y-145501356D01*
X53879816Y-143993122D01*
X53873302Y-143985057D01*
X53863704Y-143970193D01*
X53833766Y-143946592D01*
X53829454Y-143942760D01*
X53825189Y-143938495D01*
X53808004Y-143926214D01*
X53806160Y-143924829D01*
X53767669Y-143894486D01*
X53767668Y-143894485D01*
X53764486Y-143891977D01*
X53760661Y-143890634D01*
X53757116Y-143888685D01*
X53757197Y-143888537D01*
X53755404Y-143887605D01*
X53755330Y-143887755D01*
X53751694Y-143885974D01*
X53748399Y-143883619D01*
X53697523Y-143868404D01*
X53695329Y-143867690D01*
X53691906Y-143866488D01*
X53645282Y-143850115D01*
X53642213Y-143849849D01*
X53642212Y-143849849D01*
X53640769Y-143849724D01*
X53640766Y-143849724D01*
X53639717Y-143849633D01*
X53639718Y-143849620D01*
X53635281Y-143848872D01*
X53635254Y-143849088D01*
X53631235Y-143848580D01*
X53627355Y-143847420D01*
X53623306Y-143847579D01*
X53571996Y-143849595D01*
X53570072Y-143849633D01*
X53255559Y-143849633D01*
X53230850Y-143839399D01*
X66840800Y-143839399D01*
X66841067Y-143842122D01*
X66841067Y-143842123D01*
X66853958Y-143973595D01*
X66857318Y-144007862D01*
X66858180Y-144010453D01*
X66858181Y-144010458D01*
X66883830Y-144087561D01*
X66910748Y-144168479D01*
X66912167Y-144170823D01*
X66912168Y-144170824D01*
X66942167Y-144220358D01*
X66998435Y-144313267D01*
X67000335Y-144315235D01*
X67000337Y-144315237D01*
X67024192Y-144339939D01*
X67116021Y-144435031D01*
X67257660Y-144527717D01*
X67416315Y-144586720D01*
X67419024Y-144587081D01*
X67419026Y-144587082D01*
X67479465Y-144595146D01*
X67584099Y-144609107D01*
X67586824Y-144608859D01*
X67586826Y-144608859D01*
X67749941Y-144594015D01*
X67749944Y-144594014D01*
X67752673Y-144593766D01*
X67913659Y-144541458D01*
X67916012Y-144540055D01*
X67916015Y-144540054D01*
X68056703Y-144456187D01*
X68056705Y-144456185D01*
X68059056Y-144454784D01*
X68070494Y-144443892D01*
X68179657Y-144339939D01*
X68179659Y-144339936D01*
X68181638Y-144338052D01*
X68199988Y-144310434D01*
X68273793Y-144199348D01*
X68273794Y-144199347D01*
X68275311Y-144197063D01*
X68277188Y-144192123D01*
X68334447Y-144041387D01*
X68334448Y-144041382D01*
X68335420Y-144038824D01*
X68358978Y-143871200D01*
X68359001Y-143869606D01*
X68359252Y-143851545D01*
X68359274Y-143850000D01*
X68350598Y-143772651D01*
X68340712Y-143684508D01*
X68340711Y-143684504D01*
X68340406Y-143681784D01*
X68339505Y-143679197D01*
X68339504Y-143679192D01*
X68285639Y-143524515D01*
X68285637Y-143524512D01*
X68284738Y-143521929D01*
X68283289Y-143519610D01*
X68283287Y-143519606D01*
X68255726Y-143475500D01*
X69744559Y-143475500D01*
X69744978Y-143478683D01*
X69751701Y-143529746D01*
X69763616Y-143620254D01*
X69764843Y-143623216D01*
X69764844Y-143623220D01*
X69805934Y-143722418D01*
X69819489Y-143755142D01*
X69821445Y-143757691D01*
X69891985Y-143849620D01*
X69908370Y-143870974D01*
X70024201Y-143959855D01*
X70027164Y-143961082D01*
X70027167Y-143961084D01*
X70156124Y-144014500D01*
X70156128Y-144014501D01*
X70159090Y-144015728D01*
X70162271Y-144016147D01*
X70162272Y-144016147D01*
X70283882Y-144032157D01*
X70303844Y-144034785D01*
X70306035Y-144034497D01*
X70340368Y-144048718D01*
X71252172Y-144960522D01*
X71258686Y-144968587D01*
X71268284Y-144983451D01*
X71289684Y-145000321D01*
X71298221Y-145007051D01*
X71302534Y-145010884D01*
X71306799Y-145015149D01*
X71308444Y-145016324D01*
X71308448Y-145016328D01*
X71323989Y-145027434D01*
X71325832Y-145028818D01*
X71333130Y-145034571D01*
X71360060Y-145055800D01*
X71367502Y-145061667D01*
X71371326Y-145063010D01*
X71374872Y-145064959D01*
X71374791Y-145065107D01*
X71376582Y-145066038D01*
X71376656Y-145065887D01*
X71380294Y-145067669D01*
X71383589Y-145070024D01*
X71387468Y-145071184D01*
X71387470Y-145071185D01*
X71434433Y-145085230D01*
X71436627Y-145085943D01*
X71486706Y-145103529D01*
X71489775Y-145103795D01*
X71489776Y-145103795D01*
X71491219Y-145103920D01*
X71491222Y-145103920D01*
X71492271Y-145104011D01*
X71492270Y-145104024D01*
X71496707Y-145104772D01*
X71496734Y-145104556D01*
X71500753Y-145105064D01*
X71504633Y-145106224D01*
X71508682Y-145106065D01*
X71559992Y-145104049D01*
X71561916Y-145104011D01*
X72364035Y-145104011D01*
X72398683Y-145118363D01*
X73140842Y-145860522D01*
X73147356Y-145868587D01*
X73156954Y-145883451D01*
X73166700Y-145891134D01*
X73186891Y-145907051D01*
X73191204Y-145910884D01*
X73195469Y-145915149D01*
X73197114Y-145916324D01*
X73197118Y-145916328D01*
X73212659Y-145927434D01*
X73214502Y-145928818D01*
X73223241Y-145935707D01*
X73229479Y-145940624D01*
X73256172Y-145961667D01*
X73259996Y-145963010D01*
X73263542Y-145964959D01*
X73263461Y-145965107D01*
X73265252Y-145966038D01*
X73265326Y-145965887D01*
X73268964Y-145967669D01*
X73272259Y-145970024D01*
X73276138Y-145971184D01*
X73276140Y-145971185D01*
X73323103Y-145985230D01*
X73325297Y-145985943D01*
X73375376Y-146003529D01*
X73378445Y-146003795D01*
X73378446Y-146003795D01*
X73379889Y-146003920D01*
X73379892Y-146003920D01*
X73380941Y-146004011D01*
X73380940Y-146004024D01*
X73385377Y-146004772D01*
X73385404Y-146004556D01*
X73389423Y-146005064D01*
X73393303Y-146006224D01*
X73397352Y-146006065D01*
X73448662Y-146004049D01*
X73450586Y-146004011D01*
X77179764Y-146004011D01*
X77190078Y-146005109D01*
X77203402Y-146007978D01*
X77203403Y-146007978D01*
X77207365Y-146008831D01*
X77245217Y-146004351D01*
X77250974Y-146004011D01*
X77257013Y-146004011D01*
X77277850Y-146000542D01*
X77280140Y-146000217D01*
X77293993Y-145998577D01*
X77332830Y-145993981D01*
X77336482Y-145992227D01*
X77340372Y-145991097D01*
X77340419Y-145991258D01*
X77342342Y-145990650D01*
X77342288Y-145990491D01*
X77346117Y-145989180D01*
X77350115Y-145988515D01*
X77396845Y-145963301D01*
X77398842Y-145962283D01*
X77446721Y-145939292D01*
X77449077Y-145937312D01*
X77449079Y-145937310D01*
X77450195Y-145936372D01*
X77450204Y-145936363D01*
X77450997Y-145935697D01*
X77451006Y-145935707D01*
X77454672Y-145933097D01*
X77454539Y-145932926D01*
X77457738Y-145930445D01*
X77461303Y-145928521D01*
X77498920Y-145887827D01*
X77500254Y-145886440D01*
X77760522Y-145626172D01*
X77768587Y-145619658D01*
X77783451Y-145610060D01*
X77807052Y-145580122D01*
X77810884Y-145575810D01*
X77815149Y-145571545D01*
X77827430Y-145554360D01*
X77828815Y-145552516D01*
X77859158Y-145514025D01*
X77859159Y-145514024D01*
X77861667Y-145510842D01*
X77863010Y-145507017D01*
X77864959Y-145503472D01*
X77865107Y-145503553D01*
X77866039Y-145501760D01*
X77865889Y-145501686D01*
X77867670Y-145498050D01*
X77870025Y-145494755D01*
X77885240Y-145443879D01*
X77885954Y-145441685D01*
X77903529Y-145391638D01*
X77904011Y-145386073D01*
X77904024Y-145386074D01*
X77904772Y-145381637D01*
X77904556Y-145381610D01*
X77905064Y-145377591D01*
X77906224Y-145373711D01*
X77904049Y-145318352D01*
X77904011Y-145316428D01*
X77904011Y-144091796D01*
X77905109Y-144081482D01*
X77907978Y-144068158D01*
X77907978Y-144068157D01*
X77908831Y-144064195D01*
X77904351Y-144026343D01*
X77904011Y-144020586D01*
X77904011Y-144014547D01*
X77900542Y-143993707D01*
X77900217Y-143991420D01*
X77896481Y-143959855D01*
X77893981Y-143938730D01*
X77892227Y-143935078D01*
X77891097Y-143931188D01*
X77891258Y-143931141D01*
X77890650Y-143929218D01*
X77890491Y-143929272D01*
X77889180Y-143925443D01*
X77888515Y-143921445D01*
X77863301Y-143874715D01*
X77862283Y-143872718D01*
X77839292Y-143824839D01*
X77835698Y-143820563D01*
X77835707Y-143820555D01*
X77833097Y-143816888D01*
X77832926Y-143817021D01*
X77830445Y-143813822D01*
X77828521Y-143810257D01*
X77787839Y-143772651D01*
X77786452Y-143771317D01*
X77481714Y-143466579D01*
X77467493Y-143432246D01*
X77467781Y-143430056D01*
X77448724Y-143285302D01*
X77447497Y-143282340D01*
X77447496Y-143282336D01*
X77394080Y-143153381D01*
X77392851Y-143150414D01*
X77303970Y-143034582D01*
X77188139Y-142945701D01*
X77185176Y-142944474D01*
X77185173Y-142944472D01*
X77056216Y-142891056D01*
X77056212Y-142891055D01*
X77053250Y-142889828D01*
X77050069Y-142889409D01*
X77050068Y-142889409D01*
X76911679Y-142871190D01*
X76908496Y-142870771D01*
X76905313Y-142871190D01*
X76766924Y-142889409D01*
X76766923Y-142889409D01*
X76763742Y-142889828D01*
X76760780Y-142891055D01*
X76760776Y-142891056D01*
X76652839Y-142935766D01*
X76628854Y-142945701D01*
X76513022Y-143034582D01*
X76424141Y-143150414D01*
X76422912Y-143153381D01*
X76369496Y-143282336D01*
X76369495Y-143282340D01*
X76368268Y-143285302D01*
X76349211Y-143430056D01*
X76349630Y-143433239D01*
X76366973Y-143564970D01*
X76368268Y-143574810D01*
X76369495Y-143577772D01*
X76369496Y-143577776D01*
X76413707Y-143684508D01*
X76424141Y-143709698D01*
X76447941Y-143740715D01*
X76509205Y-143820555D01*
X76513022Y-143825530D01*
X76515571Y-143827486D01*
X76564421Y-143864970D01*
X76628853Y-143914411D01*
X76631816Y-143915638D01*
X76631819Y-143915640D01*
X76760776Y-143969056D01*
X76760780Y-143969057D01*
X76763742Y-143970284D01*
X76766923Y-143970703D01*
X76766924Y-143970703D01*
X76888534Y-143986713D01*
X76908496Y-143989341D01*
X76910687Y-143989053D01*
X76945020Y-144003274D01*
X77130659Y-144188913D01*
X77145011Y-144223561D01*
X77145011Y-144427966D01*
X77130659Y-144462614D01*
X77096011Y-144476966D01*
X77077260Y-144473236D01*
X77047722Y-144461001D01*
X77047719Y-144461000D01*
X77044754Y-144459772D01*
X77041573Y-144459353D01*
X77041572Y-144459353D01*
X76903183Y-144441134D01*
X76900000Y-144440715D01*
X76896817Y-144441134D01*
X76758428Y-144459353D01*
X76758427Y-144459353D01*
X76755246Y-144459772D01*
X76752284Y-144460999D01*
X76752280Y-144461000D01*
X76631572Y-144511000D01*
X76620358Y-144515645D01*
X76504526Y-144604526D01*
X76503179Y-144606281D01*
X76468848Y-144620500D01*
X74777490Y-144620500D01*
X74742842Y-144606148D01*
X74420331Y-144283637D01*
X74405979Y-144248989D01*
X74420331Y-144214341D01*
X74436228Y-144203719D01*
X74541570Y-144160085D01*
X74541571Y-144160084D01*
X74544539Y-144158855D01*
X74660370Y-144069974D01*
X74670177Y-144057194D01*
X74747295Y-143956691D01*
X74749251Y-143954142D01*
X74752378Y-143946593D01*
X74803896Y-143822220D01*
X74803897Y-143822216D01*
X74805124Y-143819254D01*
X74806309Y-143810257D01*
X74823762Y-143677683D01*
X74824181Y-143674500D01*
X74817430Y-143623220D01*
X74805543Y-143532928D01*
X74805543Y-143532927D01*
X74805124Y-143529746D01*
X74803897Y-143526784D01*
X74803896Y-143526780D01*
X74750480Y-143397825D01*
X74749251Y-143394858D01*
X74660370Y-143279026D01*
X74627235Y-143253600D01*
X74547088Y-143192101D01*
X74544539Y-143190145D01*
X74541576Y-143188918D01*
X74541573Y-143188916D01*
X74412616Y-143135500D01*
X74412612Y-143135499D01*
X74409650Y-143134272D01*
X74406469Y-143133853D01*
X74406468Y-143133853D01*
X74268079Y-143115634D01*
X74264896Y-143115215D01*
X74219566Y-143121183D01*
X74199131Y-143119547D01*
X74184776Y-143115254D01*
X74182586Y-143114542D01*
X74174510Y-143111706D01*
X74132525Y-143096962D01*
X74129456Y-143096696D01*
X74129455Y-143096696D01*
X74128012Y-143096571D01*
X74128009Y-143096571D01*
X74126960Y-143096480D01*
X74126961Y-143096467D01*
X74122524Y-143095719D01*
X74122497Y-143095935D01*
X74118478Y-143095427D01*
X74114598Y-143094267D01*
X74110549Y-143094426D01*
X74059239Y-143096442D01*
X74057315Y-143096480D01*
X73203470Y-143096480D01*
X73168822Y-143082128D01*
X72643852Y-142557158D01*
X72629500Y-142522510D01*
X72629500Y-142280045D01*
X72643852Y-142245397D01*
X72653410Y-142237956D01*
X72706703Y-142206187D01*
X72706705Y-142206185D01*
X72709056Y-142204784D01*
X72711039Y-142202896D01*
X72829657Y-142089939D01*
X72829659Y-142089936D01*
X72831638Y-142088052D01*
X72869023Y-142031784D01*
X72923793Y-141949348D01*
X72923794Y-141949347D01*
X72925311Y-141947063D01*
X72931355Y-141931152D01*
X72984447Y-141791387D01*
X72984448Y-141791382D01*
X72985420Y-141788824D01*
X73008978Y-141621200D01*
X73009274Y-141600000D01*
X72999052Y-141508866D01*
X72990712Y-141434508D01*
X72990711Y-141434504D01*
X72990406Y-141431784D01*
X72989505Y-141429197D01*
X72989504Y-141429192D01*
X72935639Y-141274515D01*
X72935637Y-141274512D01*
X72934738Y-141271929D01*
X72933289Y-141269610D01*
X72933287Y-141269606D01*
X72846491Y-141130704D01*
X72846490Y-141130703D01*
X72845038Y-141128379D01*
X72839433Y-141122734D01*
X72735031Y-141017601D01*
X72725764Y-141008269D01*
X72633947Y-140950000D01*
X72585156Y-140919036D01*
X72585154Y-140919035D01*
X72582844Y-140917569D01*
X72580266Y-140916651D01*
X72580264Y-140916650D01*
X72425962Y-140861706D01*
X72423381Y-140860787D01*
X72420661Y-140860463D01*
X72420658Y-140860462D01*
X72339341Y-140850766D01*
X72255301Y-140840745D01*
X72252580Y-140841031D01*
X72252577Y-140841031D01*
X72153338Y-140851461D01*
X72086957Y-140858438D01*
X72084364Y-140859321D01*
X72084363Y-140859321D01*
X72080057Y-140860787D01*
X71926717Y-140912988D01*
X71782544Y-141001684D01*
X71780589Y-141003598D01*
X71780587Y-141003600D01*
X71663561Y-141118201D01*
X71663559Y-141118204D01*
X71661605Y-141120117D01*
X71660122Y-141122417D01*
X71660122Y-141122418D01*
X71616421Y-141190228D01*
X71569909Y-141262400D01*
X71536116Y-141355246D01*
X71518011Y-141404990D01*
X71512015Y-141421463D01*
X71490800Y-141589399D01*
X71491067Y-141592122D01*
X71491067Y-141592123D01*
X71501987Y-141703493D01*
X71507318Y-141757862D01*
X71508180Y-141760453D01*
X71508181Y-141760458D01*
X71535894Y-141843766D01*
X71560748Y-141918479D01*
X71562167Y-141920823D01*
X71562168Y-141920824D01*
X71624763Y-142024180D01*
X71648435Y-142063267D01*
X71650335Y-142065235D01*
X71650337Y-142065237D01*
X71686981Y-142103183D01*
X71766021Y-142185031D01*
X71788896Y-142200000D01*
X71848331Y-142238893D01*
X71869464Y-142269874D01*
X71870500Y-142279894D01*
X71870500Y-142654275D01*
X71869402Y-142664589D01*
X71865680Y-142681876D01*
X71870160Y-142719725D01*
X71870500Y-142725485D01*
X71870500Y-142731524D01*
X71870831Y-142733512D01*
X71873969Y-142752364D01*
X71874294Y-142754651D01*
X71880530Y-142807341D01*
X71882284Y-142810993D01*
X71883414Y-142814883D01*
X71883253Y-142814930D01*
X71883861Y-142816853D01*
X71884020Y-142816799D01*
X71885331Y-142820628D01*
X71885996Y-142824626D01*
X71911210Y-142871356D01*
X71912228Y-142873353D01*
X71935219Y-142921232D01*
X71937199Y-142923588D01*
X71937201Y-142923590D01*
X71938139Y-142924706D01*
X71938148Y-142924715D01*
X71938705Y-142925378D01*
X71938814Y-142925508D01*
X71938804Y-142925517D01*
X71941414Y-142929183D01*
X71941585Y-142929050D01*
X71944067Y-142932250D01*
X71945990Y-142935814D01*
X71948962Y-142938561D01*
X71948964Y-142938564D01*
X71986683Y-142973430D01*
X71988070Y-142974764D01*
X72086283Y-143072977D01*
X72100635Y-143107625D01*
X72086283Y-143142273D01*
X72056757Y-143156357D01*
X72036957Y-143158438D01*
X71876717Y-143212988D01*
X71732544Y-143301684D01*
X71730589Y-143303598D01*
X71730587Y-143303600D01*
X71613561Y-143418201D01*
X71613559Y-143418204D01*
X71611605Y-143420117D01*
X71610122Y-143422417D01*
X71610122Y-143422418D01*
X71585604Y-143460462D01*
X71519909Y-143562400D01*
X71497035Y-143625247D01*
X71476544Y-143681546D01*
X71462015Y-143721463D01*
X71440800Y-143889399D01*
X71441067Y-143892122D01*
X71441067Y-143892124D01*
X71447705Y-143959824D01*
X71436803Y-143995707D01*
X71403720Y-144013371D01*
X71367837Y-144002469D01*
X71364291Y-143999253D01*
X70877062Y-143512024D01*
X70862841Y-143477691D01*
X70863129Y-143475500D01*
X70858591Y-143441031D01*
X70844491Y-143333928D01*
X70844491Y-143333927D01*
X70844072Y-143330746D01*
X70842845Y-143327784D01*
X70842844Y-143327780D01*
X70789428Y-143198825D01*
X70788199Y-143195858D01*
X70713097Y-143097983D01*
X70701274Y-143082575D01*
X70699318Y-143080026D01*
X70583487Y-142991145D01*
X70580524Y-142989918D01*
X70580521Y-142989916D01*
X70451564Y-142936500D01*
X70451560Y-142936499D01*
X70448598Y-142935272D01*
X70445417Y-142934853D01*
X70445416Y-142934853D01*
X70307027Y-142916634D01*
X70303844Y-142916215D01*
X70300661Y-142916634D01*
X70162272Y-142934853D01*
X70162271Y-142934853D01*
X70159090Y-142935272D01*
X70156128Y-142936499D01*
X70156124Y-142936500D01*
X70027169Y-142989916D01*
X70024202Y-142991145D01*
X69908370Y-143080026D01*
X69906414Y-143082575D01*
X69894591Y-143097983D01*
X69819489Y-143195858D01*
X69818260Y-143198825D01*
X69764844Y-143327780D01*
X69764843Y-143327784D01*
X69763616Y-143330746D01*
X69763197Y-143333927D01*
X69763197Y-143333928D01*
X69749097Y-143441031D01*
X69744559Y-143475500D01*
X68255726Y-143475500D01*
X68196491Y-143380704D01*
X68196490Y-143380703D01*
X68195038Y-143378379D01*
X68189119Y-143372418D01*
X68117452Y-143300249D01*
X68075764Y-143258269D01*
X68021335Y-143223727D01*
X67935156Y-143169036D01*
X67935154Y-143169035D01*
X67932844Y-143167569D01*
X67930266Y-143166651D01*
X67930264Y-143166650D01*
X67775962Y-143111706D01*
X67773381Y-143110787D01*
X67770661Y-143110463D01*
X67770658Y-143110462D01*
X67689341Y-143100766D01*
X67605301Y-143090745D01*
X67602580Y-143091031D01*
X67602577Y-143091031D01*
X67536433Y-143097983D01*
X67436957Y-143108438D01*
X67434364Y-143109321D01*
X67434363Y-143109321D01*
X67417050Y-143115215D01*
X67276717Y-143162988D01*
X67132544Y-143251684D01*
X67130589Y-143253598D01*
X67130587Y-143253600D01*
X67013561Y-143368201D01*
X67013559Y-143368204D01*
X67011605Y-143370117D01*
X66919909Y-143512400D01*
X66902547Y-143560102D01*
X66864664Y-143664186D01*
X66862015Y-143671463D01*
X66840800Y-143839399D01*
X53230850Y-143839399D01*
X53221228Y-143835414D01*
X53219881Y-143833659D01*
X53104050Y-143744778D01*
X53101087Y-143743551D01*
X53101084Y-143743549D01*
X52972127Y-143690133D01*
X52972123Y-143690132D01*
X52969161Y-143688905D01*
X52965980Y-143688486D01*
X52965979Y-143688486D01*
X52827590Y-143670267D01*
X52824407Y-143669848D01*
X52821224Y-143670267D01*
X52682835Y-143688486D01*
X52682834Y-143688486D01*
X52679653Y-143688905D01*
X52676691Y-143690132D01*
X52676687Y-143690133D01*
X52584355Y-143728379D01*
X52544765Y-143744778D01*
X52428933Y-143833659D01*
X52426977Y-143836208D01*
X52422438Y-143842123D01*
X52340052Y-143949491D01*
X52338823Y-143952458D01*
X52285407Y-144081413D01*
X52285406Y-144081417D01*
X52284179Y-144084379D01*
X52283760Y-144087560D01*
X52283760Y-144087561D01*
X52268468Y-144203719D01*
X52265122Y-144229133D01*
X52265541Y-144232316D01*
X52272298Y-144283637D01*
X52284179Y-144373887D01*
X52285406Y-144376849D01*
X52285407Y-144376853D01*
X52311620Y-144440135D01*
X52311620Y-144477638D01*
X52285102Y-144504157D01*
X52272746Y-144507468D01*
X52258428Y-144509353D01*
X52258427Y-144509353D01*
X52255246Y-144509772D01*
X52252284Y-144510999D01*
X52252280Y-144511000D01*
X52131200Y-144561154D01*
X52120358Y-144565645D01*
X52004526Y-144654526D01*
X52002570Y-144657075D01*
X51971605Y-144697430D01*
X51915645Y-144770358D01*
X51914416Y-144773325D01*
X51861000Y-144902280D01*
X51860999Y-144902284D01*
X51859772Y-144905246D01*
X51859353Y-144908427D01*
X51859353Y-144908428D01*
X51849476Y-144983451D01*
X51840715Y-145050000D01*
X51841134Y-145053183D01*
X51859343Y-145191492D01*
X51859772Y-145194754D01*
X51860999Y-145197716D01*
X51861000Y-145197720D01*
X51910568Y-145317385D01*
X51915645Y-145329642D01*
X51917863Y-145332532D01*
X51917919Y-145332741D01*
X51919205Y-145334969D01*
X51918608Y-145335314D01*
X51927568Y-145368755D01*
X51908817Y-145401233D01*
X51907073Y-145402571D01*
X51907070Y-145402574D01*
X51904526Y-145404526D01*
X51815645Y-145520358D01*
X51814416Y-145523325D01*
X51761000Y-145652280D01*
X51760999Y-145652284D01*
X51759772Y-145655246D01*
X51759353Y-145658427D01*
X51759353Y-145658428D01*
X51751200Y-145720358D01*
X51740715Y-145800000D01*
X48450000Y-145800000D01*
X48450000Y-140950000D01*
X51840715Y-140950000D01*
X51859772Y-141094754D01*
X51860999Y-141097716D01*
X51861000Y-141097720D01*
X51903084Y-141199317D01*
X51915645Y-141229642D01*
X52004526Y-141345474D01*
X52120357Y-141434355D01*
X52123320Y-141435582D01*
X52123323Y-141435584D01*
X52252280Y-141489000D01*
X52252284Y-141489001D01*
X52255246Y-141490228D01*
X52258427Y-141490647D01*
X52258428Y-141490647D01*
X52396817Y-141508866D01*
X52400000Y-141509285D01*
X52403183Y-141508866D01*
X52541572Y-141490647D01*
X52541573Y-141490647D01*
X52544754Y-141490228D01*
X52547716Y-141489001D01*
X52547720Y-141489000D01*
X52656715Y-141443852D01*
X52679643Y-141434355D01*
X52682189Y-141432401D01*
X52682193Y-141432399D01*
X52745171Y-141384074D01*
X52781396Y-141374367D01*
X52804829Y-141384074D01*
X52867807Y-141432399D01*
X52867811Y-141432401D01*
X52870357Y-141434355D01*
X52893285Y-141443852D01*
X53002280Y-141489000D01*
X53002284Y-141489001D01*
X53005246Y-141490228D01*
X53008427Y-141490647D01*
X53008428Y-141490647D01*
X53146817Y-141508866D01*
X53150000Y-141509285D01*
X53153183Y-141508866D01*
X53291572Y-141490647D01*
X53291573Y-141490647D01*
X53294754Y-141490228D01*
X53297716Y-141489001D01*
X53297720Y-141489000D01*
X53426677Y-141435584D01*
X53426680Y-141435582D01*
X53429643Y-141434355D01*
X53545474Y-141345474D01*
X53634355Y-141229642D01*
X53646916Y-141199317D01*
X53689000Y-141097720D01*
X53689001Y-141097716D01*
X53690228Y-141094754D01*
X53709285Y-140950000D01*
X53707364Y-140935411D01*
X53690647Y-140808428D01*
X53690647Y-140808427D01*
X53690228Y-140805246D01*
X53689001Y-140802284D01*
X53689000Y-140802280D01*
X53635584Y-140673325D01*
X53634355Y-140670358D01*
X53618734Y-140650000D01*
X55390715Y-140650000D01*
X55391134Y-140653183D01*
X55407108Y-140774515D01*
X55409772Y-140794754D01*
X55410999Y-140797716D01*
X55411000Y-140797720D01*
X55461252Y-140919036D01*
X55465645Y-140929642D01*
X55554526Y-141045474D01*
X55670357Y-141134355D01*
X55673320Y-141135582D01*
X55673323Y-141135584D01*
X55802280Y-141189000D01*
X55802284Y-141189001D01*
X55805246Y-141190228D01*
X55808427Y-141190647D01*
X55808428Y-141190647D01*
X55946817Y-141208866D01*
X55950000Y-141209285D01*
X55953183Y-141208866D01*
X56091572Y-141190647D01*
X56091573Y-141190647D01*
X56094754Y-141190228D01*
X56097716Y-141189001D01*
X56097720Y-141189000D01*
X56226677Y-141135584D01*
X56226680Y-141135582D01*
X56229643Y-141134355D01*
X56345474Y-141045474D01*
X56434355Y-140929642D01*
X56438748Y-140919036D01*
X56489000Y-140797720D01*
X56489001Y-140797716D01*
X56490228Y-140794754D01*
X56492893Y-140774515D01*
X56508866Y-140653183D01*
X56509285Y-140650000D01*
X56490228Y-140505246D01*
X56489001Y-140502284D01*
X56489000Y-140502280D01*
X56435584Y-140373325D01*
X56434355Y-140370358D01*
X56345474Y-140254526D01*
X56229643Y-140165645D01*
X56226680Y-140164418D01*
X56226677Y-140164416D01*
X56097720Y-140111000D01*
X56097716Y-140110999D01*
X56094754Y-140109772D01*
X56091573Y-140109353D01*
X56091572Y-140109353D01*
X55953183Y-140091134D01*
X55950000Y-140090715D01*
X55946817Y-140091134D01*
X55808428Y-140109353D01*
X55808427Y-140109353D01*
X55805246Y-140109772D01*
X55802284Y-140110999D01*
X55802280Y-140111000D01*
X55687781Y-140158428D01*
X55670358Y-140165645D01*
X55554526Y-140254526D01*
X55465645Y-140370358D01*
X55464416Y-140373325D01*
X55411000Y-140502280D01*
X55410999Y-140502284D01*
X55409772Y-140505246D01*
X55390715Y-140650000D01*
X53618734Y-140650000D01*
X53564720Y-140579608D01*
X53555013Y-140543383D01*
X53572757Y-140511699D01*
X53608013Y-140483150D01*
X53696020Y-140359313D01*
X53747482Y-140216371D01*
X53751298Y-140164416D01*
X53755310Y-140109772D01*
X53758609Y-140064855D01*
X53752360Y-140033861D01*
X53729241Y-139919208D01*
X53728580Y-139915929D01*
X53721774Y-139902570D01*
X53661124Y-139783540D01*
X53659608Y-139780564D01*
X53646829Y-139766667D01*
X53633941Y-139731448D01*
X53649731Y-139697431D01*
X53682898Y-139684500D01*
X54472401Y-139684500D01*
X54473664Y-139684367D01*
X54473669Y-139684367D01*
X54570263Y-139674214D01*
X54614092Y-139669608D01*
X54794920Y-139610853D01*
X54959580Y-139515786D01*
X54978223Y-139499000D01*
X55098972Y-139390278D01*
X55098976Y-139390274D01*
X55100877Y-139388562D01*
X55156935Y-139311406D01*
X55211127Y-139236817D01*
X55211128Y-139236815D01*
X55212635Y-139234741D01*
X55289969Y-139061045D01*
X55309735Y-138968056D01*
X55328967Y-138877576D01*
X55328967Y-138877573D01*
X55329500Y-138875067D01*
X55329500Y-138684933D01*
X55325906Y-138668022D01*
X55290502Y-138501464D01*
X55289969Y-138498955D01*
X55212635Y-138325259D01*
X55100877Y-138171438D01*
X55098976Y-138169726D01*
X55098972Y-138169722D01*
X54961494Y-138045937D01*
X54961492Y-138045935D01*
X54959580Y-138044214D01*
X54794920Y-137949147D01*
X54614092Y-137890392D01*
X54570263Y-137885786D01*
X54473669Y-137875633D01*
X54473664Y-137875633D01*
X54472401Y-137875500D01*
X53377599Y-137875500D01*
X53376336Y-137875633D01*
X53376331Y-137875633D01*
X53279737Y-137885786D01*
X53235908Y-137890392D01*
X53055080Y-137949147D01*
X52890420Y-138044214D01*
X52888508Y-138045935D01*
X52888506Y-138045937D01*
X52751028Y-138169722D01*
X52751024Y-138169726D01*
X52749123Y-138171438D01*
X52637365Y-138325259D01*
X52560031Y-138498955D01*
X52559498Y-138501464D01*
X52524095Y-138668022D01*
X52520500Y-138684933D01*
X52520500Y-138875067D01*
X52521033Y-138877573D01*
X52521033Y-138877576D01*
X52540266Y-138968056D01*
X52560031Y-139061045D01*
X52637365Y-139234741D01*
X52638872Y-139236815D01*
X52638873Y-139236817D01*
X52693066Y-139311406D01*
X52749123Y-139388562D01*
X52751024Y-139390274D01*
X52751028Y-139390278D01*
X52871777Y-139499000D01*
X52890420Y-139515786D01*
X52918863Y-139532208D01*
X52941691Y-139561958D01*
X52936797Y-139599141D01*
X52915784Y-139617864D01*
X52915978Y-139618184D01*
X52914252Y-139619229D01*
X52913826Y-139619609D01*
X52913122Y-139619914D01*
X52913120Y-139619915D01*
X52910054Y-139621242D01*
X52791987Y-139716850D01*
X52703980Y-139840687D01*
X52652518Y-139983629D01*
X52652274Y-139986957D01*
X52652273Y-139986960D01*
X52649074Y-140030530D01*
X52641391Y-140135145D01*
X52671420Y-140284071D01*
X52672937Y-140287049D01*
X52672938Y-140287051D01*
X52726187Y-140391557D01*
X52729130Y-140428945D01*
X52704774Y-140457462D01*
X52667386Y-140460405D01*
X52663784Y-140459076D01*
X52591042Y-140428945D01*
X52547720Y-140411000D01*
X52547716Y-140410999D01*
X52544754Y-140409772D01*
X52541573Y-140409353D01*
X52541572Y-140409353D01*
X52403183Y-140391134D01*
X52400000Y-140390715D01*
X52396817Y-140391134D01*
X52258428Y-140409353D01*
X52258427Y-140409353D01*
X52255246Y-140409772D01*
X52252284Y-140410999D01*
X52252280Y-140411000D01*
X52163632Y-140447720D01*
X52120358Y-140465645D01*
X52004526Y-140554526D01*
X51915645Y-140670358D01*
X51914416Y-140673325D01*
X51861000Y-140802280D01*
X51860999Y-140802284D01*
X51859772Y-140805246D01*
X51859353Y-140808427D01*
X51859353Y-140808428D01*
X51842636Y-140935411D01*
X51840715Y-140950000D01*
X48450000Y-140950000D01*
X48450000Y-138891978D01*
X48464352Y-138857330D01*
X48499000Y-138842978D01*
X48533648Y-138857330D01*
X48546929Y-138881790D01*
X48585031Y-139061045D01*
X48662365Y-139234741D01*
X48663872Y-139236815D01*
X48663873Y-139236817D01*
X48718066Y-139311406D01*
X48774123Y-139388562D01*
X48776024Y-139390274D01*
X48776028Y-139390278D01*
X48896777Y-139499000D01*
X48915420Y-139515786D01*
X49080080Y-139610853D01*
X49260908Y-139669608D01*
X49304737Y-139674214D01*
X49401331Y-139684367D01*
X49401336Y-139684367D01*
X49402599Y-139684500D01*
X50797401Y-139684500D01*
X50798664Y-139684367D01*
X50798669Y-139684367D01*
X50895263Y-139674214D01*
X50939092Y-139669608D01*
X51119920Y-139610853D01*
X51284580Y-139515786D01*
X51303223Y-139499000D01*
X51423972Y-139390278D01*
X51423976Y-139390274D01*
X51425877Y-139388562D01*
X51481935Y-139311406D01*
X51536127Y-139236817D01*
X51536128Y-139236815D01*
X51537635Y-139234741D01*
X51614969Y-139061045D01*
X51634735Y-138968056D01*
X51653967Y-138877576D01*
X51653967Y-138877573D01*
X51654500Y-138875067D01*
X51654500Y-138684933D01*
X51650906Y-138668022D01*
X51615502Y-138501464D01*
X51614969Y-138498955D01*
X51537635Y-138325259D01*
X51425877Y-138171438D01*
X51423976Y-138169726D01*
X51423972Y-138169722D01*
X51286494Y-138045937D01*
X51286492Y-138045935D01*
X51284580Y-138044214D01*
X51119920Y-137949147D01*
X50939092Y-137890392D01*
X50895263Y-137885786D01*
X50798669Y-137875633D01*
X50798664Y-137875633D01*
X50797401Y-137875500D01*
X49402599Y-137875500D01*
X49401336Y-137875633D01*
X49401331Y-137875633D01*
X49304737Y-137885786D01*
X49260908Y-137890392D01*
X49080080Y-137949147D01*
X48915420Y-138044214D01*
X48913508Y-138045935D01*
X48913506Y-138045937D01*
X48776028Y-138169722D01*
X48776024Y-138169726D01*
X48774123Y-138171438D01*
X48662365Y-138325259D01*
X48585031Y-138498955D01*
X48584498Y-138501464D01*
X48546929Y-138678210D01*
X48525687Y-138709117D01*
X48488812Y-138715951D01*
X48457905Y-138694709D01*
X48450000Y-138668022D01*
X48450000Y-137500000D01*
X71740715Y-137500000D01*
X71759772Y-137644754D01*
X71760999Y-137647716D01*
X71761000Y-137647720D01*
X71814416Y-137776675D01*
X71815645Y-137779642D01*
X71904526Y-137895474D01*
X72020357Y-137984355D01*
X72023320Y-137985582D01*
X72023323Y-137985584D01*
X72152280Y-138039000D01*
X72152284Y-138039001D01*
X72155246Y-138040228D01*
X72158427Y-138040647D01*
X72158428Y-138040647D01*
X72296817Y-138058866D01*
X72300000Y-138059285D01*
X72303183Y-138058866D01*
X72441572Y-138040647D01*
X72441573Y-138040647D01*
X72444754Y-138040228D01*
X72447716Y-138039001D01*
X72447720Y-138039000D01*
X72576677Y-137985584D01*
X72576680Y-137985582D01*
X72579643Y-137984355D01*
X72695474Y-137895474D01*
X72696821Y-137893719D01*
X72731152Y-137879500D01*
X73322510Y-137879500D01*
X73357158Y-137893852D01*
X79506148Y-144042842D01*
X79520500Y-144077490D01*
X79520500Y-145768848D01*
X79506281Y-145803179D01*
X79504526Y-145804526D01*
X79415645Y-145920358D01*
X79414416Y-145923325D01*
X79361000Y-146052280D01*
X79360999Y-146052284D01*
X79359772Y-146055246D01*
X79359353Y-146058427D01*
X79359353Y-146058428D01*
X79342001Y-146190228D01*
X79340715Y-146200000D01*
X79341134Y-146203183D01*
X79353353Y-146295993D01*
X79359772Y-146344754D01*
X79360999Y-146347716D01*
X79361000Y-146347720D01*
X79401112Y-146444556D01*
X79415645Y-146479642D01*
X79449164Y-146523325D01*
X79470992Y-146551771D01*
X79504526Y-146595474D01*
X79507075Y-146597430D01*
X79514898Y-146603433D01*
X79620357Y-146684355D01*
X79623320Y-146685582D01*
X79623323Y-146685584D01*
X79752280Y-146739000D01*
X79752284Y-146739001D01*
X79755246Y-146740228D01*
X79758427Y-146740647D01*
X79758428Y-146740647D01*
X79896817Y-146758866D01*
X79900000Y-146759285D01*
X79903183Y-146758866D01*
X80041572Y-146740647D01*
X80041573Y-146740647D01*
X80044754Y-146740228D01*
X80047716Y-146739001D01*
X80047720Y-146739000D01*
X80176677Y-146685584D01*
X80176680Y-146685582D01*
X80179643Y-146684355D01*
X80285102Y-146603433D01*
X80292925Y-146597430D01*
X80295474Y-146595474D01*
X80329009Y-146551771D01*
X80350836Y-146523325D01*
X80384355Y-146479642D01*
X80398888Y-146444556D01*
X80439000Y-146347720D01*
X80439001Y-146347716D01*
X80440228Y-146344754D01*
X80446648Y-146295993D01*
X80458866Y-146203183D01*
X80459285Y-146200000D01*
X80457999Y-146190228D01*
X80440647Y-146058428D01*
X80440647Y-146058427D01*
X80440228Y-146055246D01*
X80439001Y-146052284D01*
X80439000Y-146052280D01*
X80385584Y-145923325D01*
X80384355Y-145920358D01*
X80295474Y-145804526D01*
X80293719Y-145803179D01*
X80279500Y-145768848D01*
X80279500Y-144189399D01*
X85540800Y-144189399D01*
X85541067Y-144192122D01*
X85541067Y-144192123D01*
X85544150Y-144223561D01*
X85557318Y-144357862D01*
X85558180Y-144360453D01*
X85558181Y-144360458D01*
X85590026Y-144456187D01*
X85610748Y-144518479D01*
X85612167Y-144520823D01*
X85612168Y-144520824D01*
X85656494Y-144594015D01*
X85698435Y-144663267D01*
X85700335Y-144665235D01*
X85700337Y-144665237D01*
X85724192Y-144689939D01*
X85816021Y-144785031D01*
X85957660Y-144877717D01*
X86116315Y-144936720D01*
X86119024Y-144937081D01*
X86119026Y-144937082D01*
X86184498Y-144945817D01*
X86284099Y-144959107D01*
X86286824Y-144958859D01*
X86286826Y-144958859D01*
X86449941Y-144944015D01*
X86449944Y-144944014D01*
X86452673Y-144943766D01*
X86613659Y-144891458D01*
X86616012Y-144890055D01*
X86616015Y-144890054D01*
X86756703Y-144806187D01*
X86756705Y-144806185D01*
X86759056Y-144804784D01*
X86778227Y-144786528D01*
X86862888Y-144705908D01*
X87212652Y-144705908D01*
X87213071Y-144709091D01*
X87230391Y-144840647D01*
X87231709Y-144850662D01*
X87232936Y-144853624D01*
X87232937Y-144853628D01*
X87276479Y-144958745D01*
X87287582Y-144985550D01*
X87376463Y-145101382D01*
X87379012Y-145103338D01*
X87379803Y-145103945D01*
X87492294Y-145190263D01*
X87495257Y-145191490D01*
X87495260Y-145191492D01*
X87624217Y-145244908D01*
X87624221Y-145244909D01*
X87627183Y-145246136D01*
X87630364Y-145246555D01*
X87630365Y-145246555D01*
X87768754Y-145264774D01*
X87771937Y-145265193D01*
X87775120Y-145264774D01*
X87913509Y-145246555D01*
X87913510Y-145246555D01*
X87916691Y-145246136D01*
X87919653Y-145244909D01*
X87919657Y-145244908D01*
X88048614Y-145191492D01*
X88048617Y-145191490D01*
X88051580Y-145190263D01*
X88164071Y-145103945D01*
X88164862Y-145103338D01*
X88167411Y-145101382D01*
X88256292Y-144985550D01*
X88267395Y-144958745D01*
X88310937Y-144853628D01*
X88310938Y-144853624D01*
X88312165Y-144850662D01*
X88313484Y-144840647D01*
X88330803Y-144709091D01*
X88331222Y-144705908D01*
X88329782Y-144694970D01*
X88335317Y-144665530D01*
X88337156Y-144663198D01*
X88338499Y-144659373D01*
X88340448Y-144655828D01*
X88340596Y-144655909D01*
X88341528Y-144654116D01*
X88341378Y-144654042D01*
X88343159Y-144650406D01*
X88345514Y-144647111D01*
X88360729Y-144596235D01*
X88361443Y-144594041D01*
X88365604Y-144582191D01*
X88379018Y-144543994D01*
X88379500Y-144538429D01*
X88379513Y-144538430D01*
X88380261Y-144533993D01*
X88380045Y-144533966D01*
X88380553Y-144529947D01*
X88381713Y-144526067D01*
X88379538Y-144470708D01*
X88379500Y-144468784D01*
X88379500Y-141931152D01*
X88393719Y-141896821D01*
X88395474Y-141895474D01*
X88484355Y-141779642D01*
X88508058Y-141722418D01*
X88539000Y-141647720D01*
X88539001Y-141647716D01*
X88540228Y-141644754D01*
X88546322Y-141598469D01*
X88558866Y-141503183D01*
X88559285Y-141500000D01*
X88550805Y-141435584D01*
X88540647Y-141358428D01*
X88540647Y-141358427D01*
X88540228Y-141355246D01*
X88539001Y-141352284D01*
X88539000Y-141352280D01*
X88485584Y-141223325D01*
X88484355Y-141220358D01*
X88412285Y-141126434D01*
X88397430Y-141107075D01*
X88395474Y-141104526D01*
X88387581Y-141098469D01*
X88282192Y-141017601D01*
X88279643Y-141015645D01*
X88276680Y-141014418D01*
X88276677Y-141014416D01*
X88147720Y-140961000D01*
X88147716Y-140960999D01*
X88144754Y-140959772D01*
X88141573Y-140959353D01*
X88141572Y-140959353D01*
X88003183Y-140941134D01*
X88000000Y-140940715D01*
X87996817Y-140941134D01*
X87858428Y-140959353D01*
X87858427Y-140959353D01*
X87855246Y-140959772D01*
X87852284Y-140960999D01*
X87852280Y-140961000D01*
X87723325Y-141014416D01*
X87720358Y-141015645D01*
X87604526Y-141104526D01*
X87602570Y-141107075D01*
X87587715Y-141126434D01*
X87515645Y-141220358D01*
X87514416Y-141223325D01*
X87461000Y-141352280D01*
X87460999Y-141352284D01*
X87459772Y-141355246D01*
X87459353Y-141358427D01*
X87459353Y-141358428D01*
X87449195Y-141435584D01*
X87440715Y-141500000D01*
X87441134Y-141503183D01*
X87453679Y-141598469D01*
X87459772Y-141644754D01*
X87460999Y-141647716D01*
X87461000Y-141647720D01*
X87491942Y-141722418D01*
X87515645Y-141779642D01*
X87604526Y-141895474D01*
X87606281Y-141896821D01*
X87620500Y-141931152D01*
X87620500Y-144135707D01*
X87606148Y-144170355D01*
X87590252Y-144180977D01*
X87535349Y-144203719D01*
X87492295Y-144221553D01*
X87489746Y-144223509D01*
X87382285Y-144305967D01*
X87376463Y-144310434D01*
X87374507Y-144312983D01*
X87369620Y-144319352D01*
X87287582Y-144426266D01*
X87286353Y-144429233D01*
X87232937Y-144558188D01*
X87232936Y-144558192D01*
X87231709Y-144561154D01*
X87231290Y-144564335D01*
X87231290Y-144564336D01*
X87219674Y-144652570D01*
X87212652Y-144705908D01*
X86862888Y-144705908D01*
X86879657Y-144689939D01*
X86879659Y-144689936D01*
X86881638Y-144688052D01*
X86903888Y-144654564D01*
X86973793Y-144549348D01*
X86973794Y-144549347D01*
X86975311Y-144547063D01*
X86976477Y-144543994D01*
X87034447Y-144391387D01*
X87034448Y-144391382D01*
X87035420Y-144388824D01*
X87058978Y-144221200D01*
X87059026Y-144217809D01*
X87059252Y-144201545D01*
X87059274Y-144200000D01*
X87046662Y-144087561D01*
X87040712Y-144034508D01*
X87040711Y-144034504D01*
X87040406Y-144031784D01*
X87039505Y-144029197D01*
X87039504Y-144029192D01*
X86985639Y-143874515D01*
X86985637Y-143874512D01*
X86984738Y-143871929D01*
X86983289Y-143869610D01*
X86983287Y-143869606D01*
X86896491Y-143730704D01*
X86896490Y-143730703D01*
X86895038Y-143728379D01*
X86890869Y-143724180D01*
X86828561Y-143661436D01*
X86775764Y-143608269D01*
X86652032Y-143529746D01*
X86635156Y-143519036D01*
X86635154Y-143519035D01*
X86632844Y-143517569D01*
X86630266Y-143516651D01*
X86630264Y-143516650D01*
X86475962Y-143461706D01*
X86473381Y-143460787D01*
X86470661Y-143460463D01*
X86470658Y-143460462D01*
X86383068Y-143450018D01*
X86305301Y-143440745D01*
X86302580Y-143441031D01*
X86302577Y-143441031D01*
X86217071Y-143450018D01*
X86136957Y-143458438D01*
X86134364Y-143459321D01*
X86134363Y-143459321D01*
X86130057Y-143460787D01*
X85976717Y-143512988D01*
X85832544Y-143601684D01*
X85830589Y-143603598D01*
X85830587Y-143603600D01*
X85713561Y-143718201D01*
X85713559Y-143718204D01*
X85711605Y-143720117D01*
X85710122Y-143722417D01*
X85710122Y-143722418D01*
X85669745Y-143785070D01*
X85619909Y-143862400D01*
X85589916Y-143944805D01*
X85563421Y-144017601D01*
X85562015Y-144021463D01*
X85540800Y-144189399D01*
X80279500Y-144189399D01*
X80279500Y-143945725D01*
X80280598Y-143935411D01*
X80283467Y-143922087D01*
X80283467Y-143922086D01*
X80284320Y-143918124D01*
X80279840Y-143880272D01*
X80279500Y-143874515D01*
X80279500Y-143868476D01*
X80276031Y-143847636D01*
X80275706Y-143845349D01*
X80272772Y-143820563D01*
X80269470Y-143792659D01*
X80267716Y-143789007D01*
X80266586Y-143785117D01*
X80266747Y-143785070D01*
X80266139Y-143783147D01*
X80265980Y-143783201D01*
X80264669Y-143779372D01*
X80264004Y-143775374D01*
X80238790Y-143728644D01*
X80237772Y-143726647D01*
X80214781Y-143678768D01*
X80211187Y-143674492D01*
X80211196Y-143674484D01*
X80208586Y-143670817D01*
X80208415Y-143670950D01*
X80205934Y-143667751D01*
X80204010Y-143664186D01*
X80163329Y-143626581D01*
X80161942Y-143625247D01*
X78726094Y-142189399D01*
X85940800Y-142189399D01*
X85941067Y-142192122D01*
X85941067Y-142192123D01*
X85945561Y-142237956D01*
X85957318Y-142357862D01*
X85958180Y-142360453D01*
X85958181Y-142360458D01*
X85968470Y-142391387D01*
X86010748Y-142518479D01*
X86012167Y-142520823D01*
X86012168Y-142520824D01*
X86034173Y-142557158D01*
X86098435Y-142663267D01*
X86100335Y-142665235D01*
X86100337Y-142665237D01*
X86124192Y-142689939D01*
X86216021Y-142785031D01*
X86357660Y-142877717D01*
X86516315Y-142936720D01*
X86519024Y-142937081D01*
X86519026Y-142937082D01*
X86574414Y-142944472D01*
X86684099Y-142959107D01*
X86686824Y-142958859D01*
X86686826Y-142958859D01*
X86849941Y-142944015D01*
X86849944Y-142944014D01*
X86852673Y-142943766D01*
X87013659Y-142891458D01*
X87016012Y-142890055D01*
X87016015Y-142890054D01*
X87156703Y-142806187D01*
X87156705Y-142806185D01*
X87159056Y-142804784D01*
X87179799Y-142785031D01*
X87279657Y-142689939D01*
X87279659Y-142689936D01*
X87281638Y-142688052D01*
X87288375Y-142677913D01*
X87373793Y-142549348D01*
X87373794Y-142549347D01*
X87375311Y-142547063D01*
X87376928Y-142542806D01*
X87434447Y-142391387D01*
X87434448Y-142391382D01*
X87435420Y-142388824D01*
X87458978Y-142221200D01*
X87459274Y-142200000D01*
X87452239Y-142137277D01*
X87440712Y-142034508D01*
X87440711Y-142034504D01*
X87440406Y-142031784D01*
X87439505Y-142029197D01*
X87439504Y-142029192D01*
X87385639Y-141874515D01*
X87385637Y-141874512D01*
X87384738Y-141871929D01*
X87383289Y-141869610D01*
X87383287Y-141869606D01*
X87296491Y-141730704D01*
X87296490Y-141730703D01*
X87295038Y-141728379D01*
X87289119Y-141722418D01*
X87188605Y-141621200D01*
X87175764Y-141608269D01*
X87032844Y-141517569D01*
X87030266Y-141516651D01*
X87030264Y-141516650D01*
X86875962Y-141461706D01*
X86873381Y-141460787D01*
X86870661Y-141460463D01*
X86870658Y-141460462D01*
X86777449Y-141449348D01*
X86705301Y-141440745D01*
X86702580Y-141441031D01*
X86702577Y-141441031D01*
X86603338Y-141451461D01*
X86536957Y-141458438D01*
X86534364Y-141459321D01*
X86534363Y-141459321D01*
X86530057Y-141460787D01*
X86376717Y-141512988D01*
X86232544Y-141601684D01*
X86230589Y-141603598D01*
X86230587Y-141603600D01*
X86113561Y-141718201D01*
X86113559Y-141718204D01*
X86111605Y-141720117D01*
X86110122Y-141722417D01*
X86110122Y-141722418D01*
X86074484Y-141777717D01*
X86019909Y-141862400D01*
X85962015Y-142021463D01*
X85940800Y-142189399D01*
X78726094Y-142189399D01*
X77626094Y-141089399D01*
X78740800Y-141089399D01*
X78741067Y-141092122D01*
X78741067Y-141092123D01*
X78744431Y-141126434D01*
X78757318Y-141257862D01*
X78758180Y-141260453D01*
X78758181Y-141260458D01*
X78789713Y-141355246D01*
X78810748Y-141418479D01*
X78812167Y-141420823D01*
X78812168Y-141420824D01*
X78870203Y-141516650D01*
X78898435Y-141563267D01*
X78900335Y-141565235D01*
X78900337Y-141565237D01*
X78935534Y-141601684D01*
X79016021Y-141685031D01*
X79157660Y-141777717D01*
X79316315Y-141836720D01*
X79319024Y-141837081D01*
X79319026Y-141837082D01*
X79384498Y-141845817D01*
X79484099Y-141859107D01*
X79486824Y-141858859D01*
X79486826Y-141858859D01*
X79649941Y-141844015D01*
X79649944Y-141844014D01*
X79652673Y-141843766D01*
X79813659Y-141791458D01*
X79816012Y-141790055D01*
X79816015Y-141790054D01*
X79956703Y-141706187D01*
X79956705Y-141706185D01*
X79959056Y-141704784D01*
X79961039Y-141702896D01*
X80079657Y-141589939D01*
X80079659Y-141589936D01*
X80081638Y-141588052D01*
X80129078Y-141516650D01*
X80173793Y-141449348D01*
X80173794Y-141449347D01*
X80175311Y-141447063D01*
X80176331Y-141444378D01*
X80234447Y-141291387D01*
X80234448Y-141291382D01*
X80235420Y-141288824D01*
X80258978Y-141121200D01*
X80259274Y-141100000D01*
X80258085Y-141089399D01*
X80740800Y-141089399D01*
X80741067Y-141092122D01*
X80741067Y-141092123D01*
X80744431Y-141126434D01*
X80757318Y-141257862D01*
X80758180Y-141260453D01*
X80758181Y-141260458D01*
X80789713Y-141355246D01*
X80810748Y-141418479D01*
X80812167Y-141420823D01*
X80812168Y-141420824D01*
X80870203Y-141516650D01*
X80898435Y-141563267D01*
X80900335Y-141565235D01*
X80900337Y-141565237D01*
X80935534Y-141601684D01*
X81016021Y-141685031D01*
X81157660Y-141777717D01*
X81316315Y-141836720D01*
X81319024Y-141837081D01*
X81319026Y-141837082D01*
X81384498Y-141845817D01*
X81484099Y-141859107D01*
X81486824Y-141858859D01*
X81486826Y-141858859D01*
X81649941Y-141844015D01*
X81649944Y-141844014D01*
X81652673Y-141843766D01*
X81813659Y-141791458D01*
X81816012Y-141790055D01*
X81816015Y-141790054D01*
X81956703Y-141706187D01*
X81956705Y-141706185D01*
X81959056Y-141704784D01*
X81961039Y-141702896D01*
X82079657Y-141589939D01*
X82079659Y-141589936D01*
X82081638Y-141588052D01*
X82129078Y-141516650D01*
X82173793Y-141449348D01*
X82173794Y-141449347D01*
X82175311Y-141447063D01*
X82176331Y-141444378D01*
X82234447Y-141291387D01*
X82234448Y-141291382D01*
X82235420Y-141288824D01*
X82258978Y-141121200D01*
X82259274Y-141100000D01*
X82249812Y-141015645D01*
X82240712Y-140934508D01*
X82240711Y-140934504D01*
X82240406Y-140931784D01*
X82239505Y-140929197D01*
X82239504Y-140929192D01*
X82185639Y-140774515D01*
X82185637Y-140774512D01*
X82184738Y-140771929D01*
X82183289Y-140769610D01*
X82183287Y-140769606D01*
X82096491Y-140630704D01*
X82096490Y-140630703D01*
X82095038Y-140628379D01*
X82089119Y-140622418D01*
X82011681Y-140544438D01*
X81975764Y-140508269D01*
X81911682Y-140467601D01*
X81835156Y-140419036D01*
X81835154Y-140419035D01*
X81832844Y-140417569D01*
X81830266Y-140416651D01*
X81830264Y-140416650D01*
X81675962Y-140361706D01*
X81673381Y-140360787D01*
X81670661Y-140360463D01*
X81670658Y-140360462D01*
X81589341Y-140350766D01*
X81505301Y-140340745D01*
X81502580Y-140341031D01*
X81502577Y-140341031D01*
X81403338Y-140351461D01*
X81336957Y-140358438D01*
X81334364Y-140359321D01*
X81334363Y-140359321D01*
X81330057Y-140360787D01*
X81176717Y-140412988D01*
X81032544Y-140501684D01*
X81030589Y-140503598D01*
X81030587Y-140503600D01*
X80913561Y-140618201D01*
X80913559Y-140618204D01*
X80911605Y-140620117D01*
X80910122Y-140622417D01*
X80910122Y-140622418D01*
X80876562Y-140674492D01*
X80819909Y-140762400D01*
X80803156Y-140808428D01*
X80764696Y-140914098D01*
X80762015Y-140921463D01*
X80740800Y-141089399D01*
X80258085Y-141089399D01*
X80249812Y-141015645D01*
X80240712Y-140934508D01*
X80240711Y-140934504D01*
X80240406Y-140931784D01*
X80239505Y-140929197D01*
X80239504Y-140929192D01*
X80185639Y-140774515D01*
X80185637Y-140774512D01*
X80184738Y-140771929D01*
X80183289Y-140769610D01*
X80183287Y-140769606D01*
X80096491Y-140630704D01*
X80096490Y-140630703D01*
X80095038Y-140628379D01*
X80089119Y-140622418D01*
X80011681Y-140544438D01*
X79975764Y-140508269D01*
X79911682Y-140467601D01*
X79835156Y-140419036D01*
X79835154Y-140419035D01*
X79832844Y-140417569D01*
X79830266Y-140416651D01*
X79830264Y-140416650D01*
X79675962Y-140361706D01*
X79673381Y-140360787D01*
X79670661Y-140360463D01*
X79670658Y-140360462D01*
X79589341Y-140350766D01*
X79505301Y-140340745D01*
X79502580Y-140341031D01*
X79502577Y-140341031D01*
X79403338Y-140351461D01*
X79336957Y-140358438D01*
X79334364Y-140359321D01*
X79334363Y-140359321D01*
X79330057Y-140360787D01*
X79176717Y-140412988D01*
X79032544Y-140501684D01*
X79030589Y-140503598D01*
X79030587Y-140503600D01*
X78913561Y-140618201D01*
X78913559Y-140618204D01*
X78911605Y-140620117D01*
X78910122Y-140622417D01*
X78910122Y-140622418D01*
X78876562Y-140674492D01*
X78819909Y-140762400D01*
X78803156Y-140808428D01*
X78764696Y-140914098D01*
X78762015Y-140921463D01*
X78740800Y-141089399D01*
X77626094Y-141089399D01*
X76836695Y-140300000D01*
X85890715Y-140300000D01*
X85891134Y-140303183D01*
X85902769Y-140391557D01*
X85909772Y-140444754D01*
X85910999Y-140447716D01*
X85911000Y-140447720D01*
X85956297Y-140557075D01*
X85965645Y-140579642D01*
X86054526Y-140695474D01*
X86170357Y-140784355D01*
X86173320Y-140785582D01*
X86173323Y-140785584D01*
X86302280Y-140839000D01*
X86302284Y-140839001D01*
X86305246Y-140840228D01*
X86308427Y-140840647D01*
X86308428Y-140840647D01*
X86446817Y-140858866D01*
X86450000Y-140859285D01*
X86453183Y-140858866D01*
X86591572Y-140840647D01*
X86591573Y-140840647D01*
X86594754Y-140840228D01*
X86597716Y-140839001D01*
X86597720Y-140839000D01*
X86726677Y-140785584D01*
X86726680Y-140785582D01*
X86729643Y-140784355D01*
X86845474Y-140695474D01*
X86934355Y-140579642D01*
X86943703Y-140557075D01*
X86989000Y-140447720D01*
X86989001Y-140447716D01*
X86990228Y-140444754D01*
X86997232Y-140391557D01*
X87008866Y-140303183D01*
X87009285Y-140300000D01*
X86990228Y-140155246D01*
X86989001Y-140152284D01*
X86989000Y-140152280D01*
X86935584Y-140023325D01*
X86934355Y-140020358D01*
X86845474Y-139904526D01*
X86729643Y-139815645D01*
X86726680Y-139814418D01*
X86726677Y-139814416D01*
X86597720Y-139761000D01*
X86597716Y-139760999D01*
X86594754Y-139759772D01*
X86591573Y-139759353D01*
X86591572Y-139759353D01*
X86453183Y-139741134D01*
X86450000Y-139740715D01*
X86446817Y-139741134D01*
X86308428Y-139759353D01*
X86308427Y-139759353D01*
X86305246Y-139759772D01*
X86302284Y-139760999D01*
X86302280Y-139761000D01*
X86173325Y-139814416D01*
X86170358Y-139815645D01*
X86054526Y-139904526D01*
X85965645Y-140020358D01*
X85964416Y-140023325D01*
X85911000Y-140152280D01*
X85910999Y-140152284D01*
X85909772Y-140155246D01*
X85890715Y-140300000D01*
X76836695Y-140300000D01*
X73800683Y-137263989D01*
X73794169Y-137255924D01*
X73784571Y-137241060D01*
X73754633Y-137217459D01*
X73750321Y-137213627D01*
X73746056Y-137209362D01*
X73728871Y-137197081D01*
X73727027Y-137195696D01*
X73688536Y-137165353D01*
X73688535Y-137165352D01*
X73685353Y-137162844D01*
X73681528Y-137161501D01*
X73677983Y-137159552D01*
X73678064Y-137159404D01*
X73676271Y-137158472D01*
X73676197Y-137158622D01*
X73672561Y-137156841D01*
X73669266Y-137154486D01*
X73618390Y-137139271D01*
X73616196Y-137138557D01*
X73569056Y-137122003D01*
X73569057Y-137122003D01*
X73566149Y-137120982D01*
X73563080Y-137120716D01*
X73563079Y-137120716D01*
X73561636Y-137120591D01*
X73561633Y-137120591D01*
X73560584Y-137120500D01*
X73560585Y-137120487D01*
X73556148Y-137119739D01*
X73556121Y-137119955D01*
X73552102Y-137119447D01*
X73548222Y-137118287D01*
X73544173Y-137118446D01*
X73492863Y-137120462D01*
X73490939Y-137120500D01*
X72731152Y-137120500D01*
X72696821Y-137106281D01*
X72695474Y-137104526D01*
X72579643Y-137015645D01*
X72576680Y-137014418D01*
X72576677Y-137014416D01*
X72447720Y-136961000D01*
X72447716Y-136960999D01*
X72444754Y-136959772D01*
X72441573Y-136959353D01*
X72441572Y-136959353D01*
X72303183Y-136941134D01*
X72300000Y-136940715D01*
X72296817Y-136941134D01*
X72158428Y-136959353D01*
X72158427Y-136959353D01*
X72155246Y-136959772D01*
X72152284Y-136960999D01*
X72152280Y-136961000D01*
X72023325Y-137014416D01*
X72020358Y-137015645D01*
X72017809Y-137017601D01*
X71909639Y-137100603D01*
X71904526Y-137104526D01*
X71815645Y-137220358D01*
X71814416Y-137223325D01*
X71761000Y-137352280D01*
X71760999Y-137352284D01*
X71759772Y-137355246D01*
X71759353Y-137358427D01*
X71759353Y-137358428D01*
X71754476Y-137395474D01*
X71740715Y-137500000D01*
X48450000Y-137500000D01*
X48450000Y-137149000D01*
X48464352Y-137114352D01*
X48499000Y-137100000D01*
X49768595Y-137100000D01*
X49776261Y-137100603D01*
X49800000Y-137104363D01*
X49803808Y-137103760D01*
X49803809Y-137103760D01*
X49804384Y-137103669D01*
X49806561Y-137103374D01*
X49923233Y-137090228D01*
X49945554Y-137087713D01*
X50014682Y-137063524D01*
X50081212Y-137040244D01*
X50081214Y-137040243D01*
X50083809Y-137039335D01*
X50207833Y-136961406D01*
X50311406Y-136857833D01*
X50389335Y-136733809D01*
X50437713Y-136595554D01*
X50440191Y-136573564D01*
X50445524Y-136526235D01*
X50447982Y-136515492D01*
X50448534Y-136513918D01*
X50448534Y-136513917D01*
X50449556Y-136511007D01*
X50450000Y-136505881D01*
X50450000Y-136489257D01*
X50450308Y-136483770D01*
X50450463Y-136482399D01*
X50453374Y-136456557D01*
X50453669Y-136454384D01*
X50453760Y-136453809D01*
X50453760Y-136453808D01*
X50454363Y-136450000D01*
X50450603Y-136426261D01*
X50450000Y-136418595D01*
X50450000Y-135100000D01*
X51344843Y-135100000D01*
X51345029Y-135102126D01*
X51345029Y-135102129D01*
X51362723Y-135304363D01*
X51365431Y-135335321D01*
X51365986Y-135337391D01*
X51365986Y-135337393D01*
X51411270Y-135506396D01*
X51426569Y-135563491D01*
X51442918Y-135598551D01*
X51524509Y-135773522D01*
X51526400Y-135777578D01*
X51527626Y-135779328D01*
X51527626Y-135779329D01*
X51584862Y-135861070D01*
X51661890Y-135971078D01*
X51828922Y-136138110D01*
X51830679Y-136139340D01*
X51830681Y-136139342D01*
X51954890Y-136226314D01*
X52022421Y-136273600D01*
X52236509Y-136373431D01*
X52238574Y-136373984D01*
X52238576Y-136373985D01*
X52462607Y-136434014D01*
X52462609Y-136434014D01*
X52464679Y-136434569D01*
X52466806Y-136434755D01*
X52466811Y-136434756D01*
X52697874Y-136454971D01*
X52700000Y-136455157D01*
X52702126Y-136454971D01*
X52933189Y-136434756D01*
X52933194Y-136434755D01*
X52935321Y-136434569D01*
X52937391Y-136434014D01*
X52937393Y-136434014D01*
X53161424Y-136373985D01*
X53161426Y-136373984D01*
X53163491Y-136373431D01*
X53377579Y-136273600D01*
X53445110Y-136226314D01*
X53569319Y-136139342D01*
X53569321Y-136139340D01*
X53571078Y-136138110D01*
X53738110Y-135971078D01*
X53815139Y-135861070D01*
X53872374Y-135779329D01*
X53872374Y-135779328D01*
X53873600Y-135777578D01*
X53875492Y-135773522D01*
X53957082Y-135598551D01*
X53973431Y-135563491D01*
X53988730Y-135506396D01*
X54034014Y-135337393D01*
X54034014Y-135337391D01*
X54034569Y-135335321D01*
X54037278Y-135304363D01*
X54054971Y-135102126D01*
X54055157Y-135100000D01*
X54048038Y-135018625D01*
X54034756Y-134866811D01*
X54034755Y-134866806D01*
X54034569Y-134864679D01*
X54032311Y-134856250D01*
X53997770Y-134727343D01*
X61220500Y-134727343D01*
X61220501Y-135601273D01*
X61220501Y-136475066D01*
X61220969Y-136477418D01*
X61220969Y-136477420D01*
X61223343Y-136489355D01*
X61235266Y-136549301D01*
X61237946Y-136553312D01*
X61237947Y-136553314D01*
X61265510Y-136594564D01*
X61291516Y-136633484D01*
X61295527Y-136636164D01*
X61360343Y-136679473D01*
X61375699Y-136689734D01*
X61449933Y-136704500D01*
X61452343Y-136704500D01*
X62326272Y-136704499D01*
X63200066Y-136704499D01*
X63202418Y-136704031D01*
X63202420Y-136704031D01*
X63238403Y-136696874D01*
X63274301Y-136689734D01*
X63278312Y-136687054D01*
X63278314Y-136687053D01*
X63354473Y-136636164D01*
X63358484Y-136633484D01*
X63402522Y-136567577D01*
X63412052Y-136553315D01*
X63414734Y-136549301D01*
X63429500Y-136475067D01*
X63429500Y-135600000D01*
X63429500Y-135570964D01*
X63756148Y-135570964D01*
X63769424Y-135773522D01*
X63769977Y-135775701D01*
X63769978Y-135775705D01*
X63796816Y-135881377D01*
X63819392Y-135970269D01*
X63820328Y-135972299D01*
X63820330Y-135972305D01*
X63901198Y-136147720D01*
X63904377Y-136154616D01*
X63905672Y-136156448D01*
X63994538Y-136282191D01*
X64021533Y-136320389D01*
X64023137Y-136321952D01*
X64023140Y-136321955D01*
X64087186Y-136384345D01*
X64166938Y-136462035D01*
X64168800Y-136463279D01*
X64168801Y-136463280D01*
X64324892Y-136567577D01*
X64335720Y-136574812D01*
X64522228Y-136654942D01*
X64524420Y-136655438D01*
X64718026Y-136699247D01*
X64718032Y-136699248D01*
X64720216Y-136699742D01*
X64806124Y-136703118D01*
X64920806Y-136707624D01*
X64920809Y-136707624D01*
X64923053Y-136707712D01*
X64925272Y-136707390D01*
X64925277Y-136707390D01*
X65040548Y-136690676D01*
X65123945Y-136678584D01*
X65126067Y-136677864D01*
X65126070Y-136677863D01*
X65256805Y-136633484D01*
X65316165Y-136613334D01*
X65367973Y-136584320D01*
X65491314Y-136515246D01*
X65491316Y-136515245D01*
X65493276Y-136514147D01*
X65497052Y-136511007D01*
X65647622Y-136385778D01*
X65649345Y-136384345D01*
X65779147Y-136228276D01*
X65821545Y-136152570D01*
X65877238Y-136053122D01*
X65878334Y-136051165D01*
X65934392Y-135886025D01*
X65942863Y-135861070D01*
X65942864Y-135861067D01*
X65943584Y-135858945D01*
X65972712Y-135658053D01*
X65974114Y-135604526D01*
X65974194Y-135601453D01*
X65974194Y-135601452D01*
X65974232Y-135600000D01*
X65971564Y-135570964D01*
X66296148Y-135570964D01*
X66309424Y-135773522D01*
X66309977Y-135775701D01*
X66309978Y-135775705D01*
X66336816Y-135881377D01*
X66359392Y-135970269D01*
X66360328Y-135972299D01*
X66360330Y-135972305D01*
X66441198Y-136147720D01*
X66444377Y-136154616D01*
X66445672Y-136156448D01*
X66534538Y-136282191D01*
X66561533Y-136320389D01*
X66563137Y-136321952D01*
X66563140Y-136321955D01*
X66627186Y-136384345D01*
X66706938Y-136462035D01*
X66708800Y-136463279D01*
X66708801Y-136463280D01*
X66864892Y-136567577D01*
X66875720Y-136574812D01*
X67062228Y-136654942D01*
X67064420Y-136655438D01*
X67258026Y-136699247D01*
X67258032Y-136699248D01*
X67260216Y-136699742D01*
X67346124Y-136703118D01*
X67460806Y-136707624D01*
X67460809Y-136707624D01*
X67463053Y-136707712D01*
X67465272Y-136707390D01*
X67465277Y-136707390D01*
X67580548Y-136690676D01*
X67663945Y-136678584D01*
X67666067Y-136677864D01*
X67666070Y-136677863D01*
X67796805Y-136633484D01*
X67856165Y-136613334D01*
X67907973Y-136584320D01*
X68031314Y-136515246D01*
X68031316Y-136515245D01*
X68033276Y-136514147D01*
X68037052Y-136511007D01*
X68187622Y-136385778D01*
X68189345Y-136384345D01*
X68319147Y-136228276D01*
X68361545Y-136152570D01*
X68417238Y-136053122D01*
X68418334Y-136051165D01*
X68474392Y-135886025D01*
X68482863Y-135861070D01*
X68482864Y-135861067D01*
X68483584Y-135858945D01*
X68512712Y-135658053D01*
X68514114Y-135604526D01*
X68514194Y-135601453D01*
X68514194Y-135601452D01*
X68514232Y-135600000D01*
X68511564Y-135570964D01*
X68836148Y-135570964D01*
X68849424Y-135773522D01*
X68849977Y-135775701D01*
X68849978Y-135775705D01*
X68876816Y-135881377D01*
X68899392Y-135970269D01*
X68900328Y-135972299D01*
X68900330Y-135972305D01*
X68981198Y-136147720D01*
X68984377Y-136154616D01*
X68985672Y-136156448D01*
X69074538Y-136282191D01*
X69101533Y-136320389D01*
X69103137Y-136321952D01*
X69103140Y-136321955D01*
X69167186Y-136384345D01*
X69246938Y-136462035D01*
X69248800Y-136463279D01*
X69248801Y-136463280D01*
X69404892Y-136567577D01*
X69415720Y-136574812D01*
X69602228Y-136654942D01*
X69604420Y-136655438D01*
X69798026Y-136699247D01*
X69798032Y-136699248D01*
X69800216Y-136699742D01*
X69886124Y-136703118D01*
X70000806Y-136707624D01*
X70000809Y-136707624D01*
X70003053Y-136707712D01*
X70005272Y-136707390D01*
X70005277Y-136707390D01*
X70120548Y-136690676D01*
X70203945Y-136678584D01*
X70206067Y-136677864D01*
X70206070Y-136677863D01*
X70336805Y-136633484D01*
X70396165Y-136613334D01*
X70447973Y-136584320D01*
X70571314Y-136515246D01*
X70571316Y-136515245D01*
X70573276Y-136514147D01*
X70577052Y-136511007D01*
X70727622Y-136385778D01*
X70729345Y-136384345D01*
X70859147Y-136228276D01*
X70901545Y-136152570D01*
X70957238Y-136053122D01*
X70958334Y-136051165D01*
X71014392Y-135886025D01*
X71022863Y-135861070D01*
X71022864Y-135861067D01*
X71023584Y-135858945D01*
X71031295Y-135805760D01*
X71451639Y-135805760D01*
X71503350Y-135986100D01*
X71505105Y-135990532D01*
X71597038Y-136169414D01*
X71599622Y-136173424D01*
X71724548Y-136331041D01*
X71727865Y-136334476D01*
X71881026Y-136464826D01*
X71884943Y-136467548D01*
X72060506Y-136565667D01*
X72064877Y-136567577D01*
X72256161Y-136629729D01*
X72260815Y-136630752D01*
X72275322Y-136632482D01*
X72282503Y-136630464D01*
X72285000Y-136626014D01*
X72285000Y-136624618D01*
X72685000Y-136624618D01*
X72687855Y-136631510D01*
X72690823Y-136632739D01*
X72864240Y-136584320D01*
X72868676Y-136582600D01*
X72933213Y-136550000D01*
X76140715Y-136550000D01*
X76141134Y-136553183D01*
X76150539Y-136624618D01*
X76159772Y-136694754D01*
X76160999Y-136697716D01*
X76161000Y-136697720D01*
X76189362Y-136766191D01*
X76215645Y-136829642D01*
X76304526Y-136945474D01*
X76420357Y-137034355D01*
X76423320Y-137035582D01*
X76423323Y-137035584D01*
X76552280Y-137089000D01*
X76552284Y-137089001D01*
X76555246Y-137090228D01*
X76558427Y-137090647D01*
X76558428Y-137090647D01*
X76696817Y-137108866D01*
X76700000Y-137109285D01*
X76703183Y-137108866D01*
X76841572Y-137090647D01*
X76841573Y-137090647D01*
X76844754Y-137090228D01*
X76847716Y-137089001D01*
X76847720Y-137089000D01*
X76976677Y-137035584D01*
X76976680Y-137035582D01*
X76979643Y-137034355D01*
X77095474Y-136945474D01*
X77184355Y-136829642D01*
X77210638Y-136766191D01*
X77239000Y-136697720D01*
X77239001Y-136697716D01*
X77240228Y-136694754D01*
X77249462Y-136624618D01*
X77258866Y-136553183D01*
X77259285Y-136550000D01*
X77250385Y-136482399D01*
X77240647Y-136408428D01*
X77240647Y-136408427D01*
X77240228Y-136405246D01*
X77239001Y-136402284D01*
X77239000Y-136402280D01*
X77185584Y-136273325D01*
X77184355Y-136270358D01*
X77095474Y-136154526D01*
X76979643Y-136065645D01*
X76976680Y-136064418D01*
X76976677Y-136064416D01*
X76847720Y-136011000D01*
X76847716Y-136010999D01*
X76844754Y-136009772D01*
X76841573Y-136009353D01*
X76841572Y-136009353D01*
X76770528Y-136000000D01*
X78940715Y-136000000D01*
X78941134Y-136003183D01*
X78959060Y-136139342D01*
X78959772Y-136144754D01*
X78960999Y-136147716D01*
X78961000Y-136147720D01*
X79005894Y-136256101D01*
X79015645Y-136279642D01*
X79104526Y-136395474D01*
X79220357Y-136484355D01*
X79223320Y-136485582D01*
X79223323Y-136485584D01*
X79352280Y-136539000D01*
X79352284Y-136539001D01*
X79355246Y-136540228D01*
X79358427Y-136540647D01*
X79358428Y-136540647D01*
X79496817Y-136558866D01*
X79500000Y-136559285D01*
X79503183Y-136558866D01*
X79641572Y-136540647D01*
X79641573Y-136540647D01*
X79644754Y-136540228D01*
X79647716Y-136539001D01*
X79647720Y-136539000D01*
X79776677Y-136485584D01*
X79776680Y-136485582D01*
X79779643Y-136484355D01*
X79841672Y-136436758D01*
X79877897Y-136427051D01*
X79910375Y-136445803D01*
X79920501Y-136475632D01*
X79920501Y-136525066D01*
X79935266Y-136599301D01*
X79937946Y-136603312D01*
X79937947Y-136603314D01*
X79971851Y-136654054D01*
X79991516Y-136683484D01*
X79995527Y-136686164D01*
X79996616Y-136687253D01*
X80010968Y-136721901D01*
X80007238Y-136740652D01*
X79961001Y-136852278D01*
X79959772Y-136855246D01*
X79940715Y-137000000D01*
X79941134Y-137003183D01*
X79956309Y-137118446D01*
X79959772Y-137144754D01*
X79960999Y-137147716D01*
X79961000Y-137147720D01*
X80000000Y-137241872D01*
X80015645Y-137279642D01*
X80104526Y-137395474D01*
X80220357Y-137484355D01*
X80223320Y-137485582D01*
X80223323Y-137485584D01*
X80352280Y-137539000D01*
X80352284Y-137539001D01*
X80355246Y-137540228D01*
X80358427Y-137540647D01*
X80358428Y-137540647D01*
X80496817Y-137558866D01*
X80500000Y-137559285D01*
X80503183Y-137558866D01*
X80641572Y-137540647D01*
X80641573Y-137540647D01*
X80644754Y-137540228D01*
X80647716Y-137539001D01*
X80647720Y-137539000D01*
X80776677Y-137485584D01*
X80776680Y-137485582D01*
X80779643Y-137484355D01*
X80895474Y-137395474D01*
X80897430Y-137392925D01*
X80961126Y-137309915D01*
X80993604Y-137291163D01*
X81029829Y-137300870D01*
X81038874Y-137309915D01*
X81102570Y-137392925D01*
X81104526Y-137395474D01*
X81220357Y-137484355D01*
X81223320Y-137485582D01*
X81223323Y-137485584D01*
X81352280Y-137539000D01*
X81352284Y-137539001D01*
X81355246Y-137540228D01*
X81358427Y-137540647D01*
X81358428Y-137540647D01*
X81496817Y-137558866D01*
X81500000Y-137559285D01*
X81503183Y-137558866D01*
X81641572Y-137540647D01*
X81641573Y-137540647D01*
X81644754Y-137540228D01*
X81647716Y-137539001D01*
X81647720Y-137539000D01*
X81776677Y-137485584D01*
X81776680Y-137485582D01*
X81779643Y-137484355D01*
X81895474Y-137395474D01*
X81984355Y-137279642D01*
X82000000Y-137241872D01*
X82039000Y-137147720D01*
X82039001Y-137147716D01*
X82040228Y-137144754D01*
X82043692Y-137118446D01*
X82058866Y-137003183D01*
X82059285Y-137000000D01*
X82040228Y-136855246D01*
X82038999Y-136852278D01*
X82003851Y-136767423D01*
X82003851Y-136729920D01*
X82021897Y-136707931D01*
X82058484Y-136683484D01*
X82102522Y-136617577D01*
X82112052Y-136603315D01*
X82114734Y-136599301D01*
X82129500Y-136525067D01*
X82129500Y-135855760D01*
X82531639Y-135855760D01*
X82583350Y-136036100D01*
X82585105Y-136040532D01*
X82677038Y-136219414D01*
X82679622Y-136223424D01*
X82804548Y-136381041D01*
X82807865Y-136384476D01*
X82961026Y-136514826D01*
X82964943Y-136517548D01*
X83140506Y-136615667D01*
X83144877Y-136617577D01*
X83336161Y-136679729D01*
X83340815Y-136680752D01*
X83355322Y-136682482D01*
X83362503Y-136680464D01*
X83365000Y-136676014D01*
X83365000Y-136674618D01*
X83765000Y-136674618D01*
X83767855Y-136681510D01*
X83770823Y-136682739D01*
X83944240Y-136634320D01*
X83948676Y-136632600D01*
X84128201Y-136541915D01*
X84132234Y-136539355D01*
X84290716Y-136415535D01*
X84294166Y-136412250D01*
X84425592Y-136259993D01*
X84428337Y-136256101D01*
X84527679Y-136081226D01*
X84529621Y-136076865D01*
X84593106Y-135886025D01*
X84594162Y-135881377D01*
X84596905Y-135859669D01*
X84594936Y-135852474D01*
X84590600Y-135850000D01*
X83774747Y-135850000D01*
X83767855Y-135852855D01*
X83765000Y-135859747D01*
X83765000Y-136674618D01*
X83365000Y-136674618D01*
X83365000Y-135859747D01*
X83362145Y-135852855D01*
X83355253Y-135850000D01*
X82539734Y-135850000D01*
X82532842Y-135852855D01*
X82531639Y-135855760D01*
X82129500Y-135855760D01*
X82129500Y-135440314D01*
X82531889Y-135440314D01*
X82533959Y-135447482D01*
X82538520Y-135450000D01*
X83355253Y-135450000D01*
X83362145Y-135447145D01*
X83365000Y-135440253D01*
X83765000Y-135440253D01*
X83767855Y-135447145D01*
X83774747Y-135450000D01*
X84590724Y-135450000D01*
X84597616Y-135447145D01*
X84599337Y-135442989D01*
X84599295Y-135442774D01*
X84541163Y-135250233D01*
X84539344Y-135245821D01*
X84444925Y-135068245D01*
X84442283Y-135064268D01*
X84315172Y-134908414D01*
X84311808Y-134905026D01*
X84156840Y-134776825D01*
X84152886Y-134774158D01*
X83975966Y-134678499D01*
X83971575Y-134676653D01*
X83779435Y-134617175D01*
X83774777Y-134616219D01*
X83774694Y-134616211D01*
X83767540Y-134618330D01*
X83765000Y-134623008D01*
X83765000Y-135440253D01*
X83365000Y-135440253D01*
X83365000Y-134624030D01*
X83362145Y-134617138D01*
X83359302Y-134615960D01*
X83172059Y-134671069D01*
X83167637Y-134672856D01*
X82989402Y-134766035D01*
X82985410Y-134768646D01*
X82828664Y-134894673D01*
X82825259Y-134898008D01*
X82695979Y-135052078D01*
X82693283Y-135056015D01*
X82596390Y-135232263D01*
X82594514Y-135236641D01*
X82533699Y-135428355D01*
X82532709Y-135433010D01*
X82531889Y-135440314D01*
X82129500Y-135440314D01*
X82129499Y-134774934D01*
X82128249Y-134768646D01*
X82118332Y-134718788D01*
X82114734Y-134700699D01*
X82099901Y-134678499D01*
X82061164Y-134620527D01*
X82058484Y-134616516D01*
X81993371Y-134573008D01*
X81978315Y-134562948D01*
X81978313Y-134562947D01*
X81974301Y-134560266D01*
X81900067Y-134545500D01*
X81897657Y-134545500D01*
X81023728Y-134545501D01*
X80149934Y-134545501D01*
X80147582Y-134545969D01*
X80147580Y-134545969D01*
X80111597Y-134553126D01*
X80075699Y-134560266D01*
X80071688Y-134562946D01*
X80071686Y-134562947D01*
X80016234Y-134600000D01*
X79991516Y-134616516D01*
X79988836Y-134620527D01*
X79985422Y-134623941D01*
X79984620Y-134623139D01*
X79957899Y-134640993D01*
X79921117Y-134633675D01*
X79909470Y-134622766D01*
X79895474Y-134604526D01*
X79779643Y-134515645D01*
X79776680Y-134514418D01*
X79776677Y-134514416D01*
X79647720Y-134461000D01*
X79647716Y-134460999D01*
X79644754Y-134459772D01*
X79641573Y-134459353D01*
X79641572Y-134459353D01*
X79503183Y-134441134D01*
X79500000Y-134440715D01*
X79496817Y-134441134D01*
X79358428Y-134459353D01*
X79358427Y-134459353D01*
X79355246Y-134459772D01*
X79352284Y-134460999D01*
X79352280Y-134461000D01*
X79265817Y-134496815D01*
X79220358Y-134515645D01*
X79104526Y-134604526D01*
X79102572Y-134607073D01*
X79102570Y-134607075D01*
X79069633Y-134650000D01*
X79015645Y-134720358D01*
X79014416Y-134723325D01*
X78961000Y-134852280D01*
X78960999Y-134852284D01*
X78959772Y-134855246D01*
X78940715Y-135000000D01*
X78941134Y-135003183D01*
X78949700Y-135068245D01*
X78959772Y-135144754D01*
X78960999Y-135147716D01*
X78961000Y-135147720D01*
X79003367Y-135250000D01*
X79015645Y-135279642D01*
X79104526Y-135395474D01*
X79171865Y-135447145D01*
X79190085Y-135461126D01*
X79208837Y-135493604D01*
X79199130Y-135529829D01*
X79190085Y-135538874D01*
X79148265Y-135570964D01*
X79104526Y-135604526D01*
X79015645Y-135720358D01*
X79014416Y-135723325D01*
X78961000Y-135852280D01*
X78960999Y-135852284D01*
X78959772Y-135855246D01*
X78940715Y-136000000D01*
X76770528Y-136000000D01*
X76703183Y-135991134D01*
X76700000Y-135990715D01*
X76696817Y-135991134D01*
X76558428Y-136009353D01*
X76558427Y-136009353D01*
X76555246Y-136009772D01*
X76552284Y-136010999D01*
X76552280Y-136011000D01*
X76460431Y-136049046D01*
X76420358Y-136065645D01*
X76304526Y-136154526D01*
X76215645Y-136270358D01*
X76214416Y-136273325D01*
X76161000Y-136402280D01*
X76160999Y-136402284D01*
X76159772Y-136405246D01*
X76159353Y-136408427D01*
X76159353Y-136408428D01*
X76149615Y-136482399D01*
X76140715Y-136550000D01*
X72933213Y-136550000D01*
X73048201Y-136491915D01*
X73052234Y-136489355D01*
X73210716Y-136365535D01*
X73214166Y-136362250D01*
X73345592Y-136209993D01*
X73348337Y-136206101D01*
X73447679Y-136031226D01*
X73449621Y-136026865D01*
X73513106Y-135836025D01*
X73514162Y-135831377D01*
X73516905Y-135809669D01*
X73514936Y-135802474D01*
X73510600Y-135800000D01*
X72694747Y-135800000D01*
X72687855Y-135802855D01*
X72685000Y-135809747D01*
X72685000Y-136624618D01*
X72285000Y-136624618D01*
X72285000Y-135809747D01*
X72282145Y-135802855D01*
X72275253Y-135800000D01*
X71459734Y-135800000D01*
X71452842Y-135802855D01*
X71451639Y-135805760D01*
X71031295Y-135805760D01*
X71052712Y-135658053D01*
X71054114Y-135604526D01*
X71054194Y-135601453D01*
X71054194Y-135601452D01*
X71054232Y-135600000D01*
X71035658Y-135397859D01*
X71033530Y-135390314D01*
X71451889Y-135390314D01*
X71453959Y-135397482D01*
X71458520Y-135400000D01*
X72275253Y-135400000D01*
X72282145Y-135397145D01*
X72285000Y-135390253D01*
X72685000Y-135390253D01*
X72687855Y-135397145D01*
X72694747Y-135400000D01*
X73510724Y-135400000D01*
X73517616Y-135397145D01*
X73519337Y-135392989D01*
X73519295Y-135392774D01*
X73461163Y-135200233D01*
X73459344Y-135195821D01*
X73364925Y-135018245D01*
X73362283Y-135014268D01*
X73235172Y-134858414D01*
X73231808Y-134855026D01*
X73076840Y-134726825D01*
X73072886Y-134724158D01*
X72895966Y-134628499D01*
X72891575Y-134626653D01*
X72699435Y-134567175D01*
X72694777Y-134566219D01*
X72694694Y-134566211D01*
X72687540Y-134568330D01*
X72685000Y-134573008D01*
X72685000Y-135390253D01*
X72285000Y-135390253D01*
X72285000Y-134574030D01*
X72282145Y-134567138D01*
X72279302Y-134565960D01*
X72092059Y-134621069D01*
X72087637Y-134622856D01*
X71909402Y-134716035D01*
X71905410Y-134718646D01*
X71748664Y-134844673D01*
X71745259Y-134848008D01*
X71615979Y-135002078D01*
X71613283Y-135006015D01*
X71516390Y-135182263D01*
X71514514Y-135186641D01*
X71453699Y-135378355D01*
X71452709Y-135383010D01*
X71451889Y-135390314D01*
X71033530Y-135390314D01*
X70980557Y-135202487D01*
X70979446Y-135200233D01*
X70926662Y-135093198D01*
X70890776Y-135020428D01*
X70776065Y-134866811D01*
X70770668Y-134859584D01*
X70770667Y-134859583D01*
X70769320Y-134857779D01*
X70620258Y-134719987D01*
X70613995Y-134716035D01*
X70545560Y-134672856D01*
X70448581Y-134611667D01*
X70345463Y-134570527D01*
X70262123Y-134537277D01*
X70262119Y-134537276D01*
X70260039Y-134536446D01*
X70257838Y-134536008D01*
X70257834Y-134536007D01*
X70123687Y-134509324D01*
X70060946Y-134496844D01*
X69964244Y-134495578D01*
X69860219Y-134494216D01*
X69860214Y-134494216D01*
X69857971Y-134494187D01*
X69855754Y-134494568D01*
X69855753Y-134494568D01*
X69842508Y-134496844D01*
X69657910Y-134528564D01*
X69655806Y-134529340D01*
X69655803Y-134529341D01*
X69469571Y-134598046D01*
X69469568Y-134598047D01*
X69467463Y-134598824D01*
X69465535Y-134599971D01*
X69465533Y-134599972D01*
X69408883Y-134633675D01*
X69293010Y-134702612D01*
X69291322Y-134704092D01*
X69291321Y-134704093D01*
X69220690Y-134766035D01*
X69140392Y-134836455D01*
X69139007Y-134838211D01*
X69139003Y-134838216D01*
X69016110Y-134994105D01*
X69016107Y-134994110D01*
X69014720Y-134995869D01*
X69013672Y-134997861D01*
X68958814Y-135102129D01*
X68920203Y-135175515D01*
X68860007Y-135369378D01*
X68859743Y-135371610D01*
X68859742Y-135371614D01*
X68839946Y-135538874D01*
X68836148Y-135570964D01*
X68511564Y-135570964D01*
X68495658Y-135397859D01*
X68440557Y-135202487D01*
X68439446Y-135200233D01*
X68386662Y-135093198D01*
X68350776Y-135020428D01*
X68236065Y-134866811D01*
X68230668Y-134859584D01*
X68230667Y-134859583D01*
X68229320Y-134857779D01*
X68080258Y-134719987D01*
X68073995Y-134716035D01*
X68005560Y-134672856D01*
X67908581Y-134611667D01*
X67805463Y-134570527D01*
X67722123Y-134537277D01*
X67722119Y-134537276D01*
X67720039Y-134536446D01*
X67717838Y-134536008D01*
X67717834Y-134536007D01*
X67583687Y-134509324D01*
X67520946Y-134496844D01*
X67424244Y-134495578D01*
X67320219Y-134494216D01*
X67320214Y-134494216D01*
X67317971Y-134494187D01*
X67315754Y-134494568D01*
X67315753Y-134494568D01*
X67302508Y-134496844D01*
X67117910Y-134528564D01*
X67115806Y-134529340D01*
X67115803Y-134529341D01*
X66929571Y-134598046D01*
X66929568Y-134598047D01*
X66927463Y-134598824D01*
X66925535Y-134599971D01*
X66925533Y-134599972D01*
X66868883Y-134633675D01*
X66753010Y-134702612D01*
X66751322Y-134704092D01*
X66751321Y-134704093D01*
X66680690Y-134766035D01*
X66600392Y-134836455D01*
X66599007Y-134838211D01*
X66599003Y-134838216D01*
X66476110Y-134994105D01*
X66476107Y-134994110D01*
X66474720Y-134995869D01*
X66473672Y-134997861D01*
X66418814Y-135102129D01*
X66380203Y-135175515D01*
X66320007Y-135369378D01*
X66319743Y-135371610D01*
X66319742Y-135371614D01*
X66299946Y-135538874D01*
X66296148Y-135570964D01*
X65971564Y-135570964D01*
X65955658Y-135397859D01*
X65900557Y-135202487D01*
X65899446Y-135200233D01*
X65846662Y-135093198D01*
X65810776Y-135020428D01*
X65696065Y-134866811D01*
X65690668Y-134859584D01*
X65690667Y-134859583D01*
X65689320Y-134857779D01*
X65540258Y-134719987D01*
X65533995Y-134716035D01*
X65465560Y-134672856D01*
X65368581Y-134611667D01*
X65265463Y-134570527D01*
X65182123Y-134537277D01*
X65182119Y-134537276D01*
X65180039Y-134536446D01*
X65177838Y-134536008D01*
X65177834Y-134536007D01*
X65043687Y-134509324D01*
X64980946Y-134496844D01*
X64884244Y-134495578D01*
X64780219Y-134494216D01*
X64780214Y-134494216D01*
X64777971Y-134494187D01*
X64775754Y-134494568D01*
X64775753Y-134494568D01*
X64762508Y-134496844D01*
X64577910Y-134528564D01*
X64575806Y-134529340D01*
X64575803Y-134529341D01*
X64389571Y-134598046D01*
X64389568Y-134598047D01*
X64387463Y-134598824D01*
X64385535Y-134599971D01*
X64385533Y-134599972D01*
X64328883Y-134633675D01*
X64213010Y-134702612D01*
X64211322Y-134704092D01*
X64211321Y-134704093D01*
X64140690Y-134766035D01*
X64060392Y-134836455D01*
X64059007Y-134838211D01*
X64059003Y-134838216D01*
X63936110Y-134994105D01*
X63936107Y-134994110D01*
X63934720Y-134995869D01*
X63933672Y-134997861D01*
X63878814Y-135102129D01*
X63840203Y-135175515D01*
X63780007Y-135369378D01*
X63779743Y-135371610D01*
X63779742Y-135371614D01*
X63759946Y-135538874D01*
X63756148Y-135570964D01*
X63429500Y-135570964D01*
X63429499Y-134727337D01*
X63429499Y-134724934D01*
X63428249Y-134718646D01*
X63415675Y-134655431D01*
X63414734Y-134650699D01*
X63411724Y-134646193D01*
X63361164Y-134570527D01*
X63358484Y-134566516D01*
X63301117Y-134528184D01*
X63278315Y-134512948D01*
X63278313Y-134512947D01*
X63274301Y-134510266D01*
X63200067Y-134495500D01*
X63197657Y-134495500D01*
X62323728Y-134495501D01*
X61449934Y-134495501D01*
X61447582Y-134495969D01*
X61447580Y-134495969D01*
X61411597Y-134503126D01*
X61375699Y-134510266D01*
X61371688Y-134512946D01*
X61371686Y-134512947D01*
X61322968Y-134545500D01*
X61291516Y-134566516D01*
X61288836Y-134570527D01*
X61244748Y-134636509D01*
X61235266Y-134650699D01*
X61220500Y-134724933D01*
X61220500Y-134727343D01*
X53997770Y-134727343D01*
X53973985Y-134638576D01*
X53973984Y-134638574D01*
X53973431Y-134636509D01*
X53914123Y-134509324D01*
X53874503Y-134424358D01*
X53874502Y-134424356D01*
X53873600Y-134422422D01*
X53738110Y-134228922D01*
X53571078Y-134061890D01*
X53377579Y-133926400D01*
X53163491Y-133826569D01*
X53161426Y-133826016D01*
X53161424Y-133826015D01*
X52937393Y-133765986D01*
X52937391Y-133765986D01*
X52935321Y-133765431D01*
X52933194Y-133765245D01*
X52933189Y-133765244D01*
X52702126Y-133745029D01*
X52700000Y-133744843D01*
X52697874Y-133745029D01*
X52466811Y-133765244D01*
X52466806Y-133765245D01*
X52464679Y-133765431D01*
X52462609Y-133765986D01*
X52462607Y-133765986D01*
X52238576Y-133826015D01*
X52238574Y-133826016D01*
X52236509Y-133826569D01*
X52022422Y-133926400D01*
X51828922Y-134061890D01*
X51661890Y-134228922D01*
X51526400Y-134422422D01*
X51525498Y-134424356D01*
X51525497Y-134424358D01*
X51485877Y-134509324D01*
X51426569Y-134636509D01*
X51426016Y-134638574D01*
X51426015Y-134638576D01*
X51367690Y-134856250D01*
X51365431Y-134864679D01*
X51365245Y-134866806D01*
X51365244Y-134866811D01*
X51347622Y-135068245D01*
X51345439Y-135093193D01*
X51344843Y-135100000D01*
X50450000Y-135100000D01*
X50450000Y-133649000D01*
X50464352Y-133614352D01*
X50499000Y-133600000D01*
X87501000Y-133600000D01*
X87535648Y-133614352D01*
G37*
%TD.AperFunction*%
%TD*%
M02*
