%TF.GenerationSoftware,KiCad,Pcbnew,(6.0.1)*%
%TF.CreationDate,2022-11-23T23:22:51+01:00*%
%TF.ProjectId,usb-magnetometer,7573622d-6d61-4676-9e65-746f6d657465,rev?*%
%TF.SameCoordinates,Original*%
%TF.FileFunction,Paste,Top*%
%TF.FilePolarity,Positive*%
%FSLAX46Y46*%
G04 Gerber Fmt 4.6, Leading zero omitted, Abs format (unit mm)*
G04 Created by KiCad (PCBNEW (6.0.1)) date 2022-11-23 23:22:51*
%MOMM*%
%LPD*%
G01*
G04 APERTURE LIST*
G04 Aperture macros list*
%AMRoundRect*
0 Rectangle with rounded corners*
0 $1 Rounding radius*
0 $2 $3 $4 $5 $6 $7 $8 $9 X,Y pos of 4 corners*
0 Add a 4 corners polygon primitive as box body*
4,1,4,$2,$3,$4,$5,$6,$7,$8,$9,$2,$3,0*
0 Add four circle primitives for the rounded corners*
1,1,$1+$1,$2,$3*
1,1,$1+$1,$4,$5*
1,1,$1+$1,$6,$7*
1,1,$1+$1,$8,$9*
0 Add four rect primitives between the rounded corners*
20,1,$1+$1,$2,$3,$4,$5,0*
20,1,$1+$1,$4,$5,$6,$7,0*
20,1,$1+$1,$6,$7,$8,$9,0*
20,1,$1+$1,$8,$9,$2,$3,0*%
G04 Aperture macros list end*
%ADD10RoundRect,0.155000X-0.155000X0.212500X-0.155000X-0.212500X0.155000X-0.212500X0.155000X0.212500X0*%
%ADD11RoundRect,0.160000X-0.160000X0.197500X-0.160000X-0.197500X0.160000X-0.197500X0.160000X0.197500X0*%
%ADD12RoundRect,0.050000X0.200000X-0.100000X0.200000X0.100000X-0.200000X0.100000X-0.200000X-0.100000X0*%
%ADD13RoundRect,0.160000X-0.197500X-0.160000X0.197500X-0.160000X0.197500X0.160000X-0.197500X0.160000X0*%
%ADD14RoundRect,0.075000X0.075000X-0.662500X0.075000X0.662500X-0.075000X0.662500X-0.075000X-0.662500X0*%
%ADD15RoundRect,0.075000X0.662500X-0.075000X0.662500X0.075000X-0.662500X0.075000X-0.662500X-0.075000X0*%
%ADD16RoundRect,0.155000X0.155000X-0.212500X0.155000X0.212500X-0.155000X0.212500X-0.155000X-0.212500X0*%
%ADD17R,1.000000X1.000000*%
%ADD18R,2.000000X1.000000*%
%ADD19R,1.000000X0.520000*%
%ADD20R,1.000000X0.270000*%
%ADD21RoundRect,0.155000X0.212500X0.155000X-0.212500X0.155000X-0.212500X-0.155000X0.212500X-0.155000X0*%
%ADD22RoundRect,0.160000X0.197500X0.160000X-0.197500X0.160000X-0.197500X-0.160000X0.197500X-0.160000X0*%
%ADD23RoundRect,0.155000X-0.212500X-0.155000X0.212500X-0.155000X0.212500X0.155000X-0.212500X0.155000X0*%
%ADD24R,1.450000X0.450000*%
%ADD25RoundRect,0.050000X-0.200000X0.100000X-0.200000X-0.100000X0.200000X-0.100000X0.200000X0.100000X0*%
%ADD26R,1.200000X0.400000*%
%ADD27RoundRect,0.160000X0.160000X-0.197500X0.160000X0.197500X-0.160000X0.197500X-0.160000X-0.197500X0*%
G04 APERTURE END LIST*
D10*
%TO.C,C7*%
X85600000Y-140282500D03*
X85600000Y-141417500D03*
%TD*%
D11*
%TO.C,R8*%
X85000000Y-147502500D03*
X85000000Y-148697500D03*
%TD*%
D12*
%TO.C,D2*%
X57000000Y-143150000D03*
X57000000Y-142450000D03*
%TD*%
D13*
%TO.C,R3*%
X59202500Y-144100000D03*
X60397500Y-144100000D03*
%TD*%
D14*
%TO.C,U3*%
X76950000Y-147462500D03*
X77450000Y-147462500D03*
X77950000Y-147462500D03*
X78450000Y-147462500D03*
X78950000Y-147462500D03*
X79450000Y-147462500D03*
X79950000Y-147462500D03*
X80450000Y-147462500D03*
X80950000Y-147462500D03*
X81450000Y-147462500D03*
X81950000Y-147462500D03*
X82450000Y-147462500D03*
D15*
X83862500Y-146050000D03*
X83862500Y-145550000D03*
X83862500Y-145050000D03*
X83862500Y-144550000D03*
X83862500Y-144050000D03*
X83862500Y-143550000D03*
X83862500Y-143050000D03*
X83862500Y-142550000D03*
X83862500Y-142050000D03*
X83862500Y-141550000D03*
X83862500Y-141050000D03*
X83862500Y-140550000D03*
D14*
X82450000Y-139137500D03*
X81950000Y-139137500D03*
X81450000Y-139137500D03*
X80950000Y-139137500D03*
X80450000Y-139137500D03*
X79950000Y-139137500D03*
X79450000Y-139137500D03*
X78950000Y-139137500D03*
X78450000Y-139137500D03*
X77950000Y-139137500D03*
X77450000Y-139137500D03*
X76950000Y-139137500D03*
D15*
X75537500Y-140550000D03*
X75537500Y-141050000D03*
X75537500Y-141550000D03*
X75537500Y-142050000D03*
X75537500Y-142550000D03*
X75537500Y-143050000D03*
X75537500Y-143550000D03*
X75537500Y-144050000D03*
X75537500Y-144550000D03*
X75537500Y-145050000D03*
X75537500Y-145550000D03*
X75537500Y-146050000D03*
%TD*%
D16*
%TO.C,C3*%
X58100000Y-143000000D03*
X58100000Y-141865000D03*
%TD*%
D11*
%TO.C,R2*%
X57000000Y-145802500D03*
X57000000Y-146997500D03*
%TD*%
D10*
%TO.C,C5*%
X62300000Y-145832500D03*
X62300000Y-146967500D03*
%TD*%
D17*
%TO.C,D3*%
X58650000Y-149600000D03*
X61150000Y-149600000D03*
%TD*%
D11*
%TO.C,R7*%
X86800000Y-147502500D03*
X86800000Y-148697500D03*
%TD*%
D18*
%TO.C,J1*%
X50100000Y-144500000D03*
X50100000Y-141700000D03*
D19*
X54300000Y-140000000D03*
X54300000Y-140750000D03*
D20*
X54300000Y-141350000D03*
X54300000Y-142850000D03*
X54300000Y-143850000D03*
X54300000Y-144850000D03*
D19*
X54300000Y-145450000D03*
X54300000Y-146200000D03*
X54300000Y-146200000D03*
X54300000Y-145450000D03*
D20*
X54300000Y-144350000D03*
X54300000Y-143350000D03*
X54300000Y-142350000D03*
X54300000Y-141850000D03*
D19*
X54300000Y-140750000D03*
X54300000Y-140000000D03*
%TD*%
D21*
%TO.C,C8*%
X81267500Y-149550000D03*
X80132500Y-149550000D03*
%TD*%
D16*
%TO.C,C12*%
X73600000Y-146967500D03*
X73600000Y-145832500D03*
%TD*%
D22*
%TO.C,L2*%
X55097500Y-149300000D03*
X53902500Y-149300000D03*
%TD*%
D13*
%TO.C,R9*%
X64902500Y-138300000D03*
X66097500Y-138300000D03*
%TD*%
%TO.C,R10*%
X67402500Y-138300000D03*
X68597500Y-138300000D03*
%TD*%
D16*
%TO.C,C4*%
X70600000Y-147135000D03*
X70600000Y-146000000D03*
%TD*%
D23*
%TO.C,C10*%
X76582500Y-137400000D03*
X77717500Y-137400000D03*
%TD*%
D24*
%TO.C,U2*%
X128200000Y-142125000D03*
X128200000Y-142775000D03*
X128200000Y-143425000D03*
X128200000Y-144075000D03*
X132600000Y-144075000D03*
X132600000Y-143425000D03*
X132600000Y-142775000D03*
X132600000Y-142125000D03*
%TD*%
D21*
%TO.C,C11*%
X132567500Y-145600000D03*
X131432500Y-145600000D03*
%TD*%
D25*
%TO.C,D1*%
X57000000Y-144082500D03*
X57000000Y-144782500D03*
%TD*%
D26*
%TO.C,U1*%
X69000000Y-148957500D03*
X69000000Y-148322500D03*
X69000000Y-147687500D03*
X69000000Y-147052500D03*
X69000000Y-146417500D03*
X69000000Y-145782500D03*
X69000000Y-145147500D03*
X69000000Y-144512500D03*
X69000000Y-143877500D03*
X69000000Y-143242500D03*
X63800000Y-143242500D03*
X63800000Y-143877500D03*
X63800000Y-144512500D03*
X63800000Y-145147500D03*
X63800000Y-145782500D03*
X63800000Y-146417500D03*
X63800000Y-147052500D03*
X63800000Y-147687500D03*
X63800000Y-148322500D03*
X63800000Y-148957500D03*
%TD*%
D10*
%TO.C,C6*%
X61300000Y-145832500D03*
X61300000Y-146967500D03*
%TD*%
D27*
%TO.C,R1*%
X59200000Y-141897500D03*
X59200000Y-140702500D03*
%TD*%
D23*
%TO.C,C14*%
X72332500Y-138300000D03*
X73467500Y-138300000D03*
%TD*%
D13*
%TO.C,R11*%
X69902500Y-138300000D03*
X71097500Y-138300000D03*
%TD*%
D21*
%TO.C,C13*%
X81267500Y-150600000D03*
X80132500Y-150600000D03*
%TD*%
D13*
%TO.C,R4*%
X59202500Y-143032500D03*
X60397500Y-143032500D03*
%TD*%
D16*
%TO.C,C9*%
X134500000Y-144567500D03*
X134500000Y-143432500D03*
%TD*%
D10*
%TO.C,C2*%
X58100000Y-144165000D03*
X58100000Y-145300000D03*
%TD*%
D27*
%TO.C,L1*%
X60200000Y-146997500D03*
X60200000Y-145802500D03*
%TD*%
D23*
%TO.C,C1*%
X60232500Y-148100000D03*
X61367500Y-148100000D03*
%TD*%
M02*
