%TF.GenerationSoftware,KiCad,Pcbnew,(6.0.1)*%
%TF.CreationDate,2022-11-23T23:22:51+01:00*%
%TF.ProjectId,usb-magnetometer,7573622d-6d61-4676-9e65-746f6d657465,rev?*%
%TF.SameCoordinates,Original*%
%TF.FileFunction,Legend,Top*%
%TF.FilePolarity,Positive*%
%FSLAX46Y46*%
G04 Gerber Fmt 4.6, Leading zero omitted, Abs format (unit mm)*
G04 Created by KiCad (PCBNEW (6.0.1)) date 2022-11-23 23:22:51*
%MOMM*%
%LPD*%
G01*
G04 APERTURE LIST*
%ADD10C,0.100000*%
%ADD11C,0.120000*%
G04 APERTURE END LIST*
D10*
%TO.C,C7*%
X86974285Y-140950000D02*
X87002857Y-140978571D01*
X87031428Y-141064285D01*
X87031428Y-141121428D01*
X87002857Y-141207142D01*
X86945714Y-141264285D01*
X86888571Y-141292857D01*
X86774285Y-141321428D01*
X86688571Y-141321428D01*
X86574285Y-141292857D01*
X86517142Y-141264285D01*
X86460000Y-141207142D01*
X86431428Y-141121428D01*
X86431428Y-141064285D01*
X86460000Y-140978571D01*
X86488571Y-140950000D01*
X86431428Y-140750000D02*
X86431428Y-140350000D01*
X87031428Y-140607142D01*
%TO.C,R8*%
X85400000Y-146771428D02*
X85200000Y-146485714D01*
X85057142Y-146771428D02*
X85057142Y-146171428D01*
X85285714Y-146171428D01*
X85342857Y-146200000D01*
X85371428Y-146228571D01*
X85400000Y-146285714D01*
X85400000Y-146371428D01*
X85371428Y-146428571D01*
X85342857Y-146457142D01*
X85285714Y-146485714D01*
X85057142Y-146485714D01*
X85742857Y-146428571D02*
X85685714Y-146400000D01*
X85657142Y-146371428D01*
X85628571Y-146314285D01*
X85628571Y-146285714D01*
X85657142Y-146228571D01*
X85685714Y-146200000D01*
X85742857Y-146171428D01*
X85857142Y-146171428D01*
X85914285Y-146200000D01*
X85942857Y-146228571D01*
X85971428Y-146285714D01*
X85971428Y-146314285D01*
X85942857Y-146371428D01*
X85914285Y-146400000D01*
X85857142Y-146428571D01*
X85742857Y-146428571D01*
X85685714Y-146457142D01*
X85657142Y-146485714D01*
X85628571Y-146542857D01*
X85628571Y-146657142D01*
X85657142Y-146714285D01*
X85685714Y-146742857D01*
X85742857Y-146771428D01*
X85857142Y-146771428D01*
X85914285Y-146742857D01*
X85942857Y-146714285D01*
X85971428Y-146657142D01*
X85971428Y-146542857D01*
X85942857Y-146485714D01*
X85914285Y-146457142D01*
X85857142Y-146428571D01*
%TO.C,D2*%
X57271428Y-141442857D02*
X56671428Y-141442857D01*
X56671428Y-141300000D01*
X56700000Y-141214285D01*
X56757142Y-141157142D01*
X56814285Y-141128571D01*
X56928571Y-141100000D01*
X57014285Y-141100000D01*
X57128571Y-141128571D01*
X57185714Y-141157142D01*
X57242857Y-141214285D01*
X57271428Y-141300000D01*
X57271428Y-141442857D01*
X56728571Y-140871428D02*
X56700000Y-140842857D01*
X56671428Y-140785714D01*
X56671428Y-140642857D01*
X56700000Y-140585714D01*
X56728571Y-140557142D01*
X56785714Y-140528571D01*
X56842857Y-140528571D01*
X56928571Y-140557142D01*
X57271428Y-140900000D01*
X57271428Y-140528571D01*
%TO.C,R3*%
X61500000Y-144371428D02*
X61300000Y-144085714D01*
X61157142Y-144371428D02*
X61157142Y-143771428D01*
X61385714Y-143771428D01*
X61442857Y-143800000D01*
X61471428Y-143828571D01*
X61500000Y-143885714D01*
X61500000Y-143971428D01*
X61471428Y-144028571D01*
X61442857Y-144057142D01*
X61385714Y-144085714D01*
X61157142Y-144085714D01*
X61700000Y-143771428D02*
X62071428Y-143771428D01*
X61871428Y-144000000D01*
X61957142Y-144000000D01*
X62014285Y-144028571D01*
X62042857Y-144057142D01*
X62071428Y-144114285D01*
X62071428Y-144257142D01*
X62042857Y-144314285D01*
X62014285Y-144342857D01*
X61957142Y-144371428D01*
X61785714Y-144371428D01*
X61728571Y-144342857D01*
X61700000Y-144314285D01*
%TO.C,U3*%
X74178571Y-142842857D02*
X73692857Y-142842857D01*
X73635714Y-142871428D01*
X73607142Y-142900000D01*
X73578571Y-142957142D01*
X73578571Y-143071428D01*
X73607142Y-143128571D01*
X73635714Y-143157142D01*
X73692857Y-143185714D01*
X74178571Y-143185714D01*
X74178571Y-143414285D02*
X74178571Y-143785714D01*
X73950000Y-143585714D01*
X73950000Y-143671428D01*
X73921428Y-143728571D01*
X73892857Y-143757142D01*
X73835714Y-143785714D01*
X73692857Y-143785714D01*
X73635714Y-143757142D01*
X73607142Y-143728571D01*
X73578571Y-143671428D01*
X73578571Y-143500000D01*
X73607142Y-143442857D01*
X73635714Y-143414285D01*
%TO.C,C3*%
X58314285Y-140800000D02*
X58342857Y-140828571D01*
X58371428Y-140914285D01*
X58371428Y-140971428D01*
X58342857Y-141057142D01*
X58285714Y-141114285D01*
X58228571Y-141142857D01*
X58114285Y-141171428D01*
X58028571Y-141171428D01*
X57914285Y-141142857D01*
X57857142Y-141114285D01*
X57800000Y-141057142D01*
X57771428Y-140971428D01*
X57771428Y-140914285D01*
X57800000Y-140828571D01*
X57828571Y-140800000D01*
X57771428Y-140600000D02*
X57771428Y-140228571D01*
X58000000Y-140428571D01*
X58000000Y-140342857D01*
X58028571Y-140285714D01*
X58057142Y-140257142D01*
X58114285Y-140228571D01*
X58257142Y-140228571D01*
X58314285Y-140257142D01*
X58342857Y-140285714D01*
X58371428Y-140342857D01*
X58371428Y-140514285D01*
X58342857Y-140571428D01*
X58314285Y-140600000D01*
%TO.C,R2*%
X57271428Y-148200000D02*
X56985714Y-148400000D01*
X57271428Y-148542857D02*
X56671428Y-148542857D01*
X56671428Y-148314285D01*
X56700000Y-148257142D01*
X56728571Y-148228571D01*
X56785714Y-148200000D01*
X56871428Y-148200000D01*
X56928571Y-148228571D01*
X56957142Y-148257142D01*
X56985714Y-148314285D01*
X56985714Y-148542857D01*
X56728571Y-147971428D02*
X56700000Y-147942857D01*
X56671428Y-147885714D01*
X56671428Y-147742857D01*
X56700000Y-147685714D01*
X56728571Y-147657142D01*
X56785714Y-147628571D01*
X56842857Y-147628571D01*
X56928571Y-147657142D01*
X57271428Y-148000000D01*
X57271428Y-147628571D01*
%TO.C,C5*%
X62614285Y-148200000D02*
X62642857Y-148228571D01*
X62671428Y-148314285D01*
X62671428Y-148371428D01*
X62642857Y-148457142D01*
X62585714Y-148514285D01*
X62528571Y-148542857D01*
X62414285Y-148571428D01*
X62328571Y-148571428D01*
X62214285Y-148542857D01*
X62157142Y-148514285D01*
X62100000Y-148457142D01*
X62071428Y-148371428D01*
X62071428Y-148314285D01*
X62100000Y-148228571D01*
X62128571Y-148200000D01*
X62071428Y-147657142D02*
X62071428Y-147942857D01*
X62357142Y-147971428D01*
X62328571Y-147942857D01*
X62300000Y-147885714D01*
X62300000Y-147742857D01*
X62328571Y-147685714D01*
X62357142Y-147657142D01*
X62414285Y-147628571D01*
X62557142Y-147628571D01*
X62614285Y-147657142D01*
X62642857Y-147685714D01*
X62671428Y-147742857D01*
X62671428Y-147885714D01*
X62642857Y-147942857D01*
X62614285Y-147971428D01*
%TO.C,D3*%
X59457142Y-151371428D02*
X59457142Y-150771428D01*
X59600000Y-150771428D01*
X59685714Y-150800000D01*
X59742857Y-150857142D01*
X59771428Y-150914285D01*
X59800000Y-151028571D01*
X59800000Y-151114285D01*
X59771428Y-151228571D01*
X59742857Y-151285714D01*
X59685714Y-151342857D01*
X59600000Y-151371428D01*
X59457142Y-151371428D01*
X60000000Y-150771428D02*
X60371428Y-150771428D01*
X60171428Y-151000000D01*
X60257142Y-151000000D01*
X60314285Y-151028571D01*
X60342857Y-151057142D01*
X60371428Y-151114285D01*
X60371428Y-151257142D01*
X60342857Y-151314285D01*
X60314285Y-151342857D01*
X60257142Y-151371428D01*
X60085714Y-151371428D01*
X60028571Y-151342857D01*
X60000000Y-151314285D01*
%TO.C,R7*%
X86800000Y-146771428D02*
X86600000Y-146485714D01*
X86457142Y-146771428D02*
X86457142Y-146171428D01*
X86685714Y-146171428D01*
X86742857Y-146200000D01*
X86771428Y-146228571D01*
X86800000Y-146285714D01*
X86800000Y-146371428D01*
X86771428Y-146428571D01*
X86742857Y-146457142D01*
X86685714Y-146485714D01*
X86457142Y-146485714D01*
X87000000Y-146171428D02*
X87400000Y-146171428D01*
X87142857Y-146771428D01*
%TO.C,J1*%
X51400000Y-148871428D02*
X51400000Y-149300000D01*
X51371428Y-149385714D01*
X51314285Y-149442857D01*
X51228571Y-149471428D01*
X51171428Y-149471428D01*
X52000000Y-149471428D02*
X51657142Y-149471428D01*
X51828571Y-149471428D02*
X51828571Y-148871428D01*
X51771428Y-148957142D01*
X51714285Y-149014285D01*
X51657142Y-149042857D01*
%TO.C,C8*%
X78200000Y-149814285D02*
X78171428Y-149842857D01*
X78085714Y-149871428D01*
X78028571Y-149871428D01*
X77942857Y-149842857D01*
X77885714Y-149785714D01*
X77857142Y-149728571D01*
X77828571Y-149614285D01*
X77828571Y-149528571D01*
X77857142Y-149414285D01*
X77885714Y-149357142D01*
X77942857Y-149300000D01*
X78028571Y-149271428D01*
X78085714Y-149271428D01*
X78171428Y-149300000D01*
X78200000Y-149328571D01*
X78542857Y-149528571D02*
X78485714Y-149500000D01*
X78457142Y-149471428D01*
X78428571Y-149414285D01*
X78428571Y-149385714D01*
X78457142Y-149328571D01*
X78485714Y-149300000D01*
X78542857Y-149271428D01*
X78657142Y-149271428D01*
X78714285Y-149300000D01*
X78742857Y-149328571D01*
X78771428Y-149385714D01*
X78771428Y-149414285D01*
X78742857Y-149471428D01*
X78714285Y-149500000D01*
X78657142Y-149528571D01*
X78542857Y-149528571D01*
X78485714Y-149557142D01*
X78457142Y-149585714D01*
X78428571Y-149642857D01*
X78428571Y-149757142D01*
X78457142Y-149814285D01*
X78485714Y-149842857D01*
X78542857Y-149871428D01*
X78657142Y-149871428D01*
X78714285Y-149842857D01*
X78742857Y-149814285D01*
X78771428Y-149757142D01*
X78771428Y-149642857D01*
X78742857Y-149585714D01*
X78714285Y-149557142D01*
X78657142Y-149528571D01*
%TO.C,C12*%
X73814285Y-148885714D02*
X73842857Y-148914285D01*
X73871428Y-149000000D01*
X73871428Y-149057142D01*
X73842857Y-149142857D01*
X73785714Y-149200000D01*
X73728571Y-149228571D01*
X73614285Y-149257142D01*
X73528571Y-149257142D01*
X73414285Y-149228571D01*
X73357142Y-149200000D01*
X73300000Y-149142857D01*
X73271428Y-149057142D01*
X73271428Y-149000000D01*
X73300000Y-148914285D01*
X73328571Y-148885714D01*
X73871428Y-148314285D02*
X73871428Y-148657142D01*
X73871428Y-148485714D02*
X73271428Y-148485714D01*
X73357142Y-148542857D01*
X73414285Y-148600000D01*
X73442857Y-148657142D01*
X73328571Y-148085714D02*
X73300000Y-148057142D01*
X73271428Y-148000000D01*
X73271428Y-147857142D01*
X73300000Y-147800000D01*
X73328571Y-147771428D01*
X73385714Y-147742857D01*
X73442857Y-147742857D01*
X73528571Y-147771428D01*
X73871428Y-148114285D01*
X73871428Y-147742857D01*
%TO.C,L2*%
X54400000Y-150741428D02*
X54114285Y-150741428D01*
X54114285Y-150141428D01*
X54571428Y-150198571D02*
X54600000Y-150170000D01*
X54657142Y-150141428D01*
X54800000Y-150141428D01*
X54857142Y-150170000D01*
X54885714Y-150198571D01*
X54914285Y-150255714D01*
X54914285Y-150312857D01*
X54885714Y-150398571D01*
X54542857Y-150741428D01*
X54914285Y-150741428D01*
%TO.C,R9*%
X65400000Y-139571428D02*
X65200000Y-139285714D01*
X65057142Y-139571428D02*
X65057142Y-138971428D01*
X65285714Y-138971428D01*
X65342857Y-139000000D01*
X65371428Y-139028571D01*
X65400000Y-139085714D01*
X65400000Y-139171428D01*
X65371428Y-139228571D01*
X65342857Y-139257142D01*
X65285714Y-139285714D01*
X65057142Y-139285714D01*
X65685714Y-139571428D02*
X65800000Y-139571428D01*
X65857142Y-139542857D01*
X65885714Y-139514285D01*
X65942857Y-139428571D01*
X65971428Y-139314285D01*
X65971428Y-139085714D01*
X65942857Y-139028571D01*
X65914285Y-139000000D01*
X65857142Y-138971428D01*
X65742857Y-138971428D01*
X65685714Y-139000000D01*
X65657142Y-139028571D01*
X65628571Y-139085714D01*
X65628571Y-139228571D01*
X65657142Y-139285714D01*
X65685714Y-139314285D01*
X65742857Y-139342857D01*
X65857142Y-139342857D01*
X65914285Y-139314285D01*
X65942857Y-139285714D01*
X65971428Y-139228571D01*
%TO.C,R10*%
X67614285Y-139571428D02*
X67414285Y-139285714D01*
X67271428Y-139571428D02*
X67271428Y-138971428D01*
X67500000Y-138971428D01*
X67557142Y-139000000D01*
X67585714Y-139028571D01*
X67614285Y-139085714D01*
X67614285Y-139171428D01*
X67585714Y-139228571D01*
X67557142Y-139257142D01*
X67500000Y-139285714D01*
X67271428Y-139285714D01*
X68185714Y-139571428D02*
X67842857Y-139571428D01*
X68014285Y-139571428D02*
X68014285Y-138971428D01*
X67957142Y-139057142D01*
X67900000Y-139114285D01*
X67842857Y-139142857D01*
X68557142Y-138971428D02*
X68614285Y-138971428D01*
X68671428Y-139000000D01*
X68700000Y-139028571D01*
X68728571Y-139085714D01*
X68757142Y-139200000D01*
X68757142Y-139342857D01*
X68728571Y-139457142D01*
X68700000Y-139514285D01*
X68671428Y-139542857D01*
X68614285Y-139571428D01*
X68557142Y-139571428D01*
X68500000Y-139542857D01*
X68471428Y-139514285D01*
X68442857Y-139457142D01*
X68414285Y-139342857D01*
X68414285Y-139200000D01*
X68442857Y-139085714D01*
X68471428Y-139028571D01*
X68500000Y-139000000D01*
X68557142Y-138971428D01*
%TO.C,C4*%
X70814285Y-148700000D02*
X70842857Y-148728571D01*
X70871428Y-148814285D01*
X70871428Y-148871428D01*
X70842857Y-148957142D01*
X70785714Y-149014285D01*
X70728571Y-149042857D01*
X70614285Y-149071428D01*
X70528571Y-149071428D01*
X70414285Y-149042857D01*
X70357142Y-149014285D01*
X70300000Y-148957142D01*
X70271428Y-148871428D01*
X70271428Y-148814285D01*
X70300000Y-148728571D01*
X70328571Y-148700000D01*
X70471428Y-148185714D02*
X70871428Y-148185714D01*
X70242857Y-148328571D02*
X70671428Y-148471428D01*
X70671428Y-148100000D01*
%TO.C,C10*%
X76714285Y-136214285D02*
X76685714Y-136242857D01*
X76600000Y-136271428D01*
X76542857Y-136271428D01*
X76457142Y-136242857D01*
X76400000Y-136185714D01*
X76371428Y-136128571D01*
X76342857Y-136014285D01*
X76342857Y-135928571D01*
X76371428Y-135814285D01*
X76400000Y-135757142D01*
X76457142Y-135700000D01*
X76542857Y-135671428D01*
X76600000Y-135671428D01*
X76685714Y-135700000D01*
X76714285Y-135728571D01*
X77285714Y-136271428D02*
X76942857Y-136271428D01*
X77114285Y-136271428D02*
X77114285Y-135671428D01*
X77057142Y-135757142D01*
X77000000Y-135814285D01*
X76942857Y-135842857D01*
X77657142Y-135671428D02*
X77714285Y-135671428D01*
X77771428Y-135700000D01*
X77800000Y-135728571D01*
X77828571Y-135785714D01*
X77857142Y-135900000D01*
X77857142Y-136042857D01*
X77828571Y-136157142D01*
X77800000Y-136214285D01*
X77771428Y-136242857D01*
X77714285Y-136271428D01*
X77657142Y-136271428D01*
X77600000Y-136242857D01*
X77571428Y-136214285D01*
X77542857Y-136157142D01*
X77514285Y-136042857D01*
X77514285Y-135900000D01*
X77542857Y-135785714D01*
X77571428Y-135728571D01*
X77600000Y-135700000D01*
X77657142Y-135671428D01*
%TO.C,U2*%
X129942857Y-140271428D02*
X129942857Y-140757142D01*
X129971428Y-140814285D01*
X130000000Y-140842857D01*
X130057142Y-140871428D01*
X130171428Y-140871428D01*
X130228571Y-140842857D01*
X130257142Y-140814285D01*
X130285714Y-140757142D01*
X130285714Y-140271428D01*
X130542857Y-140328571D02*
X130571428Y-140300000D01*
X130628571Y-140271428D01*
X130771428Y-140271428D01*
X130828571Y-140300000D01*
X130857142Y-140328571D01*
X130885714Y-140385714D01*
X130885714Y-140442857D01*
X130857142Y-140528571D01*
X130514285Y-140871428D01*
X130885714Y-140871428D01*
%TO.C,C11*%
X129514285Y-145814285D02*
X129485714Y-145842857D01*
X129400000Y-145871428D01*
X129342857Y-145871428D01*
X129257142Y-145842857D01*
X129200000Y-145785714D01*
X129171428Y-145728571D01*
X129142857Y-145614285D01*
X129142857Y-145528571D01*
X129171428Y-145414285D01*
X129200000Y-145357142D01*
X129257142Y-145300000D01*
X129342857Y-145271428D01*
X129400000Y-145271428D01*
X129485714Y-145300000D01*
X129514285Y-145328571D01*
X130085714Y-145871428D02*
X129742857Y-145871428D01*
X129914285Y-145871428D02*
X129914285Y-145271428D01*
X129857142Y-145357142D01*
X129800000Y-145414285D01*
X129742857Y-145442857D01*
X130657142Y-145871428D02*
X130314285Y-145871428D01*
X130485714Y-145871428D02*
X130485714Y-145271428D01*
X130428571Y-145357142D01*
X130371428Y-145414285D01*
X130314285Y-145442857D01*
%TO.C,D1*%
X56371428Y-144342857D02*
X55771428Y-144342857D01*
X55771428Y-144200000D01*
X55800000Y-144114285D01*
X55857142Y-144057142D01*
X55914285Y-144028571D01*
X56028571Y-144000000D01*
X56114285Y-144000000D01*
X56228571Y-144028571D01*
X56285714Y-144057142D01*
X56342857Y-144114285D01*
X56371428Y-144200000D01*
X56371428Y-144342857D01*
X56371428Y-143428571D02*
X56371428Y-143771428D01*
X56371428Y-143600000D02*
X55771428Y-143600000D01*
X55857142Y-143657142D01*
X55914285Y-143714285D01*
X55942857Y-143771428D01*
%TO.C,U1*%
X65942857Y-151171428D02*
X65942857Y-151657142D01*
X65971428Y-151714285D01*
X66000000Y-151742857D01*
X66057142Y-151771428D01*
X66171428Y-151771428D01*
X66228571Y-151742857D01*
X66257142Y-151714285D01*
X66285714Y-151657142D01*
X66285714Y-151171428D01*
X66885714Y-151771428D02*
X66542857Y-151771428D01*
X66714285Y-151771428D02*
X66714285Y-151171428D01*
X66657142Y-151257142D01*
X66600000Y-151314285D01*
X66542857Y-151342857D01*
%TO.C,C6*%
X61200000Y-145114285D02*
X61171428Y-145142857D01*
X61085714Y-145171428D01*
X61028571Y-145171428D01*
X60942857Y-145142857D01*
X60885714Y-145085714D01*
X60857142Y-145028571D01*
X60828571Y-144914285D01*
X60828571Y-144828571D01*
X60857142Y-144714285D01*
X60885714Y-144657142D01*
X60942857Y-144600000D01*
X61028571Y-144571428D01*
X61085714Y-144571428D01*
X61171428Y-144600000D01*
X61200000Y-144628571D01*
X61714285Y-144571428D02*
X61600000Y-144571428D01*
X61542857Y-144600000D01*
X61514285Y-144628571D01*
X61457142Y-144714285D01*
X61428571Y-144828571D01*
X61428571Y-145057142D01*
X61457142Y-145114285D01*
X61485714Y-145142857D01*
X61542857Y-145171428D01*
X61657142Y-145171428D01*
X61714285Y-145142857D01*
X61742857Y-145114285D01*
X61771428Y-145057142D01*
X61771428Y-144914285D01*
X61742857Y-144857142D01*
X61714285Y-144828571D01*
X61657142Y-144800000D01*
X61542857Y-144800000D01*
X61485714Y-144828571D01*
X61457142Y-144857142D01*
X61428571Y-144914285D01*
%TO.C,R1*%
X59471428Y-139600000D02*
X59185714Y-139800000D01*
X59471428Y-139942857D02*
X58871428Y-139942857D01*
X58871428Y-139714285D01*
X58900000Y-139657142D01*
X58928571Y-139628571D01*
X58985714Y-139600000D01*
X59071428Y-139600000D01*
X59128571Y-139628571D01*
X59157142Y-139657142D01*
X59185714Y-139714285D01*
X59185714Y-139942857D01*
X59471428Y-139028571D02*
X59471428Y-139371428D01*
X59471428Y-139200000D02*
X58871428Y-139200000D01*
X58957142Y-139257142D01*
X59014285Y-139314285D01*
X59042857Y-139371428D01*
%TO.C,C14*%
X72514285Y-139514285D02*
X72485714Y-139542857D01*
X72400000Y-139571428D01*
X72342857Y-139571428D01*
X72257142Y-139542857D01*
X72200000Y-139485714D01*
X72171428Y-139428571D01*
X72142857Y-139314285D01*
X72142857Y-139228571D01*
X72171428Y-139114285D01*
X72200000Y-139057142D01*
X72257142Y-139000000D01*
X72342857Y-138971428D01*
X72400000Y-138971428D01*
X72485714Y-139000000D01*
X72514285Y-139028571D01*
X73085714Y-139571428D02*
X72742857Y-139571428D01*
X72914285Y-139571428D02*
X72914285Y-138971428D01*
X72857142Y-139057142D01*
X72800000Y-139114285D01*
X72742857Y-139142857D01*
X73600000Y-139171428D02*
X73600000Y-139571428D01*
X73457142Y-138942857D02*
X73314285Y-139371428D01*
X73685714Y-139371428D01*
%TO.C,J2*%
X59500000Y-135271428D02*
X59500000Y-135700000D01*
X59471428Y-135785714D01*
X59414285Y-135842857D01*
X59328571Y-135871428D01*
X59271428Y-135871428D01*
X59757142Y-135328571D02*
X59785714Y-135300000D01*
X59842857Y-135271428D01*
X59985714Y-135271428D01*
X60042857Y-135300000D01*
X60071428Y-135328571D01*
X60100000Y-135385714D01*
X60100000Y-135442857D01*
X60071428Y-135528571D01*
X59728571Y-135871428D01*
X60100000Y-135871428D01*
%TO.C,R11*%
X70114285Y-139571428D02*
X69914285Y-139285714D01*
X69771428Y-139571428D02*
X69771428Y-138971428D01*
X70000000Y-138971428D01*
X70057142Y-139000000D01*
X70085714Y-139028571D01*
X70114285Y-139085714D01*
X70114285Y-139171428D01*
X70085714Y-139228571D01*
X70057142Y-139257142D01*
X70000000Y-139285714D01*
X69771428Y-139285714D01*
X70685714Y-139571428D02*
X70342857Y-139571428D01*
X70514285Y-139571428D02*
X70514285Y-138971428D01*
X70457142Y-139057142D01*
X70400000Y-139114285D01*
X70342857Y-139142857D01*
X71257142Y-139571428D02*
X70914285Y-139571428D01*
X71085714Y-139571428D02*
X71085714Y-138971428D01*
X71028571Y-139057142D01*
X70971428Y-139114285D01*
X70914285Y-139142857D01*
%TO.C,C13*%
X78214285Y-150814285D02*
X78185714Y-150842857D01*
X78100000Y-150871428D01*
X78042857Y-150871428D01*
X77957142Y-150842857D01*
X77900000Y-150785714D01*
X77871428Y-150728571D01*
X77842857Y-150614285D01*
X77842857Y-150528571D01*
X77871428Y-150414285D01*
X77900000Y-150357142D01*
X77957142Y-150300000D01*
X78042857Y-150271428D01*
X78100000Y-150271428D01*
X78185714Y-150300000D01*
X78214285Y-150328571D01*
X78785714Y-150871428D02*
X78442857Y-150871428D01*
X78614285Y-150871428D02*
X78614285Y-150271428D01*
X78557142Y-150357142D01*
X78500000Y-150414285D01*
X78442857Y-150442857D01*
X78985714Y-150271428D02*
X79357142Y-150271428D01*
X79157142Y-150500000D01*
X79242857Y-150500000D01*
X79300000Y-150528571D01*
X79328571Y-150557142D01*
X79357142Y-150614285D01*
X79357142Y-150757142D01*
X79328571Y-150814285D01*
X79300000Y-150842857D01*
X79242857Y-150871428D01*
X79071428Y-150871428D01*
X79014285Y-150842857D01*
X78985714Y-150814285D01*
%TO.C,J3*%
X85900000Y-135271428D02*
X85900000Y-135700000D01*
X85871428Y-135785714D01*
X85814285Y-135842857D01*
X85728571Y-135871428D01*
X85671428Y-135871428D01*
X86128571Y-135271428D02*
X86500000Y-135271428D01*
X86300000Y-135500000D01*
X86385714Y-135500000D01*
X86442857Y-135528571D01*
X86471428Y-135557142D01*
X86500000Y-135614285D01*
X86500000Y-135757142D01*
X86471428Y-135814285D01*
X86442857Y-135842857D01*
X86385714Y-135871428D01*
X86214285Y-135871428D01*
X86157142Y-135842857D01*
X86128571Y-135814285D01*
%TO.C,R4*%
X61500000Y-143271428D02*
X61300000Y-142985714D01*
X61157142Y-143271428D02*
X61157142Y-142671428D01*
X61385714Y-142671428D01*
X61442857Y-142700000D01*
X61471428Y-142728571D01*
X61500000Y-142785714D01*
X61500000Y-142871428D01*
X61471428Y-142928571D01*
X61442857Y-142957142D01*
X61385714Y-142985714D01*
X61157142Y-142985714D01*
X62014285Y-142871428D02*
X62014285Y-143271428D01*
X61871428Y-142642857D02*
X61728571Y-143071428D01*
X62100000Y-143071428D01*
%TO.C,C9*%
X134714285Y-145900000D02*
X134742857Y-145928571D01*
X134771428Y-146014285D01*
X134771428Y-146071428D01*
X134742857Y-146157142D01*
X134685714Y-146214285D01*
X134628571Y-146242857D01*
X134514285Y-146271428D01*
X134428571Y-146271428D01*
X134314285Y-146242857D01*
X134257142Y-146214285D01*
X134200000Y-146157142D01*
X134171428Y-146071428D01*
X134171428Y-146014285D01*
X134200000Y-145928571D01*
X134228571Y-145900000D01*
X134771428Y-145614285D02*
X134771428Y-145500000D01*
X134742857Y-145442857D01*
X134714285Y-145414285D01*
X134628571Y-145357142D01*
X134514285Y-145328571D01*
X134285714Y-145328571D01*
X134228571Y-145357142D01*
X134200000Y-145385714D01*
X134171428Y-145442857D01*
X134171428Y-145557142D01*
X134200000Y-145614285D01*
X134228571Y-145642857D01*
X134285714Y-145671428D01*
X134428571Y-145671428D01*
X134485714Y-145642857D01*
X134514285Y-145614285D01*
X134542857Y-145557142D01*
X134542857Y-145442857D01*
X134514285Y-145385714D01*
X134485714Y-145357142D01*
X134428571Y-145328571D01*
%TO.C,C2*%
X58414285Y-146500000D02*
X58442857Y-146528571D01*
X58471428Y-146614285D01*
X58471428Y-146671428D01*
X58442857Y-146757142D01*
X58385714Y-146814285D01*
X58328571Y-146842857D01*
X58214285Y-146871428D01*
X58128571Y-146871428D01*
X58014285Y-146842857D01*
X57957142Y-146814285D01*
X57900000Y-146757142D01*
X57871428Y-146671428D01*
X57871428Y-146614285D01*
X57900000Y-146528571D01*
X57928571Y-146500000D01*
X57928571Y-146271428D02*
X57900000Y-146242857D01*
X57871428Y-146185714D01*
X57871428Y-146042857D01*
X57900000Y-145985714D01*
X57928571Y-145957142D01*
X57985714Y-145928571D01*
X58042857Y-145928571D01*
X58128571Y-145957142D01*
X58471428Y-146300000D01*
X58471428Y-145928571D01*
%TO.C,L1*%
X59371428Y-146500000D02*
X59371428Y-146785714D01*
X58771428Y-146785714D01*
X59371428Y-145985714D02*
X59371428Y-146328571D01*
X59371428Y-146157142D02*
X58771428Y-146157142D01*
X58857142Y-146214285D01*
X58914285Y-146271428D01*
X58942857Y-146328571D01*
%TO.C,C1*%
X59000000Y-148414285D02*
X58971428Y-148442857D01*
X58885714Y-148471428D01*
X58828571Y-148471428D01*
X58742857Y-148442857D01*
X58685714Y-148385714D01*
X58657142Y-148328571D01*
X58628571Y-148214285D01*
X58628571Y-148128571D01*
X58657142Y-148014285D01*
X58685714Y-147957142D01*
X58742857Y-147900000D01*
X58828571Y-147871428D01*
X58885714Y-147871428D01*
X58971428Y-147900000D01*
X59000000Y-147928571D01*
X59571428Y-148471428D02*
X59228571Y-148471428D01*
X59400000Y-148471428D02*
X59400000Y-147871428D01*
X59342857Y-147957142D01*
X59285714Y-148014285D01*
X59228571Y-148042857D01*
D11*
%TO.C,C7*%
X85960000Y-140734165D02*
X85960000Y-140965835D01*
X85240000Y-140734165D02*
X85240000Y-140965835D01*
D10*
%TO.C,R8*%
X84620000Y-147932379D02*
X84620000Y-148267621D01*
X85380000Y-147932379D02*
X85380000Y-148267621D01*
%TO.C,D2*%
X57100000Y-143700000D02*
G75*
G03*
X57100000Y-143700000I-100000J0D01*
G01*
%TO.C,R3*%
X59632379Y-144480000D02*
X59967621Y-144480000D01*
X59632379Y-143720000D02*
X59967621Y-143720000D01*
%TO.C,U3*%
X83310000Y-146460000D02*
X83310000Y-146910000D01*
X83310000Y-146910000D02*
X82860000Y-146910000D01*
X76090000Y-139690000D02*
X76540000Y-139690000D01*
X76090000Y-146910000D02*
X76540000Y-146910000D01*
X76090000Y-140140000D02*
X76090000Y-139690000D01*
X83310000Y-140140000D02*
X83310000Y-139690000D01*
X83310000Y-139690000D02*
X82860000Y-139690000D01*
X76090000Y-146460000D02*
X76090000Y-146910000D01*
X76540000Y-146910000D02*
X76540000Y-148200000D01*
%TO.C,C3*%
X58460000Y-142548335D02*
X58460000Y-142316665D01*
X57740000Y-142548335D02*
X57740000Y-142316665D01*
%TO.C,R2*%
X57380000Y-146232379D02*
X57380000Y-146567621D01*
X56620000Y-146232379D02*
X56620000Y-146567621D01*
%TO.C,C5*%
X62660000Y-146284165D02*
X62660000Y-146515835D01*
X61940000Y-146284165D02*
X61940000Y-146515835D01*
%TO.C,D3*%
X58000000Y-148750000D02*
X61150000Y-148750000D01*
X58000000Y-150450000D02*
X61150000Y-150450000D01*
X58000000Y-148750000D02*
X58000000Y-150450000D01*
%TO.C,R7*%
X87180000Y-147932379D02*
X87180000Y-148267621D01*
X86420000Y-147932379D02*
X86420000Y-148267621D01*
%TO.C,J1*%
X47540000Y-138520000D02*
X47540000Y-147680000D01*
X52465000Y-147680000D02*
X51610000Y-147680000D01*
X52465000Y-138520000D02*
X51610000Y-138520000D01*
X48490000Y-147680000D02*
X47540000Y-147680000D01*
X48490000Y-138520000D02*
X47540000Y-138520000D01*
%TO.C,C8*%
X80815835Y-149190000D02*
X80584165Y-149190000D01*
X80815835Y-149910000D02*
X80584165Y-149910000D01*
%TO.C,C12*%
X73240000Y-146515835D02*
X73240000Y-146284165D01*
X73960000Y-146515835D02*
X73960000Y-146284165D01*
%TO.C,L2*%
X54667621Y-148920000D02*
X54332379Y-148920000D01*
X54667621Y-149680000D02*
X54332379Y-149680000D01*
%TO.C,R9*%
X65332379Y-137920000D02*
X65667621Y-137920000D01*
X65332379Y-138680000D02*
X65667621Y-138680000D01*
%TO.C,R10*%
X67832379Y-137920000D02*
X68167621Y-137920000D01*
X67832379Y-138680000D02*
X68167621Y-138680000D01*
%TO.C,C4*%
X70240000Y-146683335D02*
X70240000Y-146451665D01*
X70960000Y-146683335D02*
X70960000Y-146451665D01*
%TO.C,C10*%
X77034165Y-137760000D02*
X77265835Y-137760000D01*
X77034165Y-137040000D02*
X77265835Y-137040000D01*
%TO.C,U2*%
X131400000Y-144720000D02*
X129400000Y-144720000D01*
X130400000Y-141480000D02*
X127400000Y-141480000D01*
%TO.C,C11*%
X132115835Y-145960000D02*
X131884165Y-145960000D01*
X132115835Y-145240000D02*
X131884165Y-145240000D01*
%TO.C,D1*%
X57100000Y-143532500D02*
G75*
G03*
X57100000Y-143532500I-100000J0D01*
G01*
%TO.C,U1*%
X68475000Y-141625000D02*
X64325000Y-141625000D01*
X64325000Y-141625000D02*
X64325000Y-142735000D01*
X68475000Y-149465000D02*
X69600000Y-149465000D01*
X68475000Y-149465000D02*
X68475000Y-150575000D01*
X68475000Y-150575000D02*
X64325000Y-150575000D01*
X64325000Y-150575000D02*
X64325000Y-149465000D01*
X68475000Y-141625000D02*
X68475000Y-142735000D01*
%TO.C,C6*%
X60940000Y-146284165D02*
X60940000Y-146515835D01*
X61660000Y-146284165D02*
X61660000Y-146515835D01*
%TO.C,R1*%
X59580000Y-141467621D02*
X59580000Y-141132379D01*
X58820000Y-141467621D02*
X58820000Y-141132379D01*
%TO.C,C14*%
X72784165Y-138660000D02*
X73015835Y-138660000D01*
X72784165Y-137940000D02*
X73015835Y-137940000D01*
%TO.C,J2*%
X63595000Y-134270000D02*
X73815000Y-134270000D01*
X60995000Y-136930000D02*
X60995000Y-135600000D01*
X62325000Y-136930000D02*
X60995000Y-136930000D01*
X73815000Y-136930000D02*
X73815000Y-134270000D01*
X63595000Y-136930000D02*
X73815000Y-136930000D01*
X63595000Y-136930000D02*
X63595000Y-134270000D01*
%TO.C,R11*%
X70332379Y-137920000D02*
X70667621Y-137920000D01*
X70332379Y-138680000D02*
X70667621Y-138680000D01*
%TO.C,C13*%
X80815835Y-150240000D02*
X80584165Y-150240000D01*
X80815835Y-150960000D02*
X80584165Y-150960000D01*
%TO.C,J3*%
X82295000Y-134320000D02*
X84895000Y-134320000D01*
X82295000Y-136980000D02*
X82295000Y-134320000D01*
X84895000Y-136980000D02*
X84895000Y-134320000D01*
X82295000Y-136980000D02*
X84895000Y-136980000D01*
X81025000Y-136980000D02*
X79695000Y-136980000D01*
X79695000Y-136980000D02*
X79695000Y-135650000D01*
%TO.C,R4*%
X59632379Y-143412500D02*
X59967621Y-143412500D01*
X59632379Y-142652500D02*
X59967621Y-142652500D01*
%TO.C,C9*%
X134140000Y-144115835D02*
X134140000Y-143884165D01*
X134860000Y-144115835D02*
X134860000Y-143884165D01*
%TO.C,C2*%
X57740000Y-144616665D02*
X57740000Y-144848335D01*
X58460000Y-144616665D02*
X58460000Y-144848335D01*
%TO.C,L1*%
X60580000Y-146567621D02*
X60580000Y-146232379D01*
X59820000Y-146567621D02*
X59820000Y-146232379D01*
%TO.C,C1*%
X60684165Y-148460000D02*
X60915835Y-148460000D01*
X60684165Y-147740000D02*
X60915835Y-147740000D01*
%TD*%
M02*
