M48
; DRILL file {KiCad (6.0.1)} date Wed Nov 23 23:22:58 2022
; FORMAT={-:-/ absolute / metric / decimal}
; #@! TF.CreationDate,2022-11-23T23:22:58+01:00
; #@! TF.GenerationSoftware,Kicad,Pcbnew,(6.0.1)
; #@! TF.FileFunction,Plated,1,4,PTH
FMAT,2
METRIC
; #@! TA.AperFunction,Plated,PTH,ViaDrill
T1C0.300
; #@! TA.AperFunction,Plated,PTH,ComponentDrill
T2C0.600
; #@! TA.AperFunction,Plated,PTH,ComponentDrill
T3C1.000
%
G90
G05
T1
X49.0Y-137.6
X49.0Y-140.0
X49.0Y-143.1
X49.0Y-146.0
X49.0Y-148.8
X51.0Y-134.0
X51.0Y-136.0
X51.0Y-149.0
X51.0Y-151.0
X51.05Y-152.3
X52.3Y-145.8
X52.4Y-140.95
X52.4Y-141.9
X52.4Y-143.15
X52.4Y-145.05
X52.824Y-144.229
X53.0Y-149.0
X53.05Y-152.3
X53.15Y-140.95
X53.174Y-145.053
X55.0Y-134.0
X55.0Y-136.0
X55.0Y-151.0
X55.05Y-152.3
X55.75Y-139.5
X55.75Y-147.5
X55.95Y-140.65
X56.0Y-145.65
X56.05Y-144.6
X56.1Y-142.45
X56.5Y-149.0
X56.5Y-150.0
X57.0Y-134.0
X57.0Y-136.0
X57.0Y-138.0
X57.0Y-139.5
X57.05Y-152.3
X57.5Y-149.0
X57.5Y-150.0
X57.85Y-147.05
X58.1Y-140.85
X58.999Y-150.991
X59.0Y-134.0
X59.0Y-136.0
X59.0Y-138.0
X59.05Y-152.3
X59.1Y-145.3
X61.0Y-134.0
X61.0Y-138.0
X61.0Y-140.0
X61.0Y-142.0
X61.05Y-152.3
X62.35Y-144.7
X63.0Y-134.0
X63.0Y-138.0
X63.0Y-140.0
X63.0Y-142.0
X63.0Y-151.0
X63.05Y-152.3
X64.737Y-148.891
X64.8Y-144.5
X64.8Y-145.1
X65.0Y-134.0
X65.05Y-152.3
X66.0Y-147.25
X66.05Y-141.85
X66.5Y-148.4
X66.8Y-144.85
X67.0Y-134.0
X67.05Y-152.3
X67.325Y-147.6
X67.6Y-143.85
X67.825Y-146.0
X68.85Y-140.85
X68.95Y-150.4
X69.0Y-134.0
X69.05Y-152.3
X70.304Y-143.475
X70.8Y-150.4
X70.85Y-140.85
X71.0Y-134.0
X71.05Y-142.3
X71.05Y-152.3
X71.5Y-145.9
X71.5Y-146.8
X71.5Y-147.6
X72.2Y-143.925
X72.25Y-141.6
X72.3Y-137.5
X72.5Y-146.8
X72.5Y-147.6
X72.65Y-145.8
X72.75Y-150.4
X73.0Y-134.0
X73.05Y-152.3
X74.265Y-143.674
X74.6Y-147.6
X74.65Y-150.4
X75.0Y-134.0
X75.0Y-136.0
X75.05Y-152.3
X75.3Y-149.582
X76.0Y-148.3
X76.4Y-147.5
X76.7Y-136.55
X76.9Y-145.0
X76.908Y-143.43
X76.95Y-150.4
X77.0Y-134.0
X77.05Y-152.3
X77.6Y-136.55
X78.4Y-144.2
X79.0Y-134.0
X79.05Y-152.3
X79.5Y-135.0
X79.5Y-136.0
X79.5Y-141.1
X79.9Y-146.2
X80.2Y-151.5
X80.5Y-137.0
X81.0Y-134.0
X81.0Y-143.0
X81.05Y-152.3
X81.1Y-151.5
X81.5Y-137.0
X81.5Y-141.1
X81.724Y-148.664
X82.0Y-145.0
X83.0Y-134.0
X83.0Y-137.0
X83.05Y-152.3
X84.0Y-137.0
X84.1Y-148.7
X84.55Y-152.3
X85.0Y-134.0
X85.0Y-135.0
X85.0Y-136.0
X85.0Y-138.0
X86.3Y-144.2
X86.45Y-140.3
X86.45Y-141.15
X86.7Y-142.2
X86.8Y-149.6
X87.0Y-134.0
X87.0Y-136.0
X87.0Y-138.0
X87.05Y-152.3
X87.772Y-144.706
X88.0Y-141.5
X88.5Y-147.5
X88.5Y-150.5
X89.0Y-136.0
X89.0Y-138.0
X89.0Y-139.75
X89.0Y-141.5
X89.0Y-143.0
X89.0Y-144.75
X90.5Y-148.5
X90.5Y-150.5
X91.995Y-141.492
X92.0Y-139.75
X92.0Y-143.0
X92.0Y-144.75
X92.0Y-146.45
X95.0Y-139.75
X95.0Y-141.5
X95.0Y-143.0
X95.0Y-144.75
X95.0Y-146.45
X97.983Y-143.0
X98.0Y-139.75
X98.0Y-141.5
X98.0Y-144.75
X98.0Y-146.45
X101.0Y-139.75
X101.0Y-141.5
X101.0Y-143.0
X101.0Y-144.75
X101.0Y-146.45
X104.0Y-139.75
X104.0Y-141.5
X104.0Y-143.0
X104.0Y-144.75
X104.0Y-146.45
X107.0Y-139.75
X107.0Y-141.5
X107.0Y-143.0
X107.0Y-144.75
X107.0Y-146.45
X110.0Y-139.75
X110.0Y-141.5
X110.0Y-143.0
X110.0Y-144.75
X110.0Y-146.45
X113.0Y-139.75
X113.0Y-141.5
X113.0Y-143.0
X113.0Y-144.75
X113.0Y-146.45
X116.0Y-139.75
X116.0Y-141.5
X116.0Y-143.0
X116.0Y-144.75
X116.0Y-146.45
X119.0Y-139.75
X119.0Y-141.5
X119.0Y-143.0
X119.0Y-144.75
X119.0Y-146.45
X121.991Y-141.49
X122.0Y-139.75
X122.0Y-143.0
X122.0Y-144.75
X122.0Y-146.45
X125.0Y-139.75
X125.0Y-141.5
X125.0Y-143.0
X125.0Y-144.75
X125.0Y-146.45
X128.0Y-139.75
X128.0Y-146.45
X131.0Y-139.75
X131.0Y-146.45
X132.6Y-146.45
X134.0Y-139.75
X134.0Y-146.45
X134.4Y-142.1
X135.45Y-143.45
X135.5Y-144.3
X136.25Y-139.75
X136.25Y-141.5
X136.25Y-143.0
X136.25Y-144.75
X136.25Y-146.45
T3
X62.325Y-135.6
X64.865Y-135.6
X67.405Y-135.6
X69.945Y-135.6
X72.485Y-135.6
X81.025Y-135.65
X83.565Y-135.65
T2
G00X50.75Y-138.78
M15
G01X49.45Y-138.78
M16
G05
G00X50.75Y-147.42
M15
G01X49.45Y-147.42
M16
G05
G00X54.425Y-138.78
M15
G01X53.425Y-138.78
M16
G05
G00X54.425Y-147.42
M15
G01X53.425Y-147.42
M16
G05
T0
M30
