%FSLAX45Y45*%
G04 Gerber Fmt 4.5, Leading zero omitted, Abs format (unit mm)*
G04 Created by KiCad (PCBNEW (6.0.1)) date 2023-03-18 21:45:08*
%MOMM*%
%LPD*%
G01*
G04 APERTURE LIST*
%TA.AperFunction,Profile*%
%ADD10C,0.100000*%
%TD*%
%ADD11C,0.200000*%
%ADD12C,0.030000*%
%ADD13C,0.050000*%
%ADD14C,0.060000*%
%ADD15C,0.100000*%
G04 APERTURE END LIST*
D10*
X9680000Y-13840000D02*
X9680000Y-14080000D01*
X9380000Y-15095000D02*
X9380000Y-14610000D01*
X9680000Y-14610000D02*
G75*
G03*
X9380000Y-14610000I-150000J0D01*
G01*
X9380000Y-14080000D02*
G75*
G03*
X9680000Y-14080000I150000J0D01*
G01*
X9680000Y-14610000D02*
X9680000Y-14820000D01*
X8920000Y-15125000D02*
G75*
G03*
X8890000Y-15155000I0J-30000D01*
G01*
X5110000Y-15270000D02*
G75*
G03*
X5140000Y-15300000I30000J0D01*
G01*
X8860000Y-13325000D02*
X5140000Y-13325000D01*
X8860000Y-15300000D02*
G75*
G03*
X8890000Y-15270000I0J30000D01*
G01*
X5140000Y-13325000D02*
G75*
G03*
X5110000Y-13355000I0J-30000D01*
G01*
X10760000Y-13840000D02*
G75*
G03*
X10720000Y-13800000I-40000J0D01*
G01*
X10720000Y-14860000D02*
G75*
G03*
X10760000Y-14820000I0J40000D01*
G01*
X5110000Y-14975000D02*
G75*
G03*
X5080000Y-14945000I-30000J0D01*
G01*
X4840000Y-13675000D02*
G75*
G03*
X4810000Y-13705000I0J-30000D01*
G01*
X9350000Y-15125000D02*
G75*
G03*
X9380000Y-15095000I0J30000D01*
G01*
X5110000Y-14975000D02*
X5110000Y-15270000D01*
X5420000Y-13510000D02*
G75*
G03*
X5420000Y-13510000I-100000J0D01*
G01*
X9350000Y-13495000D02*
X8920000Y-13495000D01*
X9720000Y-13800000D02*
G75*
G03*
X9680000Y-13840000I0J-40000D01*
G01*
X9380000Y-13525000D02*
G75*
G03*
X9350000Y-13495000I-30000J0D01*
G01*
X4840000Y-14945000D02*
X5080000Y-14945000D01*
X8890000Y-13465000D02*
X8890000Y-13355000D01*
X9680000Y-14820000D02*
G75*
G03*
X9720000Y-14860000I40000J0D01*
G01*
X8890000Y-13465000D02*
G75*
G03*
X8920000Y-13495000I30000J0D01*
G01*
X5140000Y-15300000D02*
X8860000Y-15300000D01*
X5110000Y-13645000D02*
X5110000Y-13355000D01*
X4810000Y-14915000D02*
G75*
G03*
X4840000Y-14945000I30000J0D01*
G01*
X8890000Y-15270000D02*
X8890000Y-15155000D01*
X8920000Y-15125000D02*
X9350000Y-15125000D01*
X8890000Y-13355000D02*
G75*
G03*
X8860000Y-13325000I-30000J0D01*
G01*
X8720000Y-15110000D02*
G75*
G03*
X8720000Y-15110000I-100000J0D01*
G01*
X4810000Y-14915000D02*
X4810000Y-13705000D01*
X4840000Y-13675000D02*
X5080000Y-13675000D01*
X10760000Y-14820000D02*
X10760000Y-13840000D01*
X9720000Y-14860000D02*
X10720000Y-14860000D01*
X9380000Y-14080000D02*
X9380000Y-13525000D01*
X10720000Y-13800000D02*
X9720000Y-13800000D01*
X5080000Y-13675000D02*
G75*
G03*
X5110000Y-13645000I0J30000D01*
G01*
D11*
D12*
X4985000Y-13745000D02*
X5015000Y-13775000D01*
X5015000Y-13745000D02*
X4985000Y-13775000D01*
X4985000Y-13985000D02*
X5015000Y-14015000D01*
X5015000Y-13985000D02*
X4985000Y-14015000D01*
X4985000Y-14295000D02*
X5015000Y-14325000D01*
X5015000Y-14295000D02*
X4985000Y-14325000D01*
X4985000Y-14585000D02*
X5015000Y-14615000D01*
X5015000Y-14585000D02*
X4985000Y-14615000D01*
X4985000Y-14865000D02*
X5015000Y-14895000D01*
X5015000Y-14865000D02*
X4985000Y-14895000D01*
X5165000Y-13385000D02*
X5195000Y-13415000D01*
X5195000Y-13385000D02*
X5165000Y-13415000D01*
X5165000Y-13655000D02*
X5195000Y-13685000D01*
X5195000Y-13655000D02*
X5165000Y-13685000D01*
X5185000Y-14565000D02*
X5215000Y-14595000D01*
X5215000Y-14565000D02*
X5185000Y-14595000D01*
X5185000Y-14885000D02*
X5215000Y-14915000D01*
X5215000Y-14885000D02*
X5185000Y-14915000D01*
X5185000Y-15085000D02*
X5215000Y-15115000D01*
X5215000Y-15085000D02*
X5185000Y-15115000D01*
X5190000Y-15215000D02*
X5220000Y-15245000D01*
X5220000Y-15215000D02*
X5190000Y-15245000D01*
X5195000Y-14080000D02*
X5225000Y-14110000D01*
X5225000Y-14080000D02*
X5195000Y-14110000D01*
X5195000Y-14370000D02*
X5225000Y-14400000D01*
X5225000Y-14370000D02*
X5195000Y-14400000D01*
X5195000Y-14490000D02*
X5225000Y-14520000D01*
X5225000Y-14490000D02*
X5195000Y-14520000D01*
X5200000Y-14205000D02*
X5230000Y-14235000D01*
X5230000Y-14205000D02*
X5200000Y-14235000D01*
X5270000Y-14080000D02*
X5300000Y-14110000D01*
X5300000Y-14080000D02*
X5270000Y-14110000D01*
X5272408Y-14490262D02*
X5302408Y-14520262D01*
X5302408Y-14490262D02*
X5272408Y-14520262D01*
X5390000Y-15215000D02*
X5420000Y-15245000D01*
X5420000Y-15215000D02*
X5390000Y-15245000D01*
X5500000Y-14545000D02*
X5530000Y-14575000D01*
X5530000Y-14545000D02*
X5500000Y-14575000D01*
X5520000Y-14050000D02*
X5550000Y-14080000D01*
X5550000Y-14050000D02*
X5520000Y-14080000D01*
X5585000Y-13385000D02*
X5615000Y-13415000D01*
X5615000Y-13385000D02*
X5585000Y-13415000D01*
X5585000Y-13585000D02*
X5615000Y-13615000D01*
X5615000Y-13585000D02*
X5585000Y-13615000D01*
X5585000Y-15085000D02*
X5615000Y-15115000D01*
X5615000Y-15085000D02*
X5585000Y-15115000D01*
X5590000Y-15215000D02*
X5620000Y-15245000D01*
X5620000Y-15215000D02*
X5590000Y-15245000D01*
X5660000Y-13935000D02*
X5690000Y-13965000D01*
X5690000Y-13935000D02*
X5660000Y-13965000D01*
X5660000Y-14735000D02*
X5690000Y-14765000D01*
X5690000Y-14735000D02*
X5660000Y-14765000D01*
X5690000Y-14445000D02*
X5720000Y-14475000D01*
X5720000Y-14445000D02*
X5690000Y-14475000D01*
X5695000Y-14230000D02*
X5725000Y-14260000D01*
X5725000Y-14230000D02*
X5695000Y-14260000D01*
X5735000Y-14885000D02*
X5765000Y-14915000D01*
X5765000Y-14885000D02*
X5735000Y-14915000D01*
X5735000Y-14985000D02*
X5765000Y-15015000D01*
X5765000Y-14985000D02*
X5735000Y-15015000D01*
X5785000Y-13385000D02*
X5815000Y-13415000D01*
X5815000Y-13385000D02*
X5785000Y-13415000D01*
X5785000Y-13585000D02*
X5815000Y-13615000D01*
X5815000Y-13585000D02*
X5785000Y-13615000D01*
X5785000Y-13785000D02*
X5815000Y-13815000D01*
X5815000Y-13785000D02*
X5785000Y-13815000D01*
X5785000Y-13935000D02*
X5815000Y-13965000D01*
X5815000Y-13935000D02*
X5785000Y-13965000D01*
X5790000Y-15215000D02*
X5820000Y-15245000D01*
X5820000Y-15215000D02*
X5790000Y-15245000D01*
X5835000Y-14885000D02*
X5865000Y-14915000D01*
X5865000Y-14885000D02*
X5835000Y-14915000D01*
X5835000Y-14985000D02*
X5865000Y-15015000D01*
X5865000Y-14985000D02*
X5835000Y-15015000D01*
X5895000Y-14070000D02*
X5925000Y-14100000D01*
X5925000Y-14070000D02*
X5895000Y-14100000D01*
X5984901Y-15084092D02*
X6014901Y-15114092D01*
X6014901Y-15084092D02*
X5984901Y-15114092D01*
X5985000Y-13385000D02*
X6015000Y-13415000D01*
X6015000Y-13385000D02*
X5985000Y-13415000D01*
X5985000Y-13585000D02*
X6015000Y-13615000D01*
X6015000Y-13585000D02*
X5985000Y-13615000D01*
X5985000Y-13785000D02*
X6015000Y-13815000D01*
X6015000Y-13785000D02*
X5985000Y-13815000D01*
X5990000Y-15215000D02*
X6020000Y-15245000D01*
X6020000Y-15215000D02*
X5990000Y-15245000D01*
X5995000Y-14515000D02*
X6025000Y-14545000D01*
X6025000Y-14515000D02*
X5995000Y-14545000D01*
X6185000Y-13385000D02*
X6215000Y-13415000D01*
X6215000Y-13385000D02*
X6185000Y-13415000D01*
X6185000Y-13785000D02*
X6215000Y-13815000D01*
X6215000Y-13785000D02*
X6185000Y-13815000D01*
X6185000Y-13985000D02*
X6215000Y-14015000D01*
X6215000Y-13985000D02*
X6185000Y-14015000D01*
X6185000Y-14185000D02*
X6215000Y-14215000D01*
X6215000Y-14185000D02*
X6185000Y-14215000D01*
X6190000Y-15215000D02*
X6220000Y-15245000D01*
X6220000Y-15215000D02*
X6190000Y-15245000D01*
X6320000Y-14455000D02*
X6350000Y-14485000D01*
X6350000Y-14455000D02*
X6320000Y-14485000D01*
X6385000Y-13385000D02*
X6415000Y-13415000D01*
X6415000Y-13385000D02*
X6385000Y-13415000D01*
X6385000Y-13785000D02*
X6415000Y-13815000D01*
X6415000Y-13785000D02*
X6385000Y-13815000D01*
X6385000Y-13985000D02*
X6415000Y-14015000D01*
X6415000Y-13985000D02*
X6385000Y-14015000D01*
X6385000Y-14185000D02*
X6415000Y-14215000D01*
X6415000Y-14185000D02*
X6385000Y-14215000D01*
X6385000Y-15085000D02*
X6415000Y-15115000D01*
X6415000Y-15085000D02*
X6385000Y-15115000D01*
X6390000Y-15215000D02*
X6420000Y-15245000D01*
X6420000Y-15215000D02*
X6390000Y-15245000D01*
X6558740Y-14874083D02*
X6588740Y-14904083D01*
X6588740Y-14874083D02*
X6558740Y-14904083D01*
X6565000Y-14435000D02*
X6595000Y-14465000D01*
X6595000Y-14435000D02*
X6565000Y-14465000D01*
X6565000Y-14495000D02*
X6595000Y-14525000D01*
X6595000Y-14495000D02*
X6565000Y-14525000D01*
X6585000Y-13385000D02*
X6615000Y-13415000D01*
X6615000Y-13385000D02*
X6585000Y-13415000D01*
X6590000Y-15215000D02*
X6620000Y-15245000D01*
X6620000Y-15215000D02*
X6590000Y-15245000D01*
X6685000Y-14710000D02*
X6715000Y-14740000D01*
X6715000Y-14710000D02*
X6685000Y-14740000D01*
X6690000Y-14170000D02*
X6720000Y-14200000D01*
X6720000Y-14170000D02*
X6690000Y-14200000D01*
X6735000Y-14825000D02*
X6765000Y-14855000D01*
X6765000Y-14825000D02*
X6735000Y-14855000D01*
X6765000Y-14470000D02*
X6795000Y-14500000D01*
X6795000Y-14470000D02*
X6765000Y-14500000D01*
X6785000Y-13385000D02*
X6815000Y-13415000D01*
X6815000Y-13385000D02*
X6785000Y-13415000D01*
X6790000Y-15215000D02*
X6820000Y-15245000D01*
X6820000Y-15215000D02*
X6790000Y-15245000D01*
X6817450Y-14745000D02*
X6847450Y-14775000D01*
X6847450Y-14745000D02*
X6817450Y-14775000D01*
X6845000Y-14370000D02*
X6875000Y-14400000D01*
X6875000Y-14370000D02*
X6845000Y-14400000D01*
X6867450Y-14585000D02*
X6897450Y-14615000D01*
X6897450Y-14585000D02*
X6867450Y-14615000D01*
X6970000Y-14070000D02*
X7000000Y-14100000D01*
X7000000Y-14070000D02*
X6970000Y-14100000D01*
X6980000Y-15025000D02*
X7010000Y-15055000D01*
X7010000Y-15025000D02*
X6980000Y-15055000D01*
X6985000Y-13385000D02*
X7015000Y-13415000D01*
X7015000Y-13385000D02*
X6985000Y-13415000D01*
X6990000Y-15215000D02*
X7020000Y-15245000D01*
X7020000Y-15215000D02*
X6990000Y-15245000D01*
X7115384Y-14332550D02*
X7145384Y-14362550D01*
X7145384Y-14332550D02*
X7115384Y-14362550D01*
X7165000Y-15025000D02*
X7195000Y-15055000D01*
X7195000Y-15025000D02*
X7165000Y-15055000D01*
X7170000Y-14070000D02*
X7200000Y-14100000D01*
X7200000Y-14070000D02*
X7170000Y-14100000D01*
X7185000Y-13385000D02*
X7215000Y-13415000D01*
X7215000Y-13385000D02*
X7185000Y-13415000D01*
X7190000Y-14215000D02*
X7220000Y-14245000D01*
X7220000Y-14215000D02*
X7190000Y-14245000D01*
X7190000Y-15215000D02*
X7220000Y-15245000D01*
X7220000Y-15215000D02*
X7190000Y-15245000D01*
X7235000Y-14575000D02*
X7265000Y-14605000D01*
X7265000Y-14575000D02*
X7235000Y-14605000D01*
X7235000Y-14665000D02*
X7265000Y-14695000D01*
X7265000Y-14665000D02*
X7235000Y-14695000D01*
X7235000Y-14745000D02*
X7265000Y-14775000D01*
X7265000Y-14745000D02*
X7235000Y-14775000D01*
X7305000Y-14377550D02*
X7335000Y-14407550D01*
X7335000Y-14377550D02*
X7305000Y-14407550D01*
X7310000Y-14145000D02*
X7340000Y-14175000D01*
X7340000Y-14145000D02*
X7310000Y-14175000D01*
X7315000Y-13735000D02*
X7345000Y-13765000D01*
X7345000Y-13735000D02*
X7315000Y-13765000D01*
X7335000Y-14665000D02*
X7365000Y-14695000D01*
X7365000Y-14665000D02*
X7335000Y-14695000D01*
X7335000Y-14745000D02*
X7365000Y-14775000D01*
X7365000Y-14745000D02*
X7335000Y-14775000D01*
X7350000Y-14565000D02*
X7380000Y-14595000D01*
X7380000Y-14565000D02*
X7350000Y-14595000D01*
X7360000Y-15025000D02*
X7390000Y-15055000D01*
X7390000Y-15025000D02*
X7360000Y-15055000D01*
X7385000Y-13385000D02*
X7415000Y-13415000D01*
X7415000Y-13385000D02*
X7385000Y-13415000D01*
X7390000Y-15215000D02*
X7420000Y-15245000D01*
X7420000Y-15215000D02*
X7390000Y-15245000D01*
X7511490Y-14352450D02*
X7541490Y-14382450D01*
X7541490Y-14352450D02*
X7511490Y-14382450D01*
X7545000Y-14745000D02*
X7575000Y-14775000D01*
X7575000Y-14745000D02*
X7545000Y-14775000D01*
X7550000Y-15025000D02*
X7580000Y-15055000D01*
X7580000Y-15025000D02*
X7550000Y-15055000D01*
X7585000Y-13385000D02*
X7615000Y-13415000D01*
X7615000Y-13385000D02*
X7585000Y-13415000D01*
X7585000Y-13585000D02*
X7615000Y-13615000D01*
X7615000Y-13585000D02*
X7585000Y-13615000D01*
X7590000Y-15215000D02*
X7620000Y-15245000D01*
X7620000Y-15215000D02*
X7590000Y-15245000D01*
X7615000Y-14943200D02*
X7645000Y-14973200D01*
X7645000Y-14943200D02*
X7615000Y-14973200D01*
X7685000Y-14815000D02*
X7715000Y-14845000D01*
X7715000Y-14815000D02*
X7685000Y-14845000D01*
X7725000Y-14735000D02*
X7755000Y-14765000D01*
X7755000Y-14735000D02*
X7725000Y-14765000D01*
X7755000Y-13640000D02*
X7785000Y-13670000D01*
X7785000Y-13640000D02*
X7755000Y-13670000D01*
X7775000Y-14485000D02*
X7805000Y-14515000D01*
X7805000Y-14485000D02*
X7775000Y-14515000D01*
X7775850Y-14328006D02*
X7805850Y-14358006D01*
X7805850Y-14328006D02*
X7775850Y-14358006D01*
X7780000Y-15025000D02*
X7810000Y-15055000D01*
X7810000Y-15025000D02*
X7780000Y-15055000D01*
X7785000Y-13385000D02*
X7815000Y-13415000D01*
X7815000Y-13385000D02*
X7785000Y-13415000D01*
X7790000Y-15215000D02*
X7820000Y-15245000D01*
X7820000Y-15215000D02*
X7790000Y-15245000D01*
X7845000Y-13640000D02*
X7875000Y-13670000D01*
X7875000Y-13640000D02*
X7845000Y-13670000D01*
X7925000Y-14405000D02*
X7955000Y-14435000D01*
X7955000Y-14405000D02*
X7925000Y-14435000D01*
X7985000Y-13385000D02*
X8015000Y-13415000D01*
X8015000Y-13385000D02*
X7985000Y-13415000D01*
X7990000Y-15215000D02*
X8020000Y-15245000D01*
X8020000Y-15215000D02*
X7990000Y-15245000D01*
X8035000Y-13485000D02*
X8065000Y-13515000D01*
X8065000Y-13485000D02*
X8035000Y-13515000D01*
X8035000Y-13585000D02*
X8065000Y-13615000D01*
X8065000Y-13585000D02*
X8035000Y-13615000D01*
X8035000Y-14095000D02*
X8065000Y-14125000D01*
X8065000Y-14095000D02*
X8035000Y-14125000D01*
X8075000Y-14605000D02*
X8105000Y-14635000D01*
X8105000Y-14605000D02*
X8075000Y-14635000D01*
X8105000Y-15135000D02*
X8135000Y-15165000D01*
X8135000Y-15135000D02*
X8105000Y-15165000D01*
X8135000Y-13685000D02*
X8165000Y-13715000D01*
X8165000Y-13685000D02*
X8135000Y-13715000D01*
X8185000Y-13385000D02*
X8215000Y-13415000D01*
X8215000Y-13385000D02*
X8185000Y-13415000D01*
X8185000Y-14285000D02*
X8215000Y-14315000D01*
X8215000Y-14285000D02*
X8185000Y-14315000D01*
X8190000Y-15215000D02*
X8220000Y-15245000D01*
X8220000Y-15215000D02*
X8190000Y-15245000D01*
X8195000Y-15135000D02*
X8225000Y-15165000D01*
X8225000Y-15135000D02*
X8195000Y-15165000D01*
X8235000Y-13685000D02*
X8265000Y-13715000D01*
X8265000Y-13685000D02*
X8235000Y-13715000D01*
X8235000Y-14095000D02*
X8265000Y-14125000D01*
X8265000Y-14095000D02*
X8235000Y-14125000D01*
X8257361Y-14851408D02*
X8287361Y-14881408D01*
X8287361Y-14851408D02*
X8257361Y-14881408D01*
X8285000Y-14485000D02*
X8315000Y-14515000D01*
X8315000Y-14485000D02*
X8285000Y-14515000D01*
X8345000Y-14365000D02*
X8375000Y-14395000D01*
X8375000Y-14365000D02*
X8345000Y-14395000D01*
X8385000Y-13385000D02*
X8415000Y-13415000D01*
X8415000Y-13385000D02*
X8385000Y-13415000D01*
X8385000Y-13685000D02*
X8415000Y-13715000D01*
X8415000Y-13685000D02*
X8385000Y-13715000D01*
X8390000Y-15215000D02*
X8420000Y-15245000D01*
X8420000Y-15215000D02*
X8390000Y-15245000D01*
X8485000Y-13685000D02*
X8515000Y-13715000D01*
X8515000Y-13685000D02*
X8485000Y-13715000D01*
X8495000Y-13820000D02*
X8525000Y-13850000D01*
X8525000Y-13820000D02*
X8495000Y-13850000D01*
X8585000Y-13385000D02*
X8615000Y-13415000D01*
X8615000Y-13385000D02*
X8585000Y-13415000D01*
X8585000Y-13485000D02*
X8615000Y-13515000D01*
X8615000Y-13485000D02*
X8585000Y-13515000D01*
X8585000Y-13585000D02*
X8615000Y-13615000D01*
X8615000Y-13585000D02*
X8585000Y-13615000D01*
X8595000Y-14435000D02*
X8625000Y-14465000D01*
X8625000Y-14435000D02*
X8595000Y-14465000D01*
X8605000Y-14245000D02*
X8635000Y-14275000D01*
X8635000Y-14245000D02*
X8605000Y-14275000D01*
X8625000Y-13820000D02*
X8655000Y-13850000D01*
X8655000Y-13820000D02*
X8625000Y-13850000D01*
X8625000Y-14655000D02*
X8655000Y-14685000D01*
X8655000Y-14655000D02*
X8625000Y-14685000D01*
X8745000Y-14565000D02*
X8775000Y-14595000D01*
X8775000Y-14565000D02*
X8745000Y-14595000D01*
X8785000Y-13385000D02*
X8815000Y-13415000D01*
X8815000Y-13385000D02*
X8785000Y-13415000D01*
X8785000Y-13585000D02*
X8815000Y-13615000D01*
X8815000Y-13585000D02*
X8785000Y-13615000D01*
X8785000Y-13785000D02*
X8815000Y-13815000D01*
X8815000Y-13785000D02*
X8785000Y-13815000D01*
X8790000Y-15215000D02*
X8820000Y-15245000D01*
X8820000Y-15215000D02*
X8790000Y-15245000D01*
X8835000Y-14645000D02*
X8865000Y-14675000D01*
X8865000Y-14645000D02*
X8835000Y-14675000D01*
X8885000Y-14147450D02*
X8915000Y-14177450D01*
X8915000Y-14147450D02*
X8885000Y-14177450D01*
X8915000Y-14495000D02*
X8945000Y-14525000D01*
X8945000Y-14495000D02*
X8915000Y-14525000D01*
X8935000Y-15035000D02*
X8965000Y-15065000D01*
X8965000Y-15035000D02*
X8935000Y-15065000D01*
X8955000Y-14355000D02*
X8985000Y-14385000D01*
X8985000Y-14355000D02*
X8955000Y-14385000D01*
X8985000Y-13585000D02*
X9015000Y-13615000D01*
X9015000Y-13585000D02*
X8985000Y-13615000D01*
X8985000Y-13785000D02*
X9015000Y-13815000D01*
X9015000Y-13785000D02*
X8985000Y-13815000D01*
X9015000Y-14495000D02*
X9045000Y-14525000D01*
X9045000Y-14495000D02*
X9015000Y-14525000D01*
X9135000Y-14835000D02*
X9165000Y-14865000D01*
X9165000Y-14835000D02*
X9135000Y-14865000D01*
X9135000Y-15035000D02*
X9165000Y-15065000D01*
X9165000Y-15035000D02*
X9135000Y-15065000D01*
X9795000Y-14545000D02*
X9825000Y-14575000D01*
X9825000Y-14545000D02*
X9795000Y-14575000D01*
X9795000Y-14745000D02*
X9825000Y-14775000D01*
X9825000Y-14745000D02*
X9795000Y-14775000D01*
X9965000Y-14625000D02*
X9995000Y-14655000D01*
X9995000Y-14625000D02*
X9965000Y-14655000D01*
X9965000Y-14705000D02*
X9995000Y-14735000D01*
X9995000Y-14705000D02*
X9965000Y-14735000D01*
X10362265Y-14210290D02*
X10392265Y-14240290D01*
X10392265Y-14210290D02*
X10362265Y-14240290D01*
X10374358Y-14340004D02*
X10404358Y-14370004D01*
X10404358Y-14340004D02*
X10374358Y-14370004D01*
X10374360Y-14440003D02*
X10404360Y-14470003D01*
X10404360Y-14440003D02*
X10374360Y-14470003D01*
X10393275Y-14122955D02*
X10423275Y-14152955D01*
X10423275Y-14122955D02*
X10393275Y-14152955D01*
X10395000Y-14745000D02*
X10425000Y-14775000D01*
X10425000Y-14745000D02*
X10395000Y-14775000D01*
X10405000Y-13882647D02*
X10435000Y-13912647D01*
X10435000Y-13882647D02*
X10405000Y-13912647D01*
X10484300Y-14060982D02*
X10514300Y-14090982D01*
X10514300Y-14060982D02*
X10484300Y-14090982D01*
X10495000Y-14635000D02*
X10525000Y-14665000D01*
X10525000Y-14635000D02*
X10495000Y-14665000D01*
X10504495Y-13983624D02*
X10534495Y-14013624D01*
X10534495Y-13983624D02*
X10504495Y-14013624D01*
X10595000Y-14525000D02*
X10625000Y-14555000D01*
X10625000Y-14525000D02*
X10595000Y-14555000D01*
X10595000Y-14745000D02*
X10625000Y-14775000D01*
X10625000Y-14745000D02*
X10595000Y-14775000D01*
X10625000Y-14445000D02*
X10655000Y-14475000D01*
X10655000Y-14445000D02*
X10625000Y-14475000D01*
X10635000Y-13885000D02*
X10665000Y-13915000D01*
X10665000Y-13885000D02*
X10635000Y-13915000D01*
X10665000Y-14385000D02*
X10695000Y-14415000D01*
X10695000Y-14385000D02*
X10665000Y-14415000D01*
D13*
X9165000Y-14180000D02*
G75*
G03*
X9165000Y-14180000I-25000J0D01*
G01*
X9165000Y-14280000D02*
G75*
G03*
X9165000Y-14280000I-25000J0D01*
G01*
X9165000Y-14380000D02*
G75*
G03*
X9165000Y-14380000I-25000J0D01*
G01*
X9165000Y-14480000D02*
G75*
G03*
X9165000Y-14480000I-25000J0D01*
G01*
X9265000Y-14180000D02*
G75*
G03*
X9265000Y-14180000I-25000J0D01*
G01*
X9265000Y-14280000D02*
G75*
G03*
X9265000Y-14280000I-25000J0D01*
G01*
X9265000Y-14380000D02*
G75*
G03*
X9265000Y-14380000I-25000J0D01*
G01*
X9265000Y-14480000D02*
G75*
G03*
X9265000Y-14480000I-25000J0D01*
G01*
X9865000Y-13980000D02*
G75*
G03*
X9865000Y-13980000I-25000J0D01*
G01*
X9865000Y-14080000D02*
G75*
G03*
X9865000Y-14080000I-25000J0D01*
G01*
X9865000Y-14180000D02*
G75*
G03*
X9865000Y-14180000I-25000J0D01*
G01*
X9865000Y-14280000D02*
G75*
G03*
X9865000Y-14280000I-25000J0D01*
G01*
X9965000Y-13980000D02*
G75*
G03*
X9965000Y-13980000I-25000J0D01*
G01*
X9965000Y-14080000D02*
G75*
G03*
X9965000Y-14080000I-25000J0D01*
G01*
X9965000Y-14180000D02*
G75*
G03*
X9965000Y-14180000I-25000J0D01*
G01*
X9965000Y-14280000D02*
G75*
G03*
X9965000Y-14280000I-25000J0D01*
G01*
D14*
X4980000Y-13848000D02*
X4980000Y-13908000D01*
X4950000Y-13878000D02*
X5010000Y-13878000D01*
D11*
X5045000Y-13858000D02*
X4915000Y-13858000D01*
X5045000Y-13898000D02*
X4915000Y-13898000D01*
X4915000Y-13858000D02*
G75*
G03*
X4915000Y-13898000I0J-20000D01*
G01*
X5045000Y-13898000D02*
G75*
G03*
X5045000Y-13858000I0J20000D01*
G01*
D14*
X4980000Y-14712000D02*
X4980000Y-14772000D01*
X4950000Y-14742000D02*
X5010000Y-14742000D01*
D11*
X5045000Y-14722000D02*
X4915000Y-14722000D01*
X5045000Y-14762000D02*
X4915000Y-14762000D01*
X4915000Y-14722000D02*
G75*
G03*
X4915000Y-14762000I0J-20000D01*
G01*
X5045000Y-14762000D02*
G75*
G03*
X5045000Y-14722000I0J20000D01*
G01*
D14*
X5362500Y-13848000D02*
X5362500Y-13908000D01*
X5332500Y-13878000D02*
X5392500Y-13878000D01*
D11*
X5412500Y-13858000D02*
X5312500Y-13858000D01*
X5412500Y-13898000D02*
X5312500Y-13898000D01*
X5312500Y-13858000D02*
G75*
G03*
X5312500Y-13898000I0J-20000D01*
G01*
X5412500Y-13898000D02*
G75*
G03*
X5412500Y-13858000I0J20000D01*
G01*
D14*
X5362500Y-14712000D02*
X5362500Y-14772000D01*
X5332500Y-14742000D02*
X5392500Y-14742000D01*
D11*
X5412500Y-14722000D02*
X5312500Y-14722000D01*
X5412500Y-14762000D02*
X5312500Y-14762000D01*
X5312500Y-14722000D02*
G75*
G03*
X5312500Y-14762000I0J-20000D01*
G01*
X5412500Y-14762000D02*
G75*
G03*
X5412500Y-14722000I0J20000D01*
G01*
D15*
X6367856Y-13595356D02*
X6367856Y-13524644D01*
X6297144Y-13524644D01*
X6297144Y-13595356D01*
X6367856Y-13595356D01*
X6621856Y-13595356D02*
X6621856Y-13524644D01*
X6551144Y-13524644D01*
X6551144Y-13595356D01*
X6621856Y-13595356D01*
X6875856Y-13595356D02*
X6875856Y-13524644D01*
X6805144Y-13524644D01*
X6805144Y-13595356D01*
X6875856Y-13595356D01*
X7129856Y-13595356D02*
X7129856Y-13524644D01*
X7059144Y-13524644D01*
X7059144Y-13595356D01*
X7129856Y-13595356D01*
X7383856Y-13595356D02*
X7383856Y-13524644D01*
X7313144Y-13524644D01*
X7313144Y-13595356D01*
X7383856Y-13595356D01*
X8237856Y-13600356D02*
X8237856Y-13529644D01*
X8167144Y-13529644D01*
X8167144Y-13600356D01*
X8237856Y-13600356D01*
X8491856Y-13600356D02*
X8491856Y-13529644D01*
X8421144Y-13529644D01*
X8421144Y-13600356D01*
X8491856Y-13600356D01*
D11*
X5062619Y-15615476D02*
X5062619Y-15415476D01*
X5110238Y-15415476D01*
X5138810Y-15425000D01*
X5157857Y-15444048D01*
X5167381Y-15463095D01*
X5176905Y-15501190D01*
X5176905Y-15529762D01*
X5167381Y-15567857D01*
X5157857Y-15586905D01*
X5138810Y-15605952D01*
X5110238Y-15615476D01*
X5062619Y-15615476D01*
X5262619Y-15615476D02*
X5262619Y-15482143D01*
X5262619Y-15520238D02*
X5272143Y-15501190D01*
X5281667Y-15491667D01*
X5300714Y-15482143D01*
X5319762Y-15482143D01*
X5386429Y-15615476D02*
X5386429Y-15482143D01*
X5386429Y-15415476D02*
X5376905Y-15425000D01*
X5386429Y-15434524D01*
X5395952Y-15425000D01*
X5386429Y-15415476D01*
X5386429Y-15434524D01*
X5510238Y-15615476D02*
X5491190Y-15605952D01*
X5481667Y-15586905D01*
X5481667Y-15415476D01*
X5615000Y-15615476D02*
X5595952Y-15605952D01*
X5586429Y-15586905D01*
X5586429Y-15415476D01*
X5843571Y-15615476D02*
X5843571Y-15415476D01*
X5910238Y-15558333D01*
X5976905Y-15415476D01*
X5976905Y-15615476D01*
X6157857Y-15615476D02*
X6157857Y-15510714D01*
X6148333Y-15491667D01*
X6129286Y-15482143D01*
X6091190Y-15482143D01*
X6072143Y-15491667D01*
X6157857Y-15605952D02*
X6138809Y-15615476D01*
X6091190Y-15615476D01*
X6072143Y-15605952D01*
X6062619Y-15586905D01*
X6062619Y-15567857D01*
X6072143Y-15548809D01*
X6091190Y-15539286D01*
X6138809Y-15539286D01*
X6157857Y-15529762D01*
X6253095Y-15482143D02*
X6253095Y-15682143D01*
X6253095Y-15491667D02*
X6272143Y-15482143D01*
X6310238Y-15482143D01*
X6329286Y-15491667D01*
X6338809Y-15501190D01*
X6348333Y-15520238D01*
X6348333Y-15577381D01*
X6338809Y-15596428D01*
X6329286Y-15605952D01*
X6310238Y-15615476D01*
X6272143Y-15615476D01*
X6253095Y-15605952D01*
X6434048Y-15596428D02*
X6443571Y-15605952D01*
X6434048Y-15615476D01*
X6424524Y-15605952D01*
X6434048Y-15596428D01*
X6434048Y-15615476D01*
X6434048Y-15491667D02*
X6443571Y-15501190D01*
X6434048Y-15510714D01*
X6424524Y-15501190D01*
X6434048Y-15491667D01*
X6434048Y-15510714D01*
D12*
X4775000Y-15930000D02*
X4805000Y-15960000D01*
X4805000Y-15930000D02*
X4775000Y-15960000D01*
D11*
X5100714Y-15835476D02*
X5119762Y-15835476D01*
X5138810Y-15845000D01*
X5148333Y-15854524D01*
X5157857Y-15873571D01*
X5167381Y-15911667D01*
X5167381Y-15959286D01*
X5157857Y-15997381D01*
X5148333Y-16016428D01*
X5138810Y-16025952D01*
X5119762Y-16035476D01*
X5100714Y-16035476D01*
X5081667Y-16025952D01*
X5072143Y-16016428D01*
X5062619Y-15997381D01*
X5053095Y-15959286D01*
X5053095Y-15911667D01*
X5062619Y-15873571D01*
X5072143Y-15854524D01*
X5081667Y-15845000D01*
X5100714Y-15835476D01*
X5253095Y-16016428D02*
X5262619Y-16025952D01*
X5253095Y-16035476D01*
X5243571Y-16025952D01*
X5253095Y-16016428D01*
X5253095Y-16035476D01*
X5329286Y-15835476D02*
X5453095Y-15835476D01*
X5386429Y-15911667D01*
X5415000Y-15911667D01*
X5434048Y-15921190D01*
X5443571Y-15930714D01*
X5453095Y-15949762D01*
X5453095Y-15997381D01*
X5443571Y-16016428D01*
X5434048Y-16025952D01*
X5415000Y-16035476D01*
X5357857Y-16035476D01*
X5338810Y-16025952D01*
X5329286Y-16016428D01*
X5576905Y-15835476D02*
X5595952Y-15835476D01*
X5615000Y-15845000D01*
X5624524Y-15854524D01*
X5634048Y-15873571D01*
X5643571Y-15911667D01*
X5643571Y-15959286D01*
X5634048Y-15997381D01*
X5624524Y-16016428D01*
X5615000Y-16025952D01*
X5595952Y-16035476D01*
X5576905Y-16035476D01*
X5557857Y-16025952D01*
X5548333Y-16016428D01*
X5538810Y-15997381D01*
X5529286Y-15959286D01*
X5529286Y-15911667D01*
X5538810Y-15873571D01*
X5548333Y-15854524D01*
X5557857Y-15845000D01*
X5576905Y-15835476D01*
X5767381Y-15835476D02*
X5786428Y-15835476D01*
X5805476Y-15845000D01*
X5815000Y-15854524D01*
X5824524Y-15873571D01*
X5834048Y-15911667D01*
X5834048Y-15959286D01*
X5824524Y-15997381D01*
X5815000Y-16016428D01*
X5805476Y-16025952D01*
X5786428Y-16035476D01*
X5767381Y-16035476D01*
X5748333Y-16025952D01*
X5738809Y-16016428D01*
X5729286Y-15997381D01*
X5719762Y-15959286D01*
X5719762Y-15911667D01*
X5729286Y-15873571D01*
X5738809Y-15854524D01*
X5748333Y-15845000D01*
X5767381Y-15835476D01*
X5919762Y-16035476D02*
X5919762Y-15902143D01*
X5919762Y-15921190D02*
X5929286Y-15911667D01*
X5948333Y-15902143D01*
X5976905Y-15902143D01*
X5995952Y-15911667D01*
X6005476Y-15930714D01*
X6005476Y-16035476D01*
X6005476Y-15930714D02*
X6015000Y-15911667D01*
X6034048Y-15902143D01*
X6062619Y-15902143D01*
X6081667Y-15911667D01*
X6091190Y-15930714D01*
X6091190Y-16035476D01*
X6186428Y-16035476D02*
X6186428Y-15902143D01*
X6186428Y-15921190D02*
X6195952Y-15911667D01*
X6215000Y-15902143D01*
X6243571Y-15902143D01*
X6262619Y-15911667D01*
X6272143Y-15930714D01*
X6272143Y-16035476D01*
X6272143Y-15930714D02*
X6281667Y-15911667D01*
X6300714Y-15902143D01*
X6329286Y-15902143D01*
X6348333Y-15911667D01*
X6357857Y-15930714D01*
X6357857Y-16035476D01*
X6748333Y-15825952D02*
X6576905Y-16083095D01*
X7005476Y-15835476D02*
X7024524Y-15835476D01*
X7043571Y-15845000D01*
X7053095Y-15854524D01*
X7062619Y-15873571D01*
X7072143Y-15911667D01*
X7072143Y-15959286D01*
X7062619Y-15997381D01*
X7053095Y-16016428D01*
X7043571Y-16025952D01*
X7024524Y-16035476D01*
X7005476Y-16035476D01*
X6986428Y-16025952D01*
X6976905Y-16016428D01*
X6967381Y-15997381D01*
X6957857Y-15959286D01*
X6957857Y-15911667D01*
X6967381Y-15873571D01*
X6976905Y-15854524D01*
X6986428Y-15845000D01*
X7005476Y-15835476D01*
X7157857Y-16016428D02*
X7167381Y-16025952D01*
X7157857Y-16035476D01*
X7148333Y-16025952D01*
X7157857Y-16016428D01*
X7157857Y-16035476D01*
X7291190Y-15835476D02*
X7310238Y-15835476D01*
X7329286Y-15845000D01*
X7338809Y-15854524D01*
X7348333Y-15873571D01*
X7357857Y-15911667D01*
X7357857Y-15959286D01*
X7348333Y-15997381D01*
X7338809Y-16016428D01*
X7329286Y-16025952D01*
X7310238Y-16035476D01*
X7291190Y-16035476D01*
X7272143Y-16025952D01*
X7262619Y-16016428D01*
X7253095Y-15997381D01*
X7243571Y-15959286D01*
X7243571Y-15911667D01*
X7253095Y-15873571D01*
X7262619Y-15854524D01*
X7272143Y-15845000D01*
X7291190Y-15835476D01*
X7548333Y-16035476D02*
X7434048Y-16035476D01*
X7491190Y-16035476D02*
X7491190Y-15835476D01*
X7472143Y-15864048D01*
X7453095Y-15883095D01*
X7434048Y-15892619D01*
X7738809Y-16035476D02*
X7624524Y-16035476D01*
X7681667Y-16035476D02*
X7681667Y-15835476D01*
X7662619Y-15864048D01*
X7643571Y-15883095D01*
X7624524Y-15892619D01*
X7853095Y-15921190D02*
X7834048Y-15911667D01*
X7824524Y-15902143D01*
X7815000Y-15883095D01*
X7815000Y-15873571D01*
X7824524Y-15854524D01*
X7834048Y-15845000D01*
X7853095Y-15835476D01*
X7891190Y-15835476D01*
X7910238Y-15845000D01*
X7919762Y-15854524D01*
X7929286Y-15873571D01*
X7929286Y-15883095D01*
X7919762Y-15902143D01*
X7910238Y-15911667D01*
X7891190Y-15921190D01*
X7853095Y-15921190D01*
X7834048Y-15930714D01*
X7824524Y-15940238D01*
X7815000Y-15959286D01*
X7815000Y-15997381D01*
X7824524Y-16016428D01*
X7834048Y-16025952D01*
X7853095Y-16035476D01*
X7891190Y-16035476D01*
X7910238Y-16025952D01*
X7919762Y-16016428D01*
X7929286Y-15997381D01*
X7929286Y-15959286D01*
X7919762Y-15940238D01*
X7910238Y-15930714D01*
X7891190Y-15921190D01*
X8005476Y-15835476D02*
X8005476Y-15873571D01*
X8081667Y-15835476D02*
X8081667Y-15873571D01*
X8376905Y-16111667D02*
X8367381Y-16102143D01*
X8348333Y-16073571D01*
X8338809Y-16054524D01*
X8329286Y-16025952D01*
X8319762Y-15978333D01*
X8319762Y-15940238D01*
X8329286Y-15892619D01*
X8338809Y-15864048D01*
X8348333Y-15845000D01*
X8367381Y-15816428D01*
X8376905Y-15806905D01*
X8557857Y-16035476D02*
X8443571Y-16035476D01*
X8500714Y-16035476D02*
X8500714Y-15835476D01*
X8481667Y-15864048D01*
X8462619Y-15883095D01*
X8443571Y-15892619D01*
X8624524Y-15835476D02*
X8757857Y-15835476D01*
X8672143Y-16035476D01*
X8938810Y-16035476D02*
X8824524Y-16035476D01*
X8881667Y-16035476D02*
X8881667Y-15835476D01*
X8862619Y-15864048D01*
X8843571Y-15883095D01*
X8824524Y-15892619D01*
X9176905Y-16035476D02*
X9176905Y-15835476D01*
X9262619Y-16035476D02*
X9262619Y-15930714D01*
X9253095Y-15911667D01*
X9234048Y-15902143D01*
X9205476Y-15902143D01*
X9186429Y-15911667D01*
X9176905Y-15921190D01*
X9386429Y-16035476D02*
X9367381Y-16025952D01*
X9357857Y-16016428D01*
X9348333Y-15997381D01*
X9348333Y-15940238D01*
X9357857Y-15921190D01*
X9367381Y-15911667D01*
X9386429Y-15902143D01*
X9415000Y-15902143D01*
X9434048Y-15911667D01*
X9443571Y-15921190D01*
X9453095Y-15940238D01*
X9453095Y-15997381D01*
X9443571Y-16016428D01*
X9434048Y-16025952D01*
X9415000Y-16035476D01*
X9386429Y-16035476D01*
X9567381Y-16035476D02*
X9548333Y-16025952D01*
X9538810Y-16006905D01*
X9538810Y-15835476D01*
X9719762Y-16025952D02*
X9700714Y-16035476D01*
X9662619Y-16035476D01*
X9643571Y-16025952D01*
X9634048Y-16006905D01*
X9634048Y-15930714D01*
X9643571Y-15911667D01*
X9662619Y-15902143D01*
X9700714Y-15902143D01*
X9719762Y-15911667D01*
X9729286Y-15930714D01*
X9729286Y-15949762D01*
X9634048Y-15968809D01*
X9805476Y-16025952D02*
X9824524Y-16035476D01*
X9862619Y-16035476D01*
X9881667Y-16025952D01*
X9891190Y-16006905D01*
X9891190Y-15997381D01*
X9881667Y-15978333D01*
X9862619Y-15968809D01*
X9834048Y-15968809D01*
X9815000Y-15959286D01*
X9805476Y-15940238D01*
X9805476Y-15930714D01*
X9815000Y-15911667D01*
X9834048Y-15902143D01*
X9862619Y-15902143D01*
X9881667Y-15911667D01*
X9957857Y-16111667D02*
X9967381Y-16102143D01*
X9986429Y-16073571D01*
X9995952Y-16054524D01*
X10005476Y-16025952D01*
X10015000Y-15978333D01*
X10015000Y-15940238D01*
X10005476Y-15892619D01*
X9995952Y-15864048D01*
X9986429Y-15845000D01*
X9967381Y-15816428D01*
X9957857Y-15806905D01*
D13*
X4805000Y-16209000D02*
G75*
G03*
X4805000Y-16209000I-25000J0D01*
G01*
D11*
X5100714Y-16099476D02*
X5119762Y-16099476D01*
X5138810Y-16109000D01*
X5148333Y-16118524D01*
X5157857Y-16137571D01*
X5167381Y-16175667D01*
X5167381Y-16223286D01*
X5157857Y-16261381D01*
X5148333Y-16280428D01*
X5138810Y-16289952D01*
X5119762Y-16299476D01*
X5100714Y-16299476D01*
X5081667Y-16289952D01*
X5072143Y-16280428D01*
X5062619Y-16261381D01*
X5053095Y-16223286D01*
X5053095Y-16175667D01*
X5062619Y-16137571D01*
X5072143Y-16118524D01*
X5081667Y-16109000D01*
X5100714Y-16099476D01*
X5253095Y-16280428D02*
X5262619Y-16289952D01*
X5253095Y-16299476D01*
X5243571Y-16289952D01*
X5253095Y-16280428D01*
X5253095Y-16299476D01*
X5443571Y-16099476D02*
X5348333Y-16099476D01*
X5338810Y-16194714D01*
X5348333Y-16185190D01*
X5367381Y-16175667D01*
X5415000Y-16175667D01*
X5434048Y-16185190D01*
X5443571Y-16194714D01*
X5453095Y-16213762D01*
X5453095Y-16261381D01*
X5443571Y-16280428D01*
X5434048Y-16289952D01*
X5415000Y-16299476D01*
X5367381Y-16299476D01*
X5348333Y-16289952D01*
X5338810Y-16280428D01*
X5576905Y-16099476D02*
X5595952Y-16099476D01*
X5615000Y-16109000D01*
X5624524Y-16118524D01*
X5634048Y-16137571D01*
X5643571Y-16175667D01*
X5643571Y-16223286D01*
X5634048Y-16261381D01*
X5624524Y-16280428D01*
X5615000Y-16289952D01*
X5595952Y-16299476D01*
X5576905Y-16299476D01*
X5557857Y-16289952D01*
X5548333Y-16280428D01*
X5538810Y-16261381D01*
X5529286Y-16223286D01*
X5529286Y-16175667D01*
X5538810Y-16137571D01*
X5548333Y-16118524D01*
X5557857Y-16109000D01*
X5576905Y-16099476D01*
X5767381Y-16099476D02*
X5786428Y-16099476D01*
X5805476Y-16109000D01*
X5815000Y-16118524D01*
X5824524Y-16137571D01*
X5834048Y-16175667D01*
X5834048Y-16223286D01*
X5824524Y-16261381D01*
X5815000Y-16280428D01*
X5805476Y-16289952D01*
X5786428Y-16299476D01*
X5767381Y-16299476D01*
X5748333Y-16289952D01*
X5738809Y-16280428D01*
X5729286Y-16261381D01*
X5719762Y-16223286D01*
X5719762Y-16175667D01*
X5729286Y-16137571D01*
X5738809Y-16118524D01*
X5748333Y-16109000D01*
X5767381Y-16099476D01*
X5919762Y-16299476D02*
X5919762Y-16166143D01*
X5919762Y-16185190D02*
X5929286Y-16175667D01*
X5948333Y-16166143D01*
X5976905Y-16166143D01*
X5995952Y-16175667D01*
X6005476Y-16194714D01*
X6005476Y-16299476D01*
X6005476Y-16194714D02*
X6015000Y-16175667D01*
X6034048Y-16166143D01*
X6062619Y-16166143D01*
X6081667Y-16175667D01*
X6091190Y-16194714D01*
X6091190Y-16299476D01*
X6186428Y-16299476D02*
X6186428Y-16166143D01*
X6186428Y-16185190D02*
X6195952Y-16175667D01*
X6215000Y-16166143D01*
X6243571Y-16166143D01*
X6262619Y-16175667D01*
X6272143Y-16194714D01*
X6272143Y-16299476D01*
X6272143Y-16194714D02*
X6281667Y-16175667D01*
X6300714Y-16166143D01*
X6329286Y-16166143D01*
X6348333Y-16175667D01*
X6357857Y-16194714D01*
X6357857Y-16299476D01*
X6748333Y-16089952D02*
X6576905Y-16347095D01*
X7005476Y-16099476D02*
X7024524Y-16099476D01*
X7043571Y-16109000D01*
X7053095Y-16118524D01*
X7062619Y-16137571D01*
X7072143Y-16175667D01*
X7072143Y-16223286D01*
X7062619Y-16261381D01*
X7053095Y-16280428D01*
X7043571Y-16289952D01*
X7024524Y-16299476D01*
X7005476Y-16299476D01*
X6986428Y-16289952D01*
X6976905Y-16280428D01*
X6967381Y-16261381D01*
X6957857Y-16223286D01*
X6957857Y-16175667D01*
X6967381Y-16137571D01*
X6976905Y-16118524D01*
X6986428Y-16109000D01*
X7005476Y-16099476D01*
X7157857Y-16280428D02*
X7167381Y-16289952D01*
X7157857Y-16299476D01*
X7148333Y-16289952D01*
X7157857Y-16280428D01*
X7157857Y-16299476D01*
X7291190Y-16099476D02*
X7310238Y-16099476D01*
X7329286Y-16109000D01*
X7338809Y-16118524D01*
X7348333Y-16137571D01*
X7357857Y-16175667D01*
X7357857Y-16223286D01*
X7348333Y-16261381D01*
X7338809Y-16280428D01*
X7329286Y-16289952D01*
X7310238Y-16299476D01*
X7291190Y-16299476D01*
X7272143Y-16289952D01*
X7262619Y-16280428D01*
X7253095Y-16261381D01*
X7243571Y-16223286D01*
X7243571Y-16175667D01*
X7253095Y-16137571D01*
X7262619Y-16118524D01*
X7272143Y-16109000D01*
X7291190Y-16099476D01*
X7548333Y-16299476D02*
X7434048Y-16299476D01*
X7491190Y-16299476D02*
X7491190Y-16099476D01*
X7472143Y-16128048D01*
X7453095Y-16147095D01*
X7434048Y-16156619D01*
X7643571Y-16299476D02*
X7681667Y-16299476D01*
X7700714Y-16289952D01*
X7710238Y-16280428D01*
X7729286Y-16251857D01*
X7738809Y-16213762D01*
X7738809Y-16137571D01*
X7729286Y-16118524D01*
X7719762Y-16109000D01*
X7700714Y-16099476D01*
X7662619Y-16099476D01*
X7643571Y-16109000D01*
X7634048Y-16118524D01*
X7624524Y-16137571D01*
X7624524Y-16185190D01*
X7634048Y-16204238D01*
X7643571Y-16213762D01*
X7662619Y-16223286D01*
X7700714Y-16223286D01*
X7719762Y-16213762D01*
X7729286Y-16204238D01*
X7738809Y-16185190D01*
X7805476Y-16099476D02*
X7938809Y-16099476D01*
X7853095Y-16299476D01*
X8005476Y-16099476D02*
X8005476Y-16137571D01*
X8081667Y-16099476D02*
X8081667Y-16137571D01*
X8376905Y-16375667D02*
X8367381Y-16366143D01*
X8348333Y-16337571D01*
X8338809Y-16318524D01*
X8329286Y-16289952D01*
X8319762Y-16242333D01*
X8319762Y-16204238D01*
X8329286Y-16156619D01*
X8338809Y-16128048D01*
X8348333Y-16109000D01*
X8367381Y-16080428D01*
X8376905Y-16070905D01*
X8557857Y-16299476D02*
X8443571Y-16299476D01*
X8500714Y-16299476D02*
X8500714Y-16099476D01*
X8481667Y-16128048D01*
X8462619Y-16147095D01*
X8443571Y-16156619D01*
X8729286Y-16099476D02*
X8691190Y-16099476D01*
X8672143Y-16109000D01*
X8662619Y-16118524D01*
X8643571Y-16147095D01*
X8634048Y-16185190D01*
X8634048Y-16261381D01*
X8643571Y-16280428D01*
X8653095Y-16289952D01*
X8672143Y-16299476D01*
X8710238Y-16299476D01*
X8729286Y-16289952D01*
X8738810Y-16280428D01*
X8748333Y-16261381D01*
X8748333Y-16213762D01*
X8738810Y-16194714D01*
X8729286Y-16185190D01*
X8710238Y-16175667D01*
X8672143Y-16175667D01*
X8653095Y-16185190D01*
X8643571Y-16194714D01*
X8634048Y-16213762D01*
X8986429Y-16299476D02*
X8986429Y-16099476D01*
X9072143Y-16299476D02*
X9072143Y-16194714D01*
X9062619Y-16175667D01*
X9043571Y-16166143D01*
X9015000Y-16166143D01*
X8995952Y-16175667D01*
X8986429Y-16185190D01*
X9195952Y-16299476D02*
X9176905Y-16289952D01*
X9167381Y-16280428D01*
X9157857Y-16261381D01*
X9157857Y-16204238D01*
X9167381Y-16185190D01*
X9176905Y-16175667D01*
X9195952Y-16166143D01*
X9224524Y-16166143D01*
X9243571Y-16175667D01*
X9253095Y-16185190D01*
X9262619Y-16204238D01*
X9262619Y-16261381D01*
X9253095Y-16280428D01*
X9243571Y-16289952D01*
X9224524Y-16299476D01*
X9195952Y-16299476D01*
X9376905Y-16299476D02*
X9357857Y-16289952D01*
X9348333Y-16270905D01*
X9348333Y-16099476D01*
X9529286Y-16289952D02*
X9510238Y-16299476D01*
X9472143Y-16299476D01*
X9453095Y-16289952D01*
X9443571Y-16270905D01*
X9443571Y-16194714D01*
X9453095Y-16175667D01*
X9472143Y-16166143D01*
X9510238Y-16166143D01*
X9529286Y-16175667D01*
X9538810Y-16194714D01*
X9538810Y-16213762D01*
X9443571Y-16232809D01*
X9615000Y-16289952D02*
X9634048Y-16299476D01*
X9672143Y-16299476D01*
X9691190Y-16289952D01*
X9700714Y-16270905D01*
X9700714Y-16261381D01*
X9691190Y-16242333D01*
X9672143Y-16232809D01*
X9643571Y-16232809D01*
X9624524Y-16223286D01*
X9615000Y-16204238D01*
X9615000Y-16194714D01*
X9624524Y-16175667D01*
X9643571Y-16166143D01*
X9672143Y-16166143D01*
X9691190Y-16175667D01*
X9767381Y-16375667D02*
X9776905Y-16366143D01*
X9795952Y-16337571D01*
X9805476Y-16318524D01*
X9815000Y-16289952D01*
X9824524Y-16242333D01*
X9824524Y-16204238D01*
X9815000Y-16156619D01*
X9805476Y-16128048D01*
X9795952Y-16109000D01*
X9776905Y-16080428D01*
X9767381Y-16070905D01*
D14*
X4775000Y-16443000D02*
X4775000Y-16503000D01*
X4745000Y-16473000D02*
X4805000Y-16473000D01*
D11*
X5100714Y-16363476D02*
X5119762Y-16363476D01*
X5138810Y-16373000D01*
X5148333Y-16382524D01*
X5157857Y-16401571D01*
X5167381Y-16439667D01*
X5167381Y-16487286D01*
X5157857Y-16525381D01*
X5148333Y-16544428D01*
X5138810Y-16553952D01*
X5119762Y-16563476D01*
X5100714Y-16563476D01*
X5081667Y-16553952D01*
X5072143Y-16544428D01*
X5062619Y-16525381D01*
X5053095Y-16487286D01*
X5053095Y-16439667D01*
X5062619Y-16401571D01*
X5072143Y-16382524D01*
X5081667Y-16373000D01*
X5100714Y-16363476D01*
X5253095Y-16544428D02*
X5262619Y-16553952D01*
X5253095Y-16563476D01*
X5243571Y-16553952D01*
X5253095Y-16544428D01*
X5253095Y-16563476D01*
X5434048Y-16363476D02*
X5395952Y-16363476D01*
X5376905Y-16373000D01*
X5367381Y-16382524D01*
X5348333Y-16411095D01*
X5338810Y-16449190D01*
X5338810Y-16525381D01*
X5348333Y-16544428D01*
X5357857Y-16553952D01*
X5376905Y-16563476D01*
X5415000Y-16563476D01*
X5434048Y-16553952D01*
X5443571Y-16544428D01*
X5453095Y-16525381D01*
X5453095Y-16477762D01*
X5443571Y-16458714D01*
X5434048Y-16449190D01*
X5415000Y-16439667D01*
X5376905Y-16439667D01*
X5357857Y-16449190D01*
X5348333Y-16458714D01*
X5338810Y-16477762D01*
X5576905Y-16363476D02*
X5595952Y-16363476D01*
X5615000Y-16373000D01*
X5624524Y-16382524D01*
X5634048Y-16401571D01*
X5643571Y-16439667D01*
X5643571Y-16487286D01*
X5634048Y-16525381D01*
X5624524Y-16544428D01*
X5615000Y-16553952D01*
X5595952Y-16563476D01*
X5576905Y-16563476D01*
X5557857Y-16553952D01*
X5548333Y-16544428D01*
X5538810Y-16525381D01*
X5529286Y-16487286D01*
X5529286Y-16439667D01*
X5538810Y-16401571D01*
X5548333Y-16382524D01*
X5557857Y-16373000D01*
X5576905Y-16363476D01*
X5767381Y-16363476D02*
X5786428Y-16363476D01*
X5805476Y-16373000D01*
X5815000Y-16382524D01*
X5824524Y-16401571D01*
X5834048Y-16439667D01*
X5834048Y-16487286D01*
X5824524Y-16525381D01*
X5815000Y-16544428D01*
X5805476Y-16553952D01*
X5786428Y-16563476D01*
X5767381Y-16563476D01*
X5748333Y-16553952D01*
X5738809Y-16544428D01*
X5729286Y-16525381D01*
X5719762Y-16487286D01*
X5719762Y-16439667D01*
X5729286Y-16401571D01*
X5738809Y-16382524D01*
X5748333Y-16373000D01*
X5767381Y-16363476D01*
X5919762Y-16563476D02*
X5919762Y-16430143D01*
X5919762Y-16449190D02*
X5929286Y-16439667D01*
X5948333Y-16430143D01*
X5976905Y-16430143D01*
X5995952Y-16439667D01*
X6005476Y-16458714D01*
X6005476Y-16563476D01*
X6005476Y-16458714D02*
X6015000Y-16439667D01*
X6034048Y-16430143D01*
X6062619Y-16430143D01*
X6081667Y-16439667D01*
X6091190Y-16458714D01*
X6091190Y-16563476D01*
X6186428Y-16563476D02*
X6186428Y-16430143D01*
X6186428Y-16449190D02*
X6195952Y-16439667D01*
X6215000Y-16430143D01*
X6243571Y-16430143D01*
X6262619Y-16439667D01*
X6272143Y-16458714D01*
X6272143Y-16563476D01*
X6272143Y-16458714D02*
X6281667Y-16439667D01*
X6300714Y-16430143D01*
X6329286Y-16430143D01*
X6348333Y-16439667D01*
X6357857Y-16458714D01*
X6357857Y-16563476D01*
X6748333Y-16353952D02*
X6576905Y-16611095D01*
X7005476Y-16363476D02*
X7024524Y-16363476D01*
X7043571Y-16373000D01*
X7053095Y-16382524D01*
X7062619Y-16401571D01*
X7072143Y-16439667D01*
X7072143Y-16487286D01*
X7062619Y-16525381D01*
X7053095Y-16544428D01*
X7043571Y-16553952D01*
X7024524Y-16563476D01*
X7005476Y-16563476D01*
X6986428Y-16553952D01*
X6976905Y-16544428D01*
X6967381Y-16525381D01*
X6957857Y-16487286D01*
X6957857Y-16439667D01*
X6967381Y-16401571D01*
X6976905Y-16382524D01*
X6986428Y-16373000D01*
X7005476Y-16363476D01*
X7157857Y-16544428D02*
X7167381Y-16553952D01*
X7157857Y-16563476D01*
X7148333Y-16553952D01*
X7157857Y-16544428D01*
X7157857Y-16563476D01*
X7291190Y-16363476D02*
X7310238Y-16363476D01*
X7329286Y-16373000D01*
X7338809Y-16382524D01*
X7348333Y-16401571D01*
X7357857Y-16439667D01*
X7357857Y-16487286D01*
X7348333Y-16525381D01*
X7338809Y-16544428D01*
X7329286Y-16553952D01*
X7310238Y-16563476D01*
X7291190Y-16563476D01*
X7272143Y-16553952D01*
X7262619Y-16544428D01*
X7253095Y-16525381D01*
X7243571Y-16487286D01*
X7243571Y-16439667D01*
X7253095Y-16401571D01*
X7262619Y-16382524D01*
X7272143Y-16373000D01*
X7291190Y-16363476D01*
X7434048Y-16382524D02*
X7443571Y-16373000D01*
X7462619Y-16363476D01*
X7510238Y-16363476D01*
X7529286Y-16373000D01*
X7538809Y-16382524D01*
X7548333Y-16401571D01*
X7548333Y-16420619D01*
X7538809Y-16449190D01*
X7424524Y-16563476D01*
X7548333Y-16563476D01*
X7615000Y-16363476D02*
X7738809Y-16363476D01*
X7672143Y-16439667D01*
X7700714Y-16439667D01*
X7719762Y-16449190D01*
X7729286Y-16458714D01*
X7738809Y-16477762D01*
X7738809Y-16525381D01*
X7729286Y-16544428D01*
X7719762Y-16553952D01*
X7700714Y-16563476D01*
X7643571Y-16563476D01*
X7624524Y-16553952D01*
X7615000Y-16544428D01*
X7910238Y-16363476D02*
X7872143Y-16363476D01*
X7853095Y-16373000D01*
X7843571Y-16382524D01*
X7824524Y-16411095D01*
X7815000Y-16449190D01*
X7815000Y-16525381D01*
X7824524Y-16544428D01*
X7834048Y-16553952D01*
X7853095Y-16563476D01*
X7891190Y-16563476D01*
X7910238Y-16553952D01*
X7919762Y-16544428D01*
X7929286Y-16525381D01*
X7929286Y-16477762D01*
X7919762Y-16458714D01*
X7910238Y-16449190D01*
X7891190Y-16439667D01*
X7853095Y-16439667D01*
X7834048Y-16449190D01*
X7824524Y-16458714D01*
X7815000Y-16477762D01*
X8005476Y-16363476D02*
X8005476Y-16401571D01*
X8081667Y-16363476D02*
X8081667Y-16401571D01*
X8376905Y-16639667D02*
X8367381Y-16630143D01*
X8348333Y-16601571D01*
X8338809Y-16582524D01*
X8329286Y-16553952D01*
X8319762Y-16506333D01*
X8319762Y-16468238D01*
X8329286Y-16420619D01*
X8338809Y-16392048D01*
X8348333Y-16373000D01*
X8367381Y-16344428D01*
X8376905Y-16334905D01*
X8491190Y-16363476D02*
X8510238Y-16363476D01*
X8529286Y-16373000D01*
X8538810Y-16382524D01*
X8548333Y-16401571D01*
X8557857Y-16439667D01*
X8557857Y-16487286D01*
X8548333Y-16525381D01*
X8538810Y-16544428D01*
X8529286Y-16553952D01*
X8510238Y-16563476D01*
X8491190Y-16563476D01*
X8472143Y-16553952D01*
X8462619Y-16544428D01*
X8453095Y-16525381D01*
X8443571Y-16487286D01*
X8443571Y-16439667D01*
X8453095Y-16401571D01*
X8462619Y-16382524D01*
X8472143Y-16373000D01*
X8491190Y-16363476D01*
X8795952Y-16563476D02*
X8795952Y-16363476D01*
X8881667Y-16563476D02*
X8881667Y-16458714D01*
X8872143Y-16439667D01*
X8853095Y-16430143D01*
X8824524Y-16430143D01*
X8805476Y-16439667D01*
X8795952Y-16449190D01*
X9005476Y-16563476D02*
X8986429Y-16553952D01*
X8976905Y-16544428D01*
X8967381Y-16525381D01*
X8967381Y-16468238D01*
X8976905Y-16449190D01*
X8986429Y-16439667D01*
X9005476Y-16430143D01*
X9034048Y-16430143D01*
X9053095Y-16439667D01*
X9062619Y-16449190D01*
X9072143Y-16468238D01*
X9072143Y-16525381D01*
X9062619Y-16544428D01*
X9053095Y-16553952D01*
X9034048Y-16563476D01*
X9005476Y-16563476D01*
X9186429Y-16563476D02*
X9167381Y-16553952D01*
X9157857Y-16534905D01*
X9157857Y-16363476D01*
X9338810Y-16553952D02*
X9319762Y-16563476D01*
X9281667Y-16563476D01*
X9262619Y-16553952D01*
X9253095Y-16534905D01*
X9253095Y-16458714D01*
X9262619Y-16439667D01*
X9281667Y-16430143D01*
X9319762Y-16430143D01*
X9338810Y-16439667D01*
X9348333Y-16458714D01*
X9348333Y-16477762D01*
X9253095Y-16496809D01*
X9424524Y-16553952D02*
X9443571Y-16563476D01*
X9481667Y-16563476D01*
X9500714Y-16553952D01*
X9510238Y-16534905D01*
X9510238Y-16525381D01*
X9500714Y-16506333D01*
X9481667Y-16496809D01*
X9453095Y-16496809D01*
X9434048Y-16487286D01*
X9424524Y-16468238D01*
X9424524Y-16458714D01*
X9434048Y-16439667D01*
X9453095Y-16430143D01*
X9481667Y-16430143D01*
X9500714Y-16439667D01*
X9748333Y-16487286D02*
X9900714Y-16487286D01*
X9824524Y-16563476D02*
X9824524Y-16411095D01*
X10234048Y-16430143D02*
X10234048Y-16563476D01*
X10186429Y-16353952D02*
X10138810Y-16496809D01*
X10262619Y-16496809D01*
X10481667Y-16553952D02*
X10500714Y-16563476D01*
X10538810Y-16563476D01*
X10557857Y-16553952D01*
X10567381Y-16534905D01*
X10567381Y-16525381D01*
X10557857Y-16506333D01*
X10538810Y-16496809D01*
X10510238Y-16496809D01*
X10491190Y-16487286D01*
X10481667Y-16468238D01*
X10481667Y-16458714D01*
X10491190Y-16439667D01*
X10510238Y-16430143D01*
X10538810Y-16430143D01*
X10557857Y-16439667D01*
X10681667Y-16563476D02*
X10662619Y-16553952D01*
X10653095Y-16534905D01*
X10653095Y-16363476D01*
X10786429Y-16563476D02*
X10767381Y-16553952D01*
X10757857Y-16544428D01*
X10748333Y-16525381D01*
X10748333Y-16468238D01*
X10757857Y-16449190D01*
X10767381Y-16439667D01*
X10786429Y-16430143D01*
X10815000Y-16430143D01*
X10834048Y-16439667D01*
X10843571Y-16449190D01*
X10853095Y-16468238D01*
X10853095Y-16525381D01*
X10843571Y-16544428D01*
X10834048Y-16553952D01*
X10815000Y-16563476D01*
X10786429Y-16563476D01*
X10910238Y-16430143D02*
X10986429Y-16430143D01*
X10938810Y-16363476D02*
X10938810Y-16534905D01*
X10948333Y-16553952D01*
X10967381Y-16563476D01*
X10986429Y-16563476D01*
X11043571Y-16553952D02*
X11062619Y-16563476D01*
X11100714Y-16563476D01*
X11119762Y-16553952D01*
X11129286Y-16534905D01*
X11129286Y-16525381D01*
X11119762Y-16506333D01*
X11100714Y-16496809D01*
X11072143Y-16496809D01*
X11053095Y-16487286D01*
X11043571Y-16468238D01*
X11043571Y-16458714D01*
X11053095Y-16439667D01*
X11072143Y-16430143D01*
X11100714Y-16430143D01*
X11119762Y-16439667D01*
X11195952Y-16639667D02*
X11205476Y-16630143D01*
X11224524Y-16601571D01*
X11234048Y-16582524D01*
X11243571Y-16553952D01*
X11253095Y-16506333D01*
X11253095Y-16468238D01*
X11243571Y-16420619D01*
X11234048Y-16392048D01*
X11224524Y-16373000D01*
X11205476Y-16344428D01*
X11195952Y-16334905D01*
D15*
X4790356Y-16772356D02*
X4790356Y-16701644D01*
X4719644Y-16701644D01*
X4719644Y-16772356D01*
X4790356Y-16772356D01*
D11*
X5167381Y-16827476D02*
X5053095Y-16827476D01*
X5110238Y-16827476D02*
X5110238Y-16627476D01*
X5091190Y-16656048D01*
X5072143Y-16675095D01*
X5053095Y-16684619D01*
X5253095Y-16808429D02*
X5262619Y-16817952D01*
X5253095Y-16827476D01*
X5243571Y-16817952D01*
X5253095Y-16808429D01*
X5253095Y-16827476D01*
X5386429Y-16627476D02*
X5405476Y-16627476D01*
X5424524Y-16637000D01*
X5434048Y-16646524D01*
X5443571Y-16665571D01*
X5453095Y-16703667D01*
X5453095Y-16751286D01*
X5443571Y-16789381D01*
X5434048Y-16808429D01*
X5424524Y-16817952D01*
X5405476Y-16827476D01*
X5386429Y-16827476D01*
X5367381Y-16817952D01*
X5357857Y-16808429D01*
X5348333Y-16789381D01*
X5338810Y-16751286D01*
X5338810Y-16703667D01*
X5348333Y-16665571D01*
X5357857Y-16646524D01*
X5367381Y-16637000D01*
X5386429Y-16627476D01*
X5576905Y-16627476D02*
X5595952Y-16627476D01*
X5615000Y-16637000D01*
X5624524Y-16646524D01*
X5634048Y-16665571D01*
X5643571Y-16703667D01*
X5643571Y-16751286D01*
X5634048Y-16789381D01*
X5624524Y-16808429D01*
X5615000Y-16817952D01*
X5595952Y-16827476D01*
X5576905Y-16827476D01*
X5557857Y-16817952D01*
X5548333Y-16808429D01*
X5538810Y-16789381D01*
X5529286Y-16751286D01*
X5529286Y-16703667D01*
X5538810Y-16665571D01*
X5548333Y-16646524D01*
X5557857Y-16637000D01*
X5576905Y-16627476D01*
X5767381Y-16627476D02*
X5786428Y-16627476D01*
X5805476Y-16637000D01*
X5815000Y-16646524D01*
X5824524Y-16665571D01*
X5834048Y-16703667D01*
X5834048Y-16751286D01*
X5824524Y-16789381D01*
X5815000Y-16808429D01*
X5805476Y-16817952D01*
X5786428Y-16827476D01*
X5767381Y-16827476D01*
X5748333Y-16817952D01*
X5738809Y-16808429D01*
X5729286Y-16789381D01*
X5719762Y-16751286D01*
X5719762Y-16703667D01*
X5729286Y-16665571D01*
X5738809Y-16646524D01*
X5748333Y-16637000D01*
X5767381Y-16627476D01*
X5919762Y-16827476D02*
X5919762Y-16694143D01*
X5919762Y-16713190D02*
X5929286Y-16703667D01*
X5948333Y-16694143D01*
X5976905Y-16694143D01*
X5995952Y-16703667D01*
X6005476Y-16722714D01*
X6005476Y-16827476D01*
X6005476Y-16722714D02*
X6015000Y-16703667D01*
X6034048Y-16694143D01*
X6062619Y-16694143D01*
X6081667Y-16703667D01*
X6091190Y-16722714D01*
X6091190Y-16827476D01*
X6186428Y-16827476D02*
X6186428Y-16694143D01*
X6186428Y-16713190D02*
X6195952Y-16703667D01*
X6215000Y-16694143D01*
X6243571Y-16694143D01*
X6262619Y-16703667D01*
X6272143Y-16722714D01*
X6272143Y-16827476D01*
X6272143Y-16722714D02*
X6281667Y-16703667D01*
X6300714Y-16694143D01*
X6329286Y-16694143D01*
X6348333Y-16703667D01*
X6357857Y-16722714D01*
X6357857Y-16827476D01*
X6748333Y-16617952D02*
X6576905Y-16875095D01*
X7005476Y-16627476D02*
X7024524Y-16627476D01*
X7043571Y-16637000D01*
X7053095Y-16646524D01*
X7062619Y-16665571D01*
X7072143Y-16703667D01*
X7072143Y-16751286D01*
X7062619Y-16789381D01*
X7053095Y-16808429D01*
X7043571Y-16817952D01*
X7024524Y-16827476D01*
X7005476Y-16827476D01*
X6986428Y-16817952D01*
X6976905Y-16808429D01*
X6967381Y-16789381D01*
X6957857Y-16751286D01*
X6957857Y-16703667D01*
X6967381Y-16665571D01*
X6976905Y-16646524D01*
X6986428Y-16637000D01*
X7005476Y-16627476D01*
X7157857Y-16808429D02*
X7167381Y-16817952D01*
X7157857Y-16827476D01*
X7148333Y-16817952D01*
X7157857Y-16808429D01*
X7157857Y-16827476D01*
X7291190Y-16627476D02*
X7310238Y-16627476D01*
X7329286Y-16637000D01*
X7338809Y-16646524D01*
X7348333Y-16665571D01*
X7357857Y-16703667D01*
X7357857Y-16751286D01*
X7348333Y-16789381D01*
X7338809Y-16808429D01*
X7329286Y-16817952D01*
X7310238Y-16827476D01*
X7291190Y-16827476D01*
X7272143Y-16817952D01*
X7262619Y-16808429D01*
X7253095Y-16789381D01*
X7243571Y-16751286D01*
X7243571Y-16703667D01*
X7253095Y-16665571D01*
X7262619Y-16646524D01*
X7272143Y-16637000D01*
X7291190Y-16627476D01*
X7424524Y-16627476D02*
X7548333Y-16627476D01*
X7481667Y-16703667D01*
X7510238Y-16703667D01*
X7529286Y-16713190D01*
X7538809Y-16722714D01*
X7548333Y-16741762D01*
X7548333Y-16789381D01*
X7538809Y-16808429D01*
X7529286Y-16817952D01*
X7510238Y-16827476D01*
X7453095Y-16827476D01*
X7434048Y-16817952D01*
X7424524Y-16808429D01*
X7643571Y-16827476D02*
X7681667Y-16827476D01*
X7700714Y-16817952D01*
X7710238Y-16808429D01*
X7729286Y-16779857D01*
X7738809Y-16741762D01*
X7738809Y-16665571D01*
X7729286Y-16646524D01*
X7719762Y-16637000D01*
X7700714Y-16627476D01*
X7662619Y-16627476D01*
X7643571Y-16637000D01*
X7634048Y-16646524D01*
X7624524Y-16665571D01*
X7624524Y-16713190D01*
X7634048Y-16732238D01*
X7643571Y-16741762D01*
X7662619Y-16751286D01*
X7700714Y-16751286D01*
X7719762Y-16741762D01*
X7729286Y-16732238D01*
X7738809Y-16713190D01*
X7910238Y-16694143D02*
X7910238Y-16827476D01*
X7862619Y-16617952D02*
X7815000Y-16760809D01*
X7938809Y-16760809D01*
X8005476Y-16627476D02*
X8005476Y-16665571D01*
X8081667Y-16627476D02*
X8081667Y-16665571D01*
X8376905Y-16903667D02*
X8367381Y-16894143D01*
X8348333Y-16865571D01*
X8338809Y-16846524D01*
X8329286Y-16817952D01*
X8319762Y-16770333D01*
X8319762Y-16732238D01*
X8329286Y-16684619D01*
X8338809Y-16656048D01*
X8348333Y-16637000D01*
X8367381Y-16608428D01*
X8376905Y-16598905D01*
X8434048Y-16627476D02*
X8567381Y-16627476D01*
X8481667Y-16827476D01*
X8795952Y-16827476D02*
X8795952Y-16627476D01*
X8881667Y-16827476D02*
X8881667Y-16722714D01*
X8872143Y-16703667D01*
X8853095Y-16694143D01*
X8824524Y-16694143D01*
X8805476Y-16703667D01*
X8795952Y-16713190D01*
X9005476Y-16827476D02*
X8986429Y-16817952D01*
X8976905Y-16808429D01*
X8967381Y-16789381D01*
X8967381Y-16732238D01*
X8976905Y-16713190D01*
X8986429Y-16703667D01*
X9005476Y-16694143D01*
X9034048Y-16694143D01*
X9053095Y-16703667D01*
X9062619Y-16713190D01*
X9072143Y-16732238D01*
X9072143Y-16789381D01*
X9062619Y-16808429D01*
X9053095Y-16817952D01*
X9034048Y-16827476D01*
X9005476Y-16827476D01*
X9186429Y-16827476D02*
X9167381Y-16817952D01*
X9157857Y-16798905D01*
X9157857Y-16627476D01*
X9338810Y-16817952D02*
X9319762Y-16827476D01*
X9281667Y-16827476D01*
X9262619Y-16817952D01*
X9253095Y-16798905D01*
X9253095Y-16722714D01*
X9262619Y-16703667D01*
X9281667Y-16694143D01*
X9319762Y-16694143D01*
X9338810Y-16703667D01*
X9348333Y-16722714D01*
X9348333Y-16741762D01*
X9253095Y-16760809D01*
X9424524Y-16817952D02*
X9443571Y-16827476D01*
X9481667Y-16827476D01*
X9500714Y-16817952D01*
X9510238Y-16798905D01*
X9510238Y-16789381D01*
X9500714Y-16770333D01*
X9481667Y-16760809D01*
X9453095Y-16760809D01*
X9434048Y-16751286D01*
X9424524Y-16732238D01*
X9424524Y-16722714D01*
X9434048Y-16703667D01*
X9453095Y-16694143D01*
X9481667Y-16694143D01*
X9500714Y-16703667D01*
X9576905Y-16903667D02*
X9586429Y-16894143D01*
X9605476Y-16865571D01*
X9615000Y-16846524D01*
X9624524Y-16817952D01*
X9634048Y-16770333D01*
X9634048Y-16732238D01*
X9624524Y-16684619D01*
X9615000Y-16656048D01*
X9605476Y-16637000D01*
X9586429Y-16608428D01*
X9576905Y-16598905D01*
M02*
