G04 #@! TF.GenerationSoftware,KiCad,Pcbnew,(6.0.1)*
G04 #@! TF.CreationDate,2023-03-18T21:32:40+01:00*
G04 #@! TF.ProjectId,usb-magnetometer,7573622d-6d61-4676-9e65-746f6d657465,rev?*
G04 #@! TF.SameCoordinates,Original*
G04 #@! TF.FileFunction,Legend,Bot*
G04 #@! TF.FilePolarity,Positive*
%FSLAX46Y46*%
G04 Gerber Fmt 4.6, Leading zero omitted, Abs format (unit mm)*
G04 Created by KiCad (PCBNEW (6.0.1)) date 2023-03-18 21:32:40*
%MOMM*%
%LPD*%
G01*
G04 APERTURE LIST*
%ADD10C,0.100000*%
%ADD11C,0.120000*%
%ADD12O,0.600000X0.850000*%
%ADD13C,0.600000*%
%ADD14O,2.600000X1.300000*%
%ADD15O,2.300000X1.300000*%
%ADD16R,0.850000X0.850000*%
%ADD17O,0.850000X0.850000*%
%ADD18R,1.700000X1.700000*%
%ADD19O,1.700000X1.700000*%
%ADD20C,1.000000*%
%ADD21R,1.300000X0.300000*%
%ADD22R,2.200000X1.800000*%
G04 APERTURE END LIST*
D10*
X71157142Y-143471428D02*
X70814285Y-143471428D01*
X70985714Y-144071428D02*
X70985714Y-143471428D01*
X70614285Y-144071428D02*
X70614285Y-143471428D01*
X70385714Y-143471428D01*
X70328571Y-143500000D01*
X70300000Y-143528571D01*
X70271428Y-143585714D01*
X70271428Y-143671428D01*
X70300000Y-143728571D01*
X70328571Y-143757142D01*
X70385714Y-143785714D01*
X70614285Y-143785714D01*
X70042857Y-143528571D02*
X70014285Y-143500000D01*
X69957142Y-143471428D01*
X69814285Y-143471428D01*
X69757142Y-143500000D01*
X69728571Y-143528571D01*
X69700000Y-143585714D01*
X69700000Y-143642857D01*
X69728571Y-143728571D01*
X70071428Y-144071428D01*
X69700000Y-144071428D01*
X83257142Y-139371428D02*
X82914285Y-139371428D01*
X83085714Y-139971428D02*
X83085714Y-139371428D01*
X82714285Y-139971428D02*
X82714285Y-139371428D01*
X82485714Y-139371428D01*
X82428571Y-139400000D01*
X82400000Y-139428571D01*
X82371428Y-139485714D01*
X82371428Y-139571428D01*
X82400000Y-139628571D01*
X82428571Y-139657142D01*
X82485714Y-139685714D01*
X82714285Y-139685714D01*
X82085714Y-139971428D02*
X81971428Y-139971428D01*
X81914285Y-139942857D01*
X81885714Y-139914285D01*
X81828571Y-139828571D01*
X81800000Y-139714285D01*
X81800000Y-139485714D01*
X81828571Y-139428571D01*
X81857142Y-139400000D01*
X81914285Y-139371428D01*
X82028571Y-139371428D01*
X82085714Y-139400000D01*
X82114285Y-139428571D01*
X82142857Y-139485714D01*
X82142857Y-139628571D01*
X82114285Y-139685714D01*
X82085714Y-139714285D01*
X82028571Y-139742857D01*
X81914285Y-139742857D01*
X81857142Y-139714285D01*
X81828571Y-139685714D01*
X81800000Y-139628571D01*
X75757142Y-143571428D02*
X75414285Y-143571428D01*
X75585714Y-144171428D02*
X75585714Y-143571428D01*
X75214285Y-144171428D02*
X75214285Y-143571428D01*
X74985714Y-143571428D01*
X74928571Y-143600000D01*
X74900000Y-143628571D01*
X74871428Y-143685714D01*
X74871428Y-143771428D01*
X74900000Y-143828571D01*
X74928571Y-143857142D01*
X74985714Y-143885714D01*
X75214285Y-143885714D01*
X74671428Y-143571428D02*
X74271428Y-143571428D01*
X74528571Y-144171428D01*
X83507142Y-146873428D02*
X83164285Y-146873428D01*
X83335714Y-147473428D02*
X83335714Y-146873428D01*
X82964285Y-147473428D02*
X82964285Y-146873428D01*
X82735714Y-146873428D01*
X82678571Y-146902000D01*
X82650000Y-146930571D01*
X82621428Y-146987714D01*
X82621428Y-147073428D01*
X82650000Y-147130571D01*
X82678571Y-147159142D01*
X82735714Y-147187714D01*
X82964285Y-147187714D01*
X82107142Y-146873428D02*
X82221428Y-146873428D01*
X82278571Y-146902000D01*
X82307142Y-146930571D01*
X82364285Y-147016285D01*
X82392857Y-147130571D01*
X82392857Y-147359142D01*
X82364285Y-147416285D01*
X82335714Y-147444857D01*
X82278571Y-147473428D01*
X82164285Y-147473428D01*
X82107142Y-147444857D01*
X82078571Y-147416285D01*
X82050000Y-147359142D01*
X82050000Y-147216285D01*
X82078571Y-147159142D01*
X82107142Y-147130571D01*
X82164285Y-147102000D01*
X82278571Y-147102000D01*
X82335714Y-147130571D01*
X82364285Y-147159142D01*
X82392857Y-147216285D01*
X106321428Y-143100000D02*
X106750000Y-143100000D01*
X106835714Y-143071428D01*
X106892857Y-143014285D01*
X106921428Y-142928571D01*
X106921428Y-142871428D01*
X106521428Y-143642857D02*
X106921428Y-143642857D01*
X106292857Y-143500000D02*
X106721428Y-143357142D01*
X106721428Y-143728571D01*
X75757142Y-141271428D02*
X75414285Y-141271428D01*
X75585714Y-141871428D02*
X75585714Y-141271428D01*
X75214285Y-141871428D02*
X75214285Y-141271428D01*
X74985714Y-141271428D01*
X74928571Y-141300000D01*
X74900000Y-141328571D01*
X74871428Y-141385714D01*
X74871428Y-141471428D01*
X74900000Y-141528571D01*
X74928571Y-141557142D01*
X74985714Y-141585714D01*
X75214285Y-141585714D01*
X74300000Y-141871428D02*
X74642857Y-141871428D01*
X74471428Y-141871428D02*
X74471428Y-141271428D01*
X74528571Y-141357142D01*
X74585714Y-141414285D01*
X74642857Y-141442857D01*
X81257142Y-139371428D02*
X80914285Y-139371428D01*
X81085714Y-139971428D02*
X81085714Y-139371428D01*
X80714285Y-139971428D02*
X80714285Y-139371428D01*
X80485714Y-139371428D01*
X80428571Y-139400000D01*
X80400000Y-139428571D01*
X80371428Y-139485714D01*
X80371428Y-139571428D01*
X80400000Y-139628571D01*
X80428571Y-139657142D01*
X80485714Y-139685714D01*
X80714285Y-139685714D01*
X80028571Y-139628571D02*
X80085714Y-139600000D01*
X80114285Y-139571428D01*
X80142857Y-139514285D01*
X80142857Y-139485714D01*
X80114285Y-139428571D01*
X80085714Y-139400000D01*
X80028571Y-139371428D01*
X79914285Y-139371428D01*
X79857142Y-139400000D01*
X79828571Y-139428571D01*
X79800000Y-139485714D01*
X79800000Y-139514285D01*
X79828571Y-139571428D01*
X79857142Y-139600000D01*
X79914285Y-139628571D01*
X80028571Y-139628571D01*
X80085714Y-139657142D01*
X80114285Y-139685714D01*
X80142857Y-139742857D01*
X80142857Y-139857142D01*
X80114285Y-139914285D01*
X80085714Y-139942857D01*
X80028571Y-139971428D01*
X79914285Y-139971428D01*
X79857142Y-139942857D01*
X79828571Y-139914285D01*
X79800000Y-139857142D01*
X79800000Y-139742857D01*
X79828571Y-139685714D01*
X79857142Y-139657142D01*
X79914285Y-139628571D01*
X85271428Y-143100000D02*
X85700000Y-143100000D01*
X85785714Y-143071428D01*
X85842857Y-143014285D01*
X85871428Y-142928571D01*
X85871428Y-142871428D01*
X85271428Y-143671428D02*
X85271428Y-143385714D01*
X85557142Y-143357142D01*
X85528571Y-143385714D01*
X85500000Y-143442857D01*
X85500000Y-143585714D01*
X85528571Y-143642857D01*
X85557142Y-143671428D01*
X85614285Y-143700000D01*
X85757142Y-143700000D01*
X85814285Y-143671428D01*
X85842857Y-143642857D01*
X85871428Y-143585714D01*
X85871428Y-143442857D01*
X85842857Y-143385714D01*
X85814285Y-143357142D01*
X69300000Y-143850000D02*
G75*
G03*
X69300000Y-143850000I-700000J0D01*
G01*
X83200000Y-141100000D02*
G75*
G03*
X83200000Y-141100000I-700000J0D01*
G01*
X73900000Y-143900000D02*
G75*
G03*
X73900000Y-143900000I-700000J0D01*
G01*
X83450000Y-148650000D02*
G75*
G03*
X83450000Y-148650000I-700000J0D01*
G01*
D11*
X104250000Y-141140000D02*
X104250000Y-139650000D01*
X104250000Y-145460000D02*
X104250000Y-146950000D01*
X104250000Y-146950000D02*
X102910000Y-146950000D01*
X104250000Y-139650000D02*
X102910000Y-139650000D01*
X104250000Y-145460000D02*
X105450000Y-145460000D01*
X100190000Y-146950000D02*
X98450000Y-146950000D01*
X98450000Y-146950000D02*
X98450000Y-139650000D01*
X98450000Y-139650000D02*
X100190000Y-139650000D01*
D10*
X73950000Y-141600000D02*
G75*
G03*
X73950000Y-141600000I-700000J0D01*
G01*
X81200000Y-141100000D02*
G75*
G03*
X81200000Y-141100000I-700000J0D01*
G01*
D11*
X88000000Y-146950000D02*
X89340000Y-146950000D01*
X88000000Y-139650000D02*
X89340000Y-139650000D01*
X88000000Y-145460000D02*
X88000000Y-146950000D01*
X92060000Y-139650000D02*
X93800000Y-139650000D01*
X93800000Y-146950000D02*
X92060000Y-146950000D01*
X93800000Y-139650000D02*
X93800000Y-146950000D01*
X88000000Y-141140000D02*
X86800000Y-141140000D01*
X88000000Y-141140000D02*
X88000000Y-139650000D01*
%LPC*%
D12*
X52900000Y-146100000D03*
D13*
X52900000Y-140100000D03*
D14*
X49800000Y-147420000D03*
D15*
X53625000Y-147420000D03*
D14*
X49800000Y-138780000D03*
D15*
X53625000Y-138780000D03*
D16*
X98300000Y-139800000D03*
D17*
X99300000Y-139800000D03*
X98300000Y-140800000D03*
X99300000Y-140800000D03*
X98300000Y-141800000D03*
X99300000Y-141800000D03*
X98300000Y-142800000D03*
X99300000Y-142800000D03*
D16*
X91400000Y-141800000D03*
D17*
X92400000Y-141800000D03*
X91400000Y-142800000D03*
X92400000Y-142800000D03*
X91400000Y-143800000D03*
X92400000Y-143800000D03*
X91400000Y-144800000D03*
X92400000Y-144800000D03*
D18*
X63325000Y-135600000D03*
D19*
X65865000Y-135600000D03*
X68405000Y-135600000D03*
X70945000Y-135600000D03*
X73485000Y-135600000D03*
D18*
X82025000Y-135650000D03*
D19*
X84565000Y-135650000D03*
D20*
X68600000Y-143850000D03*
X82500000Y-141100000D03*
X73200000Y-143900000D03*
X82750000Y-148650000D03*
D21*
X104800000Y-145050000D03*
X104800000Y-144550000D03*
X104800000Y-144050000D03*
X104800000Y-143550000D03*
X104800000Y-143050000D03*
X104800000Y-142550000D03*
X104800000Y-142050000D03*
X104800000Y-141550000D03*
D22*
X101550000Y-146950000D03*
X101550000Y-139650000D03*
D20*
X73250000Y-141600000D03*
X80500000Y-141100000D03*
D21*
X87450000Y-141550000D03*
X87450000Y-142050000D03*
X87450000Y-142550000D03*
X87450000Y-143050000D03*
X87450000Y-143550000D03*
X87450000Y-144050000D03*
X87450000Y-144550000D03*
X87450000Y-145050000D03*
D22*
X90700000Y-139650000D03*
X90700000Y-146950000D03*
M02*
