M48
; DRILL file {KiCad (6.0.1)} date Sat Mar 18 21:32:49 2023
; FORMAT={-:-/ absolute / metric / decimal}
; #@! TF.CreationDate,2023-03-18T21:32:49+01:00
; #@! TF.GenerationSoftware,Kicad,Pcbnew,(6.0.1)
; #@! TF.FileFunction,Plated,1,4,PTH
FMAT,2
METRIC
; #@! TA.AperFunction,Plated,PTH,ViaDrill
T1C0.300
; #@! TA.AperFunction,Plated,PTH,ComponentDrill
T2C0.500
; #@! TA.AperFunction,Plated,PTH,ComponentDrill
T3C0.600
; #@! TA.AperFunction,Plated,PTH,ComponentDrill
T4C1.000
%
G90
G05
T1
X50.0Y-137.6
X50.0Y-140.0
X50.0Y-143.1
X50.0Y-146.0
X50.0Y-148.8
X51.8Y-134.0
X51.8Y-136.7
X52.0Y-145.8
X52.0Y-149.0
X52.0Y-151.0
X52.05Y-152.3
X52.1Y-140.95
X52.1Y-143.85
X52.1Y-145.05
X52.15Y-142.2
X52.85Y-140.95
X52.874Y-145.053
X54.05Y-152.3
X55.15Y-145.6
X55.35Y-140.65
X56.0Y-134.0
X56.0Y-136.0
X56.0Y-151.0
X56.05Y-152.3
X56.75Y-139.5
X56.75Y-147.5
X57.05Y-144.6
X57.1Y-142.45
X57.5Y-149.0
X57.5Y-150.0
X58.0Y-134.0
X58.0Y-136.0
X58.0Y-138.0
X58.0Y-139.5
X58.05Y-152.3
X58.5Y-149.0
X58.5Y-150.0
X59.1Y-140.85
X59.999Y-150.991
X60.0Y-134.0
X60.0Y-136.0
X60.0Y-138.0
X60.05Y-152.3
X60.1Y-145.3
X62.0Y-134.0
X62.0Y-138.0
X62.0Y-140.0
X62.0Y-142.0
X62.05Y-152.3
X63.35Y-144.7
X64.0Y-134.0
X64.0Y-138.0
X64.0Y-140.0
X64.0Y-142.0
X64.0Y-151.0
X64.05Y-152.3
X65.737Y-148.891
X65.8Y-144.5
X65.8Y-145.1
X66.0Y-134.0
X66.05Y-152.3
X67.0Y-147.25
X67.05Y-141.85
X67.5Y-148.4
X67.8Y-144.85
X68.0Y-134.0
X68.05Y-152.3
X68.325Y-147.6
X68.6Y-143.85
X68.825Y-146.0
X69.85Y-140.85
X69.95Y-150.4
X70.0Y-134.0
X70.05Y-152.3
X71.304Y-143.475
X71.8Y-150.4
X71.85Y-140.85
X72.0Y-134.0
X72.05Y-142.3
X72.05Y-152.3
X72.5Y-145.9
X72.5Y-146.8
X72.5Y-147.6
X73.2Y-143.925
X73.25Y-141.6
X73.3Y-137.5
X73.5Y-146.8
X73.5Y-147.6
X73.65Y-145.8
X73.75Y-150.4
X74.0Y-134.0
X74.05Y-152.3
X75.265Y-143.674
X75.6Y-147.6
X75.65Y-150.4
X76.0Y-134.0
X76.0Y-136.0
X76.05Y-152.3
X76.3Y-149.582
X77.0Y-148.3
X77.4Y-147.5
X77.7Y-136.55
X77.9Y-145.0
X77.908Y-143.43
X77.95Y-150.4
X78.0Y-134.0
X78.05Y-152.3
X78.6Y-136.55
X79.4Y-144.2
X80.0Y-134.0
X80.05Y-152.3
X80.5Y-135.0
X80.5Y-136.0
X80.5Y-141.1
X80.9Y-146.2
X81.2Y-151.5
X81.5Y-137.0
X82.0Y-134.0
X82.0Y-143.0
X82.05Y-152.3
X82.1Y-151.5
X82.5Y-137.0
X82.5Y-141.1
X82.724Y-148.664
X83.0Y-145.0
X83.6Y-143.8
X84.0Y-134.0
X84.0Y-137.0
X84.05Y-152.3
X85.0Y-137.0
X85.1Y-138.35
X86.0Y-134.0
X86.0Y-135.0
X86.0Y-136.0
X86.1Y-144.5
X86.2Y-142.6
X86.4Y-138.35
X86.4Y-146.7
X87.6Y-145.8
X88.0Y-134.0
X88.0Y-136.0
X88.0Y-138.0
X88.05Y-152.3
X88.5Y-146.6
X89.0Y-141.624
X89.3Y-145.1
X89.5Y-150.5
X89.7Y-143.7
X90.0Y-136.0
X90.0Y-138.0
X90.3Y-145.1
X91.5Y-148.5
X91.5Y-150.5
X98.0Y-145.6
X98.0Y-147.6
X99.7Y-146.4
X99.7Y-147.2
X103.673Y-142.253
X103.794Y-143.55
X103.794Y-144.55
X103.983Y-141.38
X104.0Y-147.6
X104.1Y-138.976
X104.893Y-140.76
X105.0Y-146.5
X105.095Y-139.986
X106.0Y-145.4
X106.0Y-147.6
X106.3Y-144.6
X106.4Y-139.0
X106.7Y-144.0
T2
X91.4Y-141.8
X91.4Y-142.8
X91.4Y-143.8
X91.4Y-144.8
X92.4Y-141.8
X92.4Y-142.8
X92.4Y-143.8
X92.4Y-144.8
X98.3Y-139.8
X98.3Y-140.8
X98.3Y-141.8
X98.3Y-142.8
X99.3Y-139.8
X99.3Y-140.8
X99.3Y-141.8
X99.3Y-142.8
T4
X63.325Y-135.6
X65.865Y-135.6
X68.405Y-135.6
X70.945Y-135.6
X73.485Y-135.6
X82.025Y-135.65
X84.565Y-135.65
T3
X50.45Y-138.78G85X49.15Y-138.78
G05
X50.45Y-147.42G85X49.15Y-147.42
G05
X54.125Y-138.78G85X53.125Y-138.78
G05
X54.125Y-147.42G85X53.125Y-147.42
G05
T0
M30
