G04 #@! TF.GenerationSoftware,KiCad,Pcbnew,(6.0.1)*
G04 #@! TF.CreationDate,2023-03-18T21:32:40+01:00*
G04 #@! TF.ProjectId,usb-magnetometer,7573622d-6d61-4676-9e65-746f6d657465,rev?*
G04 #@! TF.SameCoordinates,Original*
G04 #@! TF.FileFunction,Copper,L4,Bot*
G04 #@! TF.FilePolarity,Positive*
%FSLAX46Y46*%
G04 Gerber Fmt 4.6, Leading zero omitted, Abs format (unit mm)*
G04 Created by KiCad (PCBNEW (6.0.1)) date 2023-03-18 21:32:40*
%MOMM*%
%LPD*%
G01*
G04 APERTURE LIST*
G04 #@! TA.AperFunction,ComponentPad*
%ADD10O,2.600000X1.300000*%
G04 #@! TD*
G04 #@! TA.AperFunction,ComponentPad*
%ADD11O,2.300000X1.300000*%
G04 #@! TD*
G04 #@! TA.AperFunction,ComponentPad*
%ADD12R,0.850000X0.850000*%
G04 #@! TD*
G04 #@! TA.AperFunction,ComponentPad*
%ADD13O,0.850000X0.850000*%
G04 #@! TD*
G04 #@! TA.AperFunction,ComponentPad*
%ADD14R,1.700000X1.700000*%
G04 #@! TD*
G04 #@! TA.AperFunction,ComponentPad*
%ADD15O,1.700000X1.700000*%
G04 #@! TD*
G04 #@! TA.AperFunction,SMDPad,CuDef*
%ADD16C,1.000000*%
G04 #@! TD*
G04 #@! TA.AperFunction,SMDPad,CuDef*
%ADD17R,1.300000X0.300000*%
G04 #@! TD*
G04 #@! TA.AperFunction,SMDPad,CuDef*
%ADD18R,2.200000X1.800000*%
G04 #@! TD*
G04 #@! TA.AperFunction,ViaPad*
%ADD19C,0.600000*%
G04 #@! TD*
G04 #@! TA.AperFunction,Conductor*
%ADD20C,0.250000*%
G04 #@! TD*
G04 APERTURE END LIST*
D10*
X49800000Y-147420000D03*
D11*
X53625000Y-147420000D03*
D10*
X49800000Y-138780000D03*
D11*
X53625000Y-138780000D03*
D12*
X98300000Y-139800000D03*
D13*
X99300000Y-139800000D03*
X98300000Y-140800000D03*
X99300000Y-140800000D03*
X98300000Y-141800000D03*
X99300000Y-141800000D03*
X98300000Y-142800000D03*
X99300000Y-142800000D03*
D12*
X91400000Y-141800000D03*
D13*
X92400000Y-141800000D03*
X91400000Y-142800000D03*
X92400000Y-142800000D03*
X91400000Y-143800000D03*
X92400000Y-143800000D03*
X91400000Y-144800000D03*
X92400000Y-144800000D03*
D14*
X63325000Y-135600000D03*
D15*
X65865000Y-135600000D03*
X68405000Y-135600000D03*
X70945000Y-135600000D03*
X73485000Y-135600000D03*
D14*
X82025000Y-135650000D03*
D15*
X84565000Y-135650000D03*
D16*
X68600000Y-143850000D03*
X82500000Y-141100000D03*
X73200000Y-143900000D03*
X82750000Y-148650000D03*
D17*
X104800000Y-145050000D03*
X104800000Y-144550000D03*
X104800000Y-144050000D03*
X104800000Y-143550000D03*
X104800000Y-143050000D03*
X104800000Y-142550000D03*
X104800000Y-142050000D03*
X104800000Y-141550000D03*
D18*
X101550000Y-146950000D03*
X101550000Y-139650000D03*
D16*
X73250000Y-141600000D03*
X80500000Y-141100000D03*
D17*
X87450000Y-141550000D03*
X87450000Y-142050000D03*
X87450000Y-142550000D03*
X87450000Y-143050000D03*
X87450000Y-143550000D03*
X87450000Y-144050000D03*
X87450000Y-144550000D03*
X87450000Y-145050000D03*
D18*
X90700000Y-139650000D03*
X90700000Y-146950000D03*
D19*
X89700000Y-143700000D03*
X62000000Y-142000000D03*
X89500000Y-150500000D03*
X69850000Y-140850000D03*
X86000000Y-136000000D03*
X58050000Y-152300000D03*
X88000000Y-136000000D03*
X71850000Y-140850000D03*
X76000000Y-136000000D03*
X68000000Y-134000000D03*
X60050000Y-152300000D03*
X86000000Y-134000000D03*
X72000000Y-134000000D03*
X56000000Y-136000000D03*
X78050000Y-152300000D03*
X57100000Y-142450000D03*
X88050000Y-152300000D03*
X74000000Y-134000000D03*
X64000000Y-142000000D03*
X50000000Y-148800000D03*
X56050000Y-152300000D03*
X60000000Y-138000000D03*
X86400000Y-146700000D03*
X60000000Y-136000000D03*
X73650000Y-145800000D03*
X78000000Y-134000000D03*
X58000000Y-139500000D03*
X56750000Y-139500000D03*
X90000000Y-138000000D03*
X88000000Y-134000000D03*
X50000000Y-146000000D03*
X52050000Y-152300000D03*
X54050000Y-152300000D03*
X83000000Y-145000000D03*
X80000000Y-134000000D03*
X75650000Y-150400000D03*
X62050000Y-152300000D03*
X51800000Y-134000000D03*
X73750000Y-150400000D03*
X52150000Y-142200000D03*
X67800000Y-144850000D03*
X66000000Y-134000000D03*
X72050000Y-142300000D03*
X74050000Y-152300000D03*
X88000000Y-138000000D03*
X60100000Y-145300000D03*
X82000000Y-143000000D03*
X56000000Y-134000000D03*
X81200000Y-151500000D03*
X80050000Y-152300000D03*
X58000000Y-136000000D03*
X56750000Y-147500000D03*
X50000000Y-143100000D03*
X64000000Y-134000000D03*
X72050000Y-152300000D03*
X63350000Y-144700000D03*
X57050000Y-144600000D03*
X79400000Y-144200000D03*
X64000000Y-138000000D03*
X64000000Y-151000000D03*
X69950000Y-150400000D03*
X76000000Y-134000000D03*
X86400000Y-138350000D03*
X66050000Y-152300000D03*
X58000000Y-138000000D03*
X76050000Y-152300000D03*
X62000000Y-138000000D03*
X70000000Y-134000000D03*
X84000000Y-137000000D03*
X59999015Y-150990920D03*
X51800000Y-136700000D03*
X67050000Y-141850000D03*
X91500000Y-150500000D03*
X82050000Y-152300000D03*
X60000000Y-134000000D03*
X72500000Y-145900000D03*
X64000000Y-140000000D03*
X86000000Y-135000000D03*
X70050000Y-152300000D03*
X84050000Y-152300000D03*
X71800000Y-150400000D03*
X77950000Y-150400000D03*
X52100000Y-143850000D03*
X59100000Y-140850000D03*
X50000000Y-140000000D03*
X90000000Y-136000000D03*
X52000000Y-149000000D03*
X58000000Y-134000000D03*
X91500000Y-148500000D03*
X78600000Y-136550000D03*
X62000000Y-134000000D03*
X85000000Y-137000000D03*
X67500000Y-148400000D03*
X50000000Y-137600000D03*
X52000000Y-151000000D03*
X56000000Y-151000000D03*
X64050000Y-152300000D03*
X68050000Y-152300000D03*
X62000000Y-140000000D03*
X84000000Y-134000000D03*
X82000000Y-134000000D03*
X72500000Y-147600000D03*
X80500000Y-136000000D03*
X65800000Y-145100000D03*
X75600000Y-147600000D03*
X82100000Y-151500000D03*
X80500000Y-135000000D03*
X77700000Y-136550000D03*
X72500000Y-146800000D03*
X81500000Y-137000000D03*
X90300000Y-145100000D03*
X89300000Y-145100000D03*
X85100000Y-138350000D03*
X87600000Y-145800000D03*
X73500000Y-147600000D03*
X82500000Y-137000000D03*
X65800000Y-144500000D03*
X73500000Y-146800000D03*
X80900000Y-146200000D03*
X73300000Y-137500000D03*
X77000000Y-148300000D03*
X82723608Y-148664079D03*
X73200000Y-143925500D03*
X77900000Y-145000000D03*
X71303844Y-143475500D03*
X77908496Y-143430056D03*
X68824500Y-146000000D03*
X77400000Y-147500000D03*
X76300000Y-149582000D03*
X68324500Y-147600000D03*
X67000000Y-147250000D03*
X75264896Y-143674500D03*
X65737398Y-148890826D03*
X73250000Y-141600000D03*
X68600000Y-143850000D03*
X89000000Y-141624500D03*
X83600000Y-143800000D03*
X86200000Y-142600000D03*
X86100000Y-144500000D03*
X88500000Y-146600000D03*
X80500000Y-141100000D03*
X82500000Y-141100000D03*
X52100000Y-140950000D03*
X52850000Y-140950000D03*
X55350000Y-140650000D03*
X57500000Y-149000000D03*
X58500000Y-150000000D03*
X57500000Y-150000000D03*
X52100000Y-145050000D03*
X55150000Y-145600000D03*
X52874080Y-145052617D03*
X52000000Y-145800000D03*
X58500000Y-149000000D03*
X104100000Y-138976469D03*
X106000000Y-145400000D03*
X103982745Y-141379547D03*
X105094950Y-139986245D03*
X104892998Y-140759821D03*
X99700000Y-146400000D03*
X106300000Y-144600000D03*
X99700000Y-147200000D03*
X106700000Y-144000000D03*
X103793596Y-144550030D03*
X104000000Y-147600000D03*
X103793584Y-143550044D03*
X103672649Y-142252902D03*
X98000000Y-147600000D03*
X98000000Y-145600000D03*
X105000000Y-146500000D03*
X106000000Y-147600000D03*
X106400000Y-139000000D03*
D20*
X74500000Y-137500000D02*
X73300000Y-137500000D01*
X80900000Y-143900000D02*
X74500000Y-137500000D01*
X80900000Y-146200000D02*
X80900000Y-143900000D01*
X82659529Y-148600000D02*
X77300000Y-148600000D01*
X77300000Y-148600000D02*
X77000000Y-148300000D01*
X82723608Y-148664079D02*
X82659529Y-148600000D01*
X77900000Y-145000000D02*
X75600000Y-145000000D01*
X75600000Y-145000000D02*
X74525500Y-143925500D01*
X74525500Y-143925500D02*
X73200000Y-143925500D01*
X74441525Y-145624511D02*
X73541525Y-144724511D01*
X78524511Y-145325489D02*
X78225489Y-145624511D01*
X72552855Y-144724511D02*
X73541525Y-144724511D01*
X77908496Y-143430056D02*
X78524511Y-144046071D01*
X78225489Y-145624511D02*
X74441525Y-145624511D01*
X78524511Y-144046071D02*
X78524511Y-145325489D01*
X71303844Y-143475500D02*
X72552855Y-144724511D01*
X68324500Y-147600000D02*
X68324500Y-146875500D01*
X68824500Y-146375500D02*
X68824500Y-146000000D01*
X77400000Y-147500000D02*
X76916807Y-147500000D01*
X76300000Y-148116807D02*
X76300000Y-149582000D01*
X68324500Y-146875500D02*
X68824500Y-146375500D01*
X76916807Y-147500000D02*
X76300000Y-148116807D01*
X75264896Y-143674500D02*
X75066376Y-143475980D01*
X67000000Y-147250000D02*
X67000000Y-147600000D01*
X65737398Y-148862602D02*
X65737398Y-148890826D01*
X74025980Y-143475980D02*
X73250000Y-142700000D01*
X73250000Y-142700000D02*
X73250000Y-141600000D01*
X67000000Y-147600000D02*
X65737398Y-148862602D01*
X75066376Y-143475980D02*
X74025980Y-143475980D01*
X85850000Y-141550000D02*
X83600000Y-143800000D01*
X88925500Y-141550000D02*
X87450000Y-141550000D01*
X87450000Y-141550000D02*
X85850000Y-141550000D01*
X89000000Y-141624500D02*
X88925500Y-141550000D01*
X86250000Y-142550000D02*
X87450000Y-142550000D01*
X86200000Y-142600000D02*
X86250000Y-142550000D01*
X86100000Y-143583193D02*
X86100000Y-144500000D01*
X87450000Y-143050000D02*
X86633193Y-143050000D01*
X86633193Y-143050000D02*
X86100000Y-143583193D01*
X90900000Y-141800000D02*
X89700000Y-143000000D01*
X89700000Y-143000000D02*
X89700000Y-143700000D01*
X89350000Y-144050000D02*
X87450000Y-144050000D01*
X91400000Y-141800000D02*
X90900000Y-141800000D01*
X89700000Y-143700000D02*
X89350000Y-144050000D01*
X88500000Y-146000000D02*
X88500000Y-146600000D01*
X87450000Y-145050000D02*
X87950000Y-145050000D01*
X88500000Y-145600000D02*
X88500000Y-146000000D01*
X87950000Y-145050000D02*
X88500000Y-145600000D01*
X106673551Y-143125471D02*
X106673551Y-140673551D01*
X105749022Y-144050000D02*
X106673551Y-143125471D01*
X106673551Y-140673551D02*
X104976469Y-138976469D01*
X104800000Y-144050000D02*
X105749022Y-144050000D01*
X104976469Y-138976469D02*
X104100000Y-138976469D01*
X106000000Y-145400000D02*
X105650000Y-145050000D01*
X105650000Y-145050000D02*
X104800000Y-145050000D01*
X104800000Y-141550000D02*
X104153198Y-141550000D01*
X104153198Y-141550000D02*
X103982745Y-141379547D01*
X105336245Y-139986245D02*
X105094950Y-139986245D01*
X106224031Y-142710709D02*
X106224031Y-140874031D01*
X104800000Y-143050000D02*
X105884740Y-143050000D01*
X105884740Y-143050000D02*
X106224031Y-142710709D01*
X106224031Y-140874031D02*
X105336245Y-139986245D01*
X105749022Y-142550000D02*
X105774511Y-142524511D01*
X105458843Y-140759821D02*
X104892998Y-140759821D01*
X105774511Y-141075489D02*
X105458843Y-140759821D01*
X105774511Y-142524511D02*
X105774511Y-141075489D01*
X104800000Y-142550000D02*
X105749022Y-142550000D01*
X104800000Y-144550000D02*
X103793626Y-144550000D01*
X103793626Y-144550000D02*
X103793596Y-144550030D01*
X104800000Y-144550000D02*
X106250000Y-144550000D01*
X106300000Y-144550500D02*
X106850500Y-144000000D01*
X106250000Y-144550000D02*
X106300000Y-144600000D01*
X106300000Y-144600000D02*
X106300000Y-144550500D01*
X103672649Y-142252902D02*
X103875551Y-142050000D01*
X103793628Y-143550000D02*
X103793584Y-143550044D01*
X104800000Y-143550000D02*
X103793628Y-143550000D01*
X103875551Y-142050000D02*
X104800000Y-142050000D01*
G04 #@! TA.AperFunction,Conductor*
G36*
X107076262Y-138350603D02*
G01*
X107100001Y-138354363D01*
X107099921Y-138354870D01*
X107131888Y-138368112D01*
X107145130Y-138400079D01*
X107145637Y-138399999D01*
X107146240Y-138403806D01*
X107149397Y-138423738D01*
X107150000Y-138431404D01*
X107150000Y-143623511D01*
X107135648Y-143658159D01*
X107101000Y-143672511D01*
X107063879Y-143655496D01*
X107034680Y-143621609D01*
X107032400Y-143618963D01*
X106912095Y-143540985D01*
X106908754Y-143539986D01*
X106908750Y-143539984D01*
X106841638Y-143519914D01*
X106812554Y-143496236D01*
X106808731Y-143458929D01*
X106821029Y-143438320D01*
X106892153Y-143367196D01*
X106895304Y-143364308D01*
X106918848Y-143344552D01*
X106926745Y-143337926D01*
X106937431Y-143319417D01*
X106947267Y-143302381D01*
X106949563Y-143298778D01*
X106970643Y-143268670D01*
X106970643Y-143268669D01*
X106973104Y-143265155D01*
X106975198Y-143257340D01*
X106980091Y-143245528D01*
X106984139Y-143238516D01*
X106991268Y-143198084D01*
X106992193Y-143193913D01*
X107001705Y-143158417D01*
X107001705Y-143158416D01*
X107002814Y-143154278D01*
X106999237Y-143113391D01*
X106999051Y-143109121D01*
X106999051Y-140689899D01*
X106999237Y-140685628D01*
X107002441Y-140649011D01*
X107002441Y-140649009D01*
X107002814Y-140644744D01*
X106992192Y-140605104D01*
X106991267Y-140600934D01*
X106984883Y-140564725D01*
X106984883Y-140564724D01*
X106984139Y-140560506D01*
X106980091Y-140553494D01*
X106975198Y-140541682D01*
X106973104Y-140533867D01*
X106970643Y-140530352D01*
X106949563Y-140500244D01*
X106947267Y-140496641D01*
X106928888Y-140464808D01*
X106926745Y-140461096D01*
X106895301Y-140434711D01*
X106892151Y-140431824D01*
X105218199Y-138757873D01*
X105215311Y-138754721D01*
X105191683Y-138726562D01*
X105191680Y-138726559D01*
X105188924Y-138723275D01*
X105153377Y-138702753D01*
X105149772Y-138700456D01*
X105116153Y-138676915D01*
X105108333Y-138674820D01*
X105096521Y-138669926D01*
X105093231Y-138668027D01*
X105089514Y-138665881D01*
X105085291Y-138665136D01*
X105085290Y-138665136D01*
X105065901Y-138661718D01*
X105049092Y-138658754D01*
X105044927Y-138657830D01*
X105019323Y-138650969D01*
X105009415Y-138648314D01*
X105009414Y-138648314D01*
X105005276Y-138647205D01*
X105001011Y-138647578D01*
X105001009Y-138647578D01*
X104964381Y-138650783D01*
X104960110Y-138650969D01*
X104502714Y-138650969D01*
X104465593Y-138633954D01*
X104434680Y-138598078D01*
X104432400Y-138595432D01*
X104312095Y-138517454D01*
X104174739Y-138476376D01*
X104103681Y-138475942D01*
X104034868Y-138475521D01*
X104034866Y-138475521D01*
X104031376Y-138475500D01*
X104028021Y-138476459D01*
X104028020Y-138476459D01*
X103896884Y-138513938D01*
X103893529Y-138514897D01*
X103772280Y-138591399D01*
X103677377Y-138698857D01*
X103675894Y-138702015D01*
X103675893Y-138702017D01*
X103650380Y-138756357D01*
X103616447Y-138828632D01*
X103615911Y-138832077D01*
X103594927Y-138966846D01*
X103594927Y-138966850D01*
X103594391Y-138970292D01*
X103612980Y-139112448D01*
X103670720Y-139243672D01*
X103672966Y-139246344D01*
X103731788Y-139316321D01*
X103762970Y-139353417D01*
X103882313Y-139432859D01*
X104019157Y-139475611D01*
X104022647Y-139475675D01*
X104042558Y-139476040D01*
X104162499Y-139478239D01*
X104300817Y-139440529D01*
X104303788Y-139438705D01*
X104303790Y-139438704D01*
X104420017Y-139367340D01*
X104422991Y-139365514D01*
X104430099Y-139357662D01*
X104465921Y-139318086D01*
X104502249Y-139301969D01*
X104821347Y-139301969D01*
X104855995Y-139316321D01*
X104966376Y-139426702D01*
X104980728Y-139461350D01*
X104966376Y-139495998D01*
X104945193Y-139508464D01*
X104888479Y-139524673D01*
X104767230Y-139601175D01*
X104672327Y-139708633D01*
X104611397Y-139838408D01*
X104610861Y-139841853D01*
X104589877Y-139976622D01*
X104589877Y-139976626D01*
X104589341Y-139980068D01*
X104607930Y-140122224D01*
X104665670Y-140253448D01*
X104666399Y-140254315D01*
X104672382Y-140290452D01*
X104650804Y-140320788D01*
X104625489Y-140336761D01*
X104565278Y-140374751D01*
X104470375Y-140482209D01*
X104468892Y-140485367D01*
X104468891Y-140485369D01*
X104446121Y-140533867D01*
X104409445Y-140611984D01*
X104404003Y-140646938D01*
X104387925Y-140750198D01*
X104387925Y-140750202D01*
X104387389Y-140753644D01*
X104387841Y-140757101D01*
X104387841Y-140757104D01*
X104403851Y-140879537D01*
X104405978Y-140895800D01*
X104407384Y-140898995D01*
X104461075Y-141021018D01*
X104461709Y-141050072D01*
X104474482Y-141049637D01*
X104494791Y-141063990D01*
X104541007Y-141118971D01*
X104552315Y-141154728D01*
X104535027Y-141188009D01*
X104503498Y-141199500D01*
X104482280Y-141199500D01*
X104447632Y-141185148D01*
X104437674Y-141170781D01*
X104412676Y-141115800D01*
X104411666Y-141086133D01*
X104398465Y-141086421D01*
X104379104Y-141072738D01*
X104365419Y-141056855D01*
X104315145Y-140998510D01*
X104194840Y-140920532D01*
X104057484Y-140879454D01*
X103986426Y-140879020D01*
X103917613Y-140878599D01*
X103917611Y-140878599D01*
X103914121Y-140878578D01*
X103910766Y-140879537D01*
X103910765Y-140879537D01*
X103779629Y-140917016D01*
X103776274Y-140917975D01*
X103655025Y-140994477D01*
X103560122Y-141101935D01*
X103558639Y-141105093D01*
X103558638Y-141105095D01*
X103508579Y-141211716D01*
X103499192Y-141231710D01*
X103498656Y-141235155D01*
X103498655Y-141235157D01*
X103495015Y-141258538D01*
X103475504Y-141290566D01*
X103446598Y-141300000D01*
X100000000Y-141300000D01*
X100000000Y-141614536D01*
X99985648Y-141649184D01*
X99951000Y-141663536D01*
X99916352Y-141649184D01*
X99905163Y-141631856D01*
X99859437Y-141510845D01*
X99859436Y-141510844D01*
X99858392Y-141508080D01*
X99798451Y-141420866D01*
X99774315Y-141385748D01*
X99772640Y-141383311D01*
X99770435Y-141381347D01*
X99770432Y-141381343D01*
X99720393Y-141336761D01*
X99704070Y-141302997D01*
X99716404Y-141267580D01*
X99721159Y-141262923D01*
X99757704Y-141231710D01*
X99761568Y-141228410D01*
X99761569Y-141228409D01*
X99763810Y-141226495D01*
X99805847Y-141167996D01*
X99850431Y-141105951D01*
X99850432Y-141105949D01*
X99852156Y-141103550D01*
X99908624Y-140963080D01*
X99929956Y-140813196D01*
X99930094Y-140800000D01*
X99911906Y-140649701D01*
X99897654Y-140611984D01*
X99881694Y-140569748D01*
X100249500Y-140569748D01*
X100261133Y-140628231D01*
X100305448Y-140694552D01*
X100371769Y-140738867D01*
X100430252Y-140750500D01*
X102669748Y-140750500D01*
X102728231Y-140738867D01*
X102794552Y-140694552D01*
X102838867Y-140628231D01*
X102850500Y-140569748D01*
X102850500Y-138730252D01*
X102838867Y-138671769D01*
X102829553Y-138657829D01*
X102797232Y-138609459D01*
X102794552Y-138605448D01*
X102728231Y-138561133D01*
X102669748Y-138549500D01*
X100430252Y-138549500D01*
X100371769Y-138561133D01*
X100305448Y-138605448D01*
X100302768Y-138609459D01*
X100270448Y-138657829D01*
X100261133Y-138671769D01*
X100249500Y-138730252D01*
X100249500Y-140569748D01*
X99881694Y-140569748D01*
X99859437Y-140510845D01*
X99859436Y-140510844D01*
X99858392Y-140508080D01*
X99772640Y-140383311D01*
X99770435Y-140381347D01*
X99770432Y-140381343D01*
X99720393Y-140336761D01*
X99704070Y-140302997D01*
X99716404Y-140267580D01*
X99721159Y-140262923D01*
X99763810Y-140226495D01*
X99805847Y-140167996D01*
X99850431Y-140105951D01*
X99850432Y-140105949D01*
X99852156Y-140103550D01*
X99908624Y-139963080D01*
X99929956Y-139813196D01*
X99930094Y-139800000D01*
X99911906Y-139649701D01*
X99858392Y-139508080D01*
X99772640Y-139383311D01*
X99770435Y-139381346D01*
X99770432Y-139381343D01*
X99661811Y-139284566D01*
X99661810Y-139284565D01*
X99659603Y-139282599D01*
X99591129Y-139246344D01*
X99528418Y-139213140D01*
X99528415Y-139213139D01*
X99525805Y-139211757D01*
X99378972Y-139174874D01*
X99301615Y-139174469D01*
X99230532Y-139174097D01*
X99230528Y-139174097D01*
X99227579Y-139174082D01*
X99224710Y-139174771D01*
X99224708Y-139174771D01*
X99083241Y-139208734D01*
X99080367Y-139209424D01*
X99020205Y-139240476D01*
X98952064Y-139275646D01*
X98914692Y-139278784D01*
X98888849Y-139259328D01*
X98869552Y-139230448D01*
X98803231Y-139186133D01*
X98744748Y-139174500D01*
X97855252Y-139174500D01*
X97796769Y-139186133D01*
X97730448Y-139230448D01*
X97686133Y-139296769D01*
X97674500Y-139355252D01*
X97674500Y-140081533D01*
X97661914Y-140114320D01*
X97542753Y-140246662D01*
X97539743Y-140250806D01*
X97444252Y-140416198D01*
X97442174Y-140420866D01*
X97404528Y-140536730D01*
X97405113Y-140544167D01*
X97407259Y-140546000D01*
X98505000Y-140546000D01*
X98539648Y-140560352D01*
X98554000Y-140595000D01*
X98554000Y-142005000D01*
X98539648Y-142039648D01*
X98505000Y-142054000D01*
X97411263Y-142054000D01*
X97404371Y-142056855D01*
X97403291Y-142059462D01*
X97442174Y-142179134D01*
X97444252Y-142183802D01*
X97539743Y-142349194D01*
X97542753Y-142353338D01*
X97670540Y-142495260D01*
X97674346Y-142498687D01*
X97699666Y-142517084D01*
X97719261Y-142549060D01*
X97716517Y-142574524D01*
X97690774Y-142640552D01*
X97689702Y-142643302D01*
X97669941Y-142793402D01*
X97686554Y-142943883D01*
X97738582Y-143086057D01*
X97740227Y-143088505D01*
X97812067Y-143195413D01*
X97823022Y-143211716D01*
X97825201Y-143213698D01*
X97825202Y-143213700D01*
X97839264Y-143226495D01*
X97934998Y-143313607D01*
X97937591Y-143315015D01*
X97937594Y-143315017D01*
X97991991Y-143344552D01*
X98068047Y-143385847D01*
X98214486Y-143424264D01*
X98298646Y-143425586D01*
X98362912Y-143426596D01*
X98362915Y-143426596D01*
X98365863Y-143426642D01*
X98368740Y-143425983D01*
X98368741Y-143425983D01*
X98510556Y-143393503D01*
X98510557Y-143393503D01*
X98513437Y-143392843D01*
X98516076Y-143391516D01*
X98516078Y-143391515D01*
X98646045Y-143326149D01*
X98646046Y-143326148D01*
X98648689Y-143324819D01*
X98650934Y-143322902D01*
X98650938Y-143322899D01*
X98761564Y-143228414D01*
X98761568Y-143228410D01*
X98763810Y-143226495D01*
X98765127Y-143224663D01*
X98798945Y-143208966D01*
X98833973Y-143221681D01*
X98934998Y-143313607D01*
X98937591Y-143315015D01*
X98937594Y-143315017D01*
X98991991Y-143344552D01*
X99068047Y-143385847D01*
X99214486Y-143424264D01*
X99298646Y-143425586D01*
X99362912Y-143426596D01*
X99362915Y-143426596D01*
X99365863Y-143426642D01*
X99368740Y-143425983D01*
X99368741Y-143425983D01*
X99510556Y-143393503D01*
X99510557Y-143393503D01*
X99513437Y-143392843D01*
X99516076Y-143391516D01*
X99516078Y-143391515D01*
X99646045Y-143326149D01*
X99646046Y-143326148D01*
X99648689Y-143324819D01*
X99650934Y-143322902D01*
X99650938Y-143322899D01*
X99761568Y-143228410D01*
X99761569Y-143228409D01*
X99763810Y-143226495D01*
X99815704Y-143154278D01*
X99850431Y-143105951D01*
X99850432Y-143105949D01*
X99852156Y-143103550D01*
X99905536Y-142970762D01*
X99931775Y-142943967D01*
X99969276Y-142943574D01*
X99996071Y-142969813D01*
X100000000Y-142989038D01*
X100000000Y-145300000D01*
X103600000Y-145300000D01*
X103600000Y-145080590D01*
X103614352Y-145045942D01*
X103649000Y-145031590D01*
X103663612Y-145033820D01*
X103709415Y-145048130D01*
X103709421Y-145048131D01*
X103712753Y-145049172D01*
X103716243Y-145049236D01*
X103736154Y-145049601D01*
X103856095Y-145051800D01*
X103865500Y-145049236D01*
X103887612Y-145043208D01*
X103924815Y-145047942D01*
X103947775Y-145077595D01*
X103949500Y-145090483D01*
X103949500Y-145219748D01*
X103961133Y-145278231D01*
X104005448Y-145344552D01*
X104071769Y-145388867D01*
X104130252Y-145400500D01*
X105452255Y-145400500D01*
X105486903Y-145414852D01*
X105500841Y-145443146D01*
X105512980Y-145535979D01*
X105570720Y-145667203D01*
X105662970Y-145776948D01*
X105782313Y-145856390D01*
X105785645Y-145857431D01*
X105806864Y-145864060D01*
X105919157Y-145899142D01*
X105922647Y-145899206D01*
X105942558Y-145899571D01*
X106062499Y-145901770D01*
X106200817Y-145864060D01*
X106203788Y-145862236D01*
X106203790Y-145862235D01*
X106320018Y-145790871D01*
X106320021Y-145790869D01*
X106322991Y-145789045D01*
X106332188Y-145778885D01*
X106416855Y-145685345D01*
X106416856Y-145685344D01*
X106419200Y-145682754D01*
X106426735Y-145667203D01*
X106480189Y-145556872D01*
X106481710Y-145553733D01*
X106484160Y-145539174D01*
X106505183Y-145414216D01*
X106505183Y-145414213D01*
X106505496Y-145412354D01*
X106505647Y-145400000D01*
X106485323Y-145258082D01*
X106432375Y-145141628D01*
X106431099Y-145104148D01*
X106456700Y-145076742D01*
X106464092Y-145074074D01*
X106497447Y-145064980D01*
X106497455Y-145064977D01*
X106500817Y-145064060D01*
X106503788Y-145062236D01*
X106503790Y-145062235D01*
X106620018Y-144990871D01*
X106620021Y-144990869D01*
X106622991Y-144989045D01*
X106719200Y-144882754D01*
X106781710Y-144753733D01*
X106805496Y-144612354D01*
X106805647Y-144600000D01*
X106801441Y-144570633D01*
X106797244Y-144541319D01*
X106806539Y-144504986D01*
X106811101Y-144499725D01*
X106817303Y-144493523D01*
X106839063Y-144480896D01*
X106897448Y-144464979D01*
X106897451Y-144464978D01*
X106900817Y-144464060D01*
X106903793Y-144462233D01*
X107020018Y-144390871D01*
X107020021Y-144390869D01*
X107022991Y-144389045D01*
X107064672Y-144342996D01*
X107098563Y-144326939D01*
X107133882Y-144339550D01*
X107150000Y-144375878D01*
X107150000Y-148168596D01*
X107149397Y-148176262D01*
X107145637Y-148200001D01*
X107145130Y-148199921D01*
X107131888Y-148231888D01*
X107099921Y-148245130D01*
X107100001Y-148245637D01*
X107096194Y-148246240D01*
X107076262Y-148249397D01*
X107068596Y-148250000D01*
X97131404Y-148250000D01*
X97123738Y-148249397D01*
X97103806Y-148246240D01*
X97099999Y-148245637D01*
X97100079Y-148245130D01*
X97068112Y-148231888D01*
X97054870Y-148199921D01*
X97054363Y-148200001D01*
X97054028Y-148197888D01*
X97050603Y-148176262D01*
X97050000Y-148168596D01*
X97050000Y-147193823D01*
X99194391Y-147193823D01*
X99194843Y-147197280D01*
X99194843Y-147197283D01*
X99196814Y-147212354D01*
X99212980Y-147335979D01*
X99270720Y-147467203D01*
X99362970Y-147576948D01*
X99482313Y-147656390D01*
X99619157Y-147699142D01*
X99622647Y-147699206D01*
X99642558Y-147699571D01*
X99762499Y-147701770D01*
X99900817Y-147664060D01*
X99903788Y-147662236D01*
X99903790Y-147662235D01*
X100020018Y-147590871D01*
X100020021Y-147590869D01*
X100022991Y-147589045D01*
X100032188Y-147578885D01*
X100116855Y-147485345D01*
X100116856Y-147485344D01*
X100119200Y-147482754D01*
X100126735Y-147467203D01*
X100156403Y-147405967D01*
X100184426Y-147381044D01*
X100221865Y-147383235D01*
X100246788Y-147411258D01*
X100249500Y-147427332D01*
X100249500Y-147869748D01*
X100261133Y-147928231D01*
X100305448Y-147994552D01*
X100371769Y-148038867D01*
X100430252Y-148050500D01*
X102669748Y-148050500D01*
X102728231Y-148038867D01*
X102794552Y-147994552D01*
X102838867Y-147928231D01*
X102850500Y-147869748D01*
X102850500Y-146030252D01*
X102838867Y-145971769D01*
X102794552Y-145905448D01*
X102733984Y-145864977D01*
X102732245Y-145863815D01*
X102728231Y-145861133D01*
X102669748Y-145849500D01*
X100430252Y-145849500D01*
X100371769Y-145861133D01*
X100367755Y-145863815D01*
X100366016Y-145864977D01*
X100305448Y-145905448D01*
X100261133Y-145971769D01*
X100249500Y-146030252D01*
X100249500Y-146173075D01*
X100235148Y-146207723D01*
X100200500Y-146222075D01*
X100165852Y-146207723D01*
X100155894Y-146193356D01*
X100127428Y-146130749D01*
X100125984Y-146127572D01*
X100119261Y-146119769D01*
X100034680Y-146021609D01*
X100032400Y-146018963D01*
X99912095Y-145940985D01*
X99774739Y-145899907D01*
X99703681Y-145899473D01*
X99634868Y-145899052D01*
X99634866Y-145899052D01*
X99631376Y-145899031D01*
X99628021Y-145899990D01*
X99628020Y-145899990D01*
X99608923Y-145905448D01*
X99493529Y-145938428D01*
X99372280Y-146014930D01*
X99277377Y-146122388D01*
X99216447Y-146252163D01*
X99207222Y-146311415D01*
X99194927Y-146390377D01*
X99194927Y-146390381D01*
X99194391Y-146393823D01*
X99194843Y-146397280D01*
X99194843Y-146397283D01*
X99196814Y-146412354D01*
X99212980Y-146535979D01*
X99270720Y-146667203D01*
X99272966Y-146669875D01*
X99356701Y-146769490D01*
X99368009Y-146805247D01*
X99355919Y-146833455D01*
X99277377Y-146922388D01*
X99216447Y-147052163D01*
X99207222Y-147111415D01*
X99194927Y-147190377D01*
X99194927Y-147190381D01*
X99194391Y-147193823D01*
X97050000Y-147193823D01*
X97050000Y-141059462D01*
X97403291Y-141059462D01*
X97442174Y-141179134D01*
X97444252Y-141183801D01*
X97497195Y-141275500D01*
X97502090Y-141312682D01*
X97497195Y-141324500D01*
X97444252Y-141416199D01*
X97442174Y-141420866D01*
X97404528Y-141536730D01*
X97405113Y-141544167D01*
X97407259Y-141546000D01*
X98036253Y-141546000D01*
X98043145Y-141543145D01*
X98046000Y-141536253D01*
X98046000Y-141063747D01*
X98043145Y-141056855D01*
X98036253Y-141054000D01*
X97411263Y-141054000D01*
X97404371Y-141056855D01*
X97403291Y-141059462D01*
X97050000Y-141059462D01*
X97050000Y-138431404D01*
X97050603Y-138423738D01*
X97053760Y-138403806D01*
X97054363Y-138399999D01*
X97054870Y-138400079D01*
X97068112Y-138368112D01*
X97100079Y-138354870D01*
X97099999Y-138354363D01*
X97103806Y-138353760D01*
X97123738Y-138350603D01*
X97131404Y-138350000D01*
X107068596Y-138350000D01*
X107076262Y-138350603D01*
G37*
G04 #@! TD.AperFunction*
G04 #@! TA.AperFunction,Conductor*
G36*
X103683648Y-142415821D02*
G01*
X103694882Y-142433268D01*
X103698602Y-142443192D01*
X103701924Y-142449259D01*
X103785002Y-142560110D01*
X103789890Y-142564998D01*
X103900741Y-142648076D01*
X103906810Y-142651399D01*
X103917700Y-142655481D01*
X103945106Y-142681082D01*
X103949500Y-142701363D01*
X103949500Y-142719748D01*
X103961133Y-142778231D01*
X103963403Y-142781628D01*
X103963403Y-142818372D01*
X103961133Y-142821769D01*
X103949500Y-142880252D01*
X103949500Y-142898637D01*
X103935148Y-142933285D01*
X103917700Y-142944519D01*
X103906810Y-142948601D01*
X103900741Y-142951924D01*
X103789890Y-143035002D01*
X103785002Y-143039890D01*
X103701924Y-143150741D01*
X103698602Y-143156808D01*
X103694882Y-143166732D01*
X103669280Y-143194137D01*
X103631799Y-143195413D01*
X103604394Y-143169811D01*
X103600000Y-143149531D01*
X103600000Y-142450469D01*
X103614352Y-142415821D01*
X103649000Y-142401469D01*
X103683648Y-142415821D01*
G37*
G04 #@! TD.AperFunction*
G04 #@! TA.AperFunction,Conductor*
G36*
X88535648Y-133614352D02*
G01*
X88550000Y-133649000D01*
X88550000Y-134618595D01*
X88549397Y-134626261D01*
X88545637Y-134650000D01*
X88546240Y-134653808D01*
X88546240Y-134653809D01*
X88546331Y-134654384D01*
X88546626Y-134656561D01*
X88562287Y-134795554D01*
X88583097Y-134855026D01*
X88598138Y-134898008D01*
X88610665Y-134933809D01*
X88688594Y-135057833D01*
X88792167Y-135161406D01*
X88916191Y-135239335D01*
X88918786Y-135240243D01*
X88918788Y-135240244D01*
X88947335Y-135250233D01*
X89054446Y-135287713D01*
X89057179Y-135288021D01*
X89123765Y-135295524D01*
X89134508Y-135297982D01*
X89136082Y-135298534D01*
X89136083Y-135298534D01*
X89138993Y-135299556D01*
X89142064Y-135299822D01*
X89143064Y-135299909D01*
X89143073Y-135299909D01*
X89144119Y-135300000D01*
X89160743Y-135300000D01*
X89166227Y-135300308D01*
X89193443Y-135303374D01*
X89195616Y-135303669D01*
X89196191Y-135303760D01*
X89196192Y-135303760D01*
X89200000Y-135304363D01*
X89203807Y-135303760D01*
X89205468Y-135303497D01*
X89223739Y-135300603D01*
X89231405Y-135300000D01*
X93401000Y-135300000D01*
X93435648Y-135314352D01*
X93450000Y-135349000D01*
X93450000Y-150851000D01*
X93435648Y-150885648D01*
X93401000Y-150900000D01*
X89231405Y-150900000D01*
X89223739Y-150899397D01*
X89206244Y-150896626D01*
X89200000Y-150895637D01*
X89196192Y-150896240D01*
X89196191Y-150896240D01*
X89195616Y-150896331D01*
X89193437Y-150896626D01*
X89054446Y-150912287D01*
X89025391Y-150922454D01*
X88918788Y-150959756D01*
X88918786Y-150959757D01*
X88916191Y-150960665D01*
X88792167Y-151038594D01*
X88688594Y-151142167D01*
X88610665Y-151266191D01*
X88562287Y-151404446D01*
X88561979Y-151407179D01*
X88554476Y-151473765D01*
X88552018Y-151484508D01*
X88551466Y-151486082D01*
X88550444Y-151488993D01*
X88550000Y-151494119D01*
X88550000Y-151510743D01*
X88549692Y-151516227D01*
X88547017Y-151539969D01*
X88546626Y-151543440D01*
X88546331Y-151545616D01*
X88545637Y-151550000D01*
X88546240Y-151553807D01*
X88549397Y-151573739D01*
X88550000Y-151581405D01*
X88550000Y-152601000D01*
X88535648Y-152635648D01*
X88501000Y-152650000D01*
X51499000Y-152650000D01*
X51464352Y-152635648D01*
X51450000Y-152601000D01*
X51450000Y-151500000D01*
X81540715Y-151500000D01*
X81541134Y-151503183D01*
X81548802Y-151561424D01*
X81559772Y-151644754D01*
X81560999Y-151647716D01*
X81561000Y-151647720D01*
X81601892Y-151746439D01*
X81615645Y-151779642D01*
X81704526Y-151895474D01*
X81820357Y-151984355D01*
X81823320Y-151985582D01*
X81823323Y-151985584D01*
X81952280Y-152039000D01*
X81952284Y-152039001D01*
X81955246Y-152040228D01*
X81958427Y-152040647D01*
X81958428Y-152040647D01*
X82096817Y-152058866D01*
X82100000Y-152059285D01*
X82103183Y-152058866D01*
X82241572Y-152040647D01*
X82241573Y-152040647D01*
X82244754Y-152040228D01*
X82247716Y-152039001D01*
X82247720Y-152039000D01*
X82376677Y-151985584D01*
X82376680Y-151985582D01*
X82379643Y-151984355D01*
X82495474Y-151895474D01*
X82584355Y-151779642D01*
X82598108Y-151746439D01*
X82639000Y-151647720D01*
X82639001Y-151647716D01*
X82640228Y-151644754D01*
X82651199Y-151561424D01*
X82658866Y-151503183D01*
X82659285Y-151500000D01*
X82657453Y-151486082D01*
X82640647Y-151358428D01*
X82640647Y-151358427D01*
X82640228Y-151355246D01*
X82639001Y-151352284D01*
X82639000Y-151352280D01*
X82585584Y-151223325D01*
X82584355Y-151220358D01*
X82495474Y-151104526D01*
X82489576Y-151100000D01*
X84844843Y-151100000D01*
X84845029Y-151102126D01*
X84845029Y-151102129D01*
X84859383Y-151266191D01*
X84865431Y-151335321D01*
X84865986Y-151337391D01*
X84865986Y-151337393D01*
X84913905Y-151516230D01*
X84926569Y-151563491D01*
X84937864Y-151587713D01*
X85011880Y-151746439D01*
X85026400Y-151777578D01*
X85027626Y-151779328D01*
X85027626Y-151779329D01*
X85108952Y-151895474D01*
X85161890Y-151971078D01*
X85328922Y-152138110D01*
X85522421Y-152273600D01*
X85736509Y-152373431D01*
X85738574Y-152373984D01*
X85738576Y-152373985D01*
X85962607Y-152434014D01*
X85962609Y-152434014D01*
X85964679Y-152434569D01*
X85966806Y-152434755D01*
X85966811Y-152434756D01*
X86197874Y-152454971D01*
X86200000Y-152455157D01*
X86202126Y-152454971D01*
X86433189Y-152434756D01*
X86433194Y-152434755D01*
X86435321Y-152434569D01*
X86437391Y-152434014D01*
X86437393Y-152434014D01*
X86661424Y-152373985D01*
X86661426Y-152373984D01*
X86663491Y-152373431D01*
X86877579Y-152273600D01*
X87071078Y-152138110D01*
X87238110Y-151971078D01*
X87291049Y-151895474D01*
X87372374Y-151779329D01*
X87372374Y-151779328D01*
X87373600Y-151777578D01*
X87388121Y-151746439D01*
X87462136Y-151587713D01*
X87473431Y-151563491D01*
X87486095Y-151516230D01*
X87534014Y-151337393D01*
X87534014Y-151337391D01*
X87534569Y-151335321D01*
X87544368Y-151223325D01*
X87554971Y-151102126D01*
X87555157Y-151100000D01*
X87547777Y-151015645D01*
X87534756Y-150866811D01*
X87534755Y-150866806D01*
X87534569Y-150864679D01*
X87515321Y-150792842D01*
X87473985Y-150638576D01*
X87473984Y-150638574D01*
X87473431Y-150636509D01*
X87373600Y-150422422D01*
X87372374Y-150420671D01*
X87239342Y-150230681D01*
X87239340Y-150230679D01*
X87238110Y-150228922D01*
X87071078Y-150061890D01*
X86982691Y-150000000D01*
X86879330Y-149927626D01*
X86879329Y-149927626D01*
X86877579Y-149926400D01*
X86663491Y-149826569D01*
X86661426Y-149826016D01*
X86661424Y-149826015D01*
X86437393Y-149765986D01*
X86437391Y-149765986D01*
X86435321Y-149765431D01*
X86433194Y-149765245D01*
X86433189Y-149765244D01*
X86202126Y-149745029D01*
X86200000Y-149744843D01*
X86197874Y-149745029D01*
X85966811Y-149765244D01*
X85966806Y-149765245D01*
X85964679Y-149765431D01*
X85962609Y-149765986D01*
X85962607Y-149765986D01*
X85738576Y-149826015D01*
X85738574Y-149826016D01*
X85736509Y-149826569D01*
X85522422Y-149926400D01*
X85520672Y-149927626D01*
X85520671Y-149927626D01*
X85449481Y-149977474D01*
X85328922Y-150061890D01*
X85161890Y-150228922D01*
X85160660Y-150230679D01*
X85160658Y-150230681D01*
X85027626Y-150420671D01*
X85026400Y-150422422D01*
X84926569Y-150636509D01*
X84926016Y-150638574D01*
X84926015Y-150638576D01*
X84884680Y-150792842D01*
X84865431Y-150864679D01*
X84865245Y-150866806D01*
X84865244Y-150866811D01*
X84852629Y-151011007D01*
X84845439Y-151093193D01*
X84844843Y-151100000D01*
X82489576Y-151100000D01*
X82379643Y-151015645D01*
X82376680Y-151014418D01*
X82376677Y-151014416D01*
X82247720Y-150961000D01*
X82247716Y-150960999D01*
X82244754Y-150959772D01*
X82241573Y-150959353D01*
X82241572Y-150959353D01*
X82103183Y-150941134D01*
X82100000Y-150940715D01*
X82096817Y-150941134D01*
X81958428Y-150959353D01*
X81958427Y-150959353D01*
X81955246Y-150959772D01*
X81952284Y-150960999D01*
X81952280Y-150961000D01*
X81890707Y-150986505D01*
X81820358Y-151015645D01*
X81817809Y-151017601D01*
X81716219Y-151095554D01*
X81704526Y-151104526D01*
X81615645Y-151220358D01*
X81614416Y-151223325D01*
X81561000Y-151352280D01*
X81560999Y-151352284D01*
X81559772Y-151355246D01*
X81559353Y-151358427D01*
X81559353Y-151358428D01*
X81542547Y-151486082D01*
X81540715Y-151500000D01*
X51450000Y-151500000D01*
X51450000Y-150000000D01*
X56940715Y-150000000D01*
X56959772Y-150144754D01*
X56960999Y-150147716D01*
X56961000Y-150147720D01*
X56994007Y-150227404D01*
X57015645Y-150279642D01*
X57104526Y-150395474D01*
X57220357Y-150484355D01*
X57223320Y-150485582D01*
X57223323Y-150485584D01*
X57352280Y-150539000D01*
X57352284Y-150539001D01*
X57355246Y-150540228D01*
X57358427Y-150540647D01*
X57358428Y-150540647D01*
X57496817Y-150558866D01*
X57500000Y-150559285D01*
X57503183Y-150558866D01*
X57641572Y-150540647D01*
X57641573Y-150540647D01*
X57644754Y-150540228D01*
X57647716Y-150539001D01*
X57647720Y-150539000D01*
X57776677Y-150485584D01*
X57776680Y-150485582D01*
X57779643Y-150484355D01*
X57895474Y-150395474D01*
X57961125Y-150309915D01*
X57993604Y-150291163D01*
X58029829Y-150300870D01*
X58038874Y-150309915D01*
X58104526Y-150395474D01*
X58220357Y-150484355D01*
X58223320Y-150485582D01*
X58223323Y-150485584D01*
X58352280Y-150539000D01*
X58352284Y-150539001D01*
X58355246Y-150540228D01*
X58358427Y-150540647D01*
X58358428Y-150540647D01*
X58496817Y-150558866D01*
X58500000Y-150559285D01*
X58503183Y-150558866D01*
X58641572Y-150540647D01*
X58641573Y-150540647D01*
X58644754Y-150540228D01*
X58647716Y-150539001D01*
X58647720Y-150539000D01*
X58776677Y-150485584D01*
X58776680Y-150485582D01*
X58779643Y-150484355D01*
X58895474Y-150395474D01*
X58984355Y-150279642D01*
X59005993Y-150227404D01*
X59039000Y-150147720D01*
X59039001Y-150147716D01*
X59040228Y-150144754D01*
X59059285Y-150000000D01*
X59049757Y-149927626D01*
X59040647Y-149858428D01*
X59040647Y-149858427D01*
X59040228Y-149855246D01*
X59039001Y-149852284D01*
X59039000Y-149852280D01*
X58985584Y-149723325D01*
X58984355Y-149720358D01*
X58939120Y-149661406D01*
X58897430Y-149607075D01*
X58895474Y-149604526D01*
X58809915Y-149538873D01*
X58791163Y-149506396D01*
X58800870Y-149470171D01*
X58809915Y-149461126D01*
X58848560Y-149431473D01*
X58895474Y-149395474D01*
X58984355Y-149279642D01*
X58985584Y-149276675D01*
X59039000Y-149147720D01*
X59039001Y-149147716D01*
X59040228Y-149144754D01*
X59041411Y-149135772D01*
X59058866Y-149003183D01*
X59059285Y-149000000D01*
X59058476Y-148993852D01*
X59044912Y-148890826D01*
X65178113Y-148890826D01*
X65178532Y-148894009D01*
X65189724Y-148979018D01*
X65197170Y-149035580D01*
X65198397Y-149038542D01*
X65198398Y-149038546D01*
X65225708Y-149104476D01*
X65253043Y-149170468D01*
X65341924Y-149286300D01*
X65344473Y-149288256D01*
X65353984Y-149295554D01*
X65457755Y-149375181D01*
X65460718Y-149376408D01*
X65460721Y-149376410D01*
X65589678Y-149429826D01*
X65589682Y-149429827D01*
X65592644Y-149431054D01*
X65595825Y-149431473D01*
X65595826Y-149431473D01*
X65734215Y-149449692D01*
X65737398Y-149450111D01*
X65740581Y-149449692D01*
X65878970Y-149431473D01*
X65878971Y-149431473D01*
X65882152Y-149431054D01*
X65885114Y-149429827D01*
X65885118Y-149429826D01*
X66014075Y-149376410D01*
X66014078Y-149376408D01*
X66017041Y-149375181D01*
X66120812Y-149295554D01*
X66130323Y-149288256D01*
X66132872Y-149286300D01*
X66221753Y-149170468D01*
X66249088Y-149104476D01*
X66276398Y-149038546D01*
X66276399Y-149038542D01*
X66277626Y-149035580D01*
X66285073Y-148979018D01*
X66296264Y-148894009D01*
X66296683Y-148890826D01*
X66293925Y-148869880D01*
X66303631Y-148833655D01*
X66307858Y-148828836D01*
X67236011Y-147900683D01*
X67244076Y-147894169D01*
X67258940Y-147884571D01*
X67282541Y-147854633D01*
X67286373Y-147850321D01*
X67290638Y-147846056D01*
X67302919Y-147828871D01*
X67304304Y-147827027D01*
X67334647Y-147788536D01*
X67334648Y-147788535D01*
X67337156Y-147785353D01*
X67338499Y-147781528D01*
X67340448Y-147777983D01*
X67340596Y-147778064D01*
X67341528Y-147776271D01*
X67341378Y-147776197D01*
X67343159Y-147772561D01*
X67345514Y-147769266D01*
X67360729Y-147718390D01*
X67361443Y-147716196D01*
X67378054Y-147668894D01*
X67391412Y-147650462D01*
X67390653Y-147649703D01*
X67392928Y-147647427D01*
X67395474Y-147645474D01*
X67430367Y-147600000D01*
X67765215Y-147600000D01*
X67784272Y-147744754D01*
X67785499Y-147747716D01*
X67785500Y-147747720D01*
X67802407Y-147788536D01*
X67840145Y-147879642D01*
X67863374Y-147909915D01*
X67905201Y-147964424D01*
X67929026Y-147995474D01*
X68044857Y-148084355D01*
X68047820Y-148085582D01*
X68047823Y-148085584D01*
X68176780Y-148139000D01*
X68176784Y-148139001D01*
X68179746Y-148140228D01*
X68182927Y-148140647D01*
X68182928Y-148140647D01*
X68321317Y-148158866D01*
X68324500Y-148159285D01*
X68327683Y-148158866D01*
X68466072Y-148140647D01*
X68466073Y-148140647D01*
X68469254Y-148140228D01*
X68472216Y-148139001D01*
X68472220Y-148139000D01*
X68601177Y-148085584D01*
X68601180Y-148085582D01*
X68604143Y-148084355D01*
X68719974Y-147995474D01*
X68743800Y-147964424D01*
X68785626Y-147909915D01*
X68808855Y-147879642D01*
X68846593Y-147788536D01*
X68863500Y-147747720D01*
X68863501Y-147747716D01*
X68864728Y-147744754D01*
X68883785Y-147600000D01*
X71940715Y-147600000D01*
X71959772Y-147744754D01*
X71960999Y-147747716D01*
X71961000Y-147747720D01*
X71977907Y-147788536D01*
X72015645Y-147879642D01*
X72038874Y-147909915D01*
X72080701Y-147964424D01*
X72104526Y-147995474D01*
X72220357Y-148084355D01*
X72223320Y-148085582D01*
X72223323Y-148085584D01*
X72352280Y-148139000D01*
X72352284Y-148139001D01*
X72355246Y-148140228D01*
X72358427Y-148140647D01*
X72358428Y-148140647D01*
X72496817Y-148158866D01*
X72500000Y-148159285D01*
X72503183Y-148158866D01*
X72641572Y-148140647D01*
X72641573Y-148140647D01*
X72644754Y-148140228D01*
X72647716Y-148139001D01*
X72647720Y-148139000D01*
X72776677Y-148085584D01*
X72776680Y-148085582D01*
X72779643Y-148084355D01*
X72895474Y-147995474D01*
X72916886Y-147967569D01*
X72961126Y-147909915D01*
X72993604Y-147891163D01*
X73029829Y-147900870D01*
X73038874Y-147909915D01*
X73083114Y-147967569D01*
X73104526Y-147995474D01*
X73220357Y-148084355D01*
X73223320Y-148085582D01*
X73223323Y-148085584D01*
X73352280Y-148139000D01*
X73352284Y-148139001D01*
X73355246Y-148140228D01*
X73358427Y-148140647D01*
X73358428Y-148140647D01*
X73496817Y-148158866D01*
X73500000Y-148159285D01*
X73503183Y-148158866D01*
X73641572Y-148140647D01*
X73641573Y-148140647D01*
X73644754Y-148140228D01*
X73647716Y-148139001D01*
X73647720Y-148139000D01*
X73776677Y-148085584D01*
X73776680Y-148085582D01*
X73779643Y-148084355D01*
X73895474Y-147995474D01*
X73919300Y-147964424D01*
X73961126Y-147909915D01*
X73984355Y-147879642D01*
X74022093Y-147788536D01*
X74039000Y-147747720D01*
X74039001Y-147747716D01*
X74040228Y-147744754D01*
X74059285Y-147600000D01*
X75040715Y-147600000D01*
X75059772Y-147744754D01*
X75060999Y-147747716D01*
X75061000Y-147747720D01*
X75077907Y-147788536D01*
X75115645Y-147879642D01*
X75138874Y-147909915D01*
X75180701Y-147964424D01*
X75204526Y-147995474D01*
X75320357Y-148084355D01*
X75323320Y-148085582D01*
X75323323Y-148085584D01*
X75452280Y-148139000D01*
X75452284Y-148139001D01*
X75455246Y-148140228D01*
X75458427Y-148140647D01*
X75458428Y-148140647D01*
X75596817Y-148158866D01*
X75600000Y-148159285D01*
X75603183Y-148158866D01*
X75741572Y-148140647D01*
X75741573Y-148140647D01*
X75744754Y-148140228D01*
X75747716Y-148139001D01*
X75747720Y-148139000D01*
X75815898Y-148110759D01*
X75852749Y-148095495D01*
X75890251Y-148095495D01*
X75916770Y-148122013D01*
X75920500Y-148140765D01*
X75920500Y-149150848D01*
X75906281Y-149185179D01*
X75904526Y-149186526D01*
X75815645Y-149302358D01*
X75814416Y-149305325D01*
X75761000Y-149434280D01*
X75760999Y-149434284D01*
X75759772Y-149437246D01*
X75740715Y-149582000D01*
X75741134Y-149585183D01*
X75759321Y-149723325D01*
X75759772Y-149726754D01*
X75760999Y-149729716D01*
X75761000Y-149729720D01*
X75811767Y-149852280D01*
X75815645Y-149861642D01*
X75904526Y-149977474D01*
X76020357Y-150066355D01*
X76023320Y-150067582D01*
X76023323Y-150067584D01*
X76152280Y-150121000D01*
X76152284Y-150121001D01*
X76155246Y-150122228D01*
X76158427Y-150122647D01*
X76158428Y-150122647D01*
X76296817Y-150140866D01*
X76300000Y-150141285D01*
X76303183Y-150140866D01*
X76441572Y-150122647D01*
X76441573Y-150122647D01*
X76444754Y-150122228D01*
X76447716Y-150121001D01*
X76447720Y-150121000D01*
X76576677Y-150067584D01*
X76576680Y-150067582D01*
X76579643Y-150066355D01*
X76695474Y-149977474D01*
X76784355Y-149861642D01*
X76788233Y-149852280D01*
X76839000Y-149729720D01*
X76839001Y-149729716D01*
X76840228Y-149726754D01*
X76840680Y-149723325D01*
X76858866Y-149585183D01*
X76859285Y-149582000D01*
X76840228Y-149437246D01*
X76839001Y-149434284D01*
X76839000Y-149434280D01*
X76785584Y-149305325D01*
X76784355Y-149302358D01*
X76695474Y-149186526D01*
X76693719Y-149185179D01*
X76679500Y-149150848D01*
X76679500Y-148840765D01*
X76693852Y-148806117D01*
X76728500Y-148791765D01*
X76747251Y-148795495D01*
X76772895Y-148806117D01*
X76852280Y-148839000D01*
X76852284Y-148839001D01*
X76855246Y-148840228D01*
X76858427Y-148840647D01*
X76858428Y-148840647D01*
X76898504Y-148845923D01*
X76999278Y-148859190D01*
X77000000Y-148859285D01*
X76999980Y-148859433D01*
X77028680Y-148869386D01*
X77045367Y-148882541D01*
X77049679Y-148886373D01*
X77053944Y-148890638D01*
X77064343Y-148898069D01*
X77071129Y-148902919D01*
X77072973Y-148904304D01*
X77111464Y-148934647D01*
X77114647Y-148937156D01*
X77118472Y-148938499D01*
X77122017Y-148940448D01*
X77121936Y-148940596D01*
X77123729Y-148941528D01*
X77123803Y-148941378D01*
X77127439Y-148943159D01*
X77130734Y-148945514D01*
X77134613Y-148946674D01*
X77181609Y-148960729D01*
X77183802Y-148961442D01*
X77233851Y-148979018D01*
X77236920Y-148979284D01*
X77236921Y-148979284D01*
X77238364Y-148979409D01*
X77238367Y-148979409D01*
X77239416Y-148979500D01*
X77239415Y-148979513D01*
X77243852Y-148980261D01*
X77243879Y-148980045D01*
X77247898Y-148980553D01*
X77251778Y-148981713D01*
X77255827Y-148981554D01*
X77307137Y-148979538D01*
X77309061Y-148979500D01*
X82039813Y-148979500D01*
X82074461Y-148993852D01*
X82081726Y-149003117D01*
X82148435Y-149113267D01*
X82150335Y-149115235D01*
X82150337Y-149115237D01*
X82189189Y-149155469D01*
X82266021Y-149235031D01*
X82407660Y-149327717D01*
X82566315Y-149386720D01*
X82569024Y-149387081D01*
X82569026Y-149387082D01*
X82631924Y-149395474D01*
X82734099Y-149409107D01*
X82736824Y-149408859D01*
X82736826Y-149408859D01*
X82899941Y-149394015D01*
X82899944Y-149394014D01*
X82902673Y-149393766D01*
X83063659Y-149341458D01*
X83066012Y-149340055D01*
X83066015Y-149340054D01*
X83206703Y-149256187D01*
X83206705Y-149256185D01*
X83209056Y-149254784D01*
X83224012Y-149240542D01*
X83329657Y-149139939D01*
X83329659Y-149139936D01*
X83331638Y-149138052D01*
X83354359Y-149103855D01*
X83423793Y-148999348D01*
X83423794Y-148999347D01*
X83425311Y-148997063D01*
X83431142Y-148981713D01*
X83484447Y-148841387D01*
X83484448Y-148841382D01*
X83485420Y-148838824D01*
X83508978Y-148671200D01*
X83509274Y-148650000D01*
X83502239Y-148587277D01*
X83490712Y-148484508D01*
X83490711Y-148484504D01*
X83490406Y-148481784D01*
X83489505Y-148479197D01*
X83489504Y-148479192D01*
X83435639Y-148324515D01*
X83435637Y-148324512D01*
X83434738Y-148321929D01*
X83433289Y-148319610D01*
X83433287Y-148319606D01*
X83346491Y-148180704D01*
X83346490Y-148180703D01*
X83345038Y-148178379D01*
X83339119Y-148172418D01*
X83257010Y-148089734D01*
X83225764Y-148058269D01*
X83111231Y-147985584D01*
X83085156Y-147969036D01*
X83085154Y-147969035D01*
X83082844Y-147967569D01*
X83080266Y-147966651D01*
X83080264Y-147966650D01*
X82925962Y-147911706D01*
X82923381Y-147910787D01*
X82920661Y-147910463D01*
X82920658Y-147910462D01*
X82838645Y-147900683D01*
X82755301Y-147890745D01*
X82752580Y-147891031D01*
X82752577Y-147891031D01*
X82658964Y-147900870D01*
X82586957Y-147908438D01*
X82584364Y-147909321D01*
X82584363Y-147909321D01*
X82580057Y-147910787D01*
X82426717Y-147962988D01*
X82282544Y-148051684D01*
X82280589Y-148053598D01*
X82280587Y-148053600D01*
X82163561Y-148168201D01*
X82163559Y-148168204D01*
X82161605Y-148170117D01*
X82160122Y-148172417D01*
X82160122Y-148172418D01*
X82143607Y-148198044D01*
X82112774Y-148219393D01*
X82102419Y-148220500D01*
X77591791Y-148220500D01*
X77557143Y-148206148D01*
X77543210Y-148177896D01*
X77540647Y-148158428D01*
X77540647Y-148158427D01*
X77540228Y-148155246D01*
X77518977Y-148103942D01*
X77518977Y-148066440D01*
X77545495Y-148039921D01*
X77676677Y-147985584D01*
X77676680Y-147985582D01*
X77679643Y-147984355D01*
X77795474Y-147895474D01*
X77812978Y-147872663D01*
X77882399Y-147782191D01*
X77884355Y-147779642D01*
X77901129Y-147739147D01*
X77939000Y-147647720D01*
X77939001Y-147647716D01*
X77940228Y-147644754D01*
X77959285Y-147500000D01*
X77940228Y-147355246D01*
X77939001Y-147352284D01*
X77939000Y-147352280D01*
X77885584Y-147223325D01*
X77884355Y-147220358D01*
X77819622Y-147135996D01*
X77797430Y-147107075D01*
X77795474Y-147104526D01*
X77790710Y-147100870D01*
X77712315Y-147040715D01*
X77679643Y-147015645D01*
X77676680Y-147014418D01*
X77676677Y-147014416D01*
X77547720Y-146961000D01*
X77547716Y-146960999D01*
X77544754Y-146959772D01*
X77541573Y-146959353D01*
X77541572Y-146959353D01*
X77403183Y-146941134D01*
X77400000Y-146940715D01*
X77396817Y-146941134D01*
X77258428Y-146959353D01*
X77258427Y-146959353D01*
X77255246Y-146959772D01*
X77252284Y-146960999D01*
X77252280Y-146961000D01*
X77120358Y-147015645D01*
X77004526Y-147104526D01*
X77003179Y-147106281D01*
X76968848Y-147120500D01*
X76962532Y-147120500D01*
X76952218Y-147119402D01*
X76938894Y-147116533D01*
X76938893Y-147116533D01*
X76934931Y-147115680D01*
X76897079Y-147120160D01*
X76891322Y-147120500D01*
X76885283Y-147120500D01*
X76883294Y-147120831D01*
X76883295Y-147120831D01*
X76864443Y-147123969D01*
X76862154Y-147124294D01*
X76809466Y-147130530D01*
X76805814Y-147132284D01*
X76801924Y-147133414D01*
X76801877Y-147133253D01*
X76799954Y-147133861D01*
X76800008Y-147134020D01*
X76796179Y-147135331D01*
X76792181Y-147135996D01*
X76788616Y-147137920D01*
X76788615Y-147137920D01*
X76784338Y-147140228D01*
X76745451Y-147161210D01*
X76743454Y-147162228D01*
X76695575Y-147185219D01*
X76691299Y-147188813D01*
X76691291Y-147188804D01*
X76687624Y-147191414D01*
X76687757Y-147191585D01*
X76684558Y-147194066D01*
X76680993Y-147195990D01*
X76655725Y-147223325D01*
X76643387Y-147236672D01*
X76642053Y-147238059D01*
X76421685Y-147458428D01*
X76242514Y-147637599D01*
X76207866Y-147651951D01*
X76173218Y-147637599D01*
X76158889Y-147603007D01*
X76159285Y-147600000D01*
X76148434Y-147517576D01*
X76140647Y-147458428D01*
X76140647Y-147458427D01*
X76140228Y-147455246D01*
X76139001Y-147452284D01*
X76139000Y-147452280D01*
X76085584Y-147323325D01*
X76084355Y-147320358D01*
X76020678Y-147237373D01*
X75997430Y-147207075D01*
X75997428Y-147207073D01*
X75995474Y-147204526D01*
X75879643Y-147115645D01*
X75876680Y-147114418D01*
X75876677Y-147114416D01*
X75747720Y-147061000D01*
X75747716Y-147060999D01*
X75744754Y-147059772D01*
X75741573Y-147059353D01*
X75741572Y-147059353D01*
X75603183Y-147041134D01*
X75600000Y-147040715D01*
X75596817Y-147041134D01*
X75458428Y-147059353D01*
X75458427Y-147059353D01*
X75455246Y-147059772D01*
X75452284Y-147060999D01*
X75452280Y-147061000D01*
X75337781Y-147108428D01*
X75320358Y-147115645D01*
X75204526Y-147204526D01*
X75202572Y-147207073D01*
X75202570Y-147207075D01*
X75179322Y-147237373D01*
X75115645Y-147320358D01*
X75114416Y-147323325D01*
X75061000Y-147452280D01*
X75060999Y-147452284D01*
X75059772Y-147455246D01*
X75059353Y-147458427D01*
X75059353Y-147458428D01*
X75051566Y-147517576D01*
X75040715Y-147600000D01*
X74059285Y-147600000D01*
X74048434Y-147517576D01*
X74040647Y-147458428D01*
X74040647Y-147458427D01*
X74040228Y-147455246D01*
X74039001Y-147452284D01*
X74039000Y-147452280D01*
X73985584Y-147323325D01*
X73984355Y-147320358D01*
X73932810Y-147253183D01*
X73914890Y-147229829D01*
X73905183Y-147193604D01*
X73914890Y-147170171D01*
X73975515Y-147091163D01*
X73984355Y-147079642D01*
X74009747Y-147018342D01*
X74039000Y-146947720D01*
X74039001Y-146947716D01*
X74040228Y-146944754D01*
X74048153Y-146884561D01*
X74058866Y-146803183D01*
X74059285Y-146800000D01*
X74049509Y-146725744D01*
X74040647Y-146658428D01*
X74040647Y-146658427D01*
X74040228Y-146655246D01*
X74039001Y-146652284D01*
X74039000Y-146652280D01*
X73985584Y-146523325D01*
X73984355Y-146520358D01*
X73926190Y-146444556D01*
X73897430Y-146407075D01*
X73895474Y-146404526D01*
X73779643Y-146315645D01*
X73776680Y-146314418D01*
X73776677Y-146314416D01*
X73647720Y-146261000D01*
X73647716Y-146260999D01*
X73644754Y-146259772D01*
X73641573Y-146259353D01*
X73641572Y-146259353D01*
X73503183Y-146241134D01*
X73500000Y-146240715D01*
X73496817Y-146241134D01*
X73358428Y-146259353D01*
X73358427Y-146259353D01*
X73355246Y-146259772D01*
X73352284Y-146260999D01*
X73352280Y-146261000D01*
X73223325Y-146314416D01*
X73220358Y-146315645D01*
X73217809Y-146317601D01*
X73116464Y-146395366D01*
X73104526Y-146404526D01*
X73102570Y-146407075D01*
X73038874Y-146490085D01*
X73006396Y-146508837D01*
X72970171Y-146499130D01*
X72961126Y-146490085D01*
X72897430Y-146407075D01*
X72895474Y-146404526D01*
X72779643Y-146315645D01*
X72776680Y-146314418D01*
X72776677Y-146314416D01*
X72647720Y-146261000D01*
X72647716Y-146260999D01*
X72644754Y-146259772D01*
X72641573Y-146259353D01*
X72641572Y-146259353D01*
X72503183Y-146241134D01*
X72500000Y-146240715D01*
X72496817Y-146241134D01*
X72358428Y-146259353D01*
X72358427Y-146259353D01*
X72355246Y-146259772D01*
X72352284Y-146260999D01*
X72352280Y-146261000D01*
X72223325Y-146314416D01*
X72220358Y-146315645D01*
X72217809Y-146317601D01*
X72116464Y-146395366D01*
X72104526Y-146404526D01*
X72102570Y-146407075D01*
X72073810Y-146444556D01*
X72015645Y-146520358D01*
X72014416Y-146523325D01*
X71961000Y-146652280D01*
X71960999Y-146652284D01*
X71959772Y-146655246D01*
X71959353Y-146658427D01*
X71959353Y-146658428D01*
X71950491Y-146725744D01*
X71940715Y-146800000D01*
X71941134Y-146803183D01*
X71951848Y-146884561D01*
X71959772Y-146944754D01*
X71960999Y-146947716D01*
X71961000Y-146947720D01*
X71990253Y-147018342D01*
X72015645Y-147079642D01*
X72024485Y-147091163D01*
X72085110Y-147170171D01*
X72094817Y-147206396D01*
X72085110Y-147229829D01*
X72067190Y-147253183D01*
X72015645Y-147320358D01*
X72014416Y-147323325D01*
X71961000Y-147452280D01*
X71960999Y-147452284D01*
X71959772Y-147455246D01*
X71959353Y-147458427D01*
X71959353Y-147458428D01*
X71951566Y-147517576D01*
X71940715Y-147600000D01*
X68883785Y-147600000D01*
X68872934Y-147517576D01*
X68865147Y-147458428D01*
X68865147Y-147458427D01*
X68864728Y-147455246D01*
X68863501Y-147452284D01*
X68863500Y-147452280D01*
X68810084Y-147323325D01*
X68808855Y-147320358D01*
X68719974Y-147204526D01*
X68718219Y-147203179D01*
X68704000Y-147168848D01*
X68704000Y-147052990D01*
X68718352Y-147018342D01*
X69060511Y-146676183D01*
X69068576Y-146669669D01*
X69083440Y-146660071D01*
X69107041Y-146630133D01*
X69110873Y-146625821D01*
X69115138Y-146621556D01*
X69127419Y-146604371D01*
X69128804Y-146602527D01*
X69159147Y-146564036D01*
X69159148Y-146564035D01*
X69161656Y-146560853D01*
X69162999Y-146557028D01*
X69164948Y-146553483D01*
X69165096Y-146553564D01*
X69166028Y-146551771D01*
X69165878Y-146551697D01*
X69167659Y-146548061D01*
X69170014Y-146544766D01*
X69185229Y-146493890D01*
X69185943Y-146491696D01*
X69198743Y-146455246D01*
X69203518Y-146441649D01*
X69204000Y-146436084D01*
X69204013Y-146436085D01*
X69204760Y-146431651D01*
X69204545Y-146431624D01*
X69205053Y-146427602D01*
X69206213Y-146423722D01*
X69206167Y-146422562D01*
X69219112Y-146396135D01*
X69219974Y-146395474D01*
X69308855Y-146279642D01*
X69327835Y-146233821D01*
X69363500Y-146147720D01*
X69363501Y-146147716D01*
X69364728Y-146144754D01*
X69372965Y-146082191D01*
X69383366Y-146003183D01*
X69383785Y-146000000D01*
X69381841Y-145985230D01*
X69365147Y-145858428D01*
X69365147Y-145858427D01*
X69364728Y-145855246D01*
X69363501Y-145852284D01*
X69363500Y-145852280D01*
X69310084Y-145723325D01*
X69308855Y-145720358D01*
X69231583Y-145619655D01*
X69221930Y-145607075D01*
X69219974Y-145604526D01*
X69188829Y-145580627D01*
X69106692Y-145517601D01*
X69104143Y-145515645D01*
X69101180Y-145514418D01*
X69101177Y-145514416D01*
X68972220Y-145461000D01*
X68972216Y-145460999D01*
X68969254Y-145459772D01*
X68966073Y-145459353D01*
X68966072Y-145459353D01*
X68827683Y-145441134D01*
X68824500Y-145440715D01*
X68821317Y-145441134D01*
X68682928Y-145459353D01*
X68682927Y-145459353D01*
X68679746Y-145459772D01*
X68676784Y-145460999D01*
X68676780Y-145461000D01*
X68578379Y-145501760D01*
X68544858Y-145515645D01*
X68542309Y-145517601D01*
X68439073Y-145596817D01*
X68429026Y-145604526D01*
X68427070Y-145607075D01*
X68417417Y-145619655D01*
X68340145Y-145720358D01*
X68338916Y-145723325D01*
X68285500Y-145852280D01*
X68285499Y-145852284D01*
X68284272Y-145855246D01*
X68283853Y-145858427D01*
X68283853Y-145858428D01*
X68267159Y-145985230D01*
X68265215Y-146000000D01*
X68265634Y-146003183D01*
X68276036Y-146082191D01*
X68284272Y-146144754D01*
X68285499Y-146147716D01*
X68285500Y-146147720D01*
X68340145Y-146279642D01*
X68338380Y-146280373D01*
X68342469Y-146311573D01*
X68329794Y-146333512D01*
X68088489Y-146574817D01*
X68080424Y-146581331D01*
X68065560Y-146590929D01*
X68042710Y-146619914D01*
X68041960Y-146620866D01*
X68038127Y-146625179D01*
X68033862Y-146629444D01*
X68032689Y-146631086D01*
X68021581Y-146646629D01*
X68020196Y-146648473D01*
X67992021Y-146684214D01*
X67987344Y-146690147D01*
X67986001Y-146693972D01*
X67984052Y-146697517D01*
X67983904Y-146697436D01*
X67982972Y-146699229D01*
X67983122Y-146699303D01*
X67981341Y-146702939D01*
X67978986Y-146706234D01*
X67977826Y-146710113D01*
X67963771Y-146757109D01*
X67963058Y-146759302D01*
X67945482Y-146809351D01*
X67945000Y-146814916D01*
X67944987Y-146814915D01*
X67944239Y-146819352D01*
X67944455Y-146819379D01*
X67943947Y-146823398D01*
X67942787Y-146827278D01*
X67942946Y-146831327D01*
X67944962Y-146882637D01*
X67945000Y-146884561D01*
X67945000Y-147168848D01*
X67930781Y-147203179D01*
X67929026Y-147204526D01*
X67840145Y-147320358D01*
X67838916Y-147323325D01*
X67785500Y-147452280D01*
X67785499Y-147452284D01*
X67784272Y-147455246D01*
X67783853Y-147458427D01*
X67783853Y-147458428D01*
X67776066Y-147517576D01*
X67765215Y-147600000D01*
X67430367Y-147600000D01*
X67484355Y-147529642D01*
X67516400Y-147452280D01*
X67539000Y-147397720D01*
X67539001Y-147397716D01*
X67540228Y-147394754D01*
X67549083Y-147327497D01*
X67558866Y-147253183D01*
X67559285Y-147250000D01*
X67557530Y-147236672D01*
X67540647Y-147108428D01*
X67540647Y-147108427D01*
X67540228Y-147105246D01*
X67539001Y-147102284D01*
X67539000Y-147102280D01*
X67485584Y-146973325D01*
X67484355Y-146970358D01*
X67395474Y-146854526D01*
X67279643Y-146765645D01*
X67276680Y-146764418D01*
X67276677Y-146764416D01*
X67147720Y-146711000D01*
X67147716Y-146710999D01*
X67144754Y-146709772D01*
X67141573Y-146709353D01*
X67141572Y-146709353D01*
X67003183Y-146691134D01*
X67000000Y-146690715D01*
X66996817Y-146691134D01*
X66858428Y-146709353D01*
X66858427Y-146709353D01*
X66855246Y-146709772D01*
X66852284Y-146710999D01*
X66852280Y-146711000D01*
X66738334Y-146758199D01*
X66720358Y-146765645D01*
X66717809Y-146767601D01*
X66634760Y-146831327D01*
X66604526Y-146854526D01*
X66515645Y-146970358D01*
X66514416Y-146973325D01*
X66461000Y-147102280D01*
X66460999Y-147102284D01*
X66459772Y-147105246D01*
X66459353Y-147108427D01*
X66459353Y-147108428D01*
X66442470Y-147236672D01*
X66440715Y-147250000D01*
X66441134Y-147253183D01*
X66450918Y-147327497D01*
X66459772Y-147394754D01*
X66460999Y-147397716D01*
X66461000Y-147397720D01*
X66508393Y-147512135D01*
X66508393Y-147549638D01*
X66497771Y-147565535D01*
X65742673Y-148320633D01*
X65714421Y-148334566D01*
X65659789Y-148341758D01*
X65595826Y-148350179D01*
X65595825Y-148350179D01*
X65592644Y-148350598D01*
X65589682Y-148351825D01*
X65589678Y-148351826D01*
X65460723Y-148405242D01*
X65457756Y-148406471D01*
X65341924Y-148495352D01*
X65253043Y-148611184D01*
X65251814Y-148614151D01*
X65198398Y-148743106D01*
X65198397Y-148743110D01*
X65197170Y-148746072D01*
X65196751Y-148749253D01*
X65196751Y-148749254D01*
X65183188Y-148852280D01*
X65178113Y-148890826D01*
X59044912Y-148890826D01*
X59040647Y-148858428D01*
X59040647Y-148858427D01*
X59040228Y-148855246D01*
X59039001Y-148852284D01*
X59039000Y-148852280D01*
X58985584Y-148723325D01*
X58984355Y-148720358D01*
X58895474Y-148604526D01*
X58779643Y-148515645D01*
X58776680Y-148514418D01*
X58776677Y-148514416D01*
X58647720Y-148461000D01*
X58647716Y-148460999D01*
X58644754Y-148459772D01*
X58641573Y-148459353D01*
X58641572Y-148459353D01*
X58503183Y-148441134D01*
X58500000Y-148440715D01*
X58496817Y-148441134D01*
X58358428Y-148459353D01*
X58358427Y-148459353D01*
X58355246Y-148459772D01*
X58352284Y-148460999D01*
X58352280Y-148461000D01*
X58274071Y-148493396D01*
X58220358Y-148515645D01*
X58104526Y-148604526D01*
X58102570Y-148607075D01*
X58038874Y-148690085D01*
X58006396Y-148708837D01*
X57970171Y-148699130D01*
X57961126Y-148690085D01*
X57897430Y-148607075D01*
X57895474Y-148604526D01*
X57779643Y-148515645D01*
X57776680Y-148514418D01*
X57776677Y-148514416D01*
X57647720Y-148461000D01*
X57647716Y-148460999D01*
X57644754Y-148459772D01*
X57641573Y-148459353D01*
X57641572Y-148459353D01*
X57503183Y-148441134D01*
X57500000Y-148440715D01*
X57496817Y-148441134D01*
X57358428Y-148459353D01*
X57358427Y-148459353D01*
X57355246Y-148459772D01*
X57352284Y-148460999D01*
X57352280Y-148461000D01*
X57274071Y-148493396D01*
X57220358Y-148515645D01*
X57104526Y-148604526D01*
X57015645Y-148720358D01*
X57014416Y-148723325D01*
X56961000Y-148852280D01*
X56960999Y-148852284D01*
X56959772Y-148855246D01*
X56959353Y-148858427D01*
X56959353Y-148858428D01*
X56941524Y-148993852D01*
X56940715Y-149000000D01*
X56941134Y-149003183D01*
X56958590Y-149135772D01*
X56959772Y-149144754D01*
X56960999Y-149147716D01*
X56961000Y-149147720D01*
X57014416Y-149276675D01*
X57015645Y-149279642D01*
X57104526Y-149395474D01*
X57151441Y-149431473D01*
X57190085Y-149461126D01*
X57208837Y-149493604D01*
X57199130Y-149529829D01*
X57190085Y-149538874D01*
X57133882Y-149582000D01*
X57104526Y-149604526D01*
X57102570Y-149607075D01*
X57060880Y-149661406D01*
X57015645Y-149720358D01*
X57014416Y-149723325D01*
X56961000Y-149852280D01*
X56960999Y-149852284D01*
X56959772Y-149855246D01*
X56959353Y-149858427D01*
X56959353Y-149858428D01*
X56950243Y-149927626D01*
X56940715Y-150000000D01*
X51450000Y-150000000D01*
X51450000Y-149781405D01*
X51450603Y-149773739D01*
X51453760Y-149753807D01*
X51454363Y-149750000D01*
X51453669Y-149745616D01*
X51453374Y-149743439D01*
X51438021Y-149607180D01*
X51437713Y-149604446D01*
X51406640Y-149515645D01*
X51390244Y-149468788D01*
X51390243Y-149468786D01*
X51389335Y-149466191D01*
X51311406Y-149342167D01*
X51207833Y-149238594D01*
X51083809Y-149160665D01*
X51081214Y-149159757D01*
X51081212Y-149159756D01*
X50974609Y-149122454D01*
X50945554Y-149112287D01*
X50933458Y-149110924D01*
X50876235Y-149104476D01*
X50865492Y-149102018D01*
X50863918Y-149101466D01*
X50863917Y-149101466D01*
X50861007Y-149100444D01*
X50857932Y-149100178D01*
X50856936Y-149100091D01*
X50856927Y-149100091D01*
X50855881Y-149100000D01*
X50839257Y-149100000D01*
X50833773Y-149099692D01*
X50806557Y-149096626D01*
X50804384Y-149096331D01*
X50803809Y-149096240D01*
X50803808Y-149096240D01*
X50800000Y-149095637D01*
X50793756Y-149096626D01*
X50776261Y-149099397D01*
X50768595Y-149100000D01*
X48499000Y-149100000D01*
X48464352Y-149085648D01*
X48450000Y-149051000D01*
X48450000Y-148116897D01*
X48464352Y-148082249D01*
X48499000Y-148067897D01*
X48531787Y-148080483D01*
X48581130Y-148124911D01*
X48615420Y-148155786D01*
X48780080Y-148250853D01*
X48960908Y-148309608D01*
X49004737Y-148314214D01*
X49101331Y-148324367D01*
X49101336Y-148324367D01*
X49102599Y-148324500D01*
X50497401Y-148324500D01*
X50498664Y-148324367D01*
X50498669Y-148324367D01*
X50595263Y-148314214D01*
X50639092Y-148309608D01*
X50819920Y-148250853D01*
X50984580Y-148155786D01*
X51003223Y-148139000D01*
X51123972Y-148030278D01*
X51123976Y-148030274D01*
X51125877Y-148028562D01*
X51157103Y-147985584D01*
X51236127Y-147876817D01*
X51236128Y-147876815D01*
X51237635Y-147874741D01*
X51314969Y-147701045D01*
X51354500Y-147515067D01*
X51354500Y-147324933D01*
X51349016Y-147299130D01*
X51328491Y-147202570D01*
X51314969Y-147138955D01*
X51237635Y-146965259D01*
X51234541Y-146961000D01*
X51127382Y-146813509D01*
X51127380Y-146813507D01*
X51125877Y-146811438D01*
X51123976Y-146809726D01*
X51123972Y-146809722D01*
X50986494Y-146685937D01*
X50986492Y-146685935D01*
X50984580Y-146684214D01*
X50826464Y-146592925D01*
X50822146Y-146590432D01*
X50822145Y-146590431D01*
X50819920Y-146589147D01*
X50639092Y-146530392D01*
X50571853Y-146523325D01*
X50498669Y-146515633D01*
X50498664Y-146515633D01*
X50497401Y-146515500D01*
X49102599Y-146515500D01*
X49101336Y-146515633D01*
X49101331Y-146515633D01*
X49028147Y-146523325D01*
X48960908Y-146530392D01*
X48780080Y-146589147D01*
X48777855Y-146590431D01*
X48777854Y-146590432D01*
X48773536Y-146592925D01*
X48615420Y-146684214D01*
X48613508Y-146685935D01*
X48613506Y-146685937D01*
X48531787Y-146759517D01*
X48496435Y-146772036D01*
X48462586Y-146755890D01*
X48450000Y-146723103D01*
X48450000Y-145800000D01*
X51440715Y-145800000D01*
X51441134Y-145803183D01*
X51458669Y-145936372D01*
X51459772Y-145944754D01*
X51460999Y-145947716D01*
X51461000Y-145947720D01*
X51492984Y-146024934D01*
X51515645Y-146079642D01*
X51604526Y-146195474D01*
X51720357Y-146284355D01*
X51723320Y-146285582D01*
X51723323Y-146285584D01*
X51852280Y-146339000D01*
X51852284Y-146339001D01*
X51855246Y-146340228D01*
X51858427Y-146340647D01*
X51858428Y-146340647D01*
X51996817Y-146358866D01*
X52000000Y-146359285D01*
X52003183Y-146358866D01*
X52141572Y-146340647D01*
X52141573Y-146340647D01*
X52144754Y-146340228D01*
X52147716Y-146339001D01*
X52147720Y-146339000D01*
X52276679Y-146285583D01*
X52276681Y-146285582D01*
X52279643Y-146284355D01*
X52280770Y-146283490D01*
X52317347Y-146278675D01*
X52347100Y-146301505D01*
X52353212Y-146319354D01*
X52360905Y-146375518D01*
X52421242Y-146514946D01*
X52423343Y-146517541D01*
X52423344Y-146517542D01*
X52428027Y-146523325D01*
X52516850Y-146633013D01*
X52539894Y-146649390D01*
X52559823Y-146681158D01*
X52551451Y-146717714D01*
X52544296Y-146725744D01*
X52451028Y-146809722D01*
X52451025Y-146809726D01*
X52449123Y-146811438D01*
X52447620Y-146813507D01*
X52447618Y-146813509D01*
X52340459Y-146961000D01*
X52337365Y-146965259D01*
X52260031Y-147138955D01*
X52246509Y-147202570D01*
X52225985Y-147299130D01*
X52220500Y-147324933D01*
X52220500Y-147515067D01*
X52260031Y-147701045D01*
X52337365Y-147874741D01*
X52338872Y-147876815D01*
X52338873Y-147876817D01*
X52417898Y-147985584D01*
X52449123Y-148028562D01*
X52451024Y-148030274D01*
X52451028Y-148030278D01*
X52571777Y-148139000D01*
X52590420Y-148155786D01*
X52755080Y-148250853D01*
X52935908Y-148309608D01*
X52979737Y-148314214D01*
X53076331Y-148324367D01*
X53076336Y-148324367D01*
X53077599Y-148324500D01*
X54172401Y-148324500D01*
X54173664Y-148324367D01*
X54173669Y-148324367D01*
X54270263Y-148314214D01*
X54314092Y-148309608D01*
X54494920Y-148250853D01*
X54659580Y-148155786D01*
X54678223Y-148139000D01*
X54798972Y-148030278D01*
X54798976Y-148030274D01*
X54800877Y-148028562D01*
X54832103Y-147985584D01*
X54911127Y-147876817D01*
X54911128Y-147876815D01*
X54912635Y-147874741D01*
X54989969Y-147701045D01*
X55029500Y-147515067D01*
X55029500Y-147324933D01*
X55024016Y-147299130D01*
X55003491Y-147202570D01*
X54989969Y-147138955D01*
X54912635Y-146965259D01*
X54909541Y-146961000D01*
X54802382Y-146813509D01*
X54802380Y-146813507D01*
X54800877Y-146811438D01*
X54798976Y-146809726D01*
X54798972Y-146809722D01*
X54661494Y-146685937D01*
X54661492Y-146685935D01*
X54659580Y-146684214D01*
X54501464Y-146592925D01*
X54497146Y-146590432D01*
X54497145Y-146590431D01*
X54494920Y-146589147D01*
X54314092Y-146530392D01*
X54246853Y-146523325D01*
X54173669Y-146515633D01*
X54173664Y-146515633D01*
X54172401Y-146515500D01*
X53458300Y-146515500D01*
X53423652Y-146501148D01*
X53409300Y-146466500D01*
X53412188Y-146452907D01*
X53411323Y-146452656D01*
X53452991Y-146309236D01*
X53453709Y-146306765D01*
X53453897Y-146304203D01*
X53453898Y-146304198D01*
X53454433Y-146296901D01*
X53454500Y-146295993D01*
X53454500Y-145936943D01*
X53453974Y-145933097D01*
X53439548Y-145827789D01*
X53439095Y-145824482D01*
X53378758Y-145685054D01*
X53364896Y-145667935D01*
X53342459Y-145640228D01*
X53309883Y-145600000D01*
X54590715Y-145600000D01*
X54591134Y-145603183D01*
X54592329Y-145612256D01*
X54609772Y-145744754D01*
X54610999Y-145747716D01*
X54611000Y-145747720D01*
X54654311Y-145852280D01*
X54665645Y-145879642D01*
X54699164Y-145923325D01*
X54746666Y-145985230D01*
X54754526Y-145995474D01*
X54757075Y-145997430D01*
X54770821Y-146007978D01*
X54870357Y-146084355D01*
X54873320Y-146085582D01*
X54873323Y-146085584D01*
X55002280Y-146139000D01*
X55002284Y-146139001D01*
X55005246Y-146140228D01*
X55008427Y-146140647D01*
X55008428Y-146140647D01*
X55146817Y-146158866D01*
X55150000Y-146159285D01*
X55153183Y-146158866D01*
X55291572Y-146140647D01*
X55291573Y-146140647D01*
X55294754Y-146140228D01*
X55297716Y-146139001D01*
X55297720Y-146139000D01*
X55426677Y-146085584D01*
X55426680Y-146085582D01*
X55429643Y-146084355D01*
X55529179Y-146007978D01*
X55542925Y-145997430D01*
X55545474Y-145995474D01*
X55553335Y-145985230D01*
X55600836Y-145923325D01*
X55634355Y-145879642D01*
X55645689Y-145852280D01*
X55689000Y-145747720D01*
X55689001Y-145747716D01*
X55690228Y-145744754D01*
X55707672Y-145612256D01*
X55708866Y-145603183D01*
X55709285Y-145600000D01*
X55704684Y-145565053D01*
X55690647Y-145458428D01*
X55690647Y-145458427D01*
X55690228Y-145455246D01*
X55689001Y-145452284D01*
X55689000Y-145452280D01*
X55635584Y-145323325D01*
X55634355Y-145320358D01*
X55545474Y-145204526D01*
X55429643Y-145115645D01*
X55426680Y-145114418D01*
X55426677Y-145114416D01*
X55391874Y-145100000D01*
X65240715Y-145100000D01*
X65241134Y-145103183D01*
X65254812Y-145207075D01*
X65259772Y-145244754D01*
X65260999Y-145247716D01*
X65261000Y-145247720D01*
X65305835Y-145355960D01*
X65315645Y-145379642D01*
X65404526Y-145495474D01*
X65407075Y-145497430D01*
X65412718Y-145501760D01*
X65520357Y-145584355D01*
X65523320Y-145585582D01*
X65523323Y-145585584D01*
X65652280Y-145639000D01*
X65652284Y-145639001D01*
X65655246Y-145640228D01*
X65658427Y-145640647D01*
X65658428Y-145640647D01*
X65796817Y-145658866D01*
X65800000Y-145659285D01*
X65803183Y-145658866D01*
X65941572Y-145640647D01*
X65941573Y-145640647D01*
X65944754Y-145640228D01*
X65947716Y-145639001D01*
X65947720Y-145639000D01*
X66076677Y-145585584D01*
X66076680Y-145585582D01*
X66079643Y-145584355D01*
X66187282Y-145501760D01*
X66192925Y-145497430D01*
X66195474Y-145495474D01*
X66284355Y-145379642D01*
X66294165Y-145355960D01*
X66339000Y-145247720D01*
X66339001Y-145247716D01*
X66340228Y-145244754D01*
X66345189Y-145207075D01*
X66358866Y-145103183D01*
X66359285Y-145100000D01*
X66357341Y-145085230D01*
X66340647Y-144958428D01*
X66340647Y-144958427D01*
X66340228Y-144955246D01*
X66339001Y-144952284D01*
X66339000Y-144952280D01*
X66284355Y-144820358D01*
X66285645Y-144819823D01*
X66281369Y-144787313D01*
X66284518Y-144779710D01*
X66284355Y-144779642D01*
X66339000Y-144647720D01*
X66339001Y-144647716D01*
X66340228Y-144644754D01*
X66350805Y-144564417D01*
X66358866Y-144503183D01*
X66359285Y-144500000D01*
X66356253Y-144476966D01*
X66340647Y-144358428D01*
X66340647Y-144358427D01*
X66340228Y-144355246D01*
X66339001Y-144352284D01*
X66339000Y-144352280D01*
X66285584Y-144223325D01*
X66284355Y-144220358D01*
X66195474Y-144104526D01*
X66079643Y-144015645D01*
X66076680Y-144014418D01*
X66076677Y-144014416D01*
X65947720Y-143961000D01*
X65947716Y-143960999D01*
X65944754Y-143959772D01*
X65941573Y-143959353D01*
X65941572Y-143959353D01*
X65803183Y-143941134D01*
X65800000Y-143940715D01*
X65796817Y-143941134D01*
X65658428Y-143959353D01*
X65658427Y-143959353D01*
X65655246Y-143959772D01*
X65652284Y-143960999D01*
X65652280Y-143961000D01*
X65536296Y-144009043D01*
X65520358Y-144015645D01*
X65498839Y-144032157D01*
X65433634Y-144082191D01*
X65404526Y-144104526D01*
X65315645Y-144220358D01*
X65314416Y-144223325D01*
X65261000Y-144352280D01*
X65260999Y-144352284D01*
X65259772Y-144355246D01*
X65259353Y-144358427D01*
X65259353Y-144358428D01*
X65243747Y-144476966D01*
X65240715Y-144500000D01*
X65241134Y-144503183D01*
X65249196Y-144564417D01*
X65259772Y-144644754D01*
X65260999Y-144647716D01*
X65261000Y-144647720D01*
X65315645Y-144779642D01*
X65314355Y-144780177D01*
X65318631Y-144812687D01*
X65315482Y-144820290D01*
X65315645Y-144820358D01*
X65261000Y-144952280D01*
X65260999Y-144952284D01*
X65259772Y-144955246D01*
X65259353Y-144958427D01*
X65259353Y-144958428D01*
X65242659Y-145085230D01*
X65240715Y-145100000D01*
X55391874Y-145100000D01*
X55297720Y-145061000D01*
X55297716Y-145060999D01*
X55294754Y-145059772D01*
X55291573Y-145059353D01*
X55291572Y-145059353D01*
X55153183Y-145041134D01*
X55150000Y-145040715D01*
X55146817Y-145041134D01*
X55008428Y-145059353D01*
X55008427Y-145059353D01*
X55005246Y-145059772D01*
X55002284Y-145060999D01*
X55002280Y-145061000D01*
X54898413Y-145104024D01*
X54870358Y-145115645D01*
X54867809Y-145117601D01*
X54763851Y-145197371D01*
X54754526Y-145204526D01*
X54665645Y-145320358D01*
X54664416Y-145323325D01*
X54611000Y-145452280D01*
X54610999Y-145452284D01*
X54609772Y-145455246D01*
X54609353Y-145458427D01*
X54609353Y-145458428D01*
X54595316Y-145565053D01*
X54590715Y-145600000D01*
X53309883Y-145600000D01*
X53283150Y-145566987D01*
X53249722Y-145543231D01*
X53229794Y-145511463D01*
X53238167Y-145474906D01*
X53248278Y-145464417D01*
X53254877Y-145459353D01*
X53269554Y-145448091D01*
X53358435Y-145332259D01*
X53364196Y-145318352D01*
X53413080Y-145200337D01*
X53413081Y-145200333D01*
X53414308Y-145197371D01*
X53415072Y-145191572D01*
X53432946Y-145055800D01*
X53433365Y-145052617D01*
X53414308Y-144907863D01*
X53413081Y-144904901D01*
X53413080Y-144904897D01*
X53359664Y-144775942D01*
X53358435Y-144772975D01*
X53269554Y-144657143D01*
X53266144Y-144654526D01*
X53156272Y-144570218D01*
X53153723Y-144568262D01*
X53150760Y-144567035D01*
X53150757Y-144567033D01*
X53021800Y-144513617D01*
X53021796Y-144513616D01*
X53018834Y-144512389D01*
X53015653Y-144511970D01*
X53015652Y-144511970D01*
X52877263Y-144493751D01*
X52874080Y-144493332D01*
X52870897Y-144493751D01*
X52732508Y-144511970D01*
X52732507Y-144511970D01*
X52729326Y-144512389D01*
X52726364Y-144513616D01*
X52726360Y-144513617D01*
X52600756Y-144565645D01*
X52594438Y-144568262D01*
X52541680Y-144608745D01*
X52518575Y-144626474D01*
X52482350Y-144636181D01*
X52458916Y-144626474D01*
X52430313Y-144604526D01*
X52379643Y-144565645D01*
X52349971Y-144553354D01*
X52247720Y-144511000D01*
X52247716Y-144510999D01*
X52244754Y-144509772D01*
X52241573Y-144509353D01*
X52241572Y-144509353D01*
X52103183Y-144491134D01*
X52100000Y-144490715D01*
X52096817Y-144491134D01*
X51958428Y-144509353D01*
X51958427Y-144509353D01*
X51955246Y-144509772D01*
X51952284Y-144510999D01*
X51952280Y-144511000D01*
X51876705Y-144542305D01*
X51820358Y-144565645D01*
X51772234Y-144602572D01*
X51711255Y-144649363D01*
X51704526Y-144654526D01*
X51615645Y-144770358D01*
X51614416Y-144773325D01*
X51561000Y-144902280D01*
X51560999Y-144902284D01*
X51559772Y-144905246D01*
X51559353Y-144908427D01*
X51559353Y-144908428D01*
X51552495Y-144960522D01*
X51540715Y-145050000D01*
X51541134Y-145053183D01*
X51547298Y-145100000D01*
X51559772Y-145194754D01*
X51560999Y-145197716D01*
X51561000Y-145197720D01*
X51610568Y-145317385D01*
X51615645Y-145329642D01*
X51617863Y-145332532D01*
X51617919Y-145332741D01*
X51619205Y-145334969D01*
X51618608Y-145335314D01*
X51627568Y-145368755D01*
X51608817Y-145401233D01*
X51607073Y-145402571D01*
X51607070Y-145402574D01*
X51604526Y-145404526D01*
X51515645Y-145520358D01*
X51514416Y-145523325D01*
X51461000Y-145652280D01*
X51460999Y-145652284D01*
X51459772Y-145655246D01*
X51459353Y-145658427D01*
X51459353Y-145658428D01*
X51451206Y-145720313D01*
X51440715Y-145800000D01*
X48450000Y-145800000D01*
X48450000Y-143839399D01*
X67840800Y-143839399D01*
X67841067Y-143842122D01*
X67841067Y-143842123D01*
X67854308Y-143977159D01*
X67857318Y-144007862D01*
X67858180Y-144010453D01*
X67858181Y-144010458D01*
X67885239Y-144091796D01*
X67910748Y-144168479D01*
X67912167Y-144170823D01*
X67912168Y-144170824D01*
X67990555Y-144300256D01*
X67998435Y-144313267D01*
X68000335Y-144315235D01*
X68000337Y-144315237D01*
X68029436Y-144345370D01*
X68116021Y-144435031D01*
X68257660Y-144527717D01*
X68416315Y-144586720D01*
X68419024Y-144587081D01*
X68419026Y-144587082D01*
X68484498Y-144595817D01*
X68584099Y-144609107D01*
X68586824Y-144608859D01*
X68586826Y-144608859D01*
X68749941Y-144594015D01*
X68749944Y-144594014D01*
X68752673Y-144593766D01*
X68913659Y-144541458D01*
X68916012Y-144540055D01*
X68916015Y-144540054D01*
X69056703Y-144456187D01*
X69056705Y-144456185D01*
X69059056Y-144454784D01*
X69081015Y-144433873D01*
X69179657Y-144339939D01*
X69179659Y-144339936D01*
X69181638Y-144338052D01*
X69240812Y-144248989D01*
X69273793Y-144199348D01*
X69273794Y-144199347D01*
X69275311Y-144197063D01*
X69278407Y-144188913D01*
X69334447Y-144041387D01*
X69334448Y-144041382D01*
X69335420Y-144038824D01*
X69358978Y-143871200D01*
X69359274Y-143850000D01*
X69350598Y-143772651D01*
X69340712Y-143684508D01*
X69340711Y-143684504D01*
X69340406Y-143681784D01*
X69339505Y-143679197D01*
X69339504Y-143679192D01*
X69285639Y-143524515D01*
X69285637Y-143524512D01*
X69284738Y-143521929D01*
X69283289Y-143519610D01*
X69283287Y-143519606D01*
X69255726Y-143475500D01*
X70744559Y-143475500D01*
X70744978Y-143478683D01*
X70760950Y-143600000D01*
X70763616Y-143620254D01*
X70764843Y-143623216D01*
X70764844Y-143623220D01*
X70806664Y-143724180D01*
X70819489Y-143755142D01*
X70821445Y-143757691D01*
X70869975Y-143820936D01*
X70908370Y-143870974D01*
X71024201Y-143959855D01*
X71027164Y-143961082D01*
X71027167Y-143961084D01*
X71156124Y-144014500D01*
X71156128Y-144014501D01*
X71159090Y-144015728D01*
X71162271Y-144016147D01*
X71162272Y-144016147D01*
X71283882Y-144032157D01*
X71303844Y-144034785D01*
X71306035Y-144034497D01*
X71340368Y-144048718D01*
X72252172Y-144960522D01*
X72258686Y-144968587D01*
X72268284Y-144983451D01*
X72271467Y-144985960D01*
X72298221Y-145007051D01*
X72302534Y-145010884D01*
X72306799Y-145015149D01*
X72308444Y-145016324D01*
X72308448Y-145016328D01*
X72323989Y-145027434D01*
X72325835Y-145028820D01*
X72360060Y-145055800D01*
X72367502Y-145061667D01*
X72371326Y-145063010D01*
X72374872Y-145064959D01*
X72374791Y-145065107D01*
X72376582Y-145066038D01*
X72376656Y-145065887D01*
X72380294Y-145067669D01*
X72383589Y-145070024D01*
X72387468Y-145071184D01*
X72387470Y-145071185D01*
X72434433Y-145085230D01*
X72436627Y-145085943D01*
X72486706Y-145103529D01*
X72489775Y-145103795D01*
X72489776Y-145103795D01*
X72491219Y-145103920D01*
X72491222Y-145103920D01*
X72492271Y-145104011D01*
X72492270Y-145104024D01*
X72496707Y-145104772D01*
X72496734Y-145104556D01*
X72500753Y-145105064D01*
X72504633Y-145106224D01*
X72508682Y-145106065D01*
X72559992Y-145104049D01*
X72561916Y-145104011D01*
X73364035Y-145104011D01*
X73398683Y-145118363D01*
X74140842Y-145860522D01*
X74147356Y-145868587D01*
X74156954Y-145883451D01*
X74160137Y-145885960D01*
X74186891Y-145907051D01*
X74191204Y-145910884D01*
X74195469Y-145915149D01*
X74197114Y-145916324D01*
X74197118Y-145916328D01*
X74212659Y-145927434D01*
X74214502Y-145928818D01*
X74223241Y-145935707D01*
X74229479Y-145940624D01*
X74256172Y-145961667D01*
X74259996Y-145963010D01*
X74263542Y-145964959D01*
X74263461Y-145965107D01*
X74265252Y-145966038D01*
X74265326Y-145965887D01*
X74268964Y-145967669D01*
X74272259Y-145970024D01*
X74276138Y-145971184D01*
X74276140Y-145971185D01*
X74323103Y-145985230D01*
X74325297Y-145985943D01*
X74375376Y-146003529D01*
X74378445Y-146003795D01*
X74378446Y-146003795D01*
X74379889Y-146003920D01*
X74379892Y-146003920D01*
X74380941Y-146004011D01*
X74380940Y-146004024D01*
X74385377Y-146004772D01*
X74385404Y-146004556D01*
X74389423Y-146005064D01*
X74393303Y-146006224D01*
X74397352Y-146006065D01*
X74448662Y-146004049D01*
X74450586Y-146004011D01*
X78179764Y-146004011D01*
X78190078Y-146005109D01*
X78203402Y-146007978D01*
X78203403Y-146007978D01*
X78207365Y-146008831D01*
X78245217Y-146004351D01*
X78250974Y-146004011D01*
X78257013Y-146004011D01*
X78277850Y-146000542D01*
X78280140Y-146000217D01*
X78303688Y-145997430D01*
X78332830Y-145993981D01*
X78336482Y-145992227D01*
X78340372Y-145991097D01*
X78340419Y-145991258D01*
X78342342Y-145990650D01*
X78342288Y-145990491D01*
X78346117Y-145989180D01*
X78350115Y-145988515D01*
X78396845Y-145963301D01*
X78398842Y-145962283D01*
X78446721Y-145939292D01*
X78449077Y-145937312D01*
X78449079Y-145937310D01*
X78450195Y-145936372D01*
X78450204Y-145936363D01*
X78450997Y-145935697D01*
X78451006Y-145935707D01*
X78454672Y-145933097D01*
X78454539Y-145932926D01*
X78457738Y-145930445D01*
X78461303Y-145928521D01*
X78498920Y-145887827D01*
X78500254Y-145886440D01*
X78760522Y-145626172D01*
X78768587Y-145619658D01*
X78783451Y-145610060D01*
X78807052Y-145580122D01*
X78810884Y-145575810D01*
X78815149Y-145571545D01*
X78827430Y-145554360D01*
X78828815Y-145552516D01*
X78859158Y-145514025D01*
X78859159Y-145514024D01*
X78861667Y-145510842D01*
X78863010Y-145507017D01*
X78864959Y-145503472D01*
X78865107Y-145503553D01*
X78866039Y-145501760D01*
X78865889Y-145501686D01*
X78867670Y-145498050D01*
X78870025Y-145494755D01*
X78885240Y-145443879D01*
X78885954Y-145441685D01*
X78903529Y-145391638D01*
X78904011Y-145386073D01*
X78904024Y-145386074D01*
X78904772Y-145381637D01*
X78904556Y-145381610D01*
X78905064Y-145377591D01*
X78906224Y-145373711D01*
X78904049Y-145318352D01*
X78904011Y-145316428D01*
X78904011Y-144091796D01*
X78905109Y-144081482D01*
X78907978Y-144068158D01*
X78907978Y-144068157D01*
X78908831Y-144064195D01*
X78904351Y-144026343D01*
X78904011Y-144020586D01*
X78904011Y-144014547D01*
X78900542Y-143993707D01*
X78900217Y-143991420D01*
X78896481Y-143959855D01*
X78893981Y-143938730D01*
X78892227Y-143935078D01*
X78891097Y-143931188D01*
X78891258Y-143931141D01*
X78890650Y-143929218D01*
X78890491Y-143929272D01*
X78889180Y-143925443D01*
X78888515Y-143921445D01*
X78863301Y-143874715D01*
X78862283Y-143872718D01*
X78839292Y-143824839D01*
X78835698Y-143820563D01*
X78835707Y-143820555D01*
X78833097Y-143816888D01*
X78832926Y-143817021D01*
X78830445Y-143813822D01*
X78828521Y-143810257D01*
X78787839Y-143772651D01*
X78786452Y-143771317D01*
X78481714Y-143466579D01*
X78467493Y-143432246D01*
X78467781Y-143430056D01*
X78456891Y-143347338D01*
X78449143Y-143288484D01*
X78449143Y-143288483D01*
X78448724Y-143285302D01*
X78447497Y-143282340D01*
X78447496Y-143282336D01*
X78394080Y-143153381D01*
X78392851Y-143150414D01*
X78303970Y-143034582D01*
X78269464Y-143008104D01*
X78245761Y-142989916D01*
X78188139Y-142945701D01*
X78185176Y-142944474D01*
X78185173Y-142944472D01*
X78056216Y-142891056D01*
X78056212Y-142891055D01*
X78053250Y-142889828D01*
X78050069Y-142889409D01*
X78050068Y-142889409D01*
X77911679Y-142871190D01*
X77908496Y-142870771D01*
X77905313Y-142871190D01*
X77766924Y-142889409D01*
X77766923Y-142889409D01*
X77763742Y-142889828D01*
X77760780Y-142891055D01*
X77760776Y-142891056D01*
X77644027Y-142939416D01*
X77628854Y-142945701D01*
X77513022Y-143034582D01*
X77424141Y-143150414D01*
X77422912Y-143153381D01*
X77369496Y-143282336D01*
X77369495Y-143282340D01*
X77368268Y-143285302D01*
X77367849Y-143288483D01*
X77367849Y-143288484D01*
X77360101Y-143347338D01*
X77349211Y-143430056D01*
X77349630Y-143433239D01*
X77366973Y-143564970D01*
X77368268Y-143574810D01*
X77369495Y-143577772D01*
X77369496Y-143577776D01*
X77413707Y-143684508D01*
X77424141Y-143709698D01*
X77456735Y-143752175D01*
X77509205Y-143820555D01*
X77513022Y-143825530D01*
X77515571Y-143827486D01*
X77541831Y-143847636D01*
X77628853Y-143914411D01*
X77631816Y-143915638D01*
X77631819Y-143915640D01*
X77760776Y-143969056D01*
X77760780Y-143969057D01*
X77763742Y-143970284D01*
X77766923Y-143970703D01*
X77766924Y-143970703D01*
X77888534Y-143986713D01*
X77908496Y-143989341D01*
X77910687Y-143989053D01*
X77945020Y-144003274D01*
X78130659Y-144188913D01*
X78145011Y-144223561D01*
X78145011Y-144427966D01*
X78130659Y-144462614D01*
X78096011Y-144476966D01*
X78077260Y-144473236D01*
X78047722Y-144461001D01*
X78047719Y-144461000D01*
X78044754Y-144459772D01*
X78041573Y-144459353D01*
X78041572Y-144459353D01*
X77903183Y-144441134D01*
X77900000Y-144440715D01*
X77896817Y-144441134D01*
X77758428Y-144459353D01*
X77758427Y-144459353D01*
X77755246Y-144459772D01*
X77752284Y-144460999D01*
X77752280Y-144461000D01*
X77631572Y-144511000D01*
X77620358Y-144515645D01*
X77504526Y-144604526D01*
X77503179Y-144606281D01*
X77468848Y-144620500D01*
X75777490Y-144620500D01*
X75742842Y-144606148D01*
X75420331Y-144283637D01*
X75405979Y-144248989D01*
X75420331Y-144214341D01*
X75436228Y-144203719D01*
X75541570Y-144160085D01*
X75541571Y-144160084D01*
X75544539Y-144158855D01*
X75660370Y-144069974D01*
X75670177Y-144057194D01*
X75747295Y-143956691D01*
X75749251Y-143954142D01*
X75751911Y-143947720D01*
X75803896Y-143822220D01*
X75803897Y-143822216D01*
X75805124Y-143819254D01*
X75806309Y-143810257D01*
X75823762Y-143677683D01*
X75824181Y-143674500D01*
X75817430Y-143623220D01*
X75805543Y-143532928D01*
X75805543Y-143532927D01*
X75805124Y-143529746D01*
X75803897Y-143526784D01*
X75803896Y-143526780D01*
X75750480Y-143397825D01*
X75749251Y-143394858D01*
X75673982Y-143296765D01*
X75662326Y-143281575D01*
X75660370Y-143279026D01*
X75639265Y-143262831D01*
X75547088Y-143192101D01*
X75544539Y-143190145D01*
X75541576Y-143188918D01*
X75541573Y-143188916D01*
X75412616Y-143135500D01*
X75412612Y-143135499D01*
X75409650Y-143134272D01*
X75406469Y-143133853D01*
X75406468Y-143133853D01*
X75268079Y-143115634D01*
X75264896Y-143115215D01*
X75219566Y-143121183D01*
X75199131Y-143119547D01*
X75184776Y-143115254D01*
X75182586Y-143114542D01*
X75132525Y-143096962D01*
X75129456Y-143096696D01*
X75129455Y-143096696D01*
X75128012Y-143096571D01*
X75128009Y-143096571D01*
X75126960Y-143096480D01*
X75126961Y-143096467D01*
X75122524Y-143095719D01*
X75122497Y-143095935D01*
X75118478Y-143095427D01*
X75114598Y-143094267D01*
X75110549Y-143094426D01*
X75059239Y-143096442D01*
X75057315Y-143096480D01*
X74203470Y-143096480D01*
X74168822Y-143082128D01*
X73643852Y-142557158D01*
X73629500Y-142522510D01*
X73629500Y-142280045D01*
X73643852Y-142245397D01*
X73653410Y-142237956D01*
X73706703Y-142206187D01*
X73706705Y-142206185D01*
X73709056Y-142204784D01*
X73729799Y-142185031D01*
X73829657Y-142089939D01*
X73829659Y-142089936D01*
X73831638Y-142088052D01*
X73875570Y-142021930D01*
X73923793Y-141949348D01*
X73923794Y-141949347D01*
X73925311Y-141947063D01*
X73928095Y-141939734D01*
X73984447Y-141791387D01*
X73984448Y-141791382D01*
X73985420Y-141788824D01*
X74008978Y-141621200D01*
X74009274Y-141600000D01*
X73999052Y-141508866D01*
X73990712Y-141434508D01*
X73990711Y-141434504D01*
X73990406Y-141431784D01*
X73989505Y-141429197D01*
X73989504Y-141429192D01*
X73935639Y-141274515D01*
X73935637Y-141274512D01*
X73934738Y-141271929D01*
X73933289Y-141269610D01*
X73933287Y-141269606D01*
X73846491Y-141130704D01*
X73846490Y-141130703D01*
X73845038Y-141128379D01*
X73839433Y-141122734D01*
X73727697Y-141010216D01*
X73725764Y-141008269D01*
X73633947Y-140950000D01*
X73585156Y-140919036D01*
X73585154Y-140919035D01*
X73582844Y-140917569D01*
X73580266Y-140916651D01*
X73580264Y-140916650D01*
X73425962Y-140861706D01*
X73423381Y-140860787D01*
X73420661Y-140860463D01*
X73420658Y-140860462D01*
X73339341Y-140850766D01*
X73255301Y-140840745D01*
X73252580Y-140841031D01*
X73252577Y-140841031D01*
X73153338Y-140851461D01*
X73086957Y-140858438D01*
X73084364Y-140859321D01*
X73084363Y-140859321D01*
X73080057Y-140860787D01*
X72926717Y-140912988D01*
X72782544Y-141001684D01*
X72780589Y-141003598D01*
X72780587Y-141003600D01*
X72663561Y-141118201D01*
X72663559Y-141118204D01*
X72661605Y-141120117D01*
X72660122Y-141122417D01*
X72660122Y-141122418D01*
X72616421Y-141190228D01*
X72569909Y-141262400D01*
X72512015Y-141421463D01*
X72490800Y-141589399D01*
X72491067Y-141592122D01*
X72491067Y-141592123D01*
X72502114Y-141704784D01*
X72507318Y-141757862D01*
X72508180Y-141760453D01*
X72508181Y-141760458D01*
X72535894Y-141843766D01*
X72560748Y-141918479D01*
X72562167Y-141920823D01*
X72562168Y-141920824D01*
X72582563Y-141954500D01*
X72648435Y-142063267D01*
X72650335Y-142065235D01*
X72650337Y-142065237D01*
X72674192Y-142089939D01*
X72766021Y-142185031D01*
X72820538Y-142220706D01*
X72848331Y-142238893D01*
X72869464Y-142269874D01*
X72870500Y-142279894D01*
X72870500Y-142654275D01*
X72869402Y-142664589D01*
X72865680Y-142681876D01*
X72870028Y-142718612D01*
X72870160Y-142719725D01*
X72870500Y-142725485D01*
X72870500Y-142731524D01*
X72870831Y-142733512D01*
X72873969Y-142752364D01*
X72874294Y-142754651D01*
X72880530Y-142807341D01*
X72882284Y-142810993D01*
X72883414Y-142814883D01*
X72883253Y-142814930D01*
X72883861Y-142816853D01*
X72884020Y-142816799D01*
X72885331Y-142820628D01*
X72885996Y-142824626D01*
X72911210Y-142871356D01*
X72912228Y-142873353D01*
X72935219Y-142921232D01*
X72937199Y-142923588D01*
X72937201Y-142923590D01*
X72938139Y-142924706D01*
X72938148Y-142924715D01*
X72938705Y-142925378D01*
X72938814Y-142925508D01*
X72938804Y-142925517D01*
X72941414Y-142929183D01*
X72941585Y-142929050D01*
X72944067Y-142932250D01*
X72945990Y-142935814D01*
X72948962Y-142938561D01*
X72948964Y-142938564D01*
X72986683Y-142973430D01*
X72988070Y-142974764D01*
X73086283Y-143072977D01*
X73100635Y-143107625D01*
X73086283Y-143142273D01*
X73056757Y-143156357D01*
X73036957Y-143158438D01*
X72876717Y-143212988D01*
X72732544Y-143301684D01*
X72730589Y-143303598D01*
X72730587Y-143303600D01*
X72613561Y-143418201D01*
X72613559Y-143418204D01*
X72611605Y-143420117D01*
X72610122Y-143422417D01*
X72610122Y-143422418D01*
X72607251Y-143426873D01*
X72519909Y-143562400D01*
X72486116Y-143655246D01*
X72463816Y-143716516D01*
X72462015Y-143721463D01*
X72440800Y-143889399D01*
X72441067Y-143892122D01*
X72441067Y-143892124D01*
X72447705Y-143959824D01*
X72436803Y-143995707D01*
X72403720Y-144013371D01*
X72367837Y-144002469D01*
X72364291Y-143999253D01*
X71877062Y-143512024D01*
X71862841Y-143477691D01*
X71863129Y-143475500D01*
X71852903Y-143397825D01*
X71844491Y-143333928D01*
X71844491Y-143333927D01*
X71844072Y-143330746D01*
X71842845Y-143327784D01*
X71842844Y-143327780D01*
X71789428Y-143198825D01*
X71788199Y-143195858D01*
X71720495Y-143107625D01*
X71701274Y-143082575D01*
X71699318Y-143080026D01*
X71583487Y-142991145D01*
X71580524Y-142989918D01*
X71580521Y-142989916D01*
X71451564Y-142936500D01*
X71451560Y-142936499D01*
X71448598Y-142935272D01*
X71445417Y-142934853D01*
X71445416Y-142934853D01*
X71307027Y-142916634D01*
X71303844Y-142916215D01*
X71300661Y-142916634D01*
X71162272Y-142934853D01*
X71162271Y-142934853D01*
X71159090Y-142935272D01*
X71156128Y-142936499D01*
X71156124Y-142936500D01*
X71027169Y-142989916D01*
X71024202Y-142991145D01*
X70908370Y-143080026D01*
X70906414Y-143082575D01*
X70887193Y-143107625D01*
X70819489Y-143195858D01*
X70818260Y-143198825D01*
X70764844Y-143327780D01*
X70764843Y-143327784D01*
X70763616Y-143330746D01*
X70763197Y-143333927D01*
X70763197Y-143333928D01*
X70754785Y-143397825D01*
X70744559Y-143475500D01*
X69255726Y-143475500D01*
X69196491Y-143380704D01*
X69196490Y-143380703D01*
X69195038Y-143378379D01*
X69189119Y-143372418D01*
X69117452Y-143300249D01*
X69075764Y-143258269D01*
X69019649Y-143222657D01*
X68935156Y-143169036D01*
X68935154Y-143169035D01*
X68932844Y-143167569D01*
X68930266Y-143166651D01*
X68930264Y-143166650D01*
X68775962Y-143111706D01*
X68773381Y-143110787D01*
X68770661Y-143110463D01*
X68770658Y-143110462D01*
X68687630Y-143100562D01*
X68605301Y-143090745D01*
X68602580Y-143091031D01*
X68602577Y-143091031D01*
X68536433Y-143097983D01*
X68436957Y-143108438D01*
X68434364Y-143109321D01*
X68434363Y-143109321D01*
X68417050Y-143115215D01*
X68276717Y-143162988D01*
X68132544Y-143251684D01*
X68130589Y-143253598D01*
X68130587Y-143253600D01*
X68013561Y-143368201D01*
X68013559Y-143368204D01*
X68011605Y-143370117D01*
X68010122Y-143372417D01*
X68010122Y-143372418D01*
X67990690Y-143402570D01*
X67919909Y-143512400D01*
X67888025Y-143600000D01*
X67864664Y-143664186D01*
X67862015Y-143671463D01*
X67840800Y-143839399D01*
X48450000Y-143839399D01*
X48450000Y-140950000D01*
X51540715Y-140950000D01*
X51559772Y-141094754D01*
X51560999Y-141097716D01*
X51561000Y-141097720D01*
X51613975Y-141225610D01*
X51615645Y-141229642D01*
X51704526Y-141345474D01*
X51820357Y-141434355D01*
X51823320Y-141435582D01*
X51823323Y-141435584D01*
X51952280Y-141489000D01*
X51952284Y-141489001D01*
X51955246Y-141490228D01*
X51958427Y-141490647D01*
X51958428Y-141490647D01*
X52096817Y-141508866D01*
X52100000Y-141509285D01*
X52103183Y-141508866D01*
X52241572Y-141490647D01*
X52241573Y-141490647D01*
X52244754Y-141490228D01*
X52247716Y-141489001D01*
X52247720Y-141489000D01*
X52376678Y-141435583D01*
X52379643Y-141434355D01*
X52382189Y-141432401D01*
X52382193Y-141432399D01*
X52445171Y-141384074D01*
X52481396Y-141374367D01*
X52504829Y-141384074D01*
X52567807Y-141432399D01*
X52567811Y-141432401D01*
X52570357Y-141434355D01*
X52573322Y-141435583D01*
X52702280Y-141489000D01*
X52702284Y-141489001D01*
X52705246Y-141490228D01*
X52708427Y-141490647D01*
X52708428Y-141490647D01*
X52846817Y-141508866D01*
X52850000Y-141509285D01*
X52853183Y-141508866D01*
X52991572Y-141490647D01*
X52991573Y-141490647D01*
X52994754Y-141490228D01*
X52997716Y-141489001D01*
X52997720Y-141489000D01*
X53126677Y-141435584D01*
X53126680Y-141435582D01*
X53129643Y-141434355D01*
X53245474Y-141345474D01*
X53334355Y-141229642D01*
X53336025Y-141225610D01*
X53389000Y-141097720D01*
X53389001Y-141097716D01*
X53390228Y-141094754D01*
X53409285Y-140950000D01*
X53408866Y-140946817D01*
X53390647Y-140808428D01*
X53390647Y-140808427D01*
X53390228Y-140805246D01*
X53389001Y-140802284D01*
X53389000Y-140802280D01*
X53335584Y-140673325D01*
X53334355Y-140670358D01*
X53318734Y-140650000D01*
X54790715Y-140650000D01*
X54791134Y-140653183D01*
X54807108Y-140774515D01*
X54809772Y-140794754D01*
X54810999Y-140797716D01*
X54811000Y-140797720D01*
X54861252Y-140919036D01*
X54865645Y-140929642D01*
X54954526Y-141045474D01*
X55070357Y-141134355D01*
X55073320Y-141135582D01*
X55073323Y-141135584D01*
X55202280Y-141189000D01*
X55202284Y-141189001D01*
X55205246Y-141190228D01*
X55208427Y-141190647D01*
X55208428Y-141190647D01*
X55346817Y-141208866D01*
X55350000Y-141209285D01*
X55353183Y-141208866D01*
X55491572Y-141190647D01*
X55491573Y-141190647D01*
X55494754Y-141190228D01*
X55497716Y-141189001D01*
X55497720Y-141189000D01*
X55626677Y-141135584D01*
X55626680Y-141135582D01*
X55629643Y-141134355D01*
X55745474Y-141045474D01*
X55834355Y-140929642D01*
X55838748Y-140919036D01*
X55889000Y-140797720D01*
X55889001Y-140797716D01*
X55890228Y-140794754D01*
X55892893Y-140774515D01*
X55908866Y-140653183D01*
X55909285Y-140650000D01*
X55900018Y-140579608D01*
X55890647Y-140508428D01*
X55890647Y-140508427D01*
X55890228Y-140505246D01*
X55889001Y-140502284D01*
X55889000Y-140502280D01*
X55835584Y-140373325D01*
X55834355Y-140370358D01*
X55745474Y-140254526D01*
X55629643Y-140165645D01*
X55626680Y-140164418D01*
X55626677Y-140164416D01*
X55497720Y-140111000D01*
X55497716Y-140110999D01*
X55494754Y-140109772D01*
X55491573Y-140109353D01*
X55491572Y-140109353D01*
X55353183Y-140091134D01*
X55350000Y-140090715D01*
X55346817Y-140091134D01*
X55208428Y-140109353D01*
X55208427Y-140109353D01*
X55205246Y-140109772D01*
X55202284Y-140110999D01*
X55202280Y-140111000D01*
X55073325Y-140164416D01*
X55070358Y-140165645D01*
X54954526Y-140254526D01*
X54865645Y-140370358D01*
X54864416Y-140373325D01*
X54811000Y-140502280D01*
X54810999Y-140502284D01*
X54809772Y-140505246D01*
X54809353Y-140508427D01*
X54809353Y-140508428D01*
X54799982Y-140579608D01*
X54790715Y-140650000D01*
X53318734Y-140650000D01*
X53264720Y-140579608D01*
X53255013Y-140543383D01*
X53272757Y-140511699D01*
X53308013Y-140483150D01*
X53396020Y-140359313D01*
X53447482Y-140216371D01*
X53451298Y-140164416D01*
X53458364Y-140068187D01*
X53458609Y-140064855D01*
X53428580Y-139915929D01*
X53359608Y-139780564D01*
X53346829Y-139766667D01*
X53333941Y-139731448D01*
X53349731Y-139697431D01*
X53382898Y-139684500D01*
X54172401Y-139684500D01*
X54173664Y-139684367D01*
X54173669Y-139684367D01*
X54270263Y-139674214D01*
X54314092Y-139669608D01*
X54494920Y-139610853D01*
X54659580Y-139515786D01*
X54702771Y-139476897D01*
X54798972Y-139390278D01*
X54798976Y-139390274D01*
X54800877Y-139388562D01*
X54912635Y-139234741D01*
X54989969Y-139061045D01*
X55022316Y-138908866D01*
X55028967Y-138877576D01*
X55028967Y-138877573D01*
X55029500Y-138875067D01*
X55029500Y-138684933D01*
X55022224Y-138650699D01*
X54990502Y-138501464D01*
X54989969Y-138498955D01*
X54912635Y-138325259D01*
X54800877Y-138171438D01*
X54798976Y-138169726D01*
X54798972Y-138169722D01*
X54661494Y-138045937D01*
X54661492Y-138045935D01*
X54659580Y-138044214D01*
X54494920Y-137949147D01*
X54314092Y-137890392D01*
X54270263Y-137885786D01*
X54173669Y-137875633D01*
X54173664Y-137875633D01*
X54172401Y-137875500D01*
X53077599Y-137875500D01*
X53076336Y-137875633D01*
X53076331Y-137875633D01*
X52979737Y-137885786D01*
X52935908Y-137890392D01*
X52755080Y-137949147D01*
X52590420Y-138044214D01*
X52588508Y-138045935D01*
X52588506Y-138045937D01*
X52451028Y-138169722D01*
X52451024Y-138169726D01*
X52449123Y-138171438D01*
X52337365Y-138325259D01*
X52260031Y-138498955D01*
X52259498Y-138501464D01*
X52227777Y-138650699D01*
X52220500Y-138684933D01*
X52220500Y-138875067D01*
X52221033Y-138877573D01*
X52221033Y-138877576D01*
X52227684Y-138908866D01*
X52260031Y-139061045D01*
X52337365Y-139234741D01*
X52449123Y-139388562D01*
X52451024Y-139390274D01*
X52451028Y-139390278D01*
X52547229Y-139476897D01*
X52590420Y-139515786D01*
X52618863Y-139532208D01*
X52641691Y-139561958D01*
X52636797Y-139599141D01*
X52615784Y-139617864D01*
X52615978Y-139618184D01*
X52614252Y-139619229D01*
X52613826Y-139619609D01*
X52613122Y-139619914D01*
X52613120Y-139619915D01*
X52610054Y-139621242D01*
X52491987Y-139716850D01*
X52403980Y-139840687D01*
X52352518Y-139983629D01*
X52341391Y-140135145D01*
X52371420Y-140284071D01*
X52372937Y-140287049D01*
X52372938Y-140287051D01*
X52426187Y-140391557D01*
X52429130Y-140428945D01*
X52404774Y-140457462D01*
X52367386Y-140460405D01*
X52363784Y-140459076D01*
X52291042Y-140428945D01*
X52247720Y-140411000D01*
X52247716Y-140410999D01*
X52244754Y-140409772D01*
X52241573Y-140409353D01*
X52241572Y-140409353D01*
X52103183Y-140391134D01*
X52100000Y-140390715D01*
X52096817Y-140391134D01*
X51958428Y-140409353D01*
X51958427Y-140409353D01*
X51955246Y-140409772D01*
X51952284Y-140410999D01*
X51952280Y-140411000D01*
X51840113Y-140457462D01*
X51820358Y-140465645D01*
X51704526Y-140554526D01*
X51615645Y-140670358D01*
X51614416Y-140673325D01*
X51561000Y-140802280D01*
X51560999Y-140802284D01*
X51559772Y-140805246D01*
X51559353Y-140808427D01*
X51559353Y-140808428D01*
X51541134Y-140946817D01*
X51540715Y-140950000D01*
X48450000Y-140950000D01*
X48450000Y-139476897D01*
X48464352Y-139442249D01*
X48499000Y-139427897D01*
X48531787Y-139440483D01*
X48533749Y-139442249D01*
X48615420Y-139515786D01*
X48780080Y-139610853D01*
X48960908Y-139669608D01*
X49004737Y-139674214D01*
X49101331Y-139684367D01*
X49101336Y-139684367D01*
X49102599Y-139684500D01*
X50497401Y-139684500D01*
X50498664Y-139684367D01*
X50498669Y-139684367D01*
X50595263Y-139674214D01*
X50639092Y-139669608D01*
X50819920Y-139610853D01*
X50984580Y-139515786D01*
X51027771Y-139476897D01*
X51123972Y-139390278D01*
X51123976Y-139390274D01*
X51125877Y-139388562D01*
X51237635Y-139234741D01*
X51314969Y-139061045D01*
X51347316Y-138908866D01*
X51353967Y-138877576D01*
X51353967Y-138877573D01*
X51354500Y-138875067D01*
X51354500Y-138684933D01*
X51347224Y-138650699D01*
X51315502Y-138501464D01*
X51314969Y-138498955D01*
X51237635Y-138325259D01*
X51125877Y-138171438D01*
X51123976Y-138169726D01*
X51123972Y-138169722D01*
X50986494Y-138045937D01*
X50986492Y-138045935D01*
X50984580Y-138044214D01*
X50819920Y-137949147D01*
X50639092Y-137890392D01*
X50595263Y-137885786D01*
X50498669Y-137875633D01*
X50498664Y-137875633D01*
X50497401Y-137875500D01*
X49102599Y-137875500D01*
X49101336Y-137875633D01*
X49101331Y-137875633D01*
X49004737Y-137885786D01*
X48960908Y-137890392D01*
X48780080Y-137949147D01*
X48615420Y-138044214D01*
X48613508Y-138045935D01*
X48613506Y-138045937D01*
X48531787Y-138119517D01*
X48496435Y-138132036D01*
X48462586Y-138115890D01*
X48450000Y-138083103D01*
X48450000Y-137500000D01*
X72740715Y-137500000D01*
X72759772Y-137644754D01*
X72760999Y-137647716D01*
X72761000Y-137647720D01*
X72814416Y-137776675D01*
X72815645Y-137779642D01*
X72904526Y-137895474D01*
X73020357Y-137984355D01*
X73023320Y-137985582D01*
X73023323Y-137985584D01*
X73152280Y-138039000D01*
X73152284Y-138039001D01*
X73155246Y-138040228D01*
X73158427Y-138040647D01*
X73158428Y-138040647D01*
X73296817Y-138058866D01*
X73300000Y-138059285D01*
X73303183Y-138058866D01*
X73441572Y-138040647D01*
X73441573Y-138040647D01*
X73444754Y-138040228D01*
X73447716Y-138039001D01*
X73447720Y-138039000D01*
X73576677Y-137985584D01*
X73576680Y-137985582D01*
X73579643Y-137984355D01*
X73695474Y-137895474D01*
X73696821Y-137893719D01*
X73731152Y-137879500D01*
X74322510Y-137879500D01*
X74357158Y-137893852D01*
X80506148Y-144042842D01*
X80520500Y-144077490D01*
X80520500Y-145768848D01*
X80506281Y-145803179D01*
X80504526Y-145804526D01*
X80415645Y-145920358D01*
X80414416Y-145923325D01*
X80361000Y-146052280D01*
X80360999Y-146052284D01*
X80359772Y-146055246D01*
X80340715Y-146200000D01*
X80341134Y-146203183D01*
X80353353Y-146295993D01*
X80359772Y-146344754D01*
X80360999Y-146347716D01*
X80361000Y-146347720D01*
X80401112Y-146444556D01*
X80415645Y-146479642D01*
X80449164Y-146523325D01*
X80470992Y-146551771D01*
X80504526Y-146595474D01*
X80507075Y-146597430D01*
X80514572Y-146603183D01*
X80620357Y-146684355D01*
X80623320Y-146685582D01*
X80623323Y-146685584D01*
X80752280Y-146739000D01*
X80752284Y-146739001D01*
X80755246Y-146740228D01*
X80758427Y-146740647D01*
X80758428Y-146740647D01*
X80896817Y-146758866D01*
X80900000Y-146759285D01*
X80903183Y-146758866D01*
X81041572Y-146740647D01*
X81041573Y-146740647D01*
X81044754Y-146740228D01*
X81047716Y-146739001D01*
X81047720Y-146739000D01*
X81176677Y-146685584D01*
X81176680Y-146685582D01*
X81179643Y-146684355D01*
X81285428Y-146603183D01*
X81292925Y-146597430D01*
X81295474Y-146595474D01*
X81329009Y-146551771D01*
X81350836Y-146523325D01*
X81384355Y-146479642D01*
X81398888Y-146444556D01*
X81439000Y-146347720D01*
X81439001Y-146347716D01*
X81440228Y-146344754D01*
X81446648Y-146295993D01*
X81458866Y-146203183D01*
X81459285Y-146200000D01*
X81440228Y-146055246D01*
X81439001Y-146052284D01*
X81439000Y-146052280D01*
X81385584Y-145923325D01*
X81384355Y-145920358D01*
X81295474Y-145804526D01*
X81293719Y-145803179D01*
X81279500Y-145768848D01*
X81279500Y-143945725D01*
X81280598Y-143935411D01*
X81283467Y-143922087D01*
X81283467Y-143922086D01*
X81284320Y-143918124D01*
X81279840Y-143880272D01*
X81279500Y-143874515D01*
X81279500Y-143868476D01*
X81276031Y-143847636D01*
X81275706Y-143845349D01*
X81272772Y-143820563D01*
X81270339Y-143800000D01*
X83040715Y-143800000D01*
X83041134Y-143803183D01*
X83057893Y-143930478D01*
X83059772Y-143944754D01*
X83060999Y-143947716D01*
X83061000Y-143947720D01*
X83110888Y-144068158D01*
X83115645Y-144079642D01*
X83133238Y-144102570D01*
X83199492Y-144188913D01*
X83204526Y-144195474D01*
X83320357Y-144284355D01*
X83323320Y-144285582D01*
X83323323Y-144285584D01*
X83452280Y-144339000D01*
X83452284Y-144339001D01*
X83455246Y-144340228D01*
X83458427Y-144340647D01*
X83458428Y-144340647D01*
X83596817Y-144358866D01*
X83600000Y-144359285D01*
X83603183Y-144358866D01*
X83741572Y-144340647D01*
X83741573Y-144340647D01*
X83744754Y-144340228D01*
X83747716Y-144339001D01*
X83747720Y-144339000D01*
X83876677Y-144285584D01*
X83876680Y-144285582D01*
X83879643Y-144284355D01*
X83995474Y-144195474D01*
X84000509Y-144188913D01*
X84066762Y-144102570D01*
X84084355Y-144079642D01*
X84089112Y-144068158D01*
X84139000Y-143947720D01*
X84139001Y-143947716D01*
X84140228Y-143944754D01*
X84142108Y-143930478D01*
X84158866Y-143803183D01*
X84159285Y-143800000D01*
X84158997Y-143797809D01*
X84173218Y-143763476D01*
X85611679Y-142325015D01*
X85646327Y-142310663D01*
X85680975Y-142325015D01*
X85695327Y-142359663D01*
X85691597Y-142378414D01*
X85659772Y-142455246D01*
X85659353Y-142458427D01*
X85659353Y-142458428D01*
X85652422Y-142511078D01*
X85640715Y-142600000D01*
X85659772Y-142744754D01*
X85660999Y-142747716D01*
X85661000Y-142747720D01*
X85692299Y-142823281D01*
X85715645Y-142879642D01*
X85804526Y-142995474D01*
X85920357Y-143084355D01*
X85952865Y-143097820D01*
X85979383Y-143124339D01*
X85979383Y-143161842D01*
X85968762Y-143177736D01*
X85934394Y-143212105D01*
X85863989Y-143282510D01*
X85855924Y-143289024D01*
X85841060Y-143298622D01*
X85818074Y-143327780D01*
X85817460Y-143328559D01*
X85813627Y-143332872D01*
X85809362Y-143337137D01*
X85808189Y-143338779D01*
X85797081Y-143354322D01*
X85795696Y-143356166D01*
X85774769Y-143382713D01*
X85762844Y-143397840D01*
X85761501Y-143401665D01*
X85759552Y-143405210D01*
X85759404Y-143405129D01*
X85758472Y-143406922D01*
X85758622Y-143406996D01*
X85756841Y-143410632D01*
X85754486Y-143413927D01*
X85753326Y-143417806D01*
X85739271Y-143464802D01*
X85738558Y-143466995D01*
X85720982Y-143517044D01*
X85720500Y-143522609D01*
X85720487Y-143522608D01*
X85719739Y-143527045D01*
X85719955Y-143527072D01*
X85719447Y-143531091D01*
X85718287Y-143534971D01*
X85718446Y-143539020D01*
X85720462Y-143590330D01*
X85720500Y-143592254D01*
X85720500Y-144068848D01*
X85706281Y-144103179D01*
X85704526Y-144104526D01*
X85615645Y-144220358D01*
X85614416Y-144223325D01*
X85561000Y-144352280D01*
X85560999Y-144352284D01*
X85559772Y-144355246D01*
X85559353Y-144358427D01*
X85559353Y-144358428D01*
X85543747Y-144476966D01*
X85540715Y-144500000D01*
X85541134Y-144503183D01*
X85549196Y-144564417D01*
X85559772Y-144644754D01*
X85560999Y-144647716D01*
X85561000Y-144647720D01*
X85610744Y-144767809D01*
X85615645Y-144779642D01*
X85704526Y-144895474D01*
X85707075Y-144897430D01*
X85720678Y-144907868D01*
X85820357Y-144984355D01*
X85823320Y-144985582D01*
X85823323Y-144985584D01*
X85952280Y-145039000D01*
X85952284Y-145039001D01*
X85955246Y-145040228D01*
X85958427Y-145040647D01*
X85958428Y-145040647D01*
X86096817Y-145058866D01*
X86100000Y-145059285D01*
X86103183Y-145058866D01*
X86241572Y-145040647D01*
X86241573Y-145040647D01*
X86244754Y-145040228D01*
X86247716Y-145039001D01*
X86247720Y-145039000D01*
X86376677Y-144985584D01*
X86376680Y-144985582D01*
X86379643Y-144984355D01*
X86466673Y-144917574D01*
X86502895Y-144907868D01*
X86535374Y-144926619D01*
X86545500Y-144956449D01*
X86545501Y-145096817D01*
X86545501Y-145225066D01*
X86560266Y-145299301D01*
X86562946Y-145303312D01*
X86562947Y-145303314D01*
X86580539Y-145329642D01*
X86616516Y-145383484D01*
X86657746Y-145411033D01*
X86693637Y-145435015D01*
X86700699Y-145439734D01*
X86774933Y-145454500D01*
X87069590Y-145454500D01*
X87104238Y-145468852D01*
X87118590Y-145503500D01*
X87114860Y-145522252D01*
X87061000Y-145652280D01*
X87060999Y-145652284D01*
X87059772Y-145655246D01*
X87059353Y-145658427D01*
X87059353Y-145658428D01*
X87051206Y-145720313D01*
X87040715Y-145800000D01*
X87041134Y-145803183D01*
X87058669Y-145936372D01*
X87059772Y-145944754D01*
X87060999Y-145947716D01*
X87061000Y-145947720D01*
X87092984Y-146024934D01*
X87115645Y-146079642D01*
X87204526Y-146195474D01*
X87320357Y-146284355D01*
X87323320Y-146285582D01*
X87323323Y-146285584D01*
X87452280Y-146339000D01*
X87452284Y-146339001D01*
X87455246Y-146340228D01*
X87458427Y-146340647D01*
X87458428Y-146340647D01*
X87596817Y-146358866D01*
X87600000Y-146359285D01*
X87603183Y-146358866D01*
X87741572Y-146340647D01*
X87741573Y-146340647D01*
X87744754Y-146340228D01*
X87747716Y-146339001D01*
X87747720Y-146339000D01*
X87876677Y-146285584D01*
X87876680Y-146285582D01*
X87879643Y-146284355D01*
X87982288Y-146205592D01*
X88018510Y-146195886D01*
X88050989Y-146214637D01*
X88060696Y-146250862D01*
X88050990Y-146274295D01*
X88015645Y-146320358D01*
X88014416Y-146323325D01*
X87961000Y-146452280D01*
X87960999Y-146452284D01*
X87959772Y-146455246D01*
X87959353Y-146458427D01*
X87959353Y-146458428D01*
X87948497Y-146540887D01*
X87940715Y-146600000D01*
X87941134Y-146603183D01*
X87953543Y-146697436D01*
X87959772Y-146744754D01*
X87960999Y-146747716D01*
X87961000Y-146747720D01*
X88006297Y-146857075D01*
X88015645Y-146879642D01*
X88104526Y-146995474D01*
X88220357Y-147084355D01*
X88223320Y-147085582D01*
X88223323Y-147085584D01*
X88352280Y-147139000D01*
X88352284Y-147139001D01*
X88355246Y-147140228D01*
X88358427Y-147140647D01*
X88358428Y-147140647D01*
X88496817Y-147158866D01*
X88500000Y-147159285D01*
X88503183Y-147158866D01*
X88641572Y-147140647D01*
X88641573Y-147140647D01*
X88644754Y-147140228D01*
X88647716Y-147139001D01*
X88647720Y-147139000D01*
X88776677Y-147085584D01*
X88776680Y-147085582D01*
X88779643Y-147084355D01*
X88895474Y-146995474D01*
X88984355Y-146879642D01*
X88993703Y-146857075D01*
X89039000Y-146747720D01*
X89039001Y-146747716D01*
X89040228Y-146744754D01*
X89046458Y-146697436D01*
X89058866Y-146603183D01*
X89059285Y-146600000D01*
X89051503Y-146540887D01*
X89040647Y-146458428D01*
X89040647Y-146458427D01*
X89040228Y-146455246D01*
X89039001Y-146452284D01*
X89039000Y-146452280D01*
X88985584Y-146323325D01*
X88984355Y-146320358D01*
X88895474Y-146204526D01*
X88893719Y-146203179D01*
X88879500Y-146168848D01*
X88879500Y-145803000D01*
X88893852Y-145768352D01*
X88928500Y-145754000D01*
X89423376Y-145754000D01*
X89458024Y-145768352D01*
X89472376Y-145803000D01*
X89458024Y-145837648D01*
X89450599Y-145843742D01*
X89416516Y-145866516D01*
X89413836Y-145870527D01*
X89366365Y-145941572D01*
X89360266Y-145950699D01*
X89345500Y-146024933D01*
X89345501Y-147875066D01*
X89345969Y-147877418D01*
X89345969Y-147877420D01*
X89349053Y-147892925D01*
X89360266Y-147949301D01*
X89362946Y-147953312D01*
X89362947Y-147953314D01*
X89384510Y-147985584D01*
X89416516Y-148033484D01*
X89420527Y-148036164D01*
X89489722Y-148082399D01*
X89500699Y-148089734D01*
X89574933Y-148104500D01*
X89577343Y-148104500D01*
X90701636Y-148104499D01*
X91825066Y-148104499D01*
X91827418Y-148104031D01*
X91827420Y-148104031D01*
X91870336Y-148095495D01*
X91899301Y-148089734D01*
X91903312Y-148087054D01*
X91903314Y-148087053D01*
X91979473Y-148036164D01*
X91983484Y-148033484D01*
X92039734Y-147949301D01*
X92054500Y-147875067D01*
X92054499Y-146024934D01*
X92050320Y-146003920D01*
X92046602Y-145985230D01*
X92039734Y-145950699D01*
X92033636Y-145941572D01*
X91986164Y-145870527D01*
X91983484Y-145866516D01*
X91925526Y-145827789D01*
X91903315Y-145812948D01*
X91899301Y-145810266D01*
X91825067Y-145795500D01*
X90931857Y-145795500D01*
X90897209Y-145781148D01*
X90882857Y-145746500D01*
X90897209Y-145711852D01*
X90904634Y-145705758D01*
X90939506Y-145682458D01*
X90965252Y-145665255D01*
X91020313Y-145582851D01*
X91034665Y-145548203D01*
X91052804Y-145457013D01*
X91073638Y-145425833D01*
X91110420Y-145418516D01*
X91124241Y-145423513D01*
X91145425Y-145435015D01*
X91145432Y-145435018D01*
X91148022Y-145436424D01*
X91307104Y-145478158D01*
X91398677Y-145479596D01*
X91468598Y-145480695D01*
X91468601Y-145480695D01*
X91471549Y-145480741D01*
X91474426Y-145480082D01*
X91474427Y-145480082D01*
X91628982Y-145444684D01*
X91628983Y-145444684D01*
X91631863Y-145444024D01*
X91634502Y-145442697D01*
X91634504Y-145442696D01*
X91776148Y-145371457D01*
X91776149Y-145371456D01*
X91778792Y-145370127D01*
X91833591Y-145323325D01*
X91868752Y-145293295D01*
X91904420Y-145281706D01*
X91933553Y-145294313D01*
X92003487Y-145357948D01*
X92006080Y-145359356D01*
X92006083Y-145359358D01*
X92118388Y-145420334D01*
X92148022Y-145436424D01*
X92307104Y-145478158D01*
X92398677Y-145479596D01*
X92468598Y-145480695D01*
X92468601Y-145480695D01*
X92471549Y-145480741D01*
X92474426Y-145480082D01*
X92474427Y-145480082D01*
X92628982Y-145444684D01*
X92628983Y-145444684D01*
X92631863Y-145444024D01*
X92634502Y-145442697D01*
X92634504Y-145442696D01*
X92776148Y-145371457D01*
X92776149Y-145371456D01*
X92778792Y-145370127D01*
X92861719Y-145299301D01*
X92901608Y-145265233D01*
X92901610Y-145265231D01*
X92903852Y-145263316D01*
X92952215Y-145196011D01*
X92998099Y-145132157D01*
X92998100Y-145132155D01*
X92999824Y-145129756D01*
X93010174Y-145104011D01*
X93017723Y-145085230D01*
X93061168Y-144977159D01*
X93064116Y-144956449D01*
X93075717Y-144874933D01*
X93084341Y-144814335D01*
X93084491Y-144800000D01*
X93082028Y-144779642D01*
X93065088Y-144639660D01*
X93064733Y-144636726D01*
X93053178Y-144606148D01*
X93007643Y-144485643D01*
X93007642Y-144485642D01*
X93006598Y-144482878D01*
X92913444Y-144347338D01*
X92911239Y-144345373D01*
X92911236Y-144345370D01*
X92867010Y-144305967D01*
X92861464Y-144301025D01*
X92845141Y-144267262D01*
X92857475Y-144231845D01*
X92859991Y-144229381D01*
X92865159Y-144223760D01*
X92949989Y-144105708D01*
X92952817Y-144100562D01*
X92989608Y-144009043D01*
X92989530Y-144001585D01*
X92987912Y-144000000D01*
X92249000Y-144000000D01*
X92214352Y-143985648D01*
X92200000Y-143951000D01*
X92200000Y-143590253D01*
X92600000Y-143590253D01*
X92602855Y-143597145D01*
X92609747Y-143600000D01*
X92982843Y-143600000D01*
X92989735Y-143597145D01*
X92990664Y-143594903D01*
X92958990Y-143511078D01*
X92956270Y-143505876D01*
X92873937Y-143386082D01*
X92870054Y-143381677D01*
X92819632Y-143336754D01*
X92803309Y-143302990D01*
X92815643Y-143267573D01*
X92820405Y-143262909D01*
X92861197Y-143228069D01*
X92865159Y-143223760D01*
X92949989Y-143105708D01*
X92952817Y-143100562D01*
X92989608Y-143009043D01*
X92989530Y-143001585D01*
X92987912Y-143000000D01*
X92609747Y-143000000D01*
X92602855Y-143002855D01*
X92600000Y-143009747D01*
X92600000Y-143590253D01*
X92200000Y-143590253D01*
X92200000Y-142649000D01*
X92214352Y-142614352D01*
X92249000Y-142600000D01*
X92982843Y-142600000D01*
X92989735Y-142597145D01*
X92990664Y-142594903D01*
X92958990Y-142511078D01*
X92956270Y-142505876D01*
X92873937Y-142386082D01*
X92870054Y-142381677D01*
X92860707Y-142373350D01*
X92844384Y-142339586D01*
X92856718Y-142304169D01*
X92861480Y-142299505D01*
X92901608Y-142265233D01*
X92901610Y-142265231D01*
X92903852Y-142263316D01*
X92955283Y-142191742D01*
X92998099Y-142132157D01*
X92998100Y-142132155D01*
X92999824Y-142129756D01*
X93061168Y-141977159D01*
X93065223Y-141948671D01*
X93078004Y-141858859D01*
X93084341Y-141814335D01*
X93084491Y-141800000D01*
X93064733Y-141636726D01*
X93047879Y-141592123D01*
X93007643Y-141485643D01*
X93007642Y-141485642D01*
X93006598Y-141482878D01*
X92916884Y-141352343D01*
X92915119Y-141349775D01*
X92915119Y-141349774D01*
X92913444Y-141347338D01*
X92911239Y-141345373D01*
X92911236Y-141345370D01*
X92792858Y-141239900D01*
X92790648Y-141237931D01*
X92654188Y-141165679D01*
X92647914Y-141162357D01*
X92645300Y-141160973D01*
X92485789Y-141120906D01*
X92402674Y-141120471D01*
X92324281Y-141120060D01*
X92324277Y-141120060D01*
X92321327Y-141120045D01*
X92318458Y-141120734D01*
X92318456Y-141120734D01*
X92213338Y-141145971D01*
X92161406Y-141158439D01*
X92069657Y-141205794D01*
X92032288Y-141208933D01*
X92012537Y-141196900D01*
X92011164Y-141195527D01*
X92008484Y-141191516D01*
X91924301Y-141135266D01*
X91850067Y-141120500D01*
X91847657Y-141120500D01*
X91399346Y-141120501D01*
X90949934Y-141120501D01*
X90947582Y-141120969D01*
X90947580Y-141120969D01*
X90920104Y-141126434D01*
X90875699Y-141135266D01*
X90871688Y-141137946D01*
X90871686Y-141137947D01*
X90823477Y-141170160D01*
X90791516Y-141191516D01*
X90735266Y-141275699D01*
X90720500Y-141349933D01*
X90720500Y-141434354D01*
X90706148Y-141469002D01*
X90692712Y-141478524D01*
X90678768Y-141485220D01*
X90674492Y-141488814D01*
X90674483Y-141488803D01*
X90670816Y-141491413D01*
X90670950Y-141491585D01*
X90667751Y-141494066D01*
X90664186Y-141495990D01*
X90661436Y-141498965D01*
X90626569Y-141536684D01*
X90625235Y-141538071D01*
X89463989Y-142699317D01*
X89455924Y-142705831D01*
X89441060Y-142715429D01*
X89428372Y-142731524D01*
X89417460Y-142745366D01*
X89413627Y-142749679D01*
X89409362Y-142753944D01*
X89408189Y-142755586D01*
X89397081Y-142771129D01*
X89395696Y-142772973D01*
X89365353Y-142811464D01*
X89362844Y-142814647D01*
X89361501Y-142818472D01*
X89359552Y-142822017D01*
X89359404Y-142821936D01*
X89358472Y-142823729D01*
X89358622Y-142823803D01*
X89356841Y-142827439D01*
X89354486Y-142830734D01*
X89353326Y-142834613D01*
X89339271Y-142881609D01*
X89338558Y-142883802D01*
X89320982Y-142933851D01*
X89320500Y-142939416D01*
X89320487Y-142939415D01*
X89319739Y-142943852D01*
X89319955Y-142943879D01*
X89319447Y-142947898D01*
X89318287Y-142951778D01*
X89318446Y-142955827D01*
X89320462Y-143007137D01*
X89320500Y-143009061D01*
X89320500Y-143268848D01*
X89306281Y-143303179D01*
X89304526Y-143304526D01*
X89215645Y-143420358D01*
X89214416Y-143423325D01*
X89161000Y-143552280D01*
X89160999Y-143552284D01*
X89159772Y-143555246D01*
X89150557Y-143625247D01*
X89150208Y-143627895D01*
X89131457Y-143660374D01*
X89101627Y-143670500D01*
X88229481Y-143670500D01*
X88208098Y-143664013D01*
X88207774Y-143664795D01*
X88203316Y-143662949D01*
X88199301Y-143660266D01*
X88125067Y-143645500D01*
X88119423Y-143645500D01*
X87348999Y-143645501D01*
X87314352Y-143631149D01*
X87300000Y-143596501D01*
X87300000Y-143503500D01*
X87314352Y-143468852D01*
X87349000Y-143454500D01*
X88119438Y-143454499D01*
X88125066Y-143454499D01*
X88127418Y-143454031D01*
X88127420Y-143454031D01*
X88163403Y-143446874D01*
X88199301Y-143439734D01*
X88203312Y-143437054D01*
X88203314Y-143437053D01*
X88228299Y-143420358D01*
X88246408Y-143408258D01*
X88273630Y-143400000D01*
X88290253Y-143400000D01*
X88297145Y-143397145D01*
X88300000Y-143390253D01*
X88300000Y-143382713D01*
X88299663Y-143379294D01*
X88307685Y-143347265D01*
X88337052Y-143303315D01*
X88339734Y-143299301D01*
X88354500Y-143225067D01*
X88354499Y-142874934D01*
X88353755Y-142871190D01*
X88341496Y-142809557D01*
X88341496Y-142790443D01*
X88354500Y-142725067D01*
X88354499Y-142374934D01*
X88339734Y-142300699D01*
X88325934Y-142280045D01*
X88307685Y-142252735D01*
X88299663Y-142220706D01*
X88300000Y-142217287D01*
X88300000Y-142209747D01*
X88297145Y-142202855D01*
X88290253Y-142200000D01*
X88273630Y-142200000D01*
X88246408Y-142191742D01*
X88199301Y-142160266D01*
X88125067Y-142145500D01*
X88122657Y-142145500D01*
X87449019Y-142145501D01*
X86774934Y-142145501D01*
X86772582Y-142145969D01*
X86772580Y-142145969D01*
X86736597Y-142153126D01*
X86700699Y-142160266D01*
X86696686Y-142162947D01*
X86692228Y-142164794D01*
X86691904Y-142164013D01*
X86670519Y-142170500D01*
X86567764Y-142170500D01*
X86537935Y-142160374D01*
X86482192Y-142117601D01*
X86479643Y-142115645D01*
X86476680Y-142114418D01*
X86476677Y-142114416D01*
X86347720Y-142061000D01*
X86347716Y-142060999D01*
X86344754Y-142059772D01*
X86341573Y-142059353D01*
X86341572Y-142059353D01*
X86203183Y-142041134D01*
X86200000Y-142040715D01*
X86196817Y-142041134D01*
X86058428Y-142059353D01*
X86058427Y-142059353D01*
X86055246Y-142059772D01*
X85978414Y-142091597D01*
X85940912Y-142091597D01*
X85914393Y-142065079D01*
X85914393Y-142027576D01*
X85925015Y-142011679D01*
X85992842Y-141943852D01*
X86027490Y-141929500D01*
X86670519Y-141929500D01*
X86691902Y-141935987D01*
X86692226Y-141935205D01*
X86696684Y-141937051D01*
X86700699Y-141939734D01*
X86774933Y-141954500D01*
X86777343Y-141954500D01*
X87450981Y-141954499D01*
X88125066Y-141954499D01*
X88127418Y-141954031D01*
X88127420Y-141954031D01*
X88163403Y-141946874D01*
X88199301Y-141939734D01*
X88203314Y-141937053D01*
X88207772Y-141935206D01*
X88208096Y-141935987D01*
X88229481Y-141929500D01*
X88510939Y-141929500D01*
X88545587Y-141943852D01*
X88549813Y-141948671D01*
X88598161Y-142011679D01*
X88604526Y-142019974D01*
X88720357Y-142108855D01*
X88723320Y-142110082D01*
X88723323Y-142110084D01*
X88852280Y-142163500D01*
X88852284Y-142163501D01*
X88855246Y-142164728D01*
X88858427Y-142165147D01*
X88858428Y-142165147D01*
X88996817Y-142183366D01*
X89000000Y-142183785D01*
X89003183Y-142183366D01*
X89141572Y-142165147D01*
X89141573Y-142165147D01*
X89144754Y-142164728D01*
X89147716Y-142163501D01*
X89147720Y-142163500D01*
X89276677Y-142110084D01*
X89276680Y-142110082D01*
X89279643Y-142108855D01*
X89395474Y-142019974D01*
X89484355Y-141904142D01*
X89509715Y-141842919D01*
X89539000Y-141772220D01*
X89539001Y-141772216D01*
X89540228Y-141769254D01*
X89559285Y-141624500D01*
X89540228Y-141479746D01*
X89539001Y-141476784D01*
X89539000Y-141476780D01*
X89485584Y-141347825D01*
X89484355Y-141344858D01*
X89402759Y-141238520D01*
X89397430Y-141231575D01*
X89395474Y-141229026D01*
X89279643Y-141140145D01*
X89276680Y-141138918D01*
X89276677Y-141138916D01*
X89147720Y-141085500D01*
X89147716Y-141085499D01*
X89144754Y-141084272D01*
X89141573Y-141083853D01*
X89141572Y-141083853D01*
X89003183Y-141065634D01*
X89000000Y-141065215D01*
X88996817Y-141065634D01*
X88858428Y-141083853D01*
X88858427Y-141083853D01*
X88855246Y-141084272D01*
X88852284Y-141085499D01*
X88852280Y-141085500D01*
X88766095Y-141121200D01*
X88720358Y-141140145D01*
X88717812Y-141142099D01*
X88717808Y-141142101D01*
X88693994Y-141160374D01*
X88664165Y-141170500D01*
X88229481Y-141170500D01*
X88208098Y-141164013D01*
X88207774Y-141164795D01*
X88203316Y-141162949D01*
X88199301Y-141160266D01*
X88125067Y-141145500D01*
X88122657Y-141145500D01*
X87449019Y-141145501D01*
X86774934Y-141145501D01*
X86772582Y-141145969D01*
X86772580Y-141145969D01*
X86736597Y-141153126D01*
X86700699Y-141160266D01*
X86696686Y-141162947D01*
X86692228Y-141164794D01*
X86691904Y-141164013D01*
X86670519Y-141170500D01*
X85895729Y-141170500D01*
X85885415Y-141169402D01*
X85872087Y-141166532D01*
X85872085Y-141166532D01*
X85868124Y-141165679D01*
X85833508Y-141169776D01*
X85830267Y-141170160D01*
X85824507Y-141170500D01*
X85818476Y-141170500D01*
X85797637Y-141173968D01*
X85795378Y-141174290D01*
X85742659Y-141180530D01*
X85739006Y-141182285D01*
X85735118Y-141183414D01*
X85735071Y-141183252D01*
X85733147Y-141183861D01*
X85733201Y-141184020D01*
X85729372Y-141185331D01*
X85725374Y-141185996D01*
X85721809Y-141187920D01*
X85721808Y-141187920D01*
X85717531Y-141190228D01*
X85678640Y-141211212D01*
X85676604Y-141212249D01*
X85636358Y-141231575D01*
X85628769Y-141235219D01*
X85624493Y-141238813D01*
X85624484Y-141238802D01*
X85620816Y-141241413D01*
X85620950Y-141241585D01*
X85617751Y-141244066D01*
X85614186Y-141245990D01*
X85611436Y-141248965D01*
X85576569Y-141286684D01*
X85575235Y-141288071D01*
X83636524Y-143226782D01*
X83602191Y-143241003D01*
X83600000Y-143240715D01*
X83596817Y-143241134D01*
X83458428Y-143259353D01*
X83458427Y-143259353D01*
X83455246Y-143259772D01*
X83452284Y-143260999D01*
X83452280Y-143261000D01*
X83350125Y-143303315D01*
X83320358Y-143315645D01*
X83298977Y-143332051D01*
X83217126Y-143394858D01*
X83204526Y-143404526D01*
X83202570Y-143407075D01*
X83184936Y-143430056D01*
X83115645Y-143520358D01*
X83114416Y-143523325D01*
X83061000Y-143652280D01*
X83060999Y-143652284D01*
X83059772Y-143655246D01*
X83059353Y-143658427D01*
X83059353Y-143658428D01*
X83043957Y-143775374D01*
X83040715Y-143800000D01*
X81270339Y-143800000D01*
X81269470Y-143792659D01*
X81267716Y-143789007D01*
X81266586Y-143785117D01*
X81266747Y-143785070D01*
X81266139Y-143783147D01*
X81265980Y-143783201D01*
X81264669Y-143779372D01*
X81264004Y-143775374D01*
X81238790Y-143728644D01*
X81237772Y-143726647D01*
X81214781Y-143678768D01*
X81211187Y-143674492D01*
X81211196Y-143674484D01*
X81208586Y-143670817D01*
X81208415Y-143670950D01*
X81205934Y-143667751D01*
X81204010Y-143664186D01*
X81163329Y-143626581D01*
X81161942Y-143625247D01*
X78626094Y-141089399D01*
X79740800Y-141089399D01*
X79741067Y-141092122D01*
X79741067Y-141092123D01*
X79750002Y-141183252D01*
X79757318Y-141257862D01*
X79758180Y-141260453D01*
X79758181Y-141260458D01*
X79791689Y-141361184D01*
X79810748Y-141418479D01*
X79812167Y-141420823D01*
X79812168Y-141420824D01*
X79855023Y-141491585D01*
X79898435Y-141563267D01*
X79900335Y-141565235D01*
X79900337Y-141565237D01*
X79950812Y-141617505D01*
X80016021Y-141685031D01*
X80157660Y-141777717D01*
X80316315Y-141836720D01*
X80319024Y-141837081D01*
X80319026Y-141837082D01*
X80384498Y-141845817D01*
X80484099Y-141859107D01*
X80486824Y-141858859D01*
X80486826Y-141858859D01*
X80649941Y-141844015D01*
X80649944Y-141844014D01*
X80652673Y-141843766D01*
X80813659Y-141791458D01*
X80816012Y-141790055D01*
X80816015Y-141790054D01*
X80956703Y-141706187D01*
X80956705Y-141706185D01*
X80959056Y-141704784D01*
X80979799Y-141685031D01*
X81079657Y-141589939D01*
X81079659Y-141589936D01*
X81081638Y-141588052D01*
X81114846Y-141538071D01*
X81173793Y-141449348D01*
X81173794Y-141449347D01*
X81175311Y-141447063D01*
X81176286Y-141444497D01*
X81234447Y-141291387D01*
X81234448Y-141291382D01*
X81235420Y-141288824D01*
X81258978Y-141121200D01*
X81259274Y-141100000D01*
X81258085Y-141089399D01*
X81740800Y-141089399D01*
X81741067Y-141092122D01*
X81741067Y-141092123D01*
X81750002Y-141183252D01*
X81757318Y-141257862D01*
X81758180Y-141260453D01*
X81758181Y-141260458D01*
X81791689Y-141361184D01*
X81810748Y-141418479D01*
X81812167Y-141420823D01*
X81812168Y-141420824D01*
X81855023Y-141491585D01*
X81898435Y-141563267D01*
X81900335Y-141565235D01*
X81900337Y-141565237D01*
X81950812Y-141617505D01*
X82016021Y-141685031D01*
X82157660Y-141777717D01*
X82316315Y-141836720D01*
X82319024Y-141837081D01*
X82319026Y-141837082D01*
X82384498Y-141845817D01*
X82484099Y-141859107D01*
X82486824Y-141858859D01*
X82486826Y-141858859D01*
X82649941Y-141844015D01*
X82649944Y-141844014D01*
X82652673Y-141843766D01*
X82813659Y-141791458D01*
X82816012Y-141790055D01*
X82816015Y-141790054D01*
X82956703Y-141706187D01*
X82956705Y-141706185D01*
X82959056Y-141704784D01*
X82979799Y-141685031D01*
X83079657Y-141589939D01*
X83079659Y-141589936D01*
X83081638Y-141588052D01*
X83114846Y-141538071D01*
X83173793Y-141449348D01*
X83173794Y-141449347D01*
X83175311Y-141447063D01*
X83176286Y-141444497D01*
X83234447Y-141291387D01*
X83234448Y-141291382D01*
X83235420Y-141288824D01*
X83258978Y-141121200D01*
X83259274Y-141100000D01*
X83248461Y-141003600D01*
X83240712Y-140934508D01*
X83240711Y-140934504D01*
X83240406Y-140931784D01*
X83239505Y-140929197D01*
X83239504Y-140929192D01*
X83185639Y-140774515D01*
X83185637Y-140774512D01*
X83184738Y-140771929D01*
X83183289Y-140769610D01*
X83183287Y-140769606D01*
X83096491Y-140630704D01*
X83096490Y-140630703D01*
X83095038Y-140628379D01*
X83089119Y-140622418D01*
X83011681Y-140544438D01*
X82975764Y-140508269D01*
X82911682Y-140467601D01*
X82835156Y-140419036D01*
X82835154Y-140419035D01*
X82832844Y-140417569D01*
X82830266Y-140416651D01*
X82830264Y-140416650D01*
X82675962Y-140361706D01*
X82673381Y-140360787D01*
X82670661Y-140360463D01*
X82670658Y-140360462D01*
X82589341Y-140350766D01*
X82505301Y-140340745D01*
X82502580Y-140341031D01*
X82502577Y-140341031D01*
X82403338Y-140351461D01*
X82336957Y-140358438D01*
X82334364Y-140359321D01*
X82334363Y-140359321D01*
X82330057Y-140360787D01*
X82176717Y-140412988D01*
X82032544Y-140501684D01*
X82030589Y-140503598D01*
X82030587Y-140503600D01*
X81913561Y-140618201D01*
X81913559Y-140618204D01*
X81911605Y-140620117D01*
X81910122Y-140622417D01*
X81910122Y-140622418D01*
X81890295Y-140653183D01*
X81819909Y-140762400D01*
X81803156Y-140808428D01*
X81765100Y-140912988D01*
X81762015Y-140921463D01*
X81740800Y-141089399D01*
X81258085Y-141089399D01*
X81248461Y-141003600D01*
X81240712Y-140934508D01*
X81240711Y-140934504D01*
X81240406Y-140931784D01*
X81239505Y-140929197D01*
X81239504Y-140929192D01*
X81185639Y-140774515D01*
X81185637Y-140774512D01*
X81184738Y-140771929D01*
X81183289Y-140769610D01*
X81183287Y-140769606D01*
X81096491Y-140630704D01*
X81096490Y-140630703D01*
X81095038Y-140628379D01*
X81089119Y-140622418D01*
X81011681Y-140544438D01*
X80975764Y-140508269D01*
X80911682Y-140467601D01*
X80835156Y-140419036D01*
X80835154Y-140419035D01*
X80832844Y-140417569D01*
X80830266Y-140416651D01*
X80830264Y-140416650D01*
X80675962Y-140361706D01*
X80673381Y-140360787D01*
X80670661Y-140360463D01*
X80670658Y-140360462D01*
X80589341Y-140350766D01*
X80505301Y-140340745D01*
X80502580Y-140341031D01*
X80502577Y-140341031D01*
X80403338Y-140351461D01*
X80336957Y-140358438D01*
X80334364Y-140359321D01*
X80334363Y-140359321D01*
X80330057Y-140360787D01*
X80176717Y-140412988D01*
X80032544Y-140501684D01*
X80030589Y-140503598D01*
X80030587Y-140503600D01*
X79913561Y-140618201D01*
X79913559Y-140618204D01*
X79911605Y-140620117D01*
X79910122Y-140622417D01*
X79910122Y-140622418D01*
X79890295Y-140653183D01*
X79819909Y-140762400D01*
X79803156Y-140808428D01*
X79765100Y-140912988D01*
X79762015Y-140921463D01*
X79740800Y-141089399D01*
X78626094Y-141089399D01*
X75886694Y-138350000D01*
X84540715Y-138350000D01*
X84559772Y-138494754D01*
X84560999Y-138497716D01*
X84561000Y-138497720D01*
X84614416Y-138626675D01*
X84615645Y-138629642D01*
X84704526Y-138745474D01*
X84820357Y-138834355D01*
X84823320Y-138835582D01*
X84823323Y-138835584D01*
X84952280Y-138889000D01*
X84952284Y-138889001D01*
X84955246Y-138890228D01*
X84958427Y-138890647D01*
X84958428Y-138890647D01*
X85096817Y-138908866D01*
X85100000Y-138909285D01*
X85103183Y-138908866D01*
X85241572Y-138890647D01*
X85241573Y-138890647D01*
X85244754Y-138890228D01*
X85247716Y-138889001D01*
X85247720Y-138889000D01*
X85376677Y-138835584D01*
X85376680Y-138835582D01*
X85379643Y-138834355D01*
X85495474Y-138745474D01*
X85511236Y-138724933D01*
X89345500Y-138724933D01*
X89345501Y-140575066D01*
X89360266Y-140649301D01*
X89362946Y-140653312D01*
X89362947Y-140653314D01*
X89404425Y-140715389D01*
X89416516Y-140733484D01*
X89500699Y-140789734D01*
X89574933Y-140804500D01*
X89577343Y-140804500D01*
X90701636Y-140804499D01*
X91825066Y-140804499D01*
X91827418Y-140804031D01*
X91827420Y-140804031D01*
X91863403Y-140796874D01*
X91899301Y-140789734D01*
X91903312Y-140787054D01*
X91903314Y-140787053D01*
X91979473Y-140736164D01*
X91983484Y-140733484D01*
X92011033Y-140692254D01*
X92037052Y-140653315D01*
X92039734Y-140649301D01*
X92054500Y-140575067D01*
X92054499Y-138724934D01*
X92039734Y-138650699D01*
X92027368Y-138632191D01*
X91986164Y-138570527D01*
X91983484Y-138566516D01*
X91899301Y-138510266D01*
X91825067Y-138495500D01*
X91822657Y-138495500D01*
X90698364Y-138495501D01*
X89574934Y-138495501D01*
X89572582Y-138495969D01*
X89572580Y-138495969D01*
X89563777Y-138497720D01*
X89500699Y-138510266D01*
X89496688Y-138512946D01*
X89496686Y-138512947D01*
X89496685Y-138512948D01*
X89416516Y-138566516D01*
X89413836Y-138570527D01*
X89376319Y-138626675D01*
X89360266Y-138650699D01*
X89345500Y-138724933D01*
X85511236Y-138724933D01*
X85584355Y-138629642D01*
X85585584Y-138626675D01*
X85639000Y-138497720D01*
X85639001Y-138497716D01*
X85640228Y-138494754D01*
X85659285Y-138350000D01*
X85640228Y-138205246D01*
X85639001Y-138202284D01*
X85639000Y-138202280D01*
X85585584Y-138073325D01*
X85584355Y-138070358D01*
X85495474Y-137954526D01*
X85379643Y-137865645D01*
X85376680Y-137864418D01*
X85376677Y-137864416D01*
X85247720Y-137811000D01*
X85247716Y-137810999D01*
X85244754Y-137809772D01*
X85241573Y-137809353D01*
X85241572Y-137809353D01*
X85103183Y-137791134D01*
X85100000Y-137790715D01*
X85096817Y-137791134D01*
X84958428Y-137809353D01*
X84958427Y-137809353D01*
X84955246Y-137809772D01*
X84952284Y-137810999D01*
X84952280Y-137811000D01*
X84823325Y-137864416D01*
X84820358Y-137865645D01*
X84817809Y-137867601D01*
X84712570Y-137948354D01*
X84704526Y-137954526D01*
X84615645Y-138070358D01*
X84614416Y-138073325D01*
X84561000Y-138202280D01*
X84560999Y-138202284D01*
X84559772Y-138205246D01*
X84540715Y-138350000D01*
X75886694Y-138350000D01*
X74800683Y-137263989D01*
X74794169Y-137255924D01*
X74784571Y-137241060D01*
X74754633Y-137217459D01*
X74750321Y-137213627D01*
X74746056Y-137209362D01*
X74728871Y-137197081D01*
X74727027Y-137195696D01*
X74688536Y-137165353D01*
X74688535Y-137165352D01*
X74685353Y-137162844D01*
X74681528Y-137161501D01*
X74677983Y-137159552D01*
X74678064Y-137159404D01*
X74676271Y-137158472D01*
X74676197Y-137158622D01*
X74672561Y-137156841D01*
X74669266Y-137154486D01*
X74618390Y-137139271D01*
X74616196Y-137138557D01*
X74569056Y-137122003D01*
X74569057Y-137122003D01*
X74566149Y-137120982D01*
X74563080Y-137120716D01*
X74563079Y-137120716D01*
X74561636Y-137120591D01*
X74561633Y-137120591D01*
X74560584Y-137120500D01*
X74560585Y-137120487D01*
X74556148Y-137119739D01*
X74556121Y-137119955D01*
X74552102Y-137119447D01*
X74548222Y-137118287D01*
X74544173Y-137118446D01*
X74492863Y-137120462D01*
X74490939Y-137120500D01*
X73731152Y-137120500D01*
X73696821Y-137106281D01*
X73695474Y-137104526D01*
X73579643Y-137015645D01*
X73576680Y-137014418D01*
X73576677Y-137014416D01*
X73447720Y-136961000D01*
X73447716Y-136960999D01*
X73444754Y-136959772D01*
X73441573Y-136959353D01*
X73441572Y-136959353D01*
X73303183Y-136941134D01*
X73300000Y-136940715D01*
X73296817Y-136941134D01*
X73158428Y-136959353D01*
X73158427Y-136959353D01*
X73155246Y-136959772D01*
X73152284Y-136960999D01*
X73152280Y-136961000D01*
X73023325Y-137014416D01*
X73020358Y-137015645D01*
X73017809Y-137017601D01*
X72909639Y-137100603D01*
X72904526Y-137104526D01*
X72815645Y-137220358D01*
X72814416Y-137223325D01*
X72761000Y-137352280D01*
X72760999Y-137352284D01*
X72759772Y-137355246D01*
X72759353Y-137358427D01*
X72759353Y-137358428D01*
X72754476Y-137395474D01*
X72740715Y-137500000D01*
X48450000Y-137500000D01*
X48450000Y-137149000D01*
X48464352Y-137114352D01*
X48499000Y-137100000D01*
X50768595Y-137100000D01*
X50776261Y-137100603D01*
X50800000Y-137104363D01*
X50803808Y-137103760D01*
X50803809Y-137103760D01*
X50804384Y-137103669D01*
X50806561Y-137103374D01*
X50923233Y-137090228D01*
X50945554Y-137087713D01*
X51014682Y-137063524D01*
X51081212Y-137040244D01*
X51081214Y-137040243D01*
X51083809Y-137039335D01*
X51207833Y-136961406D01*
X51311406Y-136857833D01*
X51389335Y-136733809D01*
X51437713Y-136595554D01*
X51440191Y-136573564D01*
X51445524Y-136526235D01*
X51447982Y-136515492D01*
X51448534Y-136513918D01*
X51448534Y-136513917D01*
X51449556Y-136511007D01*
X51450000Y-136505881D01*
X51450000Y-136489257D01*
X51450308Y-136483770D01*
X51450463Y-136482399D01*
X51453374Y-136456557D01*
X51453669Y-136454384D01*
X51453760Y-136453809D01*
X51453760Y-136453808D01*
X51454363Y-136450000D01*
X51450603Y-136426261D01*
X51450000Y-136418595D01*
X51450000Y-135100000D01*
X51844843Y-135100000D01*
X51845029Y-135102126D01*
X51845029Y-135102129D01*
X51862723Y-135304363D01*
X51865431Y-135335321D01*
X51865986Y-135337391D01*
X51865986Y-135337393D01*
X51911270Y-135506396D01*
X51926569Y-135563491D01*
X51942918Y-135598551D01*
X52024509Y-135773522D01*
X52026400Y-135777578D01*
X52027626Y-135779328D01*
X52027626Y-135779329D01*
X52084862Y-135861070D01*
X52161890Y-135971078D01*
X52328922Y-136138110D01*
X52330679Y-136139340D01*
X52330681Y-136139342D01*
X52454890Y-136226314D01*
X52522421Y-136273600D01*
X52736509Y-136373431D01*
X52738574Y-136373984D01*
X52738576Y-136373985D01*
X52962607Y-136434014D01*
X52962609Y-136434014D01*
X52964679Y-136434569D01*
X52966806Y-136434755D01*
X52966811Y-136434756D01*
X53197874Y-136454971D01*
X53200000Y-136455157D01*
X53202126Y-136454971D01*
X53433189Y-136434756D01*
X53433194Y-136434755D01*
X53435321Y-136434569D01*
X53437391Y-136434014D01*
X53437393Y-136434014D01*
X53661424Y-136373985D01*
X53661426Y-136373984D01*
X53663491Y-136373431D01*
X53877579Y-136273600D01*
X53945110Y-136226314D01*
X54069319Y-136139342D01*
X54069321Y-136139340D01*
X54071078Y-136138110D01*
X54238110Y-135971078D01*
X54315139Y-135861070D01*
X54372374Y-135779329D01*
X54372374Y-135779328D01*
X54373600Y-135777578D01*
X54375492Y-135773522D01*
X54457082Y-135598551D01*
X54473431Y-135563491D01*
X54488730Y-135506396D01*
X54534014Y-135337393D01*
X54534014Y-135337391D01*
X54534569Y-135335321D01*
X54537278Y-135304363D01*
X54554971Y-135102126D01*
X54555157Y-135100000D01*
X54548038Y-135018625D01*
X54534756Y-134866811D01*
X54534755Y-134866806D01*
X54534569Y-134864679D01*
X54532311Y-134856250D01*
X54497770Y-134727343D01*
X62220500Y-134727343D01*
X62220501Y-135601273D01*
X62220501Y-136475066D01*
X62220969Y-136477418D01*
X62220969Y-136477420D01*
X62223343Y-136489355D01*
X62235266Y-136549301D01*
X62237946Y-136553312D01*
X62237947Y-136553314D01*
X62265510Y-136594564D01*
X62291516Y-136633484D01*
X62295527Y-136636164D01*
X62360343Y-136679473D01*
X62375699Y-136689734D01*
X62449933Y-136704500D01*
X62452343Y-136704500D01*
X63326272Y-136704499D01*
X64200066Y-136704499D01*
X64202418Y-136704031D01*
X64202420Y-136704031D01*
X64238403Y-136696874D01*
X64274301Y-136689734D01*
X64278312Y-136687054D01*
X64278314Y-136687053D01*
X64354473Y-136636164D01*
X64358484Y-136633484D01*
X64402522Y-136567577D01*
X64412052Y-136553315D01*
X64414734Y-136549301D01*
X64429500Y-136475067D01*
X64429500Y-135600000D01*
X64429500Y-135570964D01*
X64756148Y-135570964D01*
X64769424Y-135773522D01*
X64769977Y-135775701D01*
X64769978Y-135775705D01*
X64796816Y-135881377D01*
X64819392Y-135970269D01*
X64820328Y-135972299D01*
X64820330Y-135972305D01*
X64901198Y-136147720D01*
X64904377Y-136154616D01*
X64905672Y-136156448D01*
X64994538Y-136282191D01*
X65021533Y-136320389D01*
X65023137Y-136321952D01*
X65023140Y-136321955D01*
X65087186Y-136384345D01*
X65166938Y-136462035D01*
X65168800Y-136463279D01*
X65168801Y-136463280D01*
X65324892Y-136567577D01*
X65335720Y-136574812D01*
X65522228Y-136654942D01*
X65524420Y-136655438D01*
X65718026Y-136699247D01*
X65718032Y-136699248D01*
X65720216Y-136699742D01*
X65806124Y-136703118D01*
X65920806Y-136707624D01*
X65920809Y-136707624D01*
X65923053Y-136707712D01*
X65925272Y-136707390D01*
X65925277Y-136707390D01*
X66040548Y-136690676D01*
X66123945Y-136678584D01*
X66126067Y-136677864D01*
X66126070Y-136677863D01*
X66256805Y-136633484D01*
X66316165Y-136613334D01*
X66367973Y-136584320D01*
X66491314Y-136515246D01*
X66491316Y-136515245D01*
X66493276Y-136514147D01*
X66497052Y-136511007D01*
X66647622Y-136385778D01*
X66649345Y-136384345D01*
X66779147Y-136228276D01*
X66821545Y-136152570D01*
X66877238Y-136053122D01*
X66878334Y-136051165D01*
X66934392Y-135886025D01*
X66942863Y-135861070D01*
X66942864Y-135861067D01*
X66943584Y-135858945D01*
X66972712Y-135658053D01*
X66974114Y-135604526D01*
X66974194Y-135601453D01*
X66974194Y-135601452D01*
X66974232Y-135600000D01*
X66971564Y-135570964D01*
X67296148Y-135570964D01*
X67309424Y-135773522D01*
X67309977Y-135775701D01*
X67309978Y-135775705D01*
X67336816Y-135881377D01*
X67359392Y-135970269D01*
X67360328Y-135972299D01*
X67360330Y-135972305D01*
X67441198Y-136147720D01*
X67444377Y-136154616D01*
X67445672Y-136156448D01*
X67534538Y-136282191D01*
X67561533Y-136320389D01*
X67563137Y-136321952D01*
X67563140Y-136321955D01*
X67627186Y-136384345D01*
X67706938Y-136462035D01*
X67708800Y-136463279D01*
X67708801Y-136463280D01*
X67864892Y-136567577D01*
X67875720Y-136574812D01*
X68062228Y-136654942D01*
X68064420Y-136655438D01*
X68258026Y-136699247D01*
X68258032Y-136699248D01*
X68260216Y-136699742D01*
X68346124Y-136703118D01*
X68460806Y-136707624D01*
X68460809Y-136707624D01*
X68463053Y-136707712D01*
X68465272Y-136707390D01*
X68465277Y-136707390D01*
X68580548Y-136690676D01*
X68663945Y-136678584D01*
X68666067Y-136677864D01*
X68666070Y-136677863D01*
X68796805Y-136633484D01*
X68856165Y-136613334D01*
X68907973Y-136584320D01*
X69031314Y-136515246D01*
X69031316Y-136515245D01*
X69033276Y-136514147D01*
X69037052Y-136511007D01*
X69187622Y-136385778D01*
X69189345Y-136384345D01*
X69319147Y-136228276D01*
X69361545Y-136152570D01*
X69417238Y-136053122D01*
X69418334Y-136051165D01*
X69474392Y-135886025D01*
X69482863Y-135861070D01*
X69482864Y-135861067D01*
X69483584Y-135858945D01*
X69512712Y-135658053D01*
X69514114Y-135604526D01*
X69514194Y-135601453D01*
X69514194Y-135601452D01*
X69514232Y-135600000D01*
X69511564Y-135570964D01*
X69836148Y-135570964D01*
X69849424Y-135773522D01*
X69849977Y-135775701D01*
X69849978Y-135775705D01*
X69876816Y-135881377D01*
X69899392Y-135970269D01*
X69900328Y-135972299D01*
X69900330Y-135972305D01*
X69981198Y-136147720D01*
X69984377Y-136154616D01*
X69985672Y-136156448D01*
X70074538Y-136282191D01*
X70101533Y-136320389D01*
X70103137Y-136321952D01*
X70103140Y-136321955D01*
X70167186Y-136384345D01*
X70246938Y-136462035D01*
X70248800Y-136463279D01*
X70248801Y-136463280D01*
X70404892Y-136567577D01*
X70415720Y-136574812D01*
X70602228Y-136654942D01*
X70604420Y-136655438D01*
X70798026Y-136699247D01*
X70798032Y-136699248D01*
X70800216Y-136699742D01*
X70886124Y-136703118D01*
X71000806Y-136707624D01*
X71000809Y-136707624D01*
X71003053Y-136707712D01*
X71005272Y-136707390D01*
X71005277Y-136707390D01*
X71120548Y-136690676D01*
X71203945Y-136678584D01*
X71206067Y-136677864D01*
X71206070Y-136677863D01*
X71336805Y-136633484D01*
X71396165Y-136613334D01*
X71447973Y-136584320D01*
X71571314Y-136515246D01*
X71571316Y-136515245D01*
X71573276Y-136514147D01*
X71577052Y-136511007D01*
X71727622Y-136385778D01*
X71729345Y-136384345D01*
X71859147Y-136228276D01*
X71901545Y-136152570D01*
X71957238Y-136053122D01*
X71958334Y-136051165D01*
X72014392Y-135886025D01*
X72022863Y-135861070D01*
X72022864Y-135861067D01*
X72023584Y-135858945D01*
X72031295Y-135805760D01*
X72451639Y-135805760D01*
X72503350Y-135986100D01*
X72505105Y-135990532D01*
X72597038Y-136169414D01*
X72599622Y-136173424D01*
X72724548Y-136331041D01*
X72727865Y-136334476D01*
X72881026Y-136464826D01*
X72884943Y-136467548D01*
X73060506Y-136565667D01*
X73064877Y-136567577D01*
X73256161Y-136629729D01*
X73260815Y-136630752D01*
X73275322Y-136632482D01*
X73282503Y-136630464D01*
X73285000Y-136626014D01*
X73285000Y-136624618D01*
X73685000Y-136624618D01*
X73687855Y-136631510D01*
X73690823Y-136632739D01*
X73864240Y-136584320D01*
X73868676Y-136582600D01*
X73933213Y-136550000D01*
X77140715Y-136550000D01*
X77141134Y-136553183D01*
X77150539Y-136624618D01*
X77159772Y-136694754D01*
X77160999Y-136697716D01*
X77161000Y-136697720D01*
X77189362Y-136766191D01*
X77215645Y-136829642D01*
X77304526Y-136945474D01*
X77420357Y-137034355D01*
X77423320Y-137035582D01*
X77423323Y-137035584D01*
X77552280Y-137089000D01*
X77552284Y-137089001D01*
X77555246Y-137090228D01*
X77558427Y-137090647D01*
X77558428Y-137090647D01*
X77696817Y-137108866D01*
X77700000Y-137109285D01*
X77703183Y-137108866D01*
X77841572Y-137090647D01*
X77841573Y-137090647D01*
X77844754Y-137090228D01*
X77847716Y-137089001D01*
X77847720Y-137089000D01*
X77976677Y-137035584D01*
X77976680Y-137035582D01*
X77979643Y-137034355D01*
X78095474Y-136945474D01*
X78184355Y-136829642D01*
X78210638Y-136766191D01*
X78239000Y-136697720D01*
X78239001Y-136697716D01*
X78240228Y-136694754D01*
X78249462Y-136624618D01*
X78258866Y-136553183D01*
X78259285Y-136550000D01*
X78250385Y-136482399D01*
X78240647Y-136408428D01*
X78240647Y-136408427D01*
X78240228Y-136405246D01*
X78239001Y-136402284D01*
X78239000Y-136402280D01*
X78185584Y-136273325D01*
X78184355Y-136270358D01*
X78095474Y-136154526D01*
X77979643Y-136065645D01*
X77976680Y-136064418D01*
X77976677Y-136064416D01*
X77847720Y-136011000D01*
X77847716Y-136010999D01*
X77844754Y-136009772D01*
X77841573Y-136009353D01*
X77841572Y-136009353D01*
X77770528Y-136000000D01*
X79940715Y-136000000D01*
X79941134Y-136003183D01*
X79959060Y-136139342D01*
X79959772Y-136144754D01*
X79960999Y-136147716D01*
X79961000Y-136147720D01*
X80005894Y-136256101D01*
X80015645Y-136279642D01*
X80104526Y-136395474D01*
X80220357Y-136484355D01*
X80223320Y-136485582D01*
X80223323Y-136485584D01*
X80352280Y-136539000D01*
X80352284Y-136539001D01*
X80355246Y-136540228D01*
X80358427Y-136540647D01*
X80358428Y-136540647D01*
X80496817Y-136558866D01*
X80500000Y-136559285D01*
X80503183Y-136558866D01*
X80641572Y-136540647D01*
X80641573Y-136540647D01*
X80644754Y-136540228D01*
X80647716Y-136539001D01*
X80647720Y-136539000D01*
X80776677Y-136485584D01*
X80776680Y-136485582D01*
X80779643Y-136484355D01*
X80841672Y-136436758D01*
X80877897Y-136427051D01*
X80910375Y-136445803D01*
X80920501Y-136475632D01*
X80920501Y-136525066D01*
X80935266Y-136599301D01*
X80937946Y-136603312D01*
X80937947Y-136603314D01*
X80971851Y-136654054D01*
X80991516Y-136683484D01*
X80995527Y-136686164D01*
X80996616Y-136687253D01*
X81010968Y-136721901D01*
X81007238Y-136740652D01*
X80961001Y-136852278D01*
X80959772Y-136855246D01*
X80940715Y-137000000D01*
X80941134Y-137003183D01*
X80956309Y-137118446D01*
X80959772Y-137144754D01*
X80960999Y-137147716D01*
X80961000Y-137147720D01*
X81000000Y-137241872D01*
X81015645Y-137279642D01*
X81104526Y-137395474D01*
X81220357Y-137484355D01*
X81223320Y-137485582D01*
X81223323Y-137485584D01*
X81352280Y-137539000D01*
X81352284Y-137539001D01*
X81355246Y-137540228D01*
X81358427Y-137540647D01*
X81358428Y-137540647D01*
X81496817Y-137558866D01*
X81500000Y-137559285D01*
X81503183Y-137558866D01*
X81641572Y-137540647D01*
X81641573Y-137540647D01*
X81644754Y-137540228D01*
X81647716Y-137539001D01*
X81647720Y-137539000D01*
X81776677Y-137485584D01*
X81776680Y-137485582D01*
X81779643Y-137484355D01*
X81895474Y-137395474D01*
X81897430Y-137392925D01*
X81961126Y-137309915D01*
X81993604Y-137291163D01*
X82029829Y-137300870D01*
X82038874Y-137309915D01*
X82102570Y-137392925D01*
X82104526Y-137395474D01*
X82220357Y-137484355D01*
X82223320Y-137485582D01*
X82223323Y-137485584D01*
X82352280Y-137539000D01*
X82352284Y-137539001D01*
X82355246Y-137540228D01*
X82358427Y-137540647D01*
X82358428Y-137540647D01*
X82496817Y-137558866D01*
X82500000Y-137559285D01*
X82503183Y-137558866D01*
X82641572Y-137540647D01*
X82641573Y-137540647D01*
X82644754Y-137540228D01*
X82647716Y-137539001D01*
X82647720Y-137539000D01*
X82776677Y-137485584D01*
X82776680Y-137485582D01*
X82779643Y-137484355D01*
X82895474Y-137395474D01*
X82984355Y-137279642D01*
X83000000Y-137241872D01*
X83039000Y-137147720D01*
X83039001Y-137147716D01*
X83040228Y-137144754D01*
X83043692Y-137118446D01*
X83058866Y-137003183D01*
X83059285Y-137000000D01*
X83040228Y-136855246D01*
X83038999Y-136852278D01*
X83003851Y-136767423D01*
X83003851Y-136729920D01*
X83021897Y-136707931D01*
X83058484Y-136683484D01*
X83102522Y-136617577D01*
X83112052Y-136603315D01*
X83114734Y-136599301D01*
X83129500Y-136525067D01*
X83129500Y-135855760D01*
X83531639Y-135855760D01*
X83583350Y-136036100D01*
X83585105Y-136040532D01*
X83677038Y-136219414D01*
X83679622Y-136223424D01*
X83804548Y-136381041D01*
X83807865Y-136384476D01*
X83961026Y-136514826D01*
X83964943Y-136517548D01*
X84140506Y-136615667D01*
X84144877Y-136617577D01*
X84336161Y-136679729D01*
X84340815Y-136680752D01*
X84355322Y-136682482D01*
X84362503Y-136680464D01*
X84365000Y-136676014D01*
X84365000Y-136674618D01*
X84765000Y-136674618D01*
X84767855Y-136681510D01*
X84770823Y-136682739D01*
X84944240Y-136634320D01*
X84948676Y-136632600D01*
X85128201Y-136541915D01*
X85132234Y-136539355D01*
X85290716Y-136415535D01*
X85294166Y-136412250D01*
X85425592Y-136259993D01*
X85428337Y-136256101D01*
X85527679Y-136081226D01*
X85529621Y-136076865D01*
X85593106Y-135886025D01*
X85594162Y-135881377D01*
X85596905Y-135859669D01*
X85594936Y-135852474D01*
X85590600Y-135850000D01*
X84774747Y-135850000D01*
X84767855Y-135852855D01*
X84765000Y-135859747D01*
X84765000Y-136674618D01*
X84365000Y-136674618D01*
X84365000Y-135859747D01*
X84362145Y-135852855D01*
X84355253Y-135850000D01*
X83539734Y-135850000D01*
X83532842Y-135852855D01*
X83531639Y-135855760D01*
X83129500Y-135855760D01*
X83129500Y-135440314D01*
X83531889Y-135440314D01*
X83533959Y-135447482D01*
X83538520Y-135450000D01*
X84355253Y-135450000D01*
X84362145Y-135447145D01*
X84365000Y-135440253D01*
X84765000Y-135440253D01*
X84767855Y-135447145D01*
X84774747Y-135450000D01*
X85590724Y-135450000D01*
X85597616Y-135447145D01*
X85599337Y-135442989D01*
X85599295Y-135442774D01*
X85541163Y-135250233D01*
X85539344Y-135245821D01*
X85444925Y-135068245D01*
X85442283Y-135064268D01*
X85315172Y-134908414D01*
X85311808Y-134905026D01*
X85156840Y-134776825D01*
X85152886Y-134774158D01*
X84975966Y-134678499D01*
X84971575Y-134676653D01*
X84779435Y-134617175D01*
X84774777Y-134616219D01*
X84774694Y-134616211D01*
X84767540Y-134618330D01*
X84765000Y-134623008D01*
X84765000Y-135440253D01*
X84365000Y-135440253D01*
X84365000Y-134624030D01*
X84362145Y-134617138D01*
X84359302Y-134615960D01*
X84172059Y-134671069D01*
X84167637Y-134672856D01*
X83989402Y-134766035D01*
X83985410Y-134768646D01*
X83828664Y-134894673D01*
X83825259Y-134898008D01*
X83695979Y-135052078D01*
X83693283Y-135056015D01*
X83596390Y-135232263D01*
X83594514Y-135236641D01*
X83533699Y-135428355D01*
X83532709Y-135433010D01*
X83531889Y-135440314D01*
X83129500Y-135440314D01*
X83129499Y-134774934D01*
X83128249Y-134768646D01*
X83118332Y-134718788D01*
X83114734Y-134700699D01*
X83099901Y-134678499D01*
X83061164Y-134620527D01*
X83058484Y-134616516D01*
X82993371Y-134573008D01*
X82978315Y-134562948D01*
X82978313Y-134562947D01*
X82974301Y-134560266D01*
X82900067Y-134545500D01*
X82897657Y-134545500D01*
X82023728Y-134545501D01*
X81149934Y-134545501D01*
X81147582Y-134545969D01*
X81147580Y-134545969D01*
X81111597Y-134553126D01*
X81075699Y-134560266D01*
X81071688Y-134562946D01*
X81071686Y-134562947D01*
X81016234Y-134600000D01*
X80991516Y-134616516D01*
X80988836Y-134620527D01*
X80985422Y-134623941D01*
X80984620Y-134623139D01*
X80957899Y-134640993D01*
X80921117Y-134633675D01*
X80909470Y-134622766D01*
X80895474Y-134604526D01*
X80779643Y-134515645D01*
X80776680Y-134514418D01*
X80776677Y-134514416D01*
X80647720Y-134461000D01*
X80647716Y-134460999D01*
X80644754Y-134459772D01*
X80641573Y-134459353D01*
X80641572Y-134459353D01*
X80503183Y-134441134D01*
X80500000Y-134440715D01*
X80496817Y-134441134D01*
X80358428Y-134459353D01*
X80358427Y-134459353D01*
X80355246Y-134459772D01*
X80352284Y-134460999D01*
X80352280Y-134461000D01*
X80265817Y-134496815D01*
X80220358Y-134515645D01*
X80104526Y-134604526D01*
X80102572Y-134607073D01*
X80102570Y-134607075D01*
X80069633Y-134650000D01*
X80015645Y-134720358D01*
X80014416Y-134723325D01*
X79961000Y-134852280D01*
X79960999Y-134852284D01*
X79959772Y-134855246D01*
X79940715Y-135000000D01*
X79941134Y-135003183D01*
X79949700Y-135068245D01*
X79959772Y-135144754D01*
X79960999Y-135147716D01*
X79961000Y-135147720D01*
X80003367Y-135250000D01*
X80015645Y-135279642D01*
X80104526Y-135395474D01*
X80171865Y-135447145D01*
X80190085Y-135461126D01*
X80208837Y-135493604D01*
X80199130Y-135529829D01*
X80190085Y-135538874D01*
X80148265Y-135570964D01*
X80104526Y-135604526D01*
X80015645Y-135720358D01*
X80014416Y-135723325D01*
X79961000Y-135852280D01*
X79960999Y-135852284D01*
X79959772Y-135855246D01*
X79940715Y-136000000D01*
X77770528Y-136000000D01*
X77703183Y-135991134D01*
X77700000Y-135990715D01*
X77696817Y-135991134D01*
X77558428Y-136009353D01*
X77558427Y-136009353D01*
X77555246Y-136009772D01*
X77552284Y-136010999D01*
X77552280Y-136011000D01*
X77460431Y-136049046D01*
X77420358Y-136065645D01*
X77304526Y-136154526D01*
X77215645Y-136270358D01*
X77214416Y-136273325D01*
X77161000Y-136402280D01*
X77160999Y-136402284D01*
X77159772Y-136405246D01*
X77159353Y-136408427D01*
X77159353Y-136408428D01*
X77149615Y-136482399D01*
X77140715Y-136550000D01*
X73933213Y-136550000D01*
X74048201Y-136491915D01*
X74052234Y-136489355D01*
X74210716Y-136365535D01*
X74214166Y-136362250D01*
X74345592Y-136209993D01*
X74348337Y-136206101D01*
X74447679Y-136031226D01*
X74449621Y-136026865D01*
X74513106Y-135836025D01*
X74514162Y-135831377D01*
X74516905Y-135809669D01*
X74514936Y-135802474D01*
X74510600Y-135800000D01*
X73694747Y-135800000D01*
X73687855Y-135802855D01*
X73685000Y-135809747D01*
X73685000Y-136624618D01*
X73285000Y-136624618D01*
X73285000Y-135809747D01*
X73282145Y-135802855D01*
X73275253Y-135800000D01*
X72459734Y-135800000D01*
X72452842Y-135802855D01*
X72451639Y-135805760D01*
X72031295Y-135805760D01*
X72052712Y-135658053D01*
X72054114Y-135604526D01*
X72054194Y-135601453D01*
X72054194Y-135601452D01*
X72054232Y-135600000D01*
X72035658Y-135397859D01*
X72033530Y-135390314D01*
X72451889Y-135390314D01*
X72453959Y-135397482D01*
X72458520Y-135400000D01*
X73275253Y-135400000D01*
X73282145Y-135397145D01*
X73285000Y-135390253D01*
X73685000Y-135390253D01*
X73687855Y-135397145D01*
X73694747Y-135400000D01*
X74510724Y-135400000D01*
X74517616Y-135397145D01*
X74519337Y-135392989D01*
X74519295Y-135392774D01*
X74461163Y-135200233D01*
X74459344Y-135195821D01*
X74364925Y-135018245D01*
X74362283Y-135014268D01*
X74235172Y-134858414D01*
X74231808Y-134855026D01*
X74076840Y-134726825D01*
X74072886Y-134724158D01*
X73895966Y-134628499D01*
X73891575Y-134626653D01*
X73699435Y-134567175D01*
X73694777Y-134566219D01*
X73694694Y-134566211D01*
X73687540Y-134568330D01*
X73685000Y-134573008D01*
X73685000Y-135390253D01*
X73285000Y-135390253D01*
X73285000Y-134574030D01*
X73282145Y-134567138D01*
X73279302Y-134565960D01*
X73092059Y-134621069D01*
X73087637Y-134622856D01*
X72909402Y-134716035D01*
X72905410Y-134718646D01*
X72748664Y-134844673D01*
X72745259Y-134848008D01*
X72615979Y-135002078D01*
X72613283Y-135006015D01*
X72516390Y-135182263D01*
X72514514Y-135186641D01*
X72453699Y-135378355D01*
X72452709Y-135383010D01*
X72451889Y-135390314D01*
X72033530Y-135390314D01*
X71980557Y-135202487D01*
X71979446Y-135200233D01*
X71926662Y-135093198D01*
X71890776Y-135020428D01*
X71776065Y-134866811D01*
X71770668Y-134859584D01*
X71770667Y-134859583D01*
X71769320Y-134857779D01*
X71620258Y-134719987D01*
X71613995Y-134716035D01*
X71545560Y-134672856D01*
X71448581Y-134611667D01*
X71345463Y-134570527D01*
X71262123Y-134537277D01*
X71262119Y-134537276D01*
X71260039Y-134536446D01*
X71257838Y-134536008D01*
X71257834Y-134536007D01*
X71123687Y-134509324D01*
X71060946Y-134496844D01*
X70964244Y-134495578D01*
X70860219Y-134494216D01*
X70860214Y-134494216D01*
X70857971Y-134494187D01*
X70855754Y-134494568D01*
X70855753Y-134494568D01*
X70842508Y-134496844D01*
X70657910Y-134528564D01*
X70655806Y-134529340D01*
X70655803Y-134529341D01*
X70469571Y-134598046D01*
X70469568Y-134598047D01*
X70467463Y-134598824D01*
X70465535Y-134599971D01*
X70465533Y-134599972D01*
X70408883Y-134633675D01*
X70293010Y-134702612D01*
X70291322Y-134704092D01*
X70291321Y-134704093D01*
X70220690Y-134766035D01*
X70140392Y-134836455D01*
X70139007Y-134838211D01*
X70139003Y-134838216D01*
X70016110Y-134994105D01*
X70016107Y-134994110D01*
X70014720Y-134995869D01*
X70013672Y-134997861D01*
X69958814Y-135102129D01*
X69920203Y-135175515D01*
X69860007Y-135369378D01*
X69859743Y-135371610D01*
X69859742Y-135371614D01*
X69839946Y-135538874D01*
X69836148Y-135570964D01*
X69511564Y-135570964D01*
X69495658Y-135397859D01*
X69440557Y-135202487D01*
X69439446Y-135200233D01*
X69386662Y-135093198D01*
X69350776Y-135020428D01*
X69236065Y-134866811D01*
X69230668Y-134859584D01*
X69230667Y-134859583D01*
X69229320Y-134857779D01*
X69080258Y-134719987D01*
X69073995Y-134716035D01*
X69005560Y-134672856D01*
X68908581Y-134611667D01*
X68805463Y-134570527D01*
X68722123Y-134537277D01*
X68722119Y-134537276D01*
X68720039Y-134536446D01*
X68717838Y-134536008D01*
X68717834Y-134536007D01*
X68583687Y-134509324D01*
X68520946Y-134496844D01*
X68424244Y-134495578D01*
X68320219Y-134494216D01*
X68320214Y-134494216D01*
X68317971Y-134494187D01*
X68315754Y-134494568D01*
X68315753Y-134494568D01*
X68302508Y-134496844D01*
X68117910Y-134528564D01*
X68115806Y-134529340D01*
X68115803Y-134529341D01*
X67929571Y-134598046D01*
X67929568Y-134598047D01*
X67927463Y-134598824D01*
X67925535Y-134599971D01*
X67925533Y-134599972D01*
X67868883Y-134633675D01*
X67753010Y-134702612D01*
X67751322Y-134704092D01*
X67751321Y-134704093D01*
X67680690Y-134766035D01*
X67600392Y-134836455D01*
X67599007Y-134838211D01*
X67599003Y-134838216D01*
X67476110Y-134994105D01*
X67476107Y-134994110D01*
X67474720Y-134995869D01*
X67473672Y-134997861D01*
X67418814Y-135102129D01*
X67380203Y-135175515D01*
X67320007Y-135369378D01*
X67319743Y-135371610D01*
X67319742Y-135371614D01*
X67299946Y-135538874D01*
X67296148Y-135570964D01*
X66971564Y-135570964D01*
X66955658Y-135397859D01*
X66900557Y-135202487D01*
X66899446Y-135200233D01*
X66846662Y-135093198D01*
X66810776Y-135020428D01*
X66696065Y-134866811D01*
X66690668Y-134859584D01*
X66690667Y-134859583D01*
X66689320Y-134857779D01*
X66540258Y-134719987D01*
X66533995Y-134716035D01*
X66465560Y-134672856D01*
X66368581Y-134611667D01*
X66265463Y-134570527D01*
X66182123Y-134537277D01*
X66182119Y-134537276D01*
X66180039Y-134536446D01*
X66177838Y-134536008D01*
X66177834Y-134536007D01*
X66043687Y-134509324D01*
X65980946Y-134496844D01*
X65884244Y-134495578D01*
X65780219Y-134494216D01*
X65780214Y-134494216D01*
X65777971Y-134494187D01*
X65775754Y-134494568D01*
X65775753Y-134494568D01*
X65762508Y-134496844D01*
X65577910Y-134528564D01*
X65575806Y-134529340D01*
X65575803Y-134529341D01*
X65389571Y-134598046D01*
X65389568Y-134598047D01*
X65387463Y-134598824D01*
X65385535Y-134599971D01*
X65385533Y-134599972D01*
X65328883Y-134633675D01*
X65213010Y-134702612D01*
X65211322Y-134704092D01*
X65211321Y-134704093D01*
X65140690Y-134766035D01*
X65060392Y-134836455D01*
X65059007Y-134838211D01*
X65059003Y-134838216D01*
X64936110Y-134994105D01*
X64936107Y-134994110D01*
X64934720Y-134995869D01*
X64933672Y-134997861D01*
X64878814Y-135102129D01*
X64840203Y-135175515D01*
X64780007Y-135369378D01*
X64779743Y-135371610D01*
X64779742Y-135371614D01*
X64759946Y-135538874D01*
X64756148Y-135570964D01*
X64429500Y-135570964D01*
X64429499Y-134727337D01*
X64429499Y-134724934D01*
X64428249Y-134718646D01*
X64415675Y-134655431D01*
X64414734Y-134650699D01*
X64411724Y-134646193D01*
X64361164Y-134570527D01*
X64358484Y-134566516D01*
X64301117Y-134528184D01*
X64278315Y-134512948D01*
X64278313Y-134512947D01*
X64274301Y-134510266D01*
X64200067Y-134495500D01*
X64197657Y-134495500D01*
X63323728Y-134495501D01*
X62449934Y-134495501D01*
X62447582Y-134495969D01*
X62447580Y-134495969D01*
X62411597Y-134503126D01*
X62375699Y-134510266D01*
X62371688Y-134512946D01*
X62371686Y-134512947D01*
X62322968Y-134545500D01*
X62291516Y-134566516D01*
X62288836Y-134570527D01*
X62244748Y-134636509D01*
X62235266Y-134650699D01*
X62220500Y-134724933D01*
X62220500Y-134727343D01*
X54497770Y-134727343D01*
X54473985Y-134638576D01*
X54473984Y-134638574D01*
X54473431Y-134636509D01*
X54414123Y-134509324D01*
X54374503Y-134424358D01*
X54374502Y-134424356D01*
X54373600Y-134422422D01*
X54238110Y-134228922D01*
X54071078Y-134061890D01*
X53877579Y-133926400D01*
X53663491Y-133826569D01*
X53661426Y-133826016D01*
X53661424Y-133826015D01*
X53437393Y-133765986D01*
X53437391Y-133765986D01*
X53435321Y-133765431D01*
X53433194Y-133765245D01*
X53433189Y-133765244D01*
X53202126Y-133745029D01*
X53200000Y-133744843D01*
X53197874Y-133745029D01*
X52966811Y-133765244D01*
X52966806Y-133765245D01*
X52964679Y-133765431D01*
X52962609Y-133765986D01*
X52962607Y-133765986D01*
X52738576Y-133826015D01*
X52738574Y-133826016D01*
X52736509Y-133826569D01*
X52522422Y-133926400D01*
X52328922Y-134061890D01*
X52161890Y-134228922D01*
X52026400Y-134422422D01*
X52025498Y-134424356D01*
X52025497Y-134424358D01*
X51985877Y-134509324D01*
X51926569Y-134636509D01*
X51926016Y-134638574D01*
X51926015Y-134638576D01*
X51867690Y-134856250D01*
X51865431Y-134864679D01*
X51865245Y-134866806D01*
X51865244Y-134866811D01*
X51847622Y-135068245D01*
X51845439Y-135093193D01*
X51844843Y-135100000D01*
X51450000Y-135100000D01*
X51450000Y-133649000D01*
X51464352Y-133614352D01*
X51499000Y-133600000D01*
X88501000Y-133600000D01*
X88535648Y-133614352D01*
G37*
G04 #@! TD.AperFunction*
G04 #@! TA.AperFunction,Conductor*
G36*
X90785648Y-144314352D02*
G01*
X90800000Y-144349000D01*
X90800000Y-144607675D01*
X90796654Y-144625472D01*
X90789702Y-144643302D01*
X90789317Y-144646227D01*
X90775733Y-144749411D01*
X90769941Y-144793402D01*
X90786554Y-144943883D01*
X90787570Y-144946658D01*
X90797016Y-144972472D01*
X90800000Y-144989311D01*
X90800000Y-145451000D01*
X90785648Y-145485648D01*
X90751000Y-145500000D01*
X88920296Y-145500000D01*
X88885648Y-145485648D01*
X88492943Y-145092943D01*
X88478591Y-145058295D01*
X88488381Y-145028908D01*
X88548078Y-144949255D01*
X88551399Y-144943190D01*
X88600175Y-144813081D01*
X88601584Y-144807154D01*
X88607856Y-144749411D01*
X88608000Y-144746763D01*
X88608000Y-144709747D01*
X88605145Y-144702855D01*
X88598253Y-144700000D01*
X88124827Y-144700000D01*
X88121420Y-144699833D01*
X88119748Y-144699500D01*
X87349000Y-144699500D01*
X87314352Y-144685148D01*
X87300000Y-144650500D01*
X87300000Y-144449500D01*
X87314352Y-144414852D01*
X87349000Y-144400500D01*
X88119748Y-144400500D01*
X88121420Y-144400167D01*
X88124827Y-144400000D01*
X88598252Y-144400000D01*
X88613748Y-144393581D01*
X88628102Y-144379229D01*
X88646851Y-144375500D01*
X89333641Y-144375500D01*
X89337912Y-144375686D01*
X89374540Y-144378891D01*
X89374542Y-144378891D01*
X89378807Y-144379264D01*
X89392160Y-144375686D01*
X89394647Y-144375020D01*
X89418458Y-144368639D01*
X89422623Y-144367715D01*
X89439432Y-144364751D01*
X89458821Y-144361333D01*
X89458822Y-144361333D01*
X89463045Y-144360588D01*
X89467386Y-144358082D01*
X89470052Y-144356543D01*
X89481864Y-144351649D01*
X89489684Y-144349554D01*
X89523305Y-144326012D01*
X89526909Y-144323716D01*
X89556616Y-144306565D01*
X89581116Y-144300000D01*
X90751000Y-144300000D01*
X90785648Y-144314352D01*
G37*
G04 #@! TD.AperFunction*
M02*
