G04 #@! TF.GenerationSoftware,KiCad,Pcbnew,(6.0.1)*
G04 #@! TF.CreationDate,2023-03-18T21:45:00+01:00*
G04 #@! TF.ProjectId,usb-magnetometer,7573622d-6d61-4676-9e65-746f6d657465,rev?*
G04 #@! TF.SameCoordinates,Original*
G04 #@! TF.FileFunction,Soldermask,Bot*
G04 #@! TF.FilePolarity,Negative*
%FSLAX46Y46*%
G04 Gerber Fmt 4.6, Leading zero omitted, Abs format (unit mm)*
G04 Created by KiCad (PCBNEW (6.0.1)) date 2023-03-18 21:45:00*
%MOMM*%
%LPD*%
G01*
G04 APERTURE LIST*
%ADD10O,0.600000X0.850000*%
%ADD11C,0.600000*%
%ADD12O,2.600000X1.300000*%
%ADD13O,2.300000X1.300000*%
%ADD14R,0.850000X0.850000*%
%ADD15O,0.850000X0.850000*%
%ADD16R,1.700000X1.700000*%
%ADD17O,1.700000X1.700000*%
%ADD18C,1.000000*%
%ADD19R,1.300000X0.300000*%
%ADD20R,2.200000X1.800000*%
G04 APERTURE END LIST*
D10*
X52900000Y-146100000D03*
D11*
X52900000Y-140100000D03*
D12*
X49800000Y-147420000D03*
D13*
X53625000Y-147420000D03*
D12*
X49800000Y-138780000D03*
D13*
X53625000Y-138780000D03*
D14*
X98400000Y-139800000D03*
D15*
X99400000Y-139800000D03*
X98400000Y-140800000D03*
X99400000Y-140800000D03*
X98400000Y-141800000D03*
X99400000Y-141800000D03*
X98400000Y-142800000D03*
X99400000Y-142800000D03*
D14*
X91400000Y-141800000D03*
D15*
X92400000Y-141800000D03*
X91400000Y-142800000D03*
X92400000Y-142800000D03*
X91400000Y-143800000D03*
X92400000Y-143800000D03*
X91400000Y-144800000D03*
X92400000Y-144800000D03*
D16*
X63325000Y-135600000D03*
D17*
X65865000Y-135600000D03*
X68405000Y-135600000D03*
X70945000Y-135600000D03*
X73485000Y-135600000D03*
D16*
X82025000Y-135650000D03*
D17*
X84565000Y-135650000D03*
D18*
X68600000Y-143850000D03*
X82500000Y-141100000D03*
X73200000Y-143900000D03*
X82750000Y-148650000D03*
D19*
X104900000Y-145050000D03*
X104900000Y-144550000D03*
X104900000Y-144050000D03*
X104900000Y-143550000D03*
X104900000Y-143050000D03*
X104900000Y-142550000D03*
X104900000Y-142050000D03*
X104900000Y-141550000D03*
D20*
X101650000Y-146950000D03*
X101650000Y-139650000D03*
D18*
X73250000Y-141600000D03*
X80500000Y-141100000D03*
D19*
X87450000Y-141550000D03*
X87450000Y-142050000D03*
X87450000Y-142550000D03*
X87450000Y-143050000D03*
X87450000Y-143550000D03*
X87450000Y-144050000D03*
X87450000Y-144550000D03*
X87450000Y-145050000D03*
D20*
X90700000Y-139650000D03*
X90700000Y-146950000D03*
M02*
