G04 #@! TF.GenerationSoftware,KiCad,Pcbnew,(6.0.1)*
G04 #@! TF.CreationDate,2023-03-18T21:32:40+01:00*
G04 #@! TF.ProjectId,usb-magnetometer,7573622d-6d61-4676-9e65-746f6d657465,rev?*
G04 #@! TF.SameCoordinates,Original*
G04 #@! TF.FileFunction,Legend,Top*
G04 #@! TF.FilePolarity,Positive*
%FSLAX46Y46*%
G04 Gerber Fmt 4.6, Leading zero omitted, Abs format (unit mm)*
G04 Created by KiCad (PCBNEW (6.0.1)) date 2023-03-18 21:32:40*
%MOMM*%
%LPD*%
G01*
G04 APERTURE LIST*
G04 Aperture macros list*
%AMRoundRect*
0 Rectangle with rounded corners*
0 $1 Rounding radius*
0 $2 $3 $4 $5 $6 $7 $8 $9 X,Y pos of 4 corners*
0 Add a 4 corners polygon primitive as box body*
4,1,4,$2,$3,$4,$5,$6,$7,$8,$9,$2,$3,0*
0 Add four circle primitives for the rounded corners*
1,1,$1+$1,$2,$3*
1,1,$1+$1,$4,$5*
1,1,$1+$1,$6,$7*
1,1,$1+$1,$8,$9*
0 Add four rect primitives between the rounded corners*
20,1,$1+$1,$2,$3,$4,$5,0*
20,1,$1+$1,$4,$5,$6,$7,0*
20,1,$1+$1,$6,$7,$8,$9,0*
20,1,$1+$1,$8,$9,$2,$3,0*%
G04 Aperture macros list end*
%ADD10C,0.100000*%
%ADD11C,0.120000*%
%ADD12RoundRect,0.160000X-0.197500X-0.160000X0.197500X-0.160000X0.197500X0.160000X-0.197500X0.160000X0*%
%ADD13RoundRect,0.050000X0.200000X-0.100000X0.200000X0.100000X-0.200000X0.100000X-0.200000X-0.100000X0*%
%ADD14RoundRect,0.075000X0.075000X-0.662500X0.075000X0.662500X-0.075000X0.662500X-0.075000X-0.662500X0*%
%ADD15RoundRect,0.075000X0.662500X-0.075000X0.662500X0.075000X-0.662500X0.075000X-0.662500X-0.075000X0*%
%ADD16RoundRect,0.155000X0.155000X-0.212500X0.155000X0.212500X-0.155000X0.212500X-0.155000X-0.212500X0*%
%ADD17RoundRect,0.160000X-0.160000X0.197500X-0.160000X-0.197500X0.160000X-0.197500X0.160000X0.197500X0*%
%ADD18RoundRect,0.155000X-0.155000X0.212500X-0.155000X-0.212500X0.155000X-0.212500X0.155000X0.212500X0*%
%ADD19R,1.000000X1.000000*%
%ADD20RoundRect,0.160000X0.160000X-0.197500X0.160000X0.197500X-0.160000X0.197500X-0.160000X-0.197500X0*%
%ADD21O,0.600000X0.850000*%
%ADD22C,0.600000*%
%ADD23R,2.000000X1.000000*%
%ADD24R,1.000000X0.520000*%
%ADD25R,1.000000X0.270000*%
%ADD26O,2.600000X1.300000*%
%ADD27O,2.300000X1.300000*%
%ADD28RoundRect,0.155000X0.212500X0.155000X-0.212500X0.155000X-0.212500X-0.155000X0.212500X-0.155000X0*%
%ADD29RoundRect,0.160000X0.197500X0.160000X-0.197500X0.160000X-0.197500X-0.160000X0.197500X-0.160000X0*%
%ADD30R,0.850000X0.850000*%
%ADD31O,0.850000X0.850000*%
%ADD32RoundRect,0.155000X-0.212500X-0.155000X0.212500X-0.155000X0.212500X0.155000X-0.212500X0.155000X0*%
%ADD33R,0.450000X1.450000*%
%ADD34RoundRect,0.050000X-0.200000X0.100000X-0.200000X-0.100000X0.200000X-0.100000X0.200000X0.100000X0*%
%ADD35R,1.200000X0.400000*%
%ADD36R,1.700000X1.700000*%
%ADD37O,1.700000X1.700000*%
G04 APERTURE END LIST*
D10*
X85600000Y-148971428D02*
X85400000Y-148685714D01*
X85257142Y-148971428D02*
X85257142Y-148371428D01*
X85485714Y-148371428D01*
X85542857Y-148400000D01*
X85571428Y-148428571D01*
X85600000Y-148485714D01*
X85600000Y-148571428D01*
X85571428Y-148628571D01*
X85542857Y-148657142D01*
X85485714Y-148685714D01*
X85257142Y-148685714D01*
X85942857Y-148628571D02*
X85885714Y-148600000D01*
X85857142Y-148571428D01*
X85828571Y-148514285D01*
X85828571Y-148485714D01*
X85857142Y-148428571D01*
X85885714Y-148400000D01*
X85942857Y-148371428D01*
X86057142Y-148371428D01*
X86114285Y-148400000D01*
X86142857Y-148428571D01*
X86171428Y-148485714D01*
X86171428Y-148514285D01*
X86142857Y-148571428D01*
X86114285Y-148600000D01*
X86057142Y-148628571D01*
X85942857Y-148628571D01*
X85885714Y-148657142D01*
X85857142Y-148685714D01*
X85828571Y-148742857D01*
X85828571Y-148857142D01*
X85857142Y-148914285D01*
X85885714Y-148942857D01*
X85942857Y-148971428D01*
X86057142Y-148971428D01*
X86114285Y-148942857D01*
X86142857Y-148914285D01*
X86171428Y-148857142D01*
X86171428Y-148742857D01*
X86142857Y-148685714D01*
X86114285Y-148657142D01*
X86057142Y-148628571D01*
X58271428Y-141442857D02*
X57671428Y-141442857D01*
X57671428Y-141300000D01*
X57700000Y-141214285D01*
X57757142Y-141157142D01*
X57814285Y-141128571D01*
X57928571Y-141100000D01*
X58014285Y-141100000D01*
X58128571Y-141128571D01*
X58185714Y-141157142D01*
X58242857Y-141214285D01*
X58271428Y-141300000D01*
X58271428Y-141442857D01*
X57728571Y-140871428D02*
X57700000Y-140842857D01*
X57671428Y-140785714D01*
X57671428Y-140642857D01*
X57700000Y-140585714D01*
X57728571Y-140557142D01*
X57785714Y-140528571D01*
X57842857Y-140528571D01*
X57928571Y-140557142D01*
X58271428Y-140900000D01*
X58271428Y-140528571D01*
X62500000Y-144371428D02*
X62300000Y-144085714D01*
X62157142Y-144371428D02*
X62157142Y-143771428D01*
X62385714Y-143771428D01*
X62442857Y-143800000D01*
X62471428Y-143828571D01*
X62500000Y-143885714D01*
X62500000Y-143971428D01*
X62471428Y-144028571D01*
X62442857Y-144057142D01*
X62385714Y-144085714D01*
X62157142Y-144085714D01*
X62700000Y-143771428D02*
X63071428Y-143771428D01*
X62871428Y-144000000D01*
X62957142Y-144000000D01*
X63014285Y-144028571D01*
X63042857Y-144057142D01*
X63071428Y-144114285D01*
X63071428Y-144257142D01*
X63042857Y-144314285D01*
X63014285Y-144342857D01*
X62957142Y-144371428D01*
X62785714Y-144371428D01*
X62728571Y-144342857D01*
X62700000Y-144314285D01*
X75178571Y-142842857D02*
X74692857Y-142842857D01*
X74635714Y-142871428D01*
X74607142Y-142900000D01*
X74578571Y-142957142D01*
X74578571Y-143071428D01*
X74607142Y-143128571D01*
X74635714Y-143157142D01*
X74692857Y-143185714D01*
X75178571Y-143185714D01*
X75178571Y-143414285D02*
X75178571Y-143785714D01*
X74950000Y-143585714D01*
X74950000Y-143671428D01*
X74921428Y-143728571D01*
X74892857Y-143757142D01*
X74835714Y-143785714D01*
X74692857Y-143785714D01*
X74635714Y-143757142D01*
X74607142Y-143728571D01*
X74578571Y-143671428D01*
X74578571Y-143500000D01*
X74607142Y-143442857D01*
X74635714Y-143414285D01*
X59314285Y-140800000D02*
X59342857Y-140828571D01*
X59371428Y-140914285D01*
X59371428Y-140971428D01*
X59342857Y-141057142D01*
X59285714Y-141114285D01*
X59228571Y-141142857D01*
X59114285Y-141171428D01*
X59028571Y-141171428D01*
X58914285Y-141142857D01*
X58857142Y-141114285D01*
X58800000Y-141057142D01*
X58771428Y-140971428D01*
X58771428Y-140914285D01*
X58800000Y-140828571D01*
X58828571Y-140800000D01*
X58771428Y-140600000D02*
X58771428Y-140228571D01*
X59000000Y-140428571D01*
X59000000Y-140342857D01*
X59028571Y-140285714D01*
X59057142Y-140257142D01*
X59114285Y-140228571D01*
X59257142Y-140228571D01*
X59314285Y-140257142D01*
X59342857Y-140285714D01*
X59371428Y-140342857D01*
X59371428Y-140514285D01*
X59342857Y-140571428D01*
X59314285Y-140600000D01*
X58271428Y-148200000D02*
X57985714Y-148400000D01*
X58271428Y-148542857D02*
X57671428Y-148542857D01*
X57671428Y-148314285D01*
X57700000Y-148257142D01*
X57728571Y-148228571D01*
X57785714Y-148200000D01*
X57871428Y-148200000D01*
X57928571Y-148228571D01*
X57957142Y-148257142D01*
X57985714Y-148314285D01*
X57985714Y-148542857D01*
X57728571Y-147971428D02*
X57700000Y-147942857D01*
X57671428Y-147885714D01*
X57671428Y-147742857D01*
X57700000Y-147685714D01*
X57728571Y-147657142D01*
X57785714Y-147628571D01*
X57842857Y-147628571D01*
X57928571Y-147657142D01*
X58271428Y-148000000D01*
X58271428Y-147628571D01*
X63614285Y-148200000D02*
X63642857Y-148228571D01*
X63671428Y-148314285D01*
X63671428Y-148371428D01*
X63642857Y-148457142D01*
X63585714Y-148514285D01*
X63528571Y-148542857D01*
X63414285Y-148571428D01*
X63328571Y-148571428D01*
X63214285Y-148542857D01*
X63157142Y-148514285D01*
X63100000Y-148457142D01*
X63071428Y-148371428D01*
X63071428Y-148314285D01*
X63100000Y-148228571D01*
X63128571Y-148200000D01*
X63071428Y-147657142D02*
X63071428Y-147942857D01*
X63357142Y-147971428D01*
X63328571Y-147942857D01*
X63300000Y-147885714D01*
X63300000Y-147742857D01*
X63328571Y-147685714D01*
X63357142Y-147657142D01*
X63414285Y-147628571D01*
X63557142Y-147628571D01*
X63614285Y-147657142D01*
X63642857Y-147685714D01*
X63671428Y-147742857D01*
X63671428Y-147885714D01*
X63642857Y-147942857D01*
X63614285Y-147971428D01*
X60457142Y-151371428D02*
X60457142Y-150771428D01*
X60600000Y-150771428D01*
X60685714Y-150800000D01*
X60742857Y-150857142D01*
X60771428Y-150914285D01*
X60800000Y-151028571D01*
X60800000Y-151114285D01*
X60771428Y-151228571D01*
X60742857Y-151285714D01*
X60685714Y-151342857D01*
X60600000Y-151371428D01*
X60457142Y-151371428D01*
X61000000Y-150771428D02*
X61371428Y-150771428D01*
X61171428Y-151000000D01*
X61257142Y-151000000D01*
X61314285Y-151028571D01*
X61342857Y-151057142D01*
X61371428Y-151114285D01*
X61371428Y-151257142D01*
X61342857Y-151314285D01*
X61314285Y-151342857D01*
X61257142Y-151371428D01*
X61085714Y-151371428D01*
X61028571Y-151342857D01*
X61000000Y-151314285D01*
X87871428Y-149000000D02*
X87585714Y-149200000D01*
X87871428Y-149342857D02*
X87271428Y-149342857D01*
X87271428Y-149114285D01*
X87300000Y-149057142D01*
X87328571Y-149028571D01*
X87385714Y-149000000D01*
X87471428Y-149000000D01*
X87528571Y-149028571D01*
X87557142Y-149057142D01*
X87585714Y-149114285D01*
X87585714Y-149342857D01*
X87271428Y-148800000D02*
X87271428Y-148400000D01*
X87871428Y-148657142D01*
X50900000Y-148371428D02*
X50900000Y-148800000D01*
X50871428Y-148885714D01*
X50814285Y-148942857D01*
X50728571Y-148971428D01*
X50671428Y-148971428D01*
X51500000Y-148971428D02*
X51157142Y-148971428D01*
X51328571Y-148971428D02*
X51328571Y-148371428D01*
X51271428Y-148457142D01*
X51214285Y-148514285D01*
X51157142Y-148542857D01*
X79200000Y-149814285D02*
X79171428Y-149842857D01*
X79085714Y-149871428D01*
X79028571Y-149871428D01*
X78942857Y-149842857D01*
X78885714Y-149785714D01*
X78857142Y-149728571D01*
X78828571Y-149614285D01*
X78828571Y-149528571D01*
X78857142Y-149414285D01*
X78885714Y-149357142D01*
X78942857Y-149300000D01*
X79028571Y-149271428D01*
X79085714Y-149271428D01*
X79171428Y-149300000D01*
X79200000Y-149328571D01*
X79542857Y-149528571D02*
X79485714Y-149500000D01*
X79457142Y-149471428D01*
X79428571Y-149414285D01*
X79428571Y-149385714D01*
X79457142Y-149328571D01*
X79485714Y-149300000D01*
X79542857Y-149271428D01*
X79657142Y-149271428D01*
X79714285Y-149300000D01*
X79742857Y-149328571D01*
X79771428Y-149385714D01*
X79771428Y-149414285D01*
X79742857Y-149471428D01*
X79714285Y-149500000D01*
X79657142Y-149528571D01*
X79542857Y-149528571D01*
X79485714Y-149557142D01*
X79457142Y-149585714D01*
X79428571Y-149642857D01*
X79428571Y-149757142D01*
X79457142Y-149814285D01*
X79485714Y-149842857D01*
X79542857Y-149871428D01*
X79657142Y-149871428D01*
X79714285Y-149842857D01*
X79742857Y-149814285D01*
X79771428Y-149757142D01*
X79771428Y-149642857D01*
X79742857Y-149585714D01*
X79714285Y-149557142D01*
X79657142Y-149528571D01*
X74814285Y-148885714D02*
X74842857Y-148914285D01*
X74871428Y-149000000D01*
X74871428Y-149057142D01*
X74842857Y-149142857D01*
X74785714Y-149200000D01*
X74728571Y-149228571D01*
X74614285Y-149257142D01*
X74528571Y-149257142D01*
X74414285Y-149228571D01*
X74357142Y-149200000D01*
X74300000Y-149142857D01*
X74271428Y-149057142D01*
X74271428Y-149000000D01*
X74300000Y-148914285D01*
X74328571Y-148885714D01*
X74871428Y-148314285D02*
X74871428Y-148657142D01*
X74871428Y-148485714D02*
X74271428Y-148485714D01*
X74357142Y-148542857D01*
X74414285Y-148600000D01*
X74442857Y-148657142D01*
X74328571Y-148085714D02*
X74300000Y-148057142D01*
X74271428Y-148000000D01*
X74271428Y-147857142D01*
X74300000Y-147800000D01*
X74328571Y-147771428D01*
X74385714Y-147742857D01*
X74442857Y-147742857D01*
X74528571Y-147771428D01*
X74871428Y-148114285D01*
X74871428Y-147742857D01*
X54100000Y-150741428D02*
X53814285Y-150741428D01*
X53814285Y-150141428D01*
X54271428Y-150198571D02*
X54300000Y-150170000D01*
X54357142Y-150141428D01*
X54500000Y-150141428D01*
X54557142Y-150170000D01*
X54585714Y-150198571D01*
X54614285Y-150255714D01*
X54614285Y-150312857D01*
X54585714Y-150398571D01*
X54242857Y-150741428D01*
X54614285Y-150741428D01*
X66400000Y-139571428D02*
X66200000Y-139285714D01*
X66057142Y-139571428D02*
X66057142Y-138971428D01*
X66285714Y-138971428D01*
X66342857Y-139000000D01*
X66371428Y-139028571D01*
X66400000Y-139085714D01*
X66400000Y-139171428D01*
X66371428Y-139228571D01*
X66342857Y-139257142D01*
X66285714Y-139285714D01*
X66057142Y-139285714D01*
X66685714Y-139571428D02*
X66800000Y-139571428D01*
X66857142Y-139542857D01*
X66885714Y-139514285D01*
X66942857Y-139428571D01*
X66971428Y-139314285D01*
X66971428Y-139085714D01*
X66942857Y-139028571D01*
X66914285Y-139000000D01*
X66857142Y-138971428D01*
X66742857Y-138971428D01*
X66685714Y-139000000D01*
X66657142Y-139028571D01*
X66628571Y-139085714D01*
X66628571Y-139228571D01*
X66657142Y-139285714D01*
X66685714Y-139314285D01*
X66742857Y-139342857D01*
X66857142Y-139342857D01*
X66914285Y-139314285D01*
X66942857Y-139285714D01*
X66971428Y-139228571D01*
X68614285Y-139571428D02*
X68414285Y-139285714D01*
X68271428Y-139571428D02*
X68271428Y-138971428D01*
X68500000Y-138971428D01*
X68557142Y-139000000D01*
X68585714Y-139028571D01*
X68614285Y-139085714D01*
X68614285Y-139171428D01*
X68585714Y-139228571D01*
X68557142Y-139257142D01*
X68500000Y-139285714D01*
X68271428Y-139285714D01*
X69185714Y-139571428D02*
X68842857Y-139571428D01*
X69014285Y-139571428D02*
X69014285Y-138971428D01*
X68957142Y-139057142D01*
X68900000Y-139114285D01*
X68842857Y-139142857D01*
X69557142Y-138971428D02*
X69614285Y-138971428D01*
X69671428Y-139000000D01*
X69700000Y-139028571D01*
X69728571Y-139085714D01*
X69757142Y-139200000D01*
X69757142Y-139342857D01*
X69728571Y-139457142D01*
X69700000Y-139514285D01*
X69671428Y-139542857D01*
X69614285Y-139571428D01*
X69557142Y-139571428D01*
X69500000Y-139542857D01*
X69471428Y-139514285D01*
X69442857Y-139457142D01*
X69414285Y-139342857D01*
X69414285Y-139200000D01*
X69442857Y-139085714D01*
X69471428Y-139028571D01*
X69500000Y-139000000D01*
X69557142Y-138971428D01*
X71814285Y-148700000D02*
X71842857Y-148728571D01*
X71871428Y-148814285D01*
X71871428Y-148871428D01*
X71842857Y-148957142D01*
X71785714Y-149014285D01*
X71728571Y-149042857D01*
X71614285Y-149071428D01*
X71528571Y-149071428D01*
X71414285Y-149042857D01*
X71357142Y-149014285D01*
X71300000Y-148957142D01*
X71271428Y-148871428D01*
X71271428Y-148814285D01*
X71300000Y-148728571D01*
X71328571Y-148700000D01*
X71471428Y-148185714D02*
X71871428Y-148185714D01*
X71242857Y-148328571D02*
X71671428Y-148471428D01*
X71671428Y-148100000D01*
X98600000Y-138371428D02*
X98600000Y-138800000D01*
X98571428Y-138885714D01*
X98514285Y-138942857D01*
X98428571Y-138971428D01*
X98371428Y-138971428D01*
X99142857Y-138371428D02*
X99028571Y-138371428D01*
X98971428Y-138400000D01*
X98942857Y-138428571D01*
X98885714Y-138514285D01*
X98857142Y-138628571D01*
X98857142Y-138857142D01*
X98885714Y-138914285D01*
X98914285Y-138942857D01*
X98971428Y-138971428D01*
X99085714Y-138971428D01*
X99142857Y-138942857D01*
X99171428Y-138914285D01*
X99200000Y-138857142D01*
X99200000Y-138714285D01*
X99171428Y-138657142D01*
X99142857Y-138628571D01*
X99085714Y-138600000D01*
X98971428Y-138600000D01*
X98914285Y-138628571D01*
X98885714Y-138657142D01*
X98857142Y-138714285D01*
X91700000Y-139911428D02*
X91700000Y-140340000D01*
X91671428Y-140425714D01*
X91614285Y-140482857D01*
X91528571Y-140511428D01*
X91471428Y-140511428D01*
X91928571Y-139911428D02*
X92328571Y-139911428D01*
X92071428Y-140511428D01*
X77714285Y-136214285D02*
X77685714Y-136242857D01*
X77600000Y-136271428D01*
X77542857Y-136271428D01*
X77457142Y-136242857D01*
X77400000Y-136185714D01*
X77371428Y-136128571D01*
X77342857Y-136014285D01*
X77342857Y-135928571D01*
X77371428Y-135814285D01*
X77400000Y-135757142D01*
X77457142Y-135700000D01*
X77542857Y-135671428D01*
X77600000Y-135671428D01*
X77685714Y-135700000D01*
X77714285Y-135728571D01*
X78285714Y-136271428D02*
X77942857Y-136271428D01*
X78114285Y-136271428D02*
X78114285Y-135671428D01*
X78057142Y-135757142D01*
X78000000Y-135814285D01*
X77942857Y-135842857D01*
X78657142Y-135671428D02*
X78714285Y-135671428D01*
X78771428Y-135700000D01*
X78800000Y-135728571D01*
X78828571Y-135785714D01*
X78857142Y-135900000D01*
X78857142Y-136042857D01*
X78828571Y-136157142D01*
X78800000Y-136214285D01*
X78771428Y-136242857D01*
X78714285Y-136271428D01*
X78657142Y-136271428D01*
X78600000Y-136242857D01*
X78571428Y-136214285D01*
X78542857Y-136157142D01*
X78514285Y-136042857D01*
X78514285Y-135900000D01*
X78542857Y-135785714D01*
X78571428Y-135728571D01*
X78600000Y-135700000D01*
X78657142Y-135671428D01*
X104171428Y-143757142D02*
X104657142Y-143757142D01*
X104714285Y-143728571D01*
X104742857Y-143700000D01*
X104771428Y-143642857D01*
X104771428Y-143528571D01*
X104742857Y-143471428D01*
X104714285Y-143442857D01*
X104657142Y-143414285D01*
X104171428Y-143414285D01*
X104228571Y-143157142D02*
X104200000Y-143128571D01*
X104171428Y-143071428D01*
X104171428Y-142928571D01*
X104200000Y-142871428D01*
X104228571Y-142842857D01*
X104285714Y-142814285D01*
X104342857Y-142814285D01*
X104428571Y-142842857D01*
X104771428Y-143185714D01*
X104771428Y-142814285D01*
X99014285Y-145285714D02*
X99042857Y-145314285D01*
X99071428Y-145400000D01*
X99071428Y-145457142D01*
X99042857Y-145542857D01*
X98985714Y-145600000D01*
X98928571Y-145628571D01*
X98814285Y-145657142D01*
X98728571Y-145657142D01*
X98614285Y-145628571D01*
X98557142Y-145600000D01*
X98500000Y-145542857D01*
X98471428Y-145457142D01*
X98471428Y-145400000D01*
X98500000Y-145314285D01*
X98528571Y-145285714D01*
X99071428Y-144714285D02*
X99071428Y-145057142D01*
X99071428Y-144885714D02*
X98471428Y-144885714D01*
X98557142Y-144942857D01*
X98614285Y-145000000D01*
X98642857Y-145057142D01*
X99071428Y-144142857D02*
X99071428Y-144485714D01*
X99071428Y-144314285D02*
X98471428Y-144314285D01*
X98557142Y-144371428D01*
X98614285Y-144428571D01*
X98642857Y-144485714D01*
X57371428Y-144342857D02*
X56771428Y-144342857D01*
X56771428Y-144200000D01*
X56800000Y-144114285D01*
X56857142Y-144057142D01*
X56914285Y-144028571D01*
X57028571Y-144000000D01*
X57114285Y-144000000D01*
X57228571Y-144028571D01*
X57285714Y-144057142D01*
X57342857Y-144114285D01*
X57371428Y-144200000D01*
X57371428Y-144342857D01*
X57371428Y-143428571D02*
X57371428Y-143771428D01*
X57371428Y-143600000D02*
X56771428Y-143600000D01*
X56857142Y-143657142D01*
X56914285Y-143714285D01*
X56942857Y-143771428D01*
X66942857Y-151171428D02*
X66942857Y-151657142D01*
X66971428Y-151714285D01*
X67000000Y-151742857D01*
X67057142Y-151771428D01*
X67171428Y-151771428D01*
X67228571Y-151742857D01*
X67257142Y-151714285D01*
X67285714Y-151657142D01*
X67285714Y-151171428D01*
X67885714Y-151771428D02*
X67542857Y-151771428D01*
X67714285Y-151771428D02*
X67714285Y-151171428D01*
X67657142Y-151257142D01*
X67600000Y-151314285D01*
X67542857Y-151342857D01*
X62200000Y-145114285D02*
X62171428Y-145142857D01*
X62085714Y-145171428D01*
X62028571Y-145171428D01*
X61942857Y-145142857D01*
X61885714Y-145085714D01*
X61857142Y-145028571D01*
X61828571Y-144914285D01*
X61828571Y-144828571D01*
X61857142Y-144714285D01*
X61885714Y-144657142D01*
X61942857Y-144600000D01*
X62028571Y-144571428D01*
X62085714Y-144571428D01*
X62171428Y-144600000D01*
X62200000Y-144628571D01*
X62714285Y-144571428D02*
X62600000Y-144571428D01*
X62542857Y-144600000D01*
X62514285Y-144628571D01*
X62457142Y-144714285D01*
X62428571Y-144828571D01*
X62428571Y-145057142D01*
X62457142Y-145114285D01*
X62485714Y-145142857D01*
X62542857Y-145171428D01*
X62657142Y-145171428D01*
X62714285Y-145142857D01*
X62742857Y-145114285D01*
X62771428Y-145057142D01*
X62771428Y-144914285D01*
X62742857Y-144857142D01*
X62714285Y-144828571D01*
X62657142Y-144800000D01*
X62542857Y-144800000D01*
X62485714Y-144828571D01*
X62457142Y-144857142D01*
X62428571Y-144914285D01*
X60471428Y-139600000D02*
X60185714Y-139800000D01*
X60471428Y-139942857D02*
X59871428Y-139942857D01*
X59871428Y-139714285D01*
X59900000Y-139657142D01*
X59928571Y-139628571D01*
X59985714Y-139600000D01*
X60071428Y-139600000D01*
X60128571Y-139628571D01*
X60157142Y-139657142D01*
X60185714Y-139714285D01*
X60185714Y-139942857D01*
X60471428Y-139028571D02*
X60471428Y-139371428D01*
X60471428Y-139200000D02*
X59871428Y-139200000D01*
X59957142Y-139257142D01*
X60014285Y-139314285D01*
X60042857Y-139371428D01*
X73514285Y-139514285D02*
X73485714Y-139542857D01*
X73400000Y-139571428D01*
X73342857Y-139571428D01*
X73257142Y-139542857D01*
X73200000Y-139485714D01*
X73171428Y-139428571D01*
X73142857Y-139314285D01*
X73142857Y-139228571D01*
X73171428Y-139114285D01*
X73200000Y-139057142D01*
X73257142Y-139000000D01*
X73342857Y-138971428D01*
X73400000Y-138971428D01*
X73485714Y-139000000D01*
X73514285Y-139028571D01*
X74085714Y-139571428D02*
X73742857Y-139571428D01*
X73914285Y-139571428D02*
X73914285Y-138971428D01*
X73857142Y-139057142D01*
X73800000Y-139114285D01*
X73742857Y-139142857D01*
X74600000Y-139171428D02*
X74600000Y-139571428D01*
X74457142Y-138942857D02*
X74314285Y-139371428D01*
X74685714Y-139371428D01*
X60500000Y-135271428D02*
X60500000Y-135700000D01*
X60471428Y-135785714D01*
X60414285Y-135842857D01*
X60328571Y-135871428D01*
X60271428Y-135871428D01*
X60757142Y-135328571D02*
X60785714Y-135300000D01*
X60842857Y-135271428D01*
X60985714Y-135271428D01*
X61042857Y-135300000D01*
X61071428Y-135328571D01*
X61100000Y-135385714D01*
X61100000Y-135442857D01*
X61071428Y-135528571D01*
X60728571Y-135871428D01*
X61100000Y-135871428D01*
X71114285Y-139571428D02*
X70914285Y-139285714D01*
X70771428Y-139571428D02*
X70771428Y-138971428D01*
X71000000Y-138971428D01*
X71057142Y-139000000D01*
X71085714Y-139028571D01*
X71114285Y-139085714D01*
X71114285Y-139171428D01*
X71085714Y-139228571D01*
X71057142Y-139257142D01*
X71000000Y-139285714D01*
X70771428Y-139285714D01*
X71685714Y-139571428D02*
X71342857Y-139571428D01*
X71514285Y-139571428D02*
X71514285Y-138971428D01*
X71457142Y-139057142D01*
X71400000Y-139114285D01*
X71342857Y-139142857D01*
X72257142Y-139571428D02*
X71914285Y-139571428D01*
X72085714Y-139571428D02*
X72085714Y-138971428D01*
X72028571Y-139057142D01*
X71971428Y-139114285D01*
X71914285Y-139142857D01*
X79214285Y-150814285D02*
X79185714Y-150842857D01*
X79100000Y-150871428D01*
X79042857Y-150871428D01*
X78957142Y-150842857D01*
X78900000Y-150785714D01*
X78871428Y-150728571D01*
X78842857Y-150614285D01*
X78842857Y-150528571D01*
X78871428Y-150414285D01*
X78900000Y-150357142D01*
X78957142Y-150300000D01*
X79042857Y-150271428D01*
X79100000Y-150271428D01*
X79185714Y-150300000D01*
X79214285Y-150328571D01*
X79785714Y-150871428D02*
X79442857Y-150871428D01*
X79614285Y-150871428D02*
X79614285Y-150271428D01*
X79557142Y-150357142D01*
X79500000Y-150414285D01*
X79442857Y-150442857D01*
X79985714Y-150271428D02*
X80357142Y-150271428D01*
X80157142Y-150500000D01*
X80242857Y-150500000D01*
X80300000Y-150528571D01*
X80328571Y-150557142D01*
X80357142Y-150614285D01*
X80357142Y-150757142D01*
X80328571Y-150814285D01*
X80300000Y-150842857D01*
X80242857Y-150871428D01*
X80071428Y-150871428D01*
X80014285Y-150842857D01*
X79985714Y-150814285D01*
X86900000Y-135271428D02*
X86900000Y-135700000D01*
X86871428Y-135785714D01*
X86814285Y-135842857D01*
X86728571Y-135871428D01*
X86671428Y-135871428D01*
X87128571Y-135271428D02*
X87500000Y-135271428D01*
X87300000Y-135500000D01*
X87385714Y-135500000D01*
X87442857Y-135528571D01*
X87471428Y-135557142D01*
X87500000Y-135614285D01*
X87500000Y-135757142D01*
X87471428Y-135814285D01*
X87442857Y-135842857D01*
X87385714Y-135871428D01*
X87214285Y-135871428D01*
X87157142Y-135842857D01*
X87128571Y-135814285D01*
X62500000Y-143271428D02*
X62300000Y-142985714D01*
X62157142Y-143271428D02*
X62157142Y-142671428D01*
X62385714Y-142671428D01*
X62442857Y-142700000D01*
X62471428Y-142728571D01*
X62500000Y-142785714D01*
X62500000Y-142871428D01*
X62471428Y-142928571D01*
X62442857Y-142957142D01*
X62385714Y-142985714D01*
X62157142Y-142985714D01*
X63014285Y-142871428D02*
X63014285Y-143271428D01*
X62871428Y-142642857D02*
X62728571Y-143071428D01*
X63100000Y-143071428D01*
X102900000Y-147414285D02*
X102871428Y-147442857D01*
X102785714Y-147471428D01*
X102728571Y-147471428D01*
X102642857Y-147442857D01*
X102585714Y-147385714D01*
X102557142Y-147328571D01*
X102528571Y-147214285D01*
X102528571Y-147128571D01*
X102557142Y-147014285D01*
X102585714Y-146957142D01*
X102642857Y-146900000D01*
X102728571Y-146871428D01*
X102785714Y-146871428D01*
X102871428Y-146900000D01*
X102900000Y-146928571D01*
X103185714Y-147471428D02*
X103300000Y-147471428D01*
X103357142Y-147442857D01*
X103385714Y-147414285D01*
X103442857Y-147328571D01*
X103471428Y-147214285D01*
X103471428Y-146985714D01*
X103442857Y-146928571D01*
X103414285Y-146900000D01*
X103357142Y-146871428D01*
X103242857Y-146871428D01*
X103185714Y-146900000D01*
X103157142Y-146928571D01*
X103128571Y-146985714D01*
X103128571Y-147128571D01*
X103157142Y-147185714D01*
X103185714Y-147214285D01*
X103242857Y-147242857D01*
X103357142Y-147242857D01*
X103414285Y-147214285D01*
X103442857Y-147185714D01*
X103471428Y-147128571D01*
X85650000Y-138254285D02*
X85621428Y-138282857D01*
X85535714Y-138311428D01*
X85478571Y-138311428D01*
X85392857Y-138282857D01*
X85335714Y-138225714D01*
X85307142Y-138168571D01*
X85278571Y-138054285D01*
X85278571Y-137968571D01*
X85307142Y-137854285D01*
X85335714Y-137797142D01*
X85392857Y-137740000D01*
X85478571Y-137711428D01*
X85535714Y-137711428D01*
X85621428Y-137740000D01*
X85650000Y-137768571D01*
X85850000Y-137711428D02*
X86250000Y-137711428D01*
X85992857Y-138311428D01*
X59414285Y-146500000D02*
X59442857Y-146528571D01*
X59471428Y-146614285D01*
X59471428Y-146671428D01*
X59442857Y-146757142D01*
X59385714Y-146814285D01*
X59328571Y-146842857D01*
X59214285Y-146871428D01*
X59128571Y-146871428D01*
X59014285Y-146842857D01*
X58957142Y-146814285D01*
X58900000Y-146757142D01*
X58871428Y-146671428D01*
X58871428Y-146614285D01*
X58900000Y-146528571D01*
X58928571Y-146500000D01*
X58928571Y-146271428D02*
X58900000Y-146242857D01*
X58871428Y-146185714D01*
X58871428Y-146042857D01*
X58900000Y-145985714D01*
X58928571Y-145957142D01*
X58985714Y-145928571D01*
X59042857Y-145928571D01*
X59128571Y-145957142D01*
X59471428Y-146300000D01*
X59471428Y-145928571D01*
X60371428Y-146500000D02*
X60371428Y-146785714D01*
X59771428Y-146785714D01*
X60371428Y-145985714D02*
X60371428Y-146328571D01*
X60371428Y-146157142D02*
X59771428Y-146157142D01*
X59857142Y-146214285D01*
X59914285Y-146271428D01*
X59942857Y-146328571D01*
X60000000Y-148414285D02*
X59971428Y-148442857D01*
X59885714Y-148471428D01*
X59828571Y-148471428D01*
X59742857Y-148442857D01*
X59685714Y-148385714D01*
X59657142Y-148328571D01*
X59628571Y-148214285D01*
X59628571Y-148128571D01*
X59657142Y-148014285D01*
X59685714Y-147957142D01*
X59742857Y-147900000D01*
X59828571Y-147871428D01*
X59885714Y-147871428D01*
X59971428Y-147900000D01*
X60000000Y-147928571D01*
X60571428Y-148471428D02*
X60228571Y-148471428D01*
X60400000Y-148471428D02*
X60400000Y-147871428D01*
X60342857Y-147957142D01*
X60285714Y-148014285D01*
X60228571Y-148042857D01*
X85632379Y-148080000D02*
X85967621Y-148080000D01*
X85632379Y-147320000D02*
X85967621Y-147320000D01*
X58100000Y-143700000D02*
G75*
G03*
X58100000Y-143700000I-100000J0D01*
G01*
X60632379Y-144480000D02*
X60967621Y-144480000D01*
X60632379Y-143720000D02*
X60967621Y-143720000D01*
X84310000Y-146460000D02*
X84310000Y-146910000D01*
X84310000Y-146910000D02*
X83860000Y-146910000D01*
X77090000Y-139690000D02*
X77540000Y-139690000D01*
X77090000Y-146910000D02*
X77540000Y-146910000D01*
X77090000Y-140140000D02*
X77090000Y-139690000D01*
X84310000Y-140140000D02*
X84310000Y-139690000D01*
X84310000Y-139690000D02*
X83860000Y-139690000D01*
X77090000Y-146460000D02*
X77090000Y-146910000D01*
X77540000Y-146910000D02*
X77540000Y-148200000D01*
X59460000Y-142548335D02*
X59460000Y-142316665D01*
X58740000Y-142548335D02*
X58740000Y-142316665D01*
X58380000Y-146232379D02*
X58380000Y-146567621D01*
X57620000Y-146232379D02*
X57620000Y-146567621D01*
X63660000Y-146284165D02*
X63660000Y-146515835D01*
X62940000Y-146284165D02*
X62940000Y-146515835D01*
X59000000Y-148750000D02*
X62150000Y-148750000D01*
X59000000Y-150450000D02*
X62150000Y-150450000D01*
X59000000Y-148750000D02*
X59000000Y-150450000D01*
X87220000Y-147267621D02*
X87220000Y-146932379D01*
X87980000Y-147267621D02*
X87980000Y-146932379D01*
X47240000Y-138520000D02*
X47240000Y-147680000D01*
X52165000Y-147680000D02*
X51310000Y-147680000D01*
X52165000Y-138520000D02*
X51310000Y-138520000D01*
X48190000Y-147680000D02*
X47240000Y-147680000D01*
X48190000Y-138520000D02*
X47240000Y-138520000D01*
X81815835Y-149190000D02*
X81584165Y-149190000D01*
X81815835Y-149910000D02*
X81584165Y-149910000D01*
X74240000Y-146515835D02*
X74240000Y-146284165D01*
X74960000Y-146515835D02*
X74960000Y-146284165D01*
X54367621Y-148920000D02*
X54032379Y-148920000D01*
X54367621Y-149680000D02*
X54032379Y-149680000D01*
X66332379Y-137920000D02*
X66667621Y-137920000D01*
X66332379Y-138680000D02*
X66667621Y-138680000D01*
X68832379Y-137920000D02*
X69167621Y-137920000D01*
X68832379Y-138680000D02*
X69167621Y-138680000D01*
X71240000Y-146683335D02*
X71240000Y-146451665D01*
X71960000Y-146683335D02*
X71960000Y-146451665D01*
D11*
X99694493Y-139240000D02*
X100010000Y-139240000D01*
X97590000Y-140485000D02*
X97691724Y-140485000D01*
X97590000Y-139800000D02*
X97590000Y-139115000D01*
X97590000Y-139115000D02*
X98300000Y-139115000D01*
X97590000Y-140485000D02*
X97590000Y-143360000D01*
X99694493Y-143360000D02*
X100010000Y-143360000D01*
X100010000Y-139240000D02*
X100010000Y-143360000D01*
X97590000Y-143360000D02*
X97905507Y-143360000D01*
X98694493Y-143360000D02*
X98905507Y-143360000D01*
X90690000Y-141115000D02*
X91400000Y-141115000D01*
X90690000Y-141800000D02*
X90690000Y-141115000D01*
X90690000Y-145360000D02*
X91005507Y-145360000D01*
X92794493Y-145360000D02*
X93110000Y-145360000D01*
X90690000Y-142485000D02*
X90791724Y-142485000D01*
X90690000Y-142485000D02*
X90690000Y-145360000D01*
X92794493Y-141240000D02*
X93110000Y-141240000D01*
X93110000Y-141240000D02*
X93110000Y-145360000D01*
X91794493Y-145360000D02*
X92005507Y-145360000D01*
D10*
X78034165Y-137760000D02*
X78265835Y-137760000D01*
X78034165Y-137040000D02*
X78265835Y-137040000D01*
X100380000Y-144300000D02*
X100380000Y-142300000D01*
X103620000Y-143300000D02*
X103620000Y-140300000D01*
X99340000Y-145015835D02*
X99340000Y-144784165D01*
X100060000Y-145015835D02*
X100060000Y-144784165D01*
X58100000Y-143532500D02*
G75*
G03*
X58100000Y-143532500I-100000J0D01*
G01*
X69475000Y-141625000D02*
X65325000Y-141625000D01*
X65325000Y-141625000D02*
X65325000Y-142735000D01*
X69475000Y-149465000D02*
X70600000Y-149465000D01*
X69475000Y-149465000D02*
X69475000Y-150575000D01*
X69475000Y-150575000D02*
X65325000Y-150575000D01*
X65325000Y-150575000D02*
X65325000Y-149465000D01*
X69475000Y-141625000D02*
X69475000Y-142735000D01*
X61940000Y-146284165D02*
X61940000Y-146515835D01*
X62660000Y-146284165D02*
X62660000Y-146515835D01*
X60580000Y-141467621D02*
X60580000Y-141132379D01*
X59820000Y-141467621D02*
X59820000Y-141132379D01*
X73784165Y-138660000D02*
X74015835Y-138660000D01*
X73784165Y-137940000D02*
X74015835Y-137940000D01*
X64595000Y-134270000D02*
X74815000Y-134270000D01*
X61995000Y-136930000D02*
X61995000Y-135600000D01*
X63325000Y-136930000D02*
X61995000Y-136930000D01*
X74815000Y-136930000D02*
X74815000Y-134270000D01*
X64595000Y-136930000D02*
X74815000Y-136930000D01*
X64595000Y-136930000D02*
X64595000Y-134270000D01*
X71332379Y-137920000D02*
X71667621Y-137920000D01*
X71332379Y-138680000D02*
X71667621Y-138680000D01*
X81815835Y-150240000D02*
X81584165Y-150240000D01*
X81815835Y-150960000D02*
X81584165Y-150960000D01*
X83295000Y-134320000D02*
X85895000Y-134320000D01*
X83295000Y-136980000D02*
X83295000Y-134320000D01*
X85895000Y-136980000D02*
X85895000Y-134320000D01*
X83295000Y-136980000D02*
X85895000Y-136980000D01*
X82025000Y-136980000D02*
X80695000Y-136980000D01*
X80695000Y-136980000D02*
X80695000Y-135650000D01*
X60632379Y-143412500D02*
X60967621Y-143412500D01*
X60632379Y-142652500D02*
X60967621Y-142652500D01*
X101184165Y-146840000D02*
X101415835Y-146840000D01*
X101184165Y-147560000D02*
X101415835Y-147560000D01*
D11*
X85634165Y-138840000D02*
X85865835Y-138840000D01*
X85634165Y-139560000D02*
X85865835Y-139560000D01*
D10*
X58740000Y-144616665D02*
X58740000Y-144848335D01*
X59460000Y-144616665D02*
X59460000Y-144848335D01*
X61580000Y-146567621D02*
X61580000Y-146232379D01*
X60820000Y-146567621D02*
X60820000Y-146232379D01*
X61684165Y-148460000D02*
X61915835Y-148460000D01*
X61684165Y-147740000D02*
X61915835Y-147740000D01*
%LPC*%
D12*
X85202500Y-147700000D03*
X86397500Y-147700000D03*
D13*
X58000000Y-143150000D03*
X58000000Y-142450000D03*
D12*
X60202500Y-144100000D03*
X61397500Y-144100000D03*
D14*
X77950000Y-147462500D03*
X78450000Y-147462500D03*
X78950000Y-147462500D03*
X79450000Y-147462500D03*
X79950000Y-147462500D03*
X80450000Y-147462500D03*
X80950000Y-147462500D03*
X81450000Y-147462500D03*
X81950000Y-147462500D03*
X82450000Y-147462500D03*
X82950000Y-147462500D03*
X83450000Y-147462500D03*
D15*
X84862500Y-146050000D03*
X84862500Y-145550000D03*
X84862500Y-145050000D03*
X84862500Y-144550000D03*
X84862500Y-144050000D03*
X84862500Y-143550000D03*
X84862500Y-143050000D03*
X84862500Y-142550000D03*
X84862500Y-142050000D03*
X84862500Y-141550000D03*
X84862500Y-141050000D03*
X84862500Y-140550000D03*
D14*
X83450000Y-139137500D03*
X82950000Y-139137500D03*
X82450000Y-139137500D03*
X81950000Y-139137500D03*
X81450000Y-139137500D03*
X80950000Y-139137500D03*
X80450000Y-139137500D03*
X79950000Y-139137500D03*
X79450000Y-139137500D03*
X78950000Y-139137500D03*
X78450000Y-139137500D03*
X77950000Y-139137500D03*
D15*
X76537500Y-140550000D03*
X76537500Y-141050000D03*
X76537500Y-141550000D03*
X76537500Y-142050000D03*
X76537500Y-142550000D03*
X76537500Y-143050000D03*
X76537500Y-143550000D03*
X76537500Y-144050000D03*
X76537500Y-144550000D03*
X76537500Y-145050000D03*
X76537500Y-145550000D03*
X76537500Y-146050000D03*
D16*
X59100000Y-143000000D03*
X59100000Y-141865000D03*
D17*
X58000000Y-145802500D03*
X58000000Y-146997500D03*
D18*
X63300000Y-145832500D03*
X63300000Y-146967500D03*
D19*
X59650000Y-149600000D03*
X62150000Y-149600000D03*
D20*
X87600000Y-147697500D03*
X87600000Y-146502500D03*
D21*
X52900000Y-146100000D03*
D22*
X52900000Y-140100000D03*
D23*
X49800000Y-144500000D03*
X49800000Y-141700000D03*
D24*
X54000000Y-140000000D03*
X54000000Y-140750000D03*
D25*
X54000000Y-141350000D03*
X54000000Y-142850000D03*
X54000000Y-143850000D03*
X54000000Y-144850000D03*
D24*
X54000000Y-145450000D03*
X54000000Y-146200000D03*
X54000000Y-146200000D03*
X54000000Y-145450000D03*
D25*
X54000000Y-144350000D03*
X54000000Y-143350000D03*
X54000000Y-142350000D03*
X54000000Y-141850000D03*
D24*
X54000000Y-140750000D03*
X54000000Y-140000000D03*
D26*
X49800000Y-147420000D03*
D27*
X53625000Y-147420000D03*
D26*
X49800000Y-138780000D03*
D27*
X53625000Y-138780000D03*
D28*
X82267500Y-149550000D03*
X81132500Y-149550000D03*
D16*
X74600000Y-146967500D03*
X74600000Y-145832500D03*
D29*
X54797500Y-149300000D03*
X53602500Y-149300000D03*
D12*
X65902500Y-138300000D03*
X67097500Y-138300000D03*
X68402500Y-138300000D03*
X69597500Y-138300000D03*
D16*
X71600000Y-147135000D03*
X71600000Y-146000000D03*
D30*
X98300000Y-139800000D03*
D31*
X99300000Y-139800000D03*
X98300000Y-140800000D03*
X99300000Y-140800000D03*
X98300000Y-141800000D03*
X99300000Y-141800000D03*
X98300000Y-142800000D03*
X99300000Y-142800000D03*
D30*
X91400000Y-141800000D03*
D31*
X92400000Y-141800000D03*
X91400000Y-142800000D03*
X92400000Y-142800000D03*
X91400000Y-143800000D03*
X92400000Y-143800000D03*
X91400000Y-144800000D03*
X92400000Y-144800000D03*
D32*
X77582500Y-137400000D03*
X78717500Y-137400000D03*
D33*
X102975000Y-141100000D03*
X102325000Y-141100000D03*
X101675000Y-141100000D03*
X101025000Y-141100000D03*
X101025000Y-145500000D03*
X101675000Y-145500000D03*
X102325000Y-145500000D03*
X102975000Y-145500000D03*
D16*
X99700000Y-145467500D03*
X99700000Y-144332500D03*
D34*
X58000000Y-144082500D03*
X58000000Y-144782500D03*
D35*
X70000000Y-148957500D03*
X70000000Y-148322500D03*
X70000000Y-147687500D03*
X70000000Y-147052500D03*
X70000000Y-146417500D03*
X70000000Y-145782500D03*
X70000000Y-145147500D03*
X70000000Y-144512500D03*
X70000000Y-143877500D03*
X70000000Y-143242500D03*
X64800000Y-143242500D03*
X64800000Y-143877500D03*
X64800000Y-144512500D03*
X64800000Y-145147500D03*
X64800000Y-145782500D03*
X64800000Y-146417500D03*
X64800000Y-147052500D03*
X64800000Y-147687500D03*
X64800000Y-148322500D03*
X64800000Y-148957500D03*
D18*
X62300000Y-145832500D03*
X62300000Y-146967500D03*
D20*
X60200000Y-141897500D03*
X60200000Y-140702500D03*
D32*
X73332500Y-138300000D03*
X74467500Y-138300000D03*
D36*
X63325000Y-135600000D03*
D37*
X65865000Y-135600000D03*
X68405000Y-135600000D03*
X70945000Y-135600000D03*
X73485000Y-135600000D03*
D12*
X70902500Y-138300000D03*
X72097500Y-138300000D03*
D28*
X82267500Y-150600000D03*
X81132500Y-150600000D03*
D36*
X82025000Y-135650000D03*
D37*
X84565000Y-135650000D03*
D12*
X60202500Y-143032500D03*
X61397500Y-143032500D03*
D32*
X100732500Y-147200000D03*
X101867500Y-147200000D03*
X85182500Y-139200000D03*
X86317500Y-139200000D03*
D18*
X59100000Y-144165000D03*
X59100000Y-145300000D03*
D20*
X61200000Y-146997500D03*
X61200000Y-145802500D03*
D32*
X61232500Y-148100000D03*
X62367500Y-148100000D03*
M02*
