G04 #@! TF.GenerationSoftware,KiCad,Pcbnew,(6.0.1)*
G04 #@! TF.CreationDate,2023-03-18T21:45:00+01:00*
G04 #@! TF.ProjectId,usb-magnetometer,7573622d-6d61-4676-9e65-746f6d657465,rev?*
G04 #@! TF.SameCoordinates,Original*
G04 #@! TF.FileFunction,Profile,NP*
%FSLAX46Y46*%
G04 Gerber Fmt 4.6, Leading zero omitted, Abs format (unit mm)*
G04 Created by KiCad (PCBNEW (6.0.1)) date 2023-03-18 21:45:00*
%MOMM*%
%LPD*%
G01*
G04 APERTURE LIST*
G04 #@! TA.AperFunction,Profile*
%ADD10C,0.100000*%
G04 #@! TD*
G04 APERTURE END LIST*
D10*
X96800000Y-138400000D02*
X96800000Y-140800000D01*
X93800000Y-150950000D02*
X93800000Y-146100000D01*
X96800000Y-146100000D02*
G75*
G03*
X93800000Y-146100000I-1500000J0D01*
G01*
X93800000Y-140800000D02*
G75*
G03*
X96800000Y-140800000I1500000J0D01*
G01*
X96800000Y-146100000D02*
X96800000Y-148200000D01*
X89200000Y-151250000D02*
G75*
G03*
X88900000Y-151550000I0J-300000D01*
G01*
X51100000Y-152700000D02*
G75*
G03*
X51400000Y-153000000I300000J0D01*
G01*
X88600000Y-133250000D02*
X51400000Y-133250000D01*
X88600000Y-153000000D02*
G75*
G03*
X88900000Y-152700000I0J300000D01*
G01*
X51400000Y-133250000D02*
G75*
G03*
X51100000Y-133550000I0J-300000D01*
G01*
X107600000Y-138400000D02*
G75*
G03*
X107200000Y-138000000I-399999J1D01*
G01*
X107200000Y-148600000D02*
G75*
G03*
X107600000Y-148200000I1J399999D01*
G01*
X51100000Y-149750000D02*
G75*
G03*
X50800000Y-149450000I-300000J0D01*
G01*
X48400000Y-136750000D02*
G75*
G03*
X48100000Y-137050000I0J-300000D01*
G01*
X93500000Y-151250000D02*
G75*
G03*
X93800000Y-150950000I0J300000D01*
G01*
X51100000Y-149750000D02*
X51100000Y-152700000D01*
X54200000Y-135100000D02*
G75*
G03*
X54200000Y-135100000I-1000000J0D01*
G01*
X93500000Y-134950000D02*
X89200000Y-134950000D01*
X97200000Y-138000000D02*
G75*
G03*
X96800000Y-138400000I-1J-399999D01*
G01*
X93800000Y-135250000D02*
G75*
G03*
X93500000Y-134950000I-300000J0D01*
G01*
X48400000Y-149450000D02*
X50800000Y-149450000D01*
X88900000Y-134650000D02*
X88900000Y-133550000D01*
X96800000Y-148200000D02*
G75*
G03*
X97200000Y-148600000I399999J-1D01*
G01*
X88900000Y-134650000D02*
G75*
G03*
X89200000Y-134950000I300000J0D01*
G01*
X51400000Y-153000000D02*
X88600000Y-153000000D01*
X51100000Y-136450000D02*
X51100000Y-133550000D01*
X48100000Y-149150000D02*
G75*
G03*
X48400000Y-149450000I300000J0D01*
G01*
X88900000Y-152700000D02*
X88900000Y-151550000D01*
X89200000Y-151250000D02*
X93500000Y-151250000D01*
X88900000Y-133550000D02*
G75*
G03*
X88600000Y-133250000I-300000J0D01*
G01*
X87200000Y-151100000D02*
G75*
G03*
X87200000Y-151100000I-1000000J0D01*
G01*
X48100000Y-149150000D02*
X48100000Y-137050000D01*
X48400000Y-136750000D02*
X50800000Y-136750000D01*
X107600000Y-148200000D02*
X107600000Y-138400000D01*
X97200000Y-148600000D02*
X107200000Y-148600000D01*
X93800000Y-140800000D02*
X93800000Y-135250000D01*
X107200000Y-138000000D02*
X97200000Y-138000000D01*
X50800000Y-136750000D02*
G75*
G03*
X51100000Y-136450000I0J300000D01*
G01*
M02*
