%TF.GenerationSoftware,KiCad,Pcbnew,(6.0.1)*%
%TF.CreationDate,2022-11-23T23:22:51+01:00*%
%TF.ProjectId,usb-magnetometer,7573622d-6d61-4676-9e65-746f6d657465,rev?*%
%TF.SameCoordinates,Original*%
%TF.FileFunction,Profile,NP*%
%FSLAX46Y46*%
G04 Gerber Fmt 4.6, Leading zero omitted, Abs format (unit mm)*
G04 Created by KiCad (PCBNEW (6.0.1)) date 2022-11-23 23:22:51*
%MOMM*%
%LPD*%
G01*
G04 APERTURE LIST*
%TA.AperFunction,Profile*%
%ADD10C,0.100000*%
%TD*%
G04 APERTURE END LIST*
D10*
X88200000Y-151250000D02*
G75*
G03*
X87900000Y-151550000I0J-300000D01*
G01*
X50100000Y-152700000D02*
G75*
G03*
X50400000Y-153000000I300000J0D01*
G01*
X87600000Y-133250000D02*
X50400000Y-133250000D01*
X87600000Y-153000000D02*
G75*
G03*
X87900000Y-152700000I0J300000D01*
G01*
X91600000Y-147100000D02*
X136600000Y-147100000D01*
X50400000Y-133250000D02*
G75*
G03*
X50100000Y-133550000I0J-300000D01*
G01*
X50100000Y-149750000D02*
G75*
G03*
X49800000Y-149450000I-300000J0D01*
G01*
X136600000Y-147100000D02*
G75*
G03*
X136900000Y-146800000I0J300000D01*
G01*
X48400000Y-136750000D02*
G75*
G03*
X48100000Y-137050000I0J-300000D01*
G01*
X91300000Y-147400000D02*
X91300000Y-150950000D01*
X91000000Y-151250000D02*
G75*
G03*
X91300000Y-150950000I0J300000D01*
G01*
X50100000Y-149750000D02*
X50100000Y-152700000D01*
X53700000Y-135100000D02*
G75*
G03*
X53700000Y-135100000I-1000000J0D01*
G01*
X91000000Y-134950000D02*
X88200000Y-134950000D01*
X136900000Y-139400000D02*
G75*
G03*
X136600000Y-139100000I-300000J0D01*
G01*
X91300000Y-135250000D02*
G75*
G03*
X91000000Y-134950000I-300000J0D01*
G01*
X48400000Y-149450000D02*
X49800000Y-149450000D01*
X87900000Y-134650000D02*
X87900000Y-133550000D01*
X136600000Y-139100000D02*
X91600000Y-139100000D01*
X91300000Y-138800000D02*
G75*
G03*
X91600000Y-139100000I300000J0D01*
G01*
X91600000Y-147100000D02*
G75*
G03*
X91300000Y-147400000I0J-300000D01*
G01*
X87900000Y-134650000D02*
G75*
G03*
X88200000Y-134950000I300000J0D01*
G01*
X50400000Y-153000000D02*
X87600000Y-153000000D01*
X50100000Y-136450000D02*
X50100000Y-133550000D01*
X48100000Y-149150000D02*
G75*
G03*
X48400000Y-149450000I300000J0D01*
G01*
X91300000Y-138800000D02*
X91300000Y-135250000D01*
X87900000Y-152700000D02*
X87900000Y-151550000D01*
X88200000Y-151250000D02*
X91000000Y-151250000D01*
X87900000Y-133550000D02*
G75*
G03*
X87600000Y-133250000I-300000J0D01*
G01*
X86700000Y-151100000D02*
G75*
G03*
X86700000Y-151100000I-1000000J0D01*
G01*
X48100000Y-149150000D02*
X48100000Y-137050000D01*
X48400000Y-136750000D02*
X49800000Y-136750000D01*
X136900000Y-146800000D02*
X136900000Y-139400000D01*
X49800000Y-136750000D02*
G75*
G03*
X50100000Y-136450000I0J300000D01*
G01*
M02*
